<svg width="512" height="512" viewBox="0 0 512 512" fill="none" xmlns="http://www.w3.org/2000/svg">
<g id="emfull">
<path id="emtext" d="M243.38 262.979C244.363 262.112 244.031 261.984 244.495 260.982L245.531 259.184L246.318 256.388C246.65 255.528 247.076 255.292 247.402 254.391C247.719 253.513 247.628 252.762 248.003 251.995C248.31 251.366 248.718 251.007 249.033 250.198L249.705 247.602L250.712 246.004L251.827 243.608C253.195 245.273 252.857 246.391 252.857 248.4V256.388C252.855 257.369 252.892 258.561 251.987 259.216C251.25 259.751 250.092 259.614 249.721 260.594C249.48 261.227 249.775 262.561 250.455 262.865C250.749 262.995 251.295 262.977 251.621 262.979H258.831C259.95 262.977 261.252 262.989 261.762 261.772C261.851 261.485 261.9 261.113 261.762 260.818C261.398 259.777 259.752 259.847 258.854 259.22C257.791 258.481 257.803 257.129 257.801 255.989V246.004C257.813 245.129 257.836 244.159 258.654 243.61C259.737 242.879 260.947 243.665 261.085 242.01C261.14 241.359 261.091 240.586 260.448 240.217C259.937 239.923 258.442 240.013 257.801 240.013H251.827C251.31 240.015 250.652 239.975 250.189 240.217C249.587 240.532 248.302 242.555 248.075 243.208L247.682 245.005C247.389 246.25 246.839 246.419 246.477 247.402C246.048 248.554 246.378 249.786 244.812 251.396C244.25 251.971 243.91 252.257 243.174 252.594L242.099 249.199L241.057 247.402L240.577 245.205C240.29 244.398 239.825 243.925 239.464 243.208C238.844 241.97 239.227 240.94 238.379 240.416C237.962 240.159 236.106 240.021 235.552 240.013H229.784C228.266 240.015 227.048 240.117 227.343 242.01C227.609 243.719 229.553 242.991 230.165 244.614C230.491 245.473 230.402 247.42 230.402 248.4V255.789C230.4 257.157 230.359 257.9 229.31 258.947C228.511 259.745 227.755 259.801 227.435 260.592C227.106 261.411 227.477 262.527 228.35 262.859C228.878 263.06 232.856 262.991 233.698 262.979C234.961 262.957 236.09 262.433 235.865 260.982C235.715 260.013 234.642 259.686 234.038 258.949C233.358 258.118 233.29 257.195 233.286 256.189V247.003C233.288 246.21 233.222 245.055 234.316 244.922C234.685 244.876 234.965 245.011 235.212 245.269C235.892 245.976 235.762 247.42 236.209 248.344C236.465 248.87 236.937 249.295 237.307 250.198L237.872 252.594C238.17 253.391 238.615 253.694 238.91 254.391L239.613 256.988C240 257.968 240.362 258.156 240.669 258.785C241.034 259.53 240.912 260.588 241.353 261.377C241.796 262.174 242.633 262.511 243.38 262.979ZM65.8022 250.597C64.7619 249.95 64.5785 249.816 63.3301 249.798C62.4896 249.788 61.579 249.932 60.9033 249.337C59.8754 248.426 59.6405 244.63 60.5346 243.654C61.1876 242.939 62.0261 243.01 62.9181 243.008C64.3643 243.006 67.3575 242.751 68.4329 243.693C69.5556 244.674 68.6451 245.776 69.7472 246.256C71.0616 246.829 71.9597 246.118 71.9824 244.806V242.21C71.9824 241.788 72.0318 241.077 71.7785 240.726C71.2243 239.961 68.5895 240.213 67.6563 240.213H54.2658C53.2296 240.215 52.2119 240.143 52.0306 241.411C51.7504 243.366 53.4603 242.833 54.443 243.552C55.2423 244.139 55.2835 245.311 55.2958 246.204V255.989C55.2938 257.193 55.2402 258.409 54.2225 259.272C53.553 259.841 52.7352 259.903 52.3479 260.436C52.1274 260.74 52.1357 261.03 52.1625 261.381C52.2675 262.709 52.9041 262.577 54.0598 262.579H69.9223C70.3735 262.579 71.1254 262.621 71.5065 262.376C72.2234 261.912 71.9845 259.596 71.9824 258.785C71.9803 257.637 71.7002 255.803 69.9615 256.508C68.7831 256.986 69.2384 258.505 67.854 259.472C66.8178 260.195 64.2283 259.985 62.9181 259.983C62.0508 259.981 61.3689 260.053 60.7406 259.354C59.9001 258.423 60.0319 256.754 60.034 255.59C60.036 254.427 60.0443 253.221 61.2742 252.598C62.7718 251.841 64.9102 253.083 65.8022 250.597ZM85.9909 260.582C85.4821 260.259 84.6003 259.765 84.2254 259.342C83.3561 258.368 83.5168 256.61 83.5188 255.39C83.5209 254.244 83.8422 251.911 85.5789 252.243C87.3691 252.582 87.4433 253.569 88.2529 254.757C88.6237 255.302 88.9945 255.522 89.287 256.191C89.5177 256.72 89.4868 257.217 89.7917 257.752L90.9083 259.186L91.5819 260.964C92.3565 262.246 93.4319 262.577 94.8492 262.579C95.7948 262.581 99.0188 262.779 99.6183 262.21C99.9685 261.876 100.109 261.042 100.205 260.582C97.9702 259.721 97.4119 260.125 96.7465 259.749C96.4272 259.568 94.6823 257.537 94.5011 257.185C94.2085 256.618 94.2394 256.031 93.8892 255.492C93.4072 254.747 92.064 253.976 92.4678 252.394C92.8015 251.09 94.4949 250.116 95.2818 249.081C95.7371 248.48 95.8689 247.14 95.8792 246.403C95.9081 243.853 95.5517 243.442 93.6173 241.726C93.2053 241.361 92.6532 240.76 92.1526 240.56C91.2173 240.185 88.3353 240.213 87.2269 240.213H77.9566C76.9348 240.215 75.3012 240.133 75.1034 241.419C74.8418 243.126 76.3745 242.689 77.2912 243.494C78.0287 244.139 77.9546 244.93 77.9566 245.804V256.388C77.9546 257.391 77.9587 258.547 77.25 259.358C76.4878 260.231 74.4009 260.295 75.3959 261.93C75.8059 262.601 76.6299 262.569 77.3386 262.579H83.7248C84.176 262.579 84.9279 262.621 85.309 262.376C85.8034 262.056 85.8508 261.129 85.9909 260.582ZM117.51 253.193C116.913 252.544 115.067 249.958 114.801 249.199C114.539 248.45 114.686 247.689 114.286 246.803L113.213 245.005C112.595 243.47 113.307 243.076 111.705 241.185C111.394 240.82 111.175 240.544 110.704 240.36C110.256 240.187 109.55 240.213 109.064 240.213H103.502C102.48 240.215 100.846 240.133 100.648 241.419C100.397 243.056 101.763 242.677 102.614 243.492C103.238 244.089 103.285 245.201 103.296 246.004V255.789C103.293 256.652 103.209 258.667 102.7 259.342C102.024 260.237 100.85 260.089 100.72 261.004C100.595 261.874 101.248 262.433 102.064 262.561H107.416C108.409 262.577 109.132 262.741 109.27 261.577C109.296 261.375 109.317 260.986 109.27 260.794C109.049 259.973 108.26 260.039 107.622 259.721C107.032 259.428 106.585 258.977 106.324 258.385C105.885 257.391 105.974 255.686 105.974 254.591V247.402C105.976 246.559 106.033 245.157 106.449 244.414C106.929 243.556 107.459 243.669 107.962 244.414L109.818 247.402L110.3 249.599C110.619 250.383 111.148 250.769 111.49 251.795L111.907 253.984C112.267 255.048 113.021 255.11 113.322 256.388C113.516 257.203 113.516 257.978 113.886 258.785C114.204 259.474 114.618 259.781 114.912 260.582C115.131 261.181 115.131 262.222 115.72 262.437C115.944 262.525 116.251 262.487 116.478 262.437C118.348 261.966 117.64 259.731 118.62 258.403C118.892 258.034 119.226 257.792 119.42 257.353L120.011 254.591C120.343 253.768 120.847 253.443 121.165 252.594C121.496 251.709 121.331 250.999 121.675 250.198C122.009 249.427 122.528 249.103 122.813 248.382L123.422 245.804C123.655 245.281 125.375 243.638 126.006 244.005C126.589 244.346 126.57 245.433 126.574 246.004V250.797V255.989C126.572 257.333 126.537 258.128 125.505 259.162C124.661 260.011 123.993 259.935 123.754 260.792C123.618 261.287 123.618 262.166 124.162 262.431C124.572 262.633 125.859 262.579 126.368 262.579H131.518C132.619 262.577 134.057 262.659 134.1 261.189C134.129 260.149 133.004 260.275 132.252 259.506C131.492 258.733 131.521 257.776 131.518 256.788V245.605C131.521 244.754 131.446 244.113 132.167 243.492C133.064 242.715 134.411 243.018 134.166 241.419C133.968 240.133 132.334 240.215 131.312 240.213H125.75C124.075 240.215 122.588 240.402 122.001 242.21C121.739 243.02 121.96 243.566 121.537 244.406L120.542 246.004L119.953 248.6C119.624 249.405 119.193 249.621 118.861 250.232C118.342 251.188 118.791 251.134 117.51 253.193ZM141.232 240.416C140.814 240.776 140.696 240.832 140.614 241.411C140.303 243.588 142.754 242.859 143.201 244.049C143.372 244.504 142.923 245.157 142.769 245.605L142.227 249C141.835 250.721 141.25 250.613 140.824 251.995C140.474 253.135 140.673 253.653 140.486 254.591C140.243 255.811 139.769 256.031 139.339 256.988C139.011 257.718 138.984 258.481 138.494 259.162C137.419 260.656 134.135 259.468 134.778 261.573C135.087 262.585 135.958 262.567 136.875 262.579H143.261C144.386 262.577 145.063 262.703 145.187 261.381C145.22 261.026 145.218 260.74 144.983 260.442C144.489 259.809 142.383 259.684 142.478 257.988C142.509 257.423 142.872 257.036 143.123 256.554C143.42 255.989 143.578 255.336 144.13 254.939C144.874 254.401 147.612 254.573 148.617 254.591C149.165 254.601 149.573 254.599 150.051 254.911C151.023 255.544 151.81 257.691 151.378 258.777C151.013 259.696 150.02 259.771 149.565 260.281C149.282 260.598 149.243 260.978 149.243 261.379C149.239 262.567 149.841 262.565 150.883 262.579H157.063C158.196 262.577 159.552 262.565 159.247 260.99C159.099 260.231 158.285 260.015 157.749 259.564C157.37 259.244 156.248 257.808 156 257.387C155.259 256.129 155.592 254.631 155.18 253.593C154.832 252.716 154.192 252.269 153.893 251.196C153.654 250.334 153.879 249.569 153.386 248.4C152.939 247.34 152.115 246.829 152.125 245.005C152.13 244.277 152.253 243.634 152.966 243.242C153.668 242.859 155.805 243.224 155.145 241.041C154.888 240.195 153.081 240.223 152.325 240.213H145.115C143.972 240.213 142.27 240.059 141.232 240.416ZM160.566 260.582C160.654 261.045 160.747 261.904 161.099 262.232C161.515 262.619 162.294 262.577 162.832 262.579H168.806C170.141 262.577 171.049 262.415 170.596 260.794C170.209 259.408 168.649 260.534 167.79 258.781C167.395 257.974 167.366 256.868 167.364 255.989V249.998C167.366 249.209 167.364 247.166 168.217 246.785C168.421 246.695 168.577 246.699 168.781 246.785C168.962 246.863 170.905 248.96 171.043 249.201L171.717 250.941L172.751 252.197C173.115 252.726 173.183 253.081 173.451 253.593L174.405 254.991L175.07 256.355L176.138 257.788L176.885 259.35L177.856 260.59L178.544 262.118C179.077 262.845 182.042 263.049 182.691 262.431C183.09 262.052 183.018 261.287 183.02 260.782V246.603C183.022 245.724 182.983 244.376 183.702 243.737C184.769 242.789 186.784 243.37 186.492 241.413C186.318 240.251 185.233 240.225 184.256 240.213H179.724C178.766 240.225 177.46 240.267 177.283 241.419C177.05 242.939 178.181 242.701 179.094 243.348C179.848 243.881 179.914 244.364 179.93 245.205V250.597C179.922 251.292 179.629 253.834 178.327 253.067C177.701 252.698 177.522 251.504 177.087 250.853L176.249 249.79L175.464 248.4L174.59 247.202L173.929 245.639C173.552 245.033 173.072 244.856 172.629 244.007C171.778 242.383 172.489 243.316 171.208 241.593C170.413 240.522 170.54 240.241 169.012 240.213H163.244C162.17 240.215 161.291 240.101 161.196 241.411C161.177 241.678 161.196 242.136 161.307 242.379C161.668 243.186 162.556 242.895 163.244 243.156C164.473 243.622 164.478 244.514 164.48 245.605V256.788C164.478 257.667 164.511 258.609 163.893 259.328C163.081 260.273 162.461 259.582 160.566 260.582ZM198.265 240.255C196.372 240.622 196.961 240.838 195.587 241.595C195.026 241.902 194.499 241.94 193.974 242.322C193.584 242.603 192.169 244.015 191.934 244.414L191.382 245.597C190.933 246.373 190.515 246.465 190.243 247.404C189.913 248.538 190.018 251.476 190.025 252.794C190.029 253.513 190.138 255.144 190.47 255.755L191.271 256.806C192.126 258.038 191.889 257.942 193.078 259.166C193.582 259.686 194.38 260.56 195.004 260.898L197.235 261.607C198.564 262.124 198.609 262.749 201.149 262.779C202.408 262.793 204.762 262.877 205.887 262.511C206.699 262.248 206.991 261.84 207.741 261.555C208.493 261.269 209.206 261.339 209.972 260.84C210.697 260.369 212.492 258.657 212.996 257.986L213.711 256.796C214.084 256.239 214.478 255.989 214.743 255.372C215.079 254.587 215.153 253.635 215.157 252.794C215.164 251.46 215.219 248.812 214.863 247.602C214.634 246.817 214.094 246.463 213.682 245.804C212.811 244.416 213.689 245.025 212.106 243.376L211.328 242.521C210.846 242.112 210.182 242.042 209.597 241.728C208.786 241.291 208.573 240.82 207.929 240.558C207.284 240.299 205.593 240.215 204.857 240.255H198.265ZM271.809 260.582C271.134 260.209 270.207 259.833 269.813 259.164C269.494 258.617 269.529 257.804 269.545 257.187C269.599 255.232 270.499 254.615 272.427 254.591C273.451 254.579 275.672 254.487 276.548 254.821C278.259 255.47 279.133 257.591 278.134 259.158C277.318 260.436 275.954 259.524 275.425 260.612C275.338 260.89 275.33 261.281 275.425 261.577C275.596 262.701 276.432 262.577 277.372 262.579H285.2L287.672 262.415L290.144 262.579H296.53C297.496 262.577 298.475 262.735 298.695 261.573C298.755 261.247 298.753 260.92 298.582 260.624C298.281 260.099 297.651 259.975 297.105 259.342C296.335 258.449 296.133 257.313 296.153 256.189C296.114 255.723 296.1 254.819 296.153 254.391C296.499 252.882 297.626 251.869 299.208 252.498C299.581 252.646 299.886 252.774 300.183 253.053C300.675 253.519 300.758 254.048 301.079 254.591L302.165 256.189L302.661 257.579L303.854 259.192L304.359 260.764C304.929 261.994 306.126 262.561 307.449 262.579C308.102 262.587 311.097 262.653 311.505 262.459C312.109 262.172 312.1 260.924 311.771 260.444C311.282 259.737 310.409 260.221 309.571 259.636C309.202 259.38 307.56 257.581 307.36 257.185L306.767 255.432C306.295 254.665 305.45 254.607 305.356 252.994C305.267 251.498 307.222 250.208 308.124 249.097C308.629 248.474 308.674 247.564 308.639 246.803C308.691 246.254 308.722 244.654 308.639 244.207C308.314 243.204 305.939 240.948 304.958 240.558C303.85 240.119 300.723 240.213 299.414 240.213C295.517 240.213 291.508 239.913 287.672 240.612C287.672 241.079 287.598 242.13 287.882 242.493C288.179 242.869 289.06 242.941 289.526 243.104C290.774 243.542 290.952 244.229 290.968 245.405V256.388C290.966 257.363 290.972 258.565 290.261 259.34C289.149 260.552 287.631 260.251 286.23 260.041C285.241 259.893 284.569 259.973 283.82 259.158C283.175 258.455 283.272 257.768 282.936 256.988C282.571 256.135 282.151 255.925 281.788 254.791C281.378 253.503 281.58 252.99 281.383 252.195C281.139 251.226 280.596 250.843 280.215 249.998C279.794 249.067 279.895 248.354 279.716 247.402C279.364 245.517 278.451 245.039 278.624 244.215C278.902 242.869 280.874 243.5 281.368 242.381C281.479 242.132 281.498 241.68 281.479 241.411C281.385 240.101 280.505 240.215 279.432 240.213H268.925C267.836 240.215 266.987 240.099 266.878 241.411C266.682 243.755 268.116 242.537 269.308 243.354C270.093 243.891 270.056 244.778 269.912 245.605C269.729 246.673 269.096 247.082 268.732 248.201C268.373 249.293 268.639 250.254 268.2 251.588C267.897 252.512 267.366 252.742 267.047 253.593C266.635 254.689 266.824 256.384 266.336 257.387C266.045 257.984 265.102 259.076 264.581 259.506C264.02 259.967 263.194 260.215 263.023 260.99C262.704 262.445 263.915 262.573 265.011 262.579H269.337C269.914 262.579 270.808 262.649 271.247 262.232C271.605 261.89 271.717 261.053 271.809 260.582ZM322.281 240.277C320.404 240.66 321.012 240.906 319.801 241.595C319.247 241.91 318.732 241.932 318.196 242.322C317.833 242.583 316.587 243.847 316.363 244.225L315.839 245.403C315.03 246.867 314.457 246.204 314.453 249V253.792C314.457 256.281 314.735 255.57 315.897 257.387L316.527 258.567C316.719 258.859 318.357 260.558 318.639 260.732C319.327 261.155 320.672 261.319 321.455 261.653C322.749 262.204 322.673 262.753 324.959 262.779C326.253 262.793 328.525 262.883 329.697 262.545C330.732 262.246 330.921 261.882 331.757 261.551L333.783 260.95C334.835 260.361 335.696 259.168 336.302 258.186C336.673 257.585 337.672 256.55 337.53 255.815C337.367 254.965 334.658 254.164 333.7 254.939C333.257 255.296 333.208 255.845 332.847 256.38C332.563 256.802 331.741 257.601 331.327 257.916L328.461 259.586C328.138 259.739 327.788 259.811 327.431 259.847C325.872 260.005 325.524 259.436 324.341 258.799L323.113 258.218C322.489 257.826 321.101 256.444 320.808 255.789L320.198 253.792C319.836 252.864 319.418 252.484 319.414 251.396C319.407 250.178 319.848 249.641 320.271 248.6C320.61 247.763 320.751 246.757 321.249 246.012C321.645 245.419 322.139 245.095 322.675 244.646C324.92 242.765 324.932 243.004 327.843 243.008C328.766 243.01 329.891 243 330.674 243.544C331.642 244.221 333.379 246.465 334.234 246.723C336.178 247.312 336.693 245.968 336.691 244.406V242.409V241.401C336.279 239.11 333.368 241.609 332.235 241.401C331.605 241.255 331.424 240.614 330.109 240.277C329.417 240.163 327.806 240.213 327.019 240.277H322.281ZM340.616 242.609C341.572 242.821 342.736 243.07 343.189 244.015C343.607 244.888 343.5 246.981 343.5 248.001V255.989C343.496 256.636 343.364 258.429 343.119 258.977C342.688 259.933 341.535 260.225 340.616 260.582C340.772 261.143 340.991 261.99 341.526 262.322C342.006 262.619 342.935 262.579 343.5 262.579H349.268C350.208 262.577 351.044 262.701 351.215 261.577C351.312 261.275 351.299 260.894 351.215 260.608C350.774 259.69 349.394 259.875 348.561 258.186C348.267 257.589 348.246 257.033 348.238 256.388C348.215 254.493 348.094 253.173 350.092 252.149C350.982 251.691 352.189 251.783 353.182 251.795C355.5 251.825 356.876 253.151 356.89 255.39C356.897 256.5 356.998 257.377 356.404 258.385C355.409 260.071 354.33 259.674 353.924 260.608C353.815 260.858 353.794 261.305 353.813 261.577C353.897 262.737 354.701 262.577 355.654 262.579H362.247C362.778 262.573 363.746 262.563 364.154 262.2C364.591 261.81 364.511 260.916 364.513 260.382C363.584 260.201 362.434 260.037 361.927 259.162C361.589 258.577 361.431 256.894 361.423 256.189V247.003C361.425 246.363 361.526 244.556 361.75 244.015C362.253 242.815 363.612 243.122 364.183 242.623C364.628 242.234 364.513 241.161 364.513 240.612C363.361 240.402 362.838 240.227 361.629 240.213H355.654C354.604 240.219 353.914 240.193 353.813 241.411C353.607 243.875 355.37 242.469 356.46 244.215C356.89 244.902 356.919 245.82 356.886 246.603C356.824 248.107 355.459 249.173 354.006 249.557C353.557 249.623 352.643 249.605 352.152 249.557C349.754 249.571 348.185 248.412 348.24 246.004C348.255 245.441 348.331 244.526 348.646 244.049C349.332 243.018 350.786 243.326 351.205 242.381C351.316 242.132 351.334 241.682 351.316 241.411C351.221 240.101 350.341 240.215 349.268 240.213H343.706C342.884 240.215 341.355 240.217 340.82 240.942C340.55 241.307 340.616 242.16 340.616 242.609ZM381.199 250.597C380.458 250.22 379.994 249.9 379.139 249.818C378.342 249.742 377.178 249.932 376.48 249.565C374.99 248.776 375.223 246.983 375.225 245.605C375.227 244.882 375.157 244.229 375.701 243.654C376.372 242.945 377.209 243.01 378.109 243.008C379.417 243.006 382.427 242.797 383.418 243.552C384.594 244.446 383.517 245.944 385.117 246.341C386.663 246.723 387.155 245.934 387.173 244.606V242.21C387.157 239.775 386.082 240.213 382.847 240.213H369.457C368.421 240.215 367.403 240.143 367.222 241.411C366.939 243.38 368.672 242.833 369.64 243.524C370.547 244.173 370.485 245.033 370.487 246.004V256.189C370.485 257.397 370.481 258.445 369.434 259.3C368.738 259.871 367.941 259.881 367.555 260.436C367.353 260.728 367.36 261.046 367.378 261.381C367.45 262.715 368.097 262.577 369.251 262.579H385.113C385.534 262.579 386.302 262.627 386.642 262.376C387.309 261.88 387.176 259.576 387.173 258.785C387.171 257.8 387.227 256.604 385.929 256.418C383.704 256.101 384.59 258.377 383.043 259.472C382.132 260.115 378.237 260.143 377.079 259.937C376.515 259.839 376.101 259.604 375.742 259.162C375.029 258.286 375.223 256.49 375.225 255.39C375.225 254.787 375.186 253.966 375.495 253.431C376.29 252.057 378.968 252.36 379.757 252.075C380.509 251.805 380.874 251.26 381.199 250.597ZM394.384 260.582C394.524 261.121 394.606 262.054 395.09 262.376C395.537 262.673 397.089 262.579 397.68 262.579H404.066C405.15 262.577 406.868 262.575 406.641 261.004C406.532 260.233 405.621 260.153 404.89 259.785C404.004 259.338 403.409 258.699 403.063 257.786C402.719 256.878 402.83 255.023 402.83 253.992V247.003C402.832 246.136 402.855 244.756 403.392 244.033C404.264 242.865 406.921 242.565 407.828 243.829C408.784 245.161 407.335 247.905 409.224 248.171C409.834 248.257 410.526 248.119 410.86 247.572C411.109 247.162 411.07 246.473 411.07 246.004V242.409C411.07 241.94 411.109 241.251 410.86 240.842C410.294 239.911 407.77 240.213 406.744 240.213H393.354C392.635 240.215 391.528 240.151 391.005 240.714C390.636 241.109 390.68 241.712 390.676 242.21V246.004C390.676 246.447 390.63 247.146 390.886 247.512C391.448 248.35 392.958 248.033 393.35 247.512C393.648 247.09 393.553 245.926 393.56 245.405C393.57 244.75 393.572 244.179 394.06 243.683C394.876 242.799 396.78 242.773 397.556 243.683C397.972 244.203 398.084 245.934 398.092 246.603V255.989C398.088 256.758 397.983 258.322 397.616 258.981C396.784 260.47 396.102 259.458 394.384 260.582ZM415.396 240.317C414.968 240.432 414.438 240.534 414.165 240.914C413.907 241.269 413.954 241.982 413.954 242.409V246.204C413.958 247.001 413.888 247.566 414.789 247.897C415.417 248.127 416.023 248.027 416.303 247.38C416.569 246.767 416.214 244.84 417.133 243.913C418.054 242.983 420.314 242.575 421.266 243.654C421.838 244.303 421.781 245.205 421.783 246.004V254.791C421.783 255.923 421.898 258.004 421.338 258.977C420.481 260.464 419.084 259.56 418.499 260.612C418.221 261.111 418.396 262.194 418.962 262.459C419.216 262.579 419.648 262.573 419.929 262.579H427.757C428.888 262.577 430.245 262.565 429.941 260.99C429.737 259.947 428.616 260.101 427.765 259.482C426.642 258.663 426.527 257.641 426.521 256.388V246.004C426.523 245.221 426.457 244.476 427.021 243.835C427.93 242.807 430.662 242.683 431.519 243.835C432.495 245.147 430.94 247.877 433.113 248.171C433.71 248.251 434.339 248.155 434.609 247.572C434.876 246.999 434.763 243.112 434.761 242.21C434.761 241.772 434.804 241.043 434.551 240.674C434.061 239.963 431.129 240.213 430.229 240.213H420.753L415.396 240.317ZM437.676 240.416C437.258 240.776 437.14 240.832 437.058 241.411C436.761 243.484 438.605 242.761 439.495 243.212C440.55 243.745 440.527 244.61 440.529 245.605V256.788C440.527 257.804 440.535 259.204 439.477 259.779C438.78 260.157 437.697 259.749 437.264 260.612C437.176 260.87 437.196 261.299 437.264 261.577C437.371 262.741 438.094 262.577 439.087 262.579H447.74C448.751 262.577 449.637 262.757 449.81 261.573C449.894 261.281 449.934 260.912 449.81 260.644C449.452 260.085 448.506 260.113 447.946 259.937C447.175 259.698 446.773 259.24 446.37 258.585C445.443 257.077 445.679 255.871 445.679 254.192V246.803C445.684 246.086 445.731 245.069 446.03 244.41C446.396 243.6 447.082 243.234 447.946 243.072C448.79 242.915 449.81 243.088 449.975 242C450.271 240.045 447.882 240.215 446.504 240.213H440.735C439.724 240.213 438.634 240.085 437.676 240.416ZM84.9609 243.076C85.789 242.983 87.9583 242.883 88.6608 243.242C89.2273 243.534 89.4209 243.917 89.7629 244.4C90.0946 244.868 90.7661 245.471 90.7929 246.012C90.8918 248.067 87.4989 250.138 85.5789 249.976C83.1336 249.772 83.4962 246.921 83.5188 245.205C83.525 244.75 83.5188 244.241 83.7598 243.833C84.0668 243.316 84.4211 243.234 84.9609 243.076ZM200.737 243.072C201.858 242.955 204.264 242.901 205.269 243.338C206.042 243.675 208.139 245.479 208.532 246.204L209.144 248.201C209.758 249.832 210.065 249.577 210.003 251.596C209.964 252.938 209.622 252.892 209.235 253.992L208.613 256.179C208.429 256.53 207.014 257.946 206.668 258.188L205.475 258.799C204.218 259.506 203.864 260.073 202.179 259.947C200.702 259.835 200.597 259.416 199.501 258.799C198.858 258.435 198.566 258.443 197.941 257.91C196.479 256.666 196.66 256.333 195.964 254.791C195.208 253.115 194.8 252.792 194.884 250.797C194.967 248.888 195.488 249.073 196.03 247.801C196.304 247.16 196.351 246.433 196.707 245.822C196.998 245.323 198.984 243.749 199.519 243.462C199.905 243.254 200.313 243.166 200.737 243.072ZM297.766 243.094C298.621 242.969 300.922 242.887 301.66 243.27C302.185 243.544 302.406 243.951 302.727 244.406C303.05 244.862 303.574 245.453 303.64 246.004C303.885 248.113 300.296 250.152 298.382 249.974C295.482 249.704 295.968 244.734 296.526 243.901C296.843 243.428 297.255 243.28 297.766 243.094ZM273.911 245.353C275.371 245.413 275.186 247.168 275.505 248.201C275.895 249.461 277.808 251.214 275.312 251.757L274.281 251.859C273.806 251.925 273.511 251.881 273.045 251.859C271.152 251.592 271.072 250.242 271.834 248.8L272.609 247.602C273.089 246.705 272.93 245.934 273.911 245.353ZM148.16 245.674C149.32 246.511 149.149 248.331 149.233 249.599C149.32 250.126 149.484 250.657 149.233 251.154C148.656 252.081 146.829 252.193 145.962 251.733C144.938 251.19 145.103 250.138 145.234 249.199C145.424 247.847 145.323 246.659 146.767 245.946C147.323 245.671 147.556 245.613 148.16 245.674Z" fill="#447CCE"/>
<path id="emlogo" d="M328.511 100C328.17 102.05 326.502 101.4 325.266 102.282L323.616 104.563L322.886 106.37C322.515 107.031 322.117 107.144 321.795 107.665L321.174 109.262L320.04 110.908L319.38 112.547L318.289 114.014L317.759 115.23L316.81 116.671L316.204 118.104C315.82 118.801 315.412 119.026 315.072 119.571L314.424 121.197L313.339 122.675L312.586 124.484L311.506 125.951L310.955 127.168L309.93 128.814L309.284 130.236L308.282 131.508L307.589 133.334L306.459 134.801L305.65 136.635L304.759 137.87L304.009 139.517L303.046 140.957L302.355 142.398L301.509 143.633L300.818 145.277C300.416 146.008 299.95 146.222 299.632 146.755L299.09 148.365C298.733 149.143 298.238 149.361 297.873 150.032L297.275 151.651C296.902 152.355 296.442 152.551 296.037 153.314L295.497 154.541L294.594 155.982L294.012 157.414L292.857 158.882L292.156 160.707L291.063 162.175L290.5 163.768L289.341 165.246L288.536 167.096L287.689 168.331L286.981 169.753L286.078 171.025L285.389 172.653L284.37 174.094L283.681 175.738L282.469 177.405L281.87 179.033L280.689 180.68L280.109 181.915L279.2 183.355L278.583 184.788L277.554 186.066L276.894 187.677L275.863 189.118C275.44 189.806 275.508 190.304 275.159 190.962C274.794 191.648 274.38 191.831 274.076 192.281C273.757 192.757 273.683 193.337 273.449 193.852C273.109 194.605 272.736 194.883 272.379 195.498L271.767 196.931L270.669 198.398L270.03 200.008L268.993 201.475L268.403 203.095L267.242 204.562L266.546 206.398L265.573 207.676L264.896 209.288L263.896 210.729L263.275 212.169L262.288 213.61L261.341 215.236C261.001 215.679 259.099 217.173 258.594 217.37C258.051 217.582 256.529 217.718 255.912 217.726C254.025 217.747 250.478 218.01 248.9 217.093C247.333 216.181 246.526 214.464 245.623 212.993L244.48 211.346L243.888 209.735L242.758 208.257L241.925 206.407L241.079 205.172L240.304 203.525L239.429 202.29L238.778 200.85L237.674 199.203L237.082 197.606C236.779 197.12 236.342 196.958 235.962 196.311L235.292 194.469L234.273 193.029L233.469 191.234C233.147 190.758 232.836 190.579 232.491 189.939L231.842 188.501L230.868 187.06L230.311 185.654L229.13 184.176L228.455 182.361L227.465 181.083L226.611 179.239L225.64 177.798L223.458 173.7L222.499 172.429L221.659 170.424L220.612 169.146L219.793 167.153L218.958 166.059L218.291 164.626L217.285 163.185L216.637 161.78L215.579 160.302L214.959 158.701C214.639 158.133 214.23 158.003 213.855 157.402L213.135 155.589L212.205 154.317L211.485 152.724L210.421 151.246L209.714 149.659L208.856 148.564L208.095 146.739C207.74 146.183 207.292 145.954 206.917 145.271L206.298 143.651L205.381 142.379L204.708 140.957L203.7 139.517L203.023 137.905L201.905 136.427C201.499 135.734 201.515 135.266 201.258 134.783L200.169 133.342C199.725 132.644 199.771 132.113 199.416 131.49L198.337 130.049L197.667 128.608L196.745 127.168L196.194 125.935L195.085 124.457L194.361 122.675L193.387 121.397L192.74 119.767L191.61 118.299L190.78 116.465L189.999 115.23L189.298 113.825L188.433 112.742C188.039 112.12 187.978 111.474 187.695 110.927L186.61 109.459L185.915 107.897L184.055 105.748C183.646 105.448 182.793 105.337 182.283 105.217C180.446 104.779 180.891 104.532 178.777 104.528H122.885L119.791 104.734H92.3606H30.281C29.8561 104.734 29.2292 104.711 28.8373 104.857C27.1708 105.481 27.5998 107.819 27.5998 109.262V123.257V184.384C27.5998 184.936 27.5215 185.638 27.9236 186.072C28.4207 186.607 29.19 186.638 29.8685 186.638H34.3873L36.6746 186.443H47.6055L52.3492 186.712C52.6853 186.796 52.8854 186.904 53.1535 187.124C54.7024 188.404 55.2283 190.291 55.2366 192.205V201.055L55.0303 204.143V213.61L55.2366 216.697V218.55C55.2366 219.023 55.152 219.838 55.5604 220.161C55.9337 220.454 56.8329 220.402 57.299 220.402H63.0739H88.4419H198.37H452.051C452.567 220.402 453.557 220.48 453.909 220.044C454.165 219.727 454.113 218.949 454.113 218.55V213.199V189.324C454.118 186.154 455.268 185.006 458.445 185.002H477.625C478.197 185 478.954 185.061 479.418 184.672C480.158 184.051 479.894 181.256 479.894 180.268V165.244V104.116C479.89 101.507 479.327 102.293 479.275 100H328.511ZM335.729 107.879C337.837 107.683 337.963 108.006 339.648 108.027H348.722H378.009H395.952L399.046 108.233H403.79L406.677 108.027H466.282C467.224 108.029 470.761 108.194 471.419 108.613C472.746 109.461 473.286 110.859 473.294 112.349V123.875V174.094C473.292 175.129 473.257 177.333 472.389 178.002C471.401 178.768 468.384 178.622 467.107 178.622H454.32H449.782C449.157 178.622 448.291 178.562 447.784 178.98C447.307 179.373 447.318 179.912 447.307 180.474V190.97V213.404C447.307 213.927 447.324 214.547 447.192 215.051C446.536 217.566 444.7 217.531 442.564 217.521C440.883 217.512 439.524 216.85 439.072 215.051V212.581V208.876V180.268C439.051 176.831 438.171 176.681 440.025 173.27C440.392 172.597 440.621 171.914 441.347 171.552C442.044 171.206 443.038 171.214 443.801 171.212H462.363C464.017 171.21 465.418 171.383 465.457 169.36V158.657V117.7C465.457 117.245 465.502 116.525 465.247 116.14C464.935 115.673 464.122 115.479 463.601 115.368C462.549 115.144 459.87 115.23 458.651 115.23H435.964H338.823C337.948 115.232 334.778 115.459 334.122 115.852C333.671 116.124 333.462 116.624 333.124 117.007L332.19 117.949L331.202 119.929L330.251 121.207L329.686 122.64L328.709 124.08L327.881 125.708L327.12 126.791L326.244 128.796L325.237 130.068L324.633 131.687C324.276 132.437 323.893 132.576 323.546 133.155L322.851 134.98L321.721 136.448L321.104 137.87L320.137 139.517L319.557 140.743L318.46 142.211L317.769 143.839C317.413 144.458 316.944 144.822 316.654 145.485L316.185 146.905C315.833 147.582 315.371 147.714 314.989 148.387L314.265 150.219L313.294 151.66L312.584 153.1L311.642 154.541L310.965 155.982L310.122 157.217L309.361 159.061L308.284 160.339L307.618 162.156L306.442 163.803L305.733 165.449L304.642 167.096L304.005 168.537L303.054 169.977L302.355 171.399L301.519 172.482L300.818 174.297C300.437 174.999 299.991 175.228 299.665 175.775L299.09 177.385C298.727 178.169 298.24 178.381 297.873 179.052L297.275 180.661L296.215 182.129L295.604 183.543L294.625 185.01L293.954 186.605L292.886 187.904L292.284 189.528C291.937 190.269 291.549 190.435 291.197 191.005L290.5 192.815C290.133 193.518 289.662 193.714 289.275 194.478L288.623 196.097L287.87 197.18L286.078 200.232L285.389 201.879L284.399 203.319L283.632 204.958L282.549 206.425L281.988 208.053L280.689 209.905L280.161 211.14L278.311 214.151C277.533 215.028 275.842 216.743 274.852 217.28C273.953 217.768 271.513 217.819 270.56 217.405C269.537 216.961 269.692 216.185 269.731 215.257C269.817 213.281 270.275 213.437 271.177 211.964L271.989 210.352L272.738 209.269L273.46 207.454L274.505 206.182L275.155 204.554L276.329 202.908L276.885 201.28L278.16 199.613L278.766 198.174L279.697 196.733L280.305 195.311L281.266 194.039L281.955 192.419L283.021 190.952L283.518 189.532C283.918 188.624 284.453 188.488 284.902 187.669L285.628 185.825L286.616 184.384L287.222 183.03L288.07 181.912L288.79 180.276L289.811 178.809L290.394 177.389L291.615 175.722L292.302 173.896L293.404 172.429L294.018 171.006L295.084 169.36L295.73 167.938L296.633 166.666L297.384 165.046L298.337 163.768L299.034 161.959L300.222 160.491C300.523 159.954 300.494 159.353 300.888 158.676L301.82 157.404L302.54 155.776L303.415 154.541L304.19 152.895L305.036 151.66L305.84 149.826C306.207 149.231 306.655 149.007 306.999 148.358L307.589 146.728C307.94 146.039 308.352 145.839 308.684 145.261L309.315 143.633L310.477 141.986L311.005 140.751L312.046 139.105L312.685 137.683L313.677 136.411L314.37 134.596L315.501 133.128L316.227 131.302L317.2 130.031L317.926 128.215L318.887 126.943L320.69 123.669L321.278 122.247L322.296 120.975C322.637 120.388 322.668 119.639 323.115 118.97C323.441 118.48 323.792 118.303 324.091 117.692L324.654 116.072L325.813 114.605L326.533 112.966C327.362 111.421 328.061 110.793 329.23 109.61C329.564 109.272 329.775 108.93 330.198 108.673C331.134 108.101 332.423 108.296 333.46 108.198L335.729 107.879ZM38.9433 111.54H53.9991H83.4921H105.766L110.304 111.731H130.722H176.096C178.581 111.736 177.997 111.929 179.827 113.102C180.427 113.487 180.854 113.606 181.314 114.222L182.376 116.202C183.036 117.07 184.203 118.991 184.676 119.964L185.197 121.197L186.474 122.864L187.058 124.484L188.126 125.951L188.85 127.579L189.887 129.02C190.209 129.602 190.174 129.919 190.663 130.667L191.502 131.901C191.758 132.406 191.77 132.786 192.125 133.342L193.229 134.783L193.86 136.427L194.961 137.905L195.745 139.704L196.693 140.976L197.221 142.192L198.325 143.839L199.005 145.279L200.035 146.72L200.701 148.554C201.087 149.217 201.604 149.396 201.965 150.05L202.557 151.641L203.51 152.913L204.23 154.533L205.162 155.811L205.88 157.404L206.812 158.676C207.206 159.353 207.179 159.964 207.478 160.489C207.806 161.07 208.282 161.253 208.627 161.788L209.328 163.597L210.335 165.038L211.058 166.478L213.43 170.389L214.237 172.239L215.404 173.717L216.101 175.526L217.163 176.994L218.015 178.792L218.881 180.07L219.424 181.297L220.554 182.944L221.148 184.366L222.268 185.833L222.94 187.657L224.06 188.956L224.755 190.765L225.63 192L226.415 193.638L227.362 194.916L228.067 196.509C228.42 197.077 228.791 197.297 229.107 197.976L229.705 199.596C230.058 200.172 230.538 200.393 230.895 201.064L231.561 202.873L232.434 203.955L233.188 205.583L234.053 206.818L234.754 208.259L235.703 209.7L236.495 211.544C236.858 212.126 237.311 212.373 237.645 213.011C238.025 213.734 238.503 216.168 238.033 216.858C237.534 217.593 236.313 217.753 235.494 217.708C232.968 217.566 231.813 216.537 230.245 214.658C229.882 214.221 229.441 213.884 229.158 213.386L228.486 211.571L227.465 210.299L226.611 208.465L225.764 207.23L225.097 205.789L224.163 204.348L223.334 202.702L222.441 201.467C221.944 200.658 222.076 200.183 221.56 199.409L220.587 198.174C220.172 197.524 220.199 197.077 219.939 196.53C219.626 195.873 219.215 195.622 218.873 195.052L218.153 193.44L217.285 192.205L216.58 190.765L215.711 189.53L214.985 187.686C214.573 186.934 214.074 186.739 213.694 186.023L213.104 184.403L212.067 182.935L211.347 181.316L210.502 180.233L209.835 178.827L208.887 177.387C208.441 176.607 208.526 176.162 208.119 175.553L207.051 174.281C206.694 173.694 206.688 173.143 206.476 172.655C206.142 171.889 205.653 171.673 205.267 170.988L204.512 169.189L203.543 167.911L202.706 166.067L201.872 164.832L201.117 163.391L200.243 162.156L199.546 160.322L198.356 158.855L197.727 157.225L196.652 155.757L195.988 154.148L194.92 152.681L194.25 151.248L193.33 149.807L192.746 148.375L191.711 147.097C191.271 146.455 191.319 145.919 190.96 145.279L189.931 143.839L189.24 142.2L188.143 140.733L187.563 139.517L186.579 137.87L185.969 136.464L184.849 134.987L184.228 133.361C183.937 132.799 183.58 132.57 183.248 132.089L182.304 130.068L181.365 128.796L180.755 127.373L179.821 125.933C179.109 124.683 179.487 124.945 178.424 123.582C177.655 122.594 177.901 122.415 177.478 121.613C177.238 121.16 175.475 119.242 175.03 119.059C174.667 118.91 174.021 118.935 173.621 118.935H44.0994C42.5196 118.939 41.8637 118.997 41.8307 120.787V130.872V170.389C41.8328 170.959 41.7709 171.714 42.1607 172.177C42.5587 172.647 43.1238 172.643 43.6869 172.661H45.7493L47.8118 172.859H53.5866L56.8865 172.614H62.6614C63.2842 172.513 63.5194 172.595 64.1051 172.614C65.9366 172.76 66.7038 172.612 68.0732 174.009C68.9312 174.884 69.0385 175.149 69.055 176.358V214.433C69.0529 215.236 69.0983 216.354 68.4981 216.975C67.9433 217.549 66.1593 217.632 65.3426 217.689C64.5774 217.743 62.8718 217.56 62.3128 217.02C61.8302 216.555 61.7663 215.693 61.6487 215.051V209.494V182.532C61.6281 181.962 61.69 181.207 61.3002 180.743C60.6649 179.99 57.3197 180.268 56.2678 180.268H38.9433C36.4642 180.264 34.441 179.332 34.4059 176.563V165.655V127.579L34.1996 124.08L34.3708 116.671C34.5235 115.068 34.0738 113.672 35.4763 112.429C36.4333 111.581 37.7594 111.754 38.9433 111.54ZM369.966 188.042C370.362 188.101 370.539 188.064 370.844 188.4C371.585 189.215 371.409 192.876 371.409 194.058V213.404C371.407 214.462 371.358 216.263 370.527 217.02C369.782 217.702 368.258 217.521 367.285 217.492H359.447C359.051 217.521 358.377 217.537 358.012 217.492C356.717 217.062 356.508 215.308 356.941 214.228L358.094 212.375C358.282 211.982 358.377 211.558 358.492 211.14C358.909 209.638 359.13 209.846 359.785 208.671C360.303 207.74 360.233 207.246 360.542 206.612L361.598 204.966L362.246 202.91C362.625 202.136 363.123 201.918 363.428 201.243L363.945 199.417L364.954 197.95L365.562 195.918C365.88 195.237 366.307 195.033 366.639 194.451C367.002 193.815 367.006 193.041 367.282 192.419C367.65 191.596 368.136 191.466 368.452 190.557C368.85 189.41 368.532 188.462 369.966 188.042ZM149.868 188.33C150.891 188.807 150.812 189.816 151.192 190.763C151.557 191.674 151.961 191.75 152.314 192.43C152.65 193.074 152.619 193.934 153.021 194.657L154.077 196.124L154.731 198.155L155.669 199.623L156.387 201.673L157.47 203.319L158.004 204.966C158.353 205.812 158.749 206.141 159.095 206.818L159.796 208.874C160.139 209.626 160.496 209.811 160.819 210.352C161.259 211.087 161.209 211.815 161.57 212.581L162.688 214.433C163.041 215.314 163.055 216.918 162.032 217.368C161.622 217.549 160.877 217.521 160.421 217.521H150.934C150.458 217.521 149.744 217.562 149.332 217.311C148.5 216.804 148.463 214.905 148.459 214.022V192C148.461 190.785 148.35 188.591 149.868 188.33ZM21 280.5V288.115H50.6992C51.4788 288.117 52.2729 288.07 52.9638 288.496C54.0383 289.159 54.1909 290.048 54.2054 291.203V296.554V323.721C54.2033 324.915 54.1187 327.146 52.9452 327.803C52.4358 328.087 51.6851 328.044 51.1117 328.044H30.8997H25.1249C24.6402 328.044 23.9287 328.004 23.5059 328.253C22.8727 328.626 22.8686 329.248 22.8562 329.896V357.681V409.135C22.8562 409.608 22.7716 410.423 23.18 410.746C23.6111 411.084 25.16 410.987 25.7436 410.987H31.931H61.8364H189.502C190.073 410.987 191.005 411.053 191.44 410.629C191.841 410.238 191.768 409.45 191.77 408.929V402.137V373.117V332.16C191.768 331.252 191.805 330.435 191.082 329.754C190.589 329.291 190.135 329.291 189.502 329.278H184.964H162.896C161.7 329.276 160.316 329.223 159.479 328.223C158.949 327.589 158.982 326.963 158.978 326.191V321.457V296.76V290.585C158.992 289.803 159.058 289.165 159.666 288.591C160.227 288.062 161.518 287.947 162.277 287.918L164.546 288.107H167.227L172.59 287.292C173.588 287.282 175.176 287.222 176.096 287.486L178.158 288.381L180.419 289.031L182.821 290.871L184.552 293.073C185.022 293.818 184.964 294.504 185.259 295.095C185.556 295.693 186.045 295.967 186.379 296.562L187.06 298.612L188.209 300.258L188.86 301.8L189.869 302.953L190.702 304.786L191.537 306.021L192.09 307.17L193.247 308.697L193.895 310.325L194.996 311.792L195.704 313.225L196.704 314.666L197.302 315.9L198.325 317.341L199.016 318.953L200.051 320.231L200.701 321.867C201.056 322.548 201.499 322.777 201.86 323.345L202.402 324.545L203.438 326.191L203.966 327.418L205.16 328.885C205.492 329.429 205.56 330.05 205.764 330.495C206.069 331.155 206.494 331.382 206.859 331.962L207.668 333.771L208.668 335.049L209.373 336.447L210.246 337.725L210.807 339.139C211.174 339.808 211.646 339.987 212.104 340.806L212.793 342.451L213.672 343.686L215.167 346.155L216.047 347.973L216.932 349.055L217.786 350.889L218.824 352.33L219.609 353.976L220.589 355.417L221.206 356.652L222.146 357.887C222.598 358.603 222.548 359.146 222.899 359.704L223.978 360.982L224.784 362.808L225.599 363.89L226.387 365.502L227.302 366.737L228.067 368.365L229.016 369.637L229.746 371.436L230.912 372.913L231.572 374.294L232.403 375.589L232.986 376.803C233.362 377.375 233.797 377.596 234.166 378.271L234.758 379.891L235.861 381.358L236.61 382.961L237.542 384.239L238.219 385.637L239.124 386.915L239.871 388.535L241.034 390.002L241.71 391.811L242.892 393.289L243.472 394.522L244.429 395.963L245.037 397.368L246.202 398.846L246.834 400.456C247.207 401.087 247.574 401.114 248.065 402.137L248.706 403.543L249.523 404.625L251.348 407.694L251.814 408.894C252.091 409.353 253.363 410.818 253.871 410.911C254.673 411.057 255.409 410.347 255.776 409.717L256.492 408.32L257.474 407.042L258.088 405.44C258.596 404.574 259.037 404.669 259.513 403.574L261.623 399.686L262.527 398.603L263.304 396.794L264.22 395.699L264.987 394.11L266.021 392.67L266.777 391.229L267.644 389.994L268.316 388.553L269.508 386.907L270.279 385.26L271.119 384.025L271.932 382.603L272.769 381.521C273.08 380.981 273.146 380.356 273.586 379.711L274.654 378.433L275.209 377.028L276.947 374.154L277.964 372.876L278.626 371.273L279.664 369.995L280.472 368.196L281.347 367.113L282.149 365.52L282.922 364.438L283.634 362.845L284.82 361.377L285.49 359.945L286.441 358.504L287.07 357.278L288.179 355.81L288.879 354.19L289.916 352.912L290.636 351.301L291.653 349.86L292.356 348.438L293.216 347.355L294.084 345.556L295.113 344.284L295.742 342.665L296.722 341.387L297.38 340.187L298.259 338.952L299.16 337.108L300.228 335.83L300.89 334.218L302.654 331.372L303.386 330.478L304.316 328.474L305.219 327.391L305.997 325.592L307.045 324.32L307.529 323.31L308.49 321.869L309.169 320.428L310.452 318.747L311.2 316.948L312.017 315.865L312.801 314.468L313.624 313.373L314.445 311.597L315.447 310.325L316.332 308.51L317.266 307.238L317.988 305.85L318.803 304.768L319.452 303.346L320.677 301.699L321.311 300.061L322.381 298.783L323.928 296.142L324.705 294.504L325.8 293.226L326.359 291.82C326.667 291.192 328.141 289.319 328.725 288.953C330.61 287.774 334.888 288.119 337.173 288.115L340.679 287.91H347.898C348.751 287.912 350.49 287.965 351.187 288.445C352.109 289.076 352.216 289.976 352.229 290.997V296.76V323.927C352.227 324.979 352.192 326.325 351.476 327.173C350.447 328.391 346.392 328.044 344.804 328.044H321.704C319.562 328.048 318.821 328.231 318.817 330.513V346.773V408.929C318.819 409.444 318.743 410.226 319.147 410.606C319.584 411.018 320.519 410.985 321.086 410.987H327.892H358.003H486.288C486.698 410.987 487.486 411.035 487.814 410.777C488.164 410.499 488.136 409.948 488.144 409.546V406.459V391.846V328.661C488.142 328.138 488.21 327.327 487.814 326.932C487.445 326.564 486.772 326.607 486.288 326.603H481.131H458.238C457.277 326.601 455.53 326.547 454.794 325.88C454.155 325.302 454.124 324.314 454.113 323.516V317.959V291.203C454.113 290.583 454.076 289.933 454.338 289.354C455.438 286.905 460.146 287.498 462.363 287.498H490V280.5H21ZM253.644 384.025C255.543 382.9 255.488 382.41 256.546 380.767L257.373 379.685L258.179 377.886L259.245 376.608L260.103 374.799L261.621 372.329L262.496 371.246L263.187 369.627L264.284 368.159L264.919 366.737L266.056 365.09L266.654 363.874L267.613 362.602L268.485 360.787L269.498 359.515C269.826 358.947 269.799 358.44 270.284 357.681L271.201 356.446L271.969 355.063L272.66 354.164L273.46 352.338L274.695 350.871L275.464 349.072L276.256 347.989L276.908 346.791L277.896 345.519L278.616 343.9L279.614 342.621L280.276 341.01L281.344 339.569L282.101 338.147L282.906 337.064L283.568 335.461L284.801 333.994L285.434 332.366L286.616 330.719L287.202 329.484L288.208 328.044L288.877 326.621L289.77 325.539L290.619 323.721L291.785 322.075L293.87 318.37L294.924 316.93L295.685 315.096L296.846 313.628L297.57 312.196L298.492 310.755L299.034 309.547C299.97 308.086 299.585 309.524 300.577 307.05C301.022 305.937 301.523 305.883 301.998 304.984L302.608 303.586L303.672 302.109L304.229 300.911L305.18 299.633L305.84 298.013L307.045 296.546L307.762 294.926L309.264 292.456L310.163 291.373C310.642 290.702 310.714 290.254 311.413 289.599C313.05 288.072 317.408 287.469 319.164 289.083C320.11 289.951 318.91 290.692 318.524 291.238C318.099 291.839 318.161 292.361 317.767 293.055C317.363 293.771 316.893 294.053 316.472 294.907L314.983 297.377L314.315 298.799L313.304 300.071L312.644 301.699L311.409 303.346L309.385 307.042L308.117 308.705L307.455 310.343L306.35 311.784L305.803 312.813L304.877 314.254L304.207 315.695L302.965 317.341L302.348 318.782L301.4 320.017L300.622 321.645L299.68 322.917L299.003 324.32L297.972 325.592L297.339 327.212L296.147 328.68L295.604 329.896L294.682 331.337L293.983 332.759L292.816 334.226L292.127 335.856L291.176 337.134L290.547 338.334L289.695 339.569L288.769 341.403L287.866 342.486C287.524 343.035 287.567 343.539 287.08 344.303L285.991 345.744L285.321 347.184L284.364 348.625L283.683 349.852L282.708 351.13L281.932 352.945L280.691 354.423L280.192 355.623L278.525 358.486L277.535 359.758L276.836 361.377L275.726 362.845L275.077 364.267L273.303 367.113L272.585 368.007C272.169 368.659 272.189 369.334 271.748 369.987C271.389 370.518 270.929 370.701 270.583 371.285L270.028 372.705C269.731 373.315 269.384 373.617 269.046 374.146L268.438 375.363C267.792 376.466 267.557 375.974 266.963 377.645C266.41 379.197 266.068 378.905 265.49 379.928L264.874 381.342L263.942 382.62L263.117 384.196L262.281 385.279L261.489 386.899L260.409 388.366L259.676 389.994L257.422 393.374C256.795 394.221 256.946 394.61 256.513 395.343C256.156 395.948 255.622 396.339 255.123 396.817C254.743 397.179 254.287 397.799 253.685 397.634C253.058 397.461 252.784 396.477 252.503 395.971L251.392 394.503C251.01 393.88 251.074 393.534 250.474 392.67C249.395 391.118 249.457 390.677 248.995 390.002C248.618 389.451 248.149 389.175 247.819 388.535L247.223 386.925L246.087 385.458L245.382 384.025L244.451 382.585L243.923 381.368L242.769 379.901L242.185 378.47L240.995 376.803L240.331 375.194L239.372 373.922L238.722 372.724L237.959 371.641L237.089 369.645C236.728 369.071 236.309 368.947 235.962 368.357L235.261 366.55L234.422 365.467L233.632 363.874L232.687 362.602L231.972 360.993L230.973 359.721L230.276 357.924C229.946 357.354 229.484 357.175 229.117 356.615L228.313 354.8L227.459 353.565L226.677 352.124L225.817 350.889L225.155 349.261L224.019 347.794L223.161 345.968L222.34 344.885L221.661 343.48L220.674 342.039L219.97 340.617L219.009 339.345L218.285 337.532L217.213 336.233L216.464 334.63L215.633 333.395L215.049 332.162L213.894 330.684C213.548 330.116 213.535 329.589 213.292 329.081C212.956 328.373 212.525 328.192 212.158 327.613C211.774 327.012 211.747 326.344 211.452 325.806C211.12 325.195 210.72 325.096 210.349 324.518L209.807 323.31L208.771 321.663L208.243 320.43L207.049 318.953L206.329 317.154L205.348 315.882L204.403 314.048L203.553 312.813L202.967 311.578L201.951 310.138L201.231 308.51L200.105 307.042L199.418 305.404L198.544 304.169L197.756 302.728L196.894 301.493L196.159 299.849L195.087 298.554C194.67 297.906 194.697 297.229 194.276 296.589L193.521 295.696C193.022 295.029 193.026 294.537 192.688 293.886C192.346 293.232 192.043 293.096 191.711 292.608L190.95 290.997C190.593 290.363 190.048 289.916 190.609 289.206C191.199 288.461 193.113 287.796 194.039 287.866C194.949 287.936 197.483 288.957 198.145 289.583C199.276 290.651 199.878 291.972 200.653 293.261L201.922 294.942L202.522 296.519L203.51 297.797L204.314 299.622L205.162 300.705L205.867 302.092L206.783 303.364L207.507 305.171C207.897 305.82 208.381 305.879 208.755 306.649L209.328 308.267L210.316 309.539L210.858 310.755L211.966 312.402L212.618 313.834L213.616 315.112L214.278 316.724L215.472 318.37L216.161 319.998L217.095 321.27L218.593 323.721L219.434 325.555L220.589 327.023L221.247 328.653L222.21 329.931L223.08 331.748L223.98 332.983L224.704 334.424L225.578 335.659L226.209 337.297L227.434 338.764L228.125 340.392L229.849 343.274L230.734 344.509L231.425 346.137L232.434 347.409L233.081 349.028L234.242 350.496L234.983 352.116L235.824 353.394L236.334 354.388L237.54 356.034L238.2 357.673L239.291 359.14L240.201 360.974L241.048 362.209L241.807 363.65L242.667 364.885L243.317 366.325L244.394 367.766L245.157 369.6L246.202 370.872L246.92 372.481L247.782 373.753L248.43 375.167L249.5 376.445L250.2 378.244L251.229 379.516L252.01 381.315C252.571 382.218 252.967 382.023 253.644 384.025ZM444.214 287.98C446.029 288.076 446.068 289.562 446.07 290.997V297.994V330.719C446.072 331.464 446.016 332.514 446.616 333.065C447.221 333.621 450.298 333.395 451.226 333.395H466.694H476.8C477.229 333.401 477.615 333.403 478.038 333.504C478.675 333.654 481.026 334.8 481.391 335.292C481.748 335.772 481.742 336.328 481.75 336.894V358.916V399.462C481.748 400.262 481.777 401.213 481.352 401.923C480.837 402.783 478.397 404.15 477.419 404.442C476.91 404.595 476.497 404.601 475.975 404.607H447.101H431.839L428.745 404.401H408.74H372.647L369.553 404.607H332.223C330.173 404.603 329.699 404.385 327.892 403.479C327.294 403.179 326.621 402.936 326.277 402.32C326.056 401.927 325.838 398.844 325.829 398.227V388.965L326.036 385.466V350.683L325.829 347.184V341.833L326.017 339.363C326.139 337.595 325.72 336.947 327.281 335.611C327.653 335.294 328.049 334.986 328.511 334.813C329.069 334.603 329.773 334.63 330.367 334.63H356.354C357.106 334.628 358.773 334.615 359.323 334.068C359.792 333.603 359.653 332.189 359.653 331.542V324.545V291.408C359.658 289.431 360.122 288.36 362.335 288.321C363.254 288.307 364.62 288.161 365.311 288.85C366.031 289.568 365.841 291.063 365.841 292.026V300.053V338.746C365.839 339.565 365.874 340.685 365.284 341.333C364.822 341.839 364.203 341.823 363.572 341.833H358.622H335.729C334.149 341.837 333.493 341.895 333.46 343.686V353.976V393.904C333.462 394.6 333.382 395.543 333.962 396.045C334.413 396.438 335.164 396.372 335.729 396.374H341.091H365.841H472.057C473.106 396.372 473.808 396.448 474.307 395.341C474.643 394.598 474.532 392.729 474.532 391.846V384.231V344.303C474.53 343.395 474.486 341.576 473.779 340.928C473.344 340.528 472.612 340.6 472.057 340.598H466.694H442.976C442.151 340.596 441.225 340.685 440.677 339.934C440.161 339.225 440.295 337.571 440.295 336.688V328.867V298.2V290.791C440.305 290.091 440.324 289.391 440.842 288.85C441.52 288.14 443.255 288.095 444.214 287.98ZM146.401 288.426C147.564 288.218 149.981 288.105 150.845 289.019C151.421 289.628 151.344 290.429 151.347 291.203V298.818V333.806C151.349 334.362 151.281 335.115 151.677 335.554C152.064 335.984 153.052 336.144 153.615 336.266H159.39H173.827C176.768 336.272 177.89 335.883 181.252 336.266H182.489C183.028 336.478 183.314 336.733 183.719 337.093C184.991 338.223 185.15 338.937 185.171 340.598V361.386V399.05C185.169 399.715 185.045 402.007 184.754 402.506C184.523 402.901 184.094 403.139 183.727 403.386C182.077 404.5 181.794 404.603 179.808 404.607H149.903H72.3549L69.2612 404.401H33.3747C31.9887 404.399 30.3635 404.068 29.6148 402.744C29.0745 401.791 29.2498 399.577 29.2498 398.432V389.171V338.746C29.2518 337.867 29.2807 335.786 29.9572 335.189C30.6027 334.621 31.9371 334.632 32.7559 334.63H59.3615C60.0173 334.628 60.832 334.708 61.3002 334.154C61.7683 333.601 61.6302 332.067 61.6302 331.337V324.545V291.203C61.6343 288.908 62.1911 288.556 64.5176 288.527C65.4498 288.517 68.0939 288.527 68.6961 289.233C69.1973 289.822 69.055 291.454 69.055 292.232V300.258V337.717C69.055 338.271 69.0818 339.04 68.8714 339.551C68.6507 340.084 68.2816 340.329 67.8732 340.701C66.6233 341.837 66.613 341.831 64.9301 341.833H39.1495C37.58 341.835 36.7096 341.862 36.6746 343.686V353.976V393.699C36.6766 394.538 36.6271 395.463 37.3634 396.045C37.8584 396.438 38.5535 396.372 39.1495 396.374H44.3056H69.055H175.271C176.067 396.372 176.845 396.461 177.364 395.726C177.88 394.995 177.746 393.363 177.746 392.464V384.643V345.949C177.744 345.295 177.824 344.482 177.269 344.015C176.838 343.653 176.211 343.69 175.683 343.686H170.733H147.84C147.009 343.683 146.081 343.766 145.518 343.021C145.031 342.379 145.159 340.987 145.159 340.187V333.601V300.67V290.585C145.176 289.396 145.252 288.937 146.401 288.426Z" fill="#447CCE"/>
</g>
</svg>
