<svg viewBox="0 0 512 512" fill="none" xmlns="http://www.w3.org/2000/svg">
<g id="emfull">
<path id="emtext" d="M245.426 262.502C246.254 261.75 245.975 261.639 246.366 260.768L247.239 259.208L247.903 256.78C248.182 256.033 248.542 255.828 248.816 255.046C249.084 254.283 249.008 253.632 249.324 252.966C249.582 252.419 249.926 252.107 250.192 251.405L250.758 249.151L251.608 247.764L252.548 245.683C253.701 247.129 253.416 248.1 253.416 249.845V256.78C253.414 257.632 253.446 258.667 252.683 259.236C252.061 259.7 251.085 259.581 250.772 260.432C250.569 260.982 250.818 262.14 251.391 262.404C251.639 262.516 252.099 262.501 252.374 262.502H258.454C259.397 262.501 260.495 262.511 260.925 261.455C261 261.205 261.042 260.883 260.925 260.626C260.618 259.723 259.23 259.784 258.473 259.239C257.576 258.598 257.587 257.424 257.585 256.434V247.764C257.595 247.004 257.615 246.162 258.304 245.685C259.218 245.05 260.237 245.733 260.354 244.296C260.401 243.731 260.359 243.06 259.817 242.739C259.386 242.484 258.125 242.562 257.585 242.562H252.548C252.112 242.564 251.558 242.529 251.167 242.739C250.659 243.013 249.576 244.769 249.384 245.336L249.053 246.897C248.806 247.977 248.342 248.124 248.037 248.978C247.675 249.978 247.953 251.048 246.633 252.446C246.159 252.945 245.872 253.193 245.252 253.486L244.345 250.538L243.466 248.978L243.062 247.07C242.82 246.37 242.428 245.959 242.124 245.336C241.601 244.261 241.924 243.367 241.208 242.912C240.857 242.689 239.292 242.569 238.825 242.562H233.961C232.681 242.564 231.655 242.652 231.903 244.296C232.127 245.78 233.767 245.147 234.283 246.557C234.557 247.303 234.483 248.993 234.483 249.845V256.26C234.481 257.448 234.446 258.093 233.562 259.002C232.888 259.695 232.25 259.744 231.981 260.43C231.703 261.141 232.016 262.111 232.752 262.398C233.197 262.574 236.551 262.513 237.262 262.502C238.327 262.483 239.278 262.029 239.089 260.768C238.962 259.928 238.057 259.643 237.548 259.003C236.975 258.282 236.918 257.481 236.914 256.607V248.631C236.916 247.942 236.861 246.94 237.783 246.824C238.094 246.784 238.33 246.902 238.538 247.126C239.112 247.74 239.002 248.993 239.379 249.796C239.595 250.252 239.992 250.621 240.305 251.405L240.781 253.486C241.033 254.178 241.408 254.441 241.656 255.046L242.249 257.301C242.575 258.152 242.881 258.315 243.14 258.861C243.447 259.508 243.345 260.427 243.717 261.112C244.09 261.804 244.795 262.097 245.426 262.502ZM95.694 251.752C94.8168 251.19 94.6622 251.074 93.6096 251.058C92.9009 251.05 92.1331 251.175 91.5633 250.658C90.6966 249.867 90.4985 246.571 91.2524 245.723C91.803 245.102 92.51 245.165 93.2622 245.163C94.4815 245.161 97.0054 244.939 97.9122 245.758C98.8589 246.609 98.0911 247.566 99.0204 247.982C100.129 248.48 100.886 247.863 100.905 246.723V244.469C100.905 244.103 100.947 243.486 100.733 243.181C100.266 242.517 98.0442 242.735 97.2573 242.735H85.9666C85.0929 242.737 84.2348 242.675 84.082 243.776C83.8457 245.473 85.2875 245.01 86.116 245.635C86.79 246.144 86.8247 247.162 86.8351 247.937V256.434C86.8334 257.479 86.7882 258.535 85.9302 259.284C85.3656 259.778 84.676 259.832 84.3495 260.295C84.1636 260.559 84.1705 260.81 84.1931 261.115C84.2817 262.268 84.8185 262.154 85.7929 262.156H99.168C99.5485 262.156 100.182 262.192 100.504 261.979C101.108 261.576 100.907 259.565 100.905 258.861C100.903 257.864 100.667 256.272 99.2011 256.884C98.2075 257.299 98.5914 258.618 97.4241 259.458C96.5503 260.085 94.3669 259.903 93.2622 259.902C92.5309 259.9 91.9559 259.962 91.4261 259.355C90.7174 258.547 90.8286 257.098 90.8303 256.087C90.8321 255.078 90.839 254.03 91.876 253.489C93.1388 252.832 94.9419 253.911 95.694 251.752ZM112.717 260.422C112.288 260.141 111.544 259.712 111.228 259.345C110.495 258.499 110.631 256.973 110.632 255.913C110.634 254.918 110.905 252.893 112.369 253.181C113.879 253.475 113.941 254.332 114.624 255.364C114.937 255.837 115.249 256.028 115.496 256.609C115.691 257.068 115.665 257.5 115.922 257.965L116.863 259.21L117.431 260.753C118.084 261.866 118.991 262.154 120.186 262.156C120.983 262.157 123.702 262.329 124.207 261.835C124.503 261.545 124.621 260.82 124.702 260.422C122.818 259.674 122.347 260.025 121.786 259.699C121.517 259.541 120.045 257.777 119.893 257.472C119.646 256.98 119.672 256.47 119.377 256.002C118.97 255.355 117.838 254.686 118.178 253.312C118.459 252.18 119.887 251.334 120.551 250.436C120.935 249.914 121.046 248.75 121.055 248.111C121.079 245.896 120.778 245.539 119.147 244.05C118.8 243.732 118.334 243.21 117.912 243.037C117.124 242.711 114.694 242.735 113.759 242.735H105.942C105.081 242.737 103.703 242.666 103.537 243.783C103.316 245.265 104.608 244.885 105.381 245.584C106.003 246.144 105.941 246.831 105.942 247.59V256.78C105.941 257.651 105.944 258.655 105.347 259.359C104.704 260.117 102.944 260.172 103.783 261.592C104.129 262.175 104.824 262.147 105.421 262.156H110.806C111.187 262.156 111.821 262.192 112.142 261.979C112.559 261.701 112.599 260.897 112.717 260.422ZM139.293 254.006C138.79 253.443 137.233 251.197 137.009 250.538C136.789 249.888 136.912 249.227 136.575 248.457L135.67 246.897C135.149 245.563 135.75 245.222 134.398 243.58C134.136 243.262 133.952 243.023 133.554 242.864C133.177 242.713 132.582 242.735 132.172 242.735H127.482C126.62 242.737 125.243 242.666 125.076 243.783C124.864 245.205 126.016 244.875 126.733 245.583C127.259 246.101 127.299 247.067 127.308 247.764V256.26C127.306 257.009 127.235 258.759 126.806 259.345C126.236 260.122 125.246 259.993 125.137 260.788C125.031 261.544 125.581 262.029 126.269 262.14H130.782C131.619 262.154 132.229 262.296 132.345 261.285C132.368 261.11 132.385 260.772 132.345 260.605C132.159 259.893 131.494 259.95 130.956 259.674C130.459 259.419 130.082 259.028 129.861 258.514C129.491 257.651 129.566 256.17 129.566 255.22V248.978C129.568 248.246 129.616 247.029 129.967 246.384C130.372 245.638 130.818 245.737 131.242 246.384L132.807 248.978L133.214 250.885C133.483 251.566 133.929 251.901 134.218 252.792L134.569 254.693C134.873 255.617 135.508 255.671 135.762 256.78C135.925 257.488 135.925 258.161 136.238 258.861C136.505 259.459 136.855 259.726 137.103 260.422C137.287 260.942 137.287 261.845 137.784 262.033C137.973 262.109 138.232 262.076 138.423 262.033C140 261.623 139.403 259.683 140.23 258.53C140.459 258.209 140.74 257.999 140.904 257.618L141.402 255.22C141.682 254.505 142.107 254.223 142.375 253.486C142.655 252.718 142.516 252.1 142.806 251.405C143.087 250.736 143.525 250.455 143.764 249.829L144.279 247.59C144.475 247.136 145.925 245.709 146.457 246.028C146.948 246.325 146.933 247.268 146.936 247.764V251.925V256.434C146.935 257.601 146.905 258.291 146.035 259.189C145.323 259.926 144.76 259.86 144.558 260.604C144.444 261.034 144.444 261.797 144.902 262.027C145.248 262.202 146.334 262.156 146.763 262.156H151.105C152.033 262.154 153.245 262.225 153.282 260.949C153.306 260.045 152.358 260.155 151.724 259.487C151.083 258.816 151.107 257.985 151.105 257.127V247.417C151.107 246.678 151.044 246.122 151.652 245.583C152.408 244.908 153.544 245.172 153.337 243.783C153.171 242.666 151.793 242.737 150.931 242.735H146.242C144.829 242.737 143.575 242.9 143.08 244.469C142.86 245.173 143.045 245.647 142.689 246.377L141.85 247.764L141.354 250.018C141.076 250.717 140.713 250.904 140.433 251.435C139.995 252.265 140.374 252.218 139.293 254.006ZM159.295 242.912C158.943 243.224 158.844 243.273 158.774 243.776C158.512 245.666 160.579 245.033 160.956 246.066C161.1 246.462 160.721 247.029 160.591 247.417L160.134 250.365C159.804 251.859 159.311 251.766 158.951 252.966C158.656 253.956 158.825 254.405 158.666 255.22C158.461 256.279 158.062 256.47 157.699 257.301C157.423 257.935 157.4 258.598 156.987 259.189C156.08 260.486 153.311 259.454 153.853 261.282C154.114 262.161 154.848 262.145 155.621 262.156H161.006C161.955 262.154 162.526 262.263 162.63 261.115C162.658 260.807 162.656 260.559 162.458 260.3C162.041 259.751 160.266 259.641 160.346 258.169C160.372 257.679 160.678 257.342 160.89 256.924C161.14 256.434 161.274 255.867 161.739 255.522C162.366 255.055 164.675 255.204 165.523 255.22C165.985 255.228 166.328 255.227 166.731 255.497C167.551 256.047 168.215 257.911 167.85 258.854C167.543 259.652 166.705 259.718 166.322 260.16C166.084 260.436 166.051 260.765 166.051 261.114C166.047 262.145 166.554 262.144 167.433 262.156H172.644C173.6 262.154 174.743 262.143 174.486 260.775C174.361 260.117 173.674 259.929 173.223 259.537C172.903 259.26 171.956 258.013 171.748 257.647C171.123 256.555 171.404 255.255 171.057 254.353C170.763 253.592 170.223 253.203 169.971 252.272C169.77 251.523 169.959 250.859 169.544 249.845C169.167 248.924 168.472 248.48 168.481 246.897C168.484 246.264 168.588 245.706 169.189 245.366C169.782 245.033 171.583 245.35 171.027 243.455C170.81 242.72 169.287 242.744 168.649 242.735H162.57C161.606 242.735 160.171 242.602 159.295 242.912ZM175.597 260.422C175.672 260.824 175.75 261.57 176.047 261.854C176.398 262.19 177.055 262.154 177.508 262.156H182.545C183.671 262.154 184.437 262.013 184.055 260.605C183.728 259.402 182.413 260.38 181.689 258.858C181.356 258.157 181.331 257.197 181.329 256.434V251.232C181.331 250.547 181.329 248.773 182.049 248.442C182.221 248.364 182.353 248.367 182.525 248.442C182.677 248.509 184.315 250.33 184.432 250.54L185 252.05L185.872 253.141C186.179 253.6 186.237 253.909 186.462 254.353L187.267 255.567L187.828 256.751L188.727 257.996L189.358 259.352L190.176 260.429L190.756 261.755C191.206 262.386 193.706 262.563 194.253 262.027C194.59 261.698 194.529 261.034 194.531 260.595V248.284C194.533 247.521 194.5 246.351 195.106 245.796C196.006 244.972 197.704 245.477 197.458 243.777C197.312 242.768 196.396 242.746 195.573 242.735H191.752C190.944 242.746 189.843 242.782 189.693 243.783C189.497 245.102 190.451 244.896 191.22 245.458C191.856 245.921 191.911 246.34 191.925 247.07V251.752C191.918 252.355 191.672 254.563 190.574 253.897C190.046 253.576 189.895 252.539 189.528 251.974L188.821 251.051L188.159 249.845L187.423 248.804L186.865 247.447C186.547 246.921 186.143 246.767 185.769 246.03C185.052 244.62 185.651 245.43 184.571 243.934C183.9 243.004 184.008 242.76 182.719 242.735H177.855C176.95 242.737 176.209 242.638 176.129 243.776C176.113 244.008 176.129 244.405 176.223 244.617C176.527 245.317 177.275 245.064 177.855 245.291C178.892 245.695 178.896 246.47 178.898 247.417V257.127C178.896 257.89 178.924 258.709 178.403 259.333C177.718 260.153 177.195 259.553 175.597 260.422ZM207.385 242.772C205.789 243.091 206.285 243.278 205.127 243.935C204.654 244.202 204.21 244.235 203.767 244.566C203.438 244.811 202.245 246.037 202.047 246.384L201.581 247.41C201.203 248.085 200.85 248.164 200.621 248.979C200.343 249.964 200.432 252.515 200.437 253.659C200.44 254.283 200.532 255.7 200.812 256.231L201.488 257.143C202.209 258.213 202.009 258.129 203.011 259.192C203.437 259.643 204.109 260.403 204.635 260.696L206.516 261.311C207.637 261.76 207.675 262.303 209.817 262.329C210.878 262.341 212.863 262.414 213.812 262.097C214.496 261.868 214.743 261.514 215.375 261.266C216.009 261.018 216.61 261.079 217.256 260.645C217.868 260.236 219.381 258.75 219.806 258.168L220.409 257.134C220.724 256.65 221.055 256.434 221.279 255.898C221.562 255.216 221.625 254.389 221.629 253.659C221.634 252.501 221.681 250.202 221.38 249.151C221.187 248.47 220.732 248.163 220.385 247.59C219.65 246.385 220.39 246.914 219.056 245.482L218.399 244.74C217.993 244.384 217.434 244.324 216.94 244.051C216.256 243.672 216.077 243.262 215.533 243.035C214.99 242.81 213.563 242.737 212.943 242.772H207.385ZM269.397 260.422C268.827 260.097 268.045 259.771 267.714 259.191C267.444 258.715 267.474 258.01 267.488 257.474C267.533 255.776 268.292 255.241 269.918 255.22C270.781 255.209 272.654 255.13 273.392 255.419C274.835 255.983 275.572 257.824 274.729 259.185C274.042 260.295 272.892 259.503 272.445 260.448C272.372 260.689 272.365 261.029 272.445 261.285C272.589 262.261 273.295 262.154 274.087 262.156H280.687L282.772 262.013L284.856 262.156H290.241C291.056 262.154 291.881 262.291 292.067 261.282C292.117 260.999 292.115 260.715 291.971 260.458C291.718 260.002 291.186 259.895 290.726 259.345C290.076 258.57 289.906 257.583 289.923 256.607C289.89 256.203 289.878 255.417 289.923 255.046C290.215 253.736 291.165 252.856 292.499 253.403C292.814 253.531 293.071 253.642 293.321 253.885C293.736 254.289 293.805 254.748 294.076 255.22L294.992 256.607L295.411 257.814L296.416 259.215L296.842 260.579C297.323 261.648 298.332 262.14 299.447 262.156C299.998 262.163 302.524 262.22 302.868 262.052C303.376 261.802 303.37 260.718 303.092 260.302C302.68 259.688 301.943 260.108 301.236 259.6C300.926 259.378 299.541 257.816 299.373 257.472L298.872 255.95C298.475 255.284 297.762 255.234 297.683 253.833C297.608 252.534 299.256 251.414 300.017 250.45C300.443 249.909 300.481 249.118 300.451 248.457C300.495 247.981 300.521 246.592 300.451 246.203C300.177 245.333 298.174 243.373 297.347 243.035C296.413 242.654 293.776 242.735 292.673 242.735C289.386 242.735 286.006 242.475 282.772 243.082C282.772 243.488 282.709 244.4 282.949 244.716C283.199 245.042 283.943 245.104 284.335 245.246C285.388 245.626 285.537 246.222 285.551 247.244V256.78C285.549 257.627 285.555 258.67 284.955 259.343C284.017 260.396 282.737 260.134 281.556 259.952C280.722 259.823 280.156 259.893 279.524 259.185C278.98 258.575 279.062 257.979 278.778 257.301C278.471 256.56 278.117 256.378 277.811 255.393C277.465 254.275 277.635 253.829 277.469 253.139C277.264 252.298 276.805 251.965 276.484 251.232C276.13 250.424 276.215 249.805 276.063 248.978C275.766 247.341 274.997 246.926 275.143 246.21C275.377 245.042 277.04 245.589 277.457 244.618C277.55 244.402 277.566 244.01 277.55 243.776C277.47 242.638 276.729 242.737 275.824 242.735H266.965C266.046 242.737 265.33 242.637 265.238 243.776C265.073 245.811 266.282 244.754 267.288 245.463C267.95 245.929 267.919 246.699 267.797 247.417C267.642 248.345 267.109 248.7 266.802 249.671C266.499 250.62 266.723 251.454 266.353 252.612C266.098 253.415 265.65 253.614 265.381 254.353C265.033 255.305 265.193 256.777 264.781 257.647C264.537 258.166 263.741 259.114 263.302 259.487C262.829 259.888 262.133 260.103 261.988 260.775C261.719 262.039 262.74 262.15 263.665 262.156H267.312C267.799 262.156 268.553 262.216 268.923 261.854C269.225 261.557 269.319 260.831 269.397 260.422ZM311.954 242.791C310.372 243.124 310.884 243.337 309.863 243.935C309.395 244.209 308.961 244.228 308.509 244.566C308.204 244.794 307.153 245.891 306.963 246.219L306.522 247.242C305.84 248.513 305.357 247.937 305.353 250.365V254.526C305.357 256.687 305.591 256.069 306.571 257.647L307.102 258.672C307.264 258.925 308.645 260.401 308.883 260.552C309.463 260.919 310.597 261.062 311.257 261.351C312.348 261.83 312.284 262.306 314.212 262.329C315.303 262.341 317.219 262.419 318.207 262.126C319.079 261.866 319.239 261.55 319.944 261.263L321.652 260.741C322.539 260.229 323.265 259.194 323.776 258.341C324.089 257.819 324.931 256.921 324.811 256.283C324.674 255.544 322.39 254.849 321.582 255.522C321.209 255.832 321.167 256.309 320.863 256.773C320.623 257.139 319.93 257.833 319.581 258.107L317.165 259.556C316.892 259.69 316.597 259.752 316.297 259.784C314.982 259.921 314.688 259.426 313.691 258.873L312.656 258.369C312.129 258.029 310.959 256.829 310.712 256.26L310.198 254.526C309.892 253.72 309.539 253.391 309.536 252.446C309.531 251.388 309.903 250.921 310.259 250.018C310.545 249.291 310.663 248.418 311.084 247.771C311.417 247.256 311.834 246.975 312.286 246.585C314.179 244.951 314.189 245.159 316.644 245.163C317.422 245.165 318.371 245.156 319.031 245.628C319.847 246.215 321.311 248.164 322.032 248.388C323.672 248.9 324.106 247.733 324.104 246.377V244.643V243.767C323.757 241.778 321.303 243.947 320.347 243.767C319.816 243.64 319.663 243.084 318.555 242.791C317.971 242.692 316.613 242.735 315.949 242.791H311.954ZM327.413 244.816C328.219 245 329.201 245.217 329.583 246.037C329.936 246.795 329.845 248.612 329.845 249.498V256.434C329.842 256.995 329.731 258.552 329.524 259.028C329.161 259.858 328.188 260.111 327.413 260.422C327.546 260.909 327.73 261.644 328.181 261.932C328.586 262.19 329.369 262.156 329.845 262.156H334.709C335.501 262.154 336.206 262.261 336.35 261.285C336.432 261.023 336.422 260.692 336.35 260.444C335.979 259.647 334.815 259.808 334.113 258.341C333.865 257.822 333.847 257.34 333.84 256.78C333.821 255.135 333.719 253.989 335.404 253.099C336.154 252.702 337.172 252.782 338.009 252.792C339.964 252.818 341.124 253.97 341.136 255.913C341.141 256.877 341.226 257.639 340.726 258.514C339.887 259.978 338.977 259.633 338.635 260.444C338.543 260.661 338.525 261.049 338.541 261.285C338.612 262.293 339.29 262.154 340.094 262.156H345.652C346.1 262.15 346.917 262.142 347.261 261.826C347.629 261.488 347.561 260.711 347.563 260.248C346.78 260.091 345.81 259.948 345.383 259.189C345.098 258.681 344.964 257.219 344.957 256.607V248.631C344.959 248.076 345.044 246.507 345.234 246.037C345.658 244.995 346.804 245.262 347.285 244.828C347.66 244.49 347.563 243.559 347.563 243.082C346.592 242.9 346.151 242.748 345.131 242.735H340.094C339.208 242.741 338.626 242.718 338.541 243.776C338.367 245.915 339.854 244.695 340.773 246.21C341.136 246.807 341.16 247.604 341.133 248.284C341.08 249.59 339.929 250.516 338.704 250.849C338.326 250.906 337.554 250.89 337.141 250.849C335.119 250.861 333.795 249.855 333.842 247.764C333.854 247.275 333.919 246.481 334.184 246.066C334.763 245.172 335.989 245.439 336.342 244.618C336.436 244.402 336.451 244.012 336.436 243.776C336.356 242.638 335.614 242.737 334.709 242.735H330.019C329.326 242.737 328.037 242.739 327.585 243.368C327.358 243.686 327.413 244.426 327.413 244.816ZM361.633 251.752C361.008 251.424 360.617 251.147 359.896 251.076C359.224 251.01 358.242 251.175 357.653 250.855C356.398 250.171 356.594 248.613 356.596 247.417C356.597 246.789 356.538 246.222 356.997 245.723C357.563 245.107 358.268 245.165 359.027 245.163C360.13 245.161 362.668 244.979 363.504 245.635C364.496 246.411 363.587 247.712 364.937 248.057C366.24 248.388 366.655 247.703 366.67 246.55V244.469C366.656 242.356 365.75 242.735 363.023 242.735H351.732C350.858 242.737 350 242.675 349.847 243.776C349.609 245.485 351.07 245.01 351.886 245.61C352.651 246.174 352.599 246.921 352.6 247.764V256.607C352.599 257.656 352.595 258.566 351.713 259.308C351.126 259.804 350.453 259.813 350.129 260.295C349.958 260.548 349.964 260.824 349.979 261.115C350.04 262.274 350.585 262.154 351.558 262.156H364.933C365.288 262.156 365.936 262.197 366.222 261.979C366.785 261.549 366.672 259.548 366.67 258.861C366.669 258.006 366.715 256.968 365.621 256.806C363.745 256.531 364.492 258.507 363.188 259.458C362.42 260.016 359.135 260.04 358.159 259.862C357.683 259.777 357.334 259.572 357.032 259.189C356.431 258.428 356.594 256.869 356.596 255.913C356.596 255.39 356.563 254.677 356.823 254.212C357.494 253.019 359.752 253.283 360.417 253.035C361.051 252.801 361.358 252.328 361.633 251.752ZM372.75 260.422C372.868 260.89 372.938 261.7 373.346 261.979C373.723 262.237 375.031 262.156 375.529 262.156H380.914C381.828 262.154 383.276 262.152 383.085 260.788C382.993 260.118 382.225 260.049 381.609 259.73C380.862 259.341 380.36 258.787 380.068 257.994C379.778 257.205 379.872 255.594 379.872 254.7V248.631C379.873 247.878 379.893 246.68 380.346 246.052C381.081 245.038 383.321 244.778 384.086 245.876C384.892 247.032 383.671 249.415 385.263 249.645C385.778 249.72 386.361 249.6 386.643 249.125C386.853 248.77 386.82 248.171 386.82 247.764V244.643C386.82 244.235 386.853 243.637 386.643 243.282C386.165 242.474 384.037 242.735 383.172 242.735H371.881C371.275 242.737 370.342 242.682 369.901 243.171C369.59 243.514 369.627 244.038 369.623 244.469V247.764C369.623 248.149 369.585 248.756 369.8 249.073C370.275 249.801 371.548 249.526 371.878 249.073C372.13 248.707 372.05 247.696 372.055 247.244C372.064 246.675 372.066 246.179 372.477 245.749C373.165 244.981 374.77 244.958 375.425 245.749C375.776 246.2 375.87 247.703 375.877 248.284V256.434C375.873 257.101 375.784 258.459 375.475 259.031C374.774 260.325 374.199 259.445 372.75 260.422ZM390.468 242.826C390.106 242.926 389.66 243.015 389.429 243.344C389.212 243.653 389.252 244.272 389.252 244.643V247.937C389.255 248.629 389.196 249.12 389.955 249.408C390.485 249.607 390.996 249.52 391.232 248.959C391.456 248.426 391.157 246.753 391.932 245.948C392.708 245.14 394.614 244.787 395.416 245.723C395.899 246.286 395.851 247.07 395.852 247.764V255.393C395.852 256.376 395.95 258.183 395.477 259.028C394.755 260.319 393.577 259.534 393.084 260.448C392.849 260.881 392.997 261.821 393.474 262.052C393.688 262.156 394.053 262.15 394.289 262.156H400.89C401.843 262.154 402.988 262.143 402.731 260.775C402.559 259.87 401.614 260.004 400.897 259.466C399.95 258.755 399.853 257.868 399.848 256.78V247.764C399.849 247.084 399.794 246.437 400.27 245.881C401.036 244.988 403.339 244.88 404.062 245.881C404.885 247.02 403.573 249.39 405.406 249.645C405.91 249.715 406.44 249.631 406.667 249.125C406.893 248.627 406.797 245.253 406.796 244.469C406.796 244.09 406.832 243.457 406.618 243.136C406.205 242.519 403.733 242.735 402.974 242.735H394.984L390.468 242.826ZM409.254 242.912C408.901 243.224 408.802 243.273 408.732 243.776C408.482 245.576 410.037 244.948 410.787 245.34C411.677 245.803 411.658 246.554 411.659 247.417V257.127C411.658 258.01 411.665 259.225 410.772 259.725C410.185 260.052 409.271 259.699 408.906 260.448C408.831 260.671 408.849 261.044 408.906 261.285C408.996 262.296 409.606 262.154 410.443 262.156H417.739C418.592 262.154 419.339 262.31 419.485 261.282C419.556 261.029 419.589 260.708 419.485 260.475C419.182 259.99 418.385 260.014 417.913 259.862C417.263 259.654 416.924 259.256 416.584 258.688C415.802 257.379 416.002 256.331 416.002 254.873V248.457C416.005 247.835 416.045 246.952 416.297 246.38C416.606 245.676 417.185 245.359 417.913 245.218C418.625 245.081 419.485 245.232 419.624 244.287C419.874 242.59 417.859 242.737 416.697 242.735H411.833C410.98 242.735 410.061 242.624 409.254 242.912ZM111.848 245.222C112.547 245.14 114.376 245.054 114.968 245.366C115.446 245.619 115.609 245.952 115.897 246.371C116.177 246.777 116.743 247.301 116.766 247.771C116.849 249.555 113.988 251.353 112.369 251.213C110.308 251.036 110.613 248.56 110.632 247.07C110.638 246.675 110.632 246.233 110.836 245.879C111.094 245.43 111.393 245.359 111.848 245.222ZM209.469 245.218C210.414 245.116 212.443 245.069 213.291 245.449C213.942 245.742 215.71 247.308 216.042 247.937L216.558 249.671C217.076 251.088 217.335 250.866 217.282 252.619C217.249 253.784 216.961 253.744 216.635 254.7L216.11 256.598C215.955 256.903 214.762 258.133 214.47 258.343L213.464 258.873C212.405 259.487 212.106 259.98 210.685 259.87C209.44 259.773 209.351 259.409 208.427 258.873C207.885 258.558 207.638 258.565 207.112 258.102C205.879 257.021 206.032 256.732 205.445 255.393C204.807 253.938 204.463 253.658 204.534 251.925C204.604 250.268 205.043 250.429 205.5 249.324C205.731 248.768 205.771 248.137 206.072 247.606C206.317 247.173 207.991 245.806 208.443 245.557C208.768 245.376 209.111 245.3 209.469 245.218ZM291.283 245.237C292.004 245.128 293.944 245.057 294.566 245.39C295.009 245.628 295.195 245.981 295.466 246.377C295.739 246.772 296.18 247.285 296.236 247.764C296.442 249.595 293.416 251.365 291.803 251.211C289.357 250.977 289.767 246.661 290.238 245.938C290.505 245.527 290.853 245.399 291.283 245.237ZM271.169 247.199C272.4 247.251 272.244 248.775 272.513 249.671C272.841 250.765 274.455 252.288 272.35 252.759L271.481 252.848C271.08 252.905 270.832 252.867 270.439 252.848C268.843 252.615 268.775 251.443 269.418 250.191L270.071 249.151C270.475 248.372 270.342 247.703 271.169 247.199ZM165.137 247.478C166.115 248.204 165.971 249.784 166.042 250.885C166.115 251.343 166.254 251.804 166.042 252.236C165.556 253.04 164.015 253.137 163.283 252.739C162.42 252.267 162.559 251.353 162.67 250.538C162.83 249.364 162.745 248.333 163.963 247.714C164.432 247.474 164.628 247.424 165.137 247.478Z" fill="#447CCE"/>
<path id="emlogo" d="M316.991 125C316.704 126.727 315.299 126.179 314.258 126.923L312.869 128.844L312.254 130.367C311.941 130.923 311.606 131.019 311.335 131.457L310.812 132.803L309.857 134.19L309.301 135.57L308.382 136.806L307.936 137.831L307.137 139.045L306.626 140.252C306.303 140.84 305.959 141.029 305.672 141.488L305.127 142.858L304.213 144.103L303.579 145.627L302.669 146.863L302.205 147.888L301.342 149.275L300.798 150.473L299.954 151.545L299.37 153.083L298.418 154.319L297.738 155.864L296.987 156.905L296.355 158.292L295.544 159.506L294.962 160.719L294.25 161.76L293.668 163.145C293.329 163.761 292.936 163.941 292.669 164.39L292.212 165.746C291.912 166.402 291.495 166.585 291.187 167.151L290.684 168.515C290.369 169.108 289.982 169.273 289.641 169.916L289.186 170.95L288.425 172.163L287.935 173.37L286.963 174.607L286.372 176.145L285.452 177.381L284.977 178.723L284.001 179.968L283.324 181.527L282.61 182.567L282.014 183.765L281.253 184.837L280.673 186.208L279.815 187.422L279.235 188.808L278.213 190.212L277.71 191.584L276.714 192.971L276.226 194.011L275.46 195.225L274.941 196.432L274.074 197.509L273.518 198.866L272.65 200.08C272.294 200.659 272.351 201.079 272.057 201.634C271.75 202.211 271.401 202.365 271.145 202.745C270.876 203.146 270.814 203.635 270.617 204.068C270.331 204.703 270.016 204.937 269.716 205.455L269.2 206.662L268.276 207.898L267.737 209.254L266.864 210.491L266.367 211.855L265.389 213.092L264.804 214.638L263.984 215.715L263.414 217.073L262.571 218.287L262.049 219.5L261.217 220.714L260.419 222.084C260.133 222.457 258.531 223.716 258.106 223.882C257.649 224.061 256.367 224.175 255.847 224.182C254.258 224.199 251.27 224.421 249.941 223.648C248.621 222.88 247.942 221.434 247.181 220.194L246.219 218.807L245.721 217.449L244.769 216.204L244.067 214.645L243.355 213.605L242.702 212.218L241.965 211.177L241.416 209.964L240.487 208.576L239.988 207.231C239.733 206.822 239.365 206.685 239.045 206.14L238.481 204.588L237.622 203.375L236.945 201.863C236.674 201.462 236.412 201.311 236.122 200.772L235.575 199.56L234.755 198.346L234.286 197.162L233.29 195.917L232.722 194.387L231.889 193.311L231.169 191.757L230.351 190.543L228.514 187.091L227.706 186.019L226.999 184.331L226.116 183.254L225.427 181.575L224.723 180.653L224.162 179.446L223.315 178.232L222.769 177.048L221.878 175.803L221.355 174.454C221.086 173.975 220.742 173.866 220.426 173.36L219.82 171.832L219.036 170.761L218.43 169.419L217.534 168.174L216.938 166.837L216.215 165.914L215.574 164.376C215.276 163.908 214.899 163.716 214.583 163.14L214.061 161.775L213.288 160.704L212.722 159.506L211.873 158.292L211.303 156.934L210.362 155.689C210.019 155.105 210.033 154.711 209.816 154.304L208.899 153.09C208.526 152.502 208.564 152.055 208.265 151.529L207.357 150.316L206.792 149.102L206.016 147.888L205.552 146.85L204.617 145.605L204.008 144.103L203.188 143.026L202.642 141.653L201.69 140.417L200.992 138.872L200.334 137.831L199.743 136.647L199.015 135.735C198.684 135.211 198.631 134.667 198.393 134.206L197.48 132.969L196.894 131.653L195.328 129.843C194.984 129.59 194.265 129.496 193.836 129.396C192.288 129.026 192.663 128.818 190.883 128.815H143.809L141.204 128.988H118.101H65.8166C65.4588 128.988 64.9307 128.969 64.6007 129.092C63.1972 129.618 63.5585 131.587 63.5585 132.803V144.594V196.092C63.5585 196.557 63.4925 197.148 63.8312 197.514C64.2498 197.965 64.8977 197.991 65.4692 197.991H69.275L71.2014 197.826H80.4076L84.4028 198.053C84.6859 198.124 84.8544 198.214 85.0803 198.4C86.3848 199.478 86.8277 201.068 86.8347 202.681V210.137L86.6609 212.738V220.714L86.8347 223.315V224.876C86.8347 225.274 86.7634 225.961 87.1074 226.233C87.4218 226.479 88.1791 226.436 88.5717 226.436H93.4354H114.801H207.384H421.039C421.473 226.436 422.307 226.502 422.604 226.134C422.819 225.867 422.776 225.212 422.776 224.876V220.367V200.253C422.779 197.583 423.748 196.616 426.423 196.612H442.578C443.059 196.61 443.696 196.662 444.087 196.335C444.711 195.811 444.489 193.456 444.489 192.624V179.966V128.468C444.485 126.269 444.011 126.932 443.967 125H316.991ZM323.07 131.638C324.846 131.473 324.952 131.745 326.371 131.762H334.014H358.679H373.792L376.397 131.936H380.392L382.824 131.762H433.024C433.818 131.764 436.797 131.903 437.351 132.257C438.468 132.971 438.923 134.148 438.93 135.404V145.114V187.422C438.928 188.294 438.899 190.151 438.168 190.715C437.335 191.36 434.794 191.237 433.719 191.237H422.949H419.128C418.602 191.237 417.872 191.187 417.445 191.539C417.044 191.87 417.052 192.324 417.044 192.797V201.641V220.541C417.044 220.981 417.057 221.503 416.946 221.928C416.394 224.047 414.848 224.017 413.048 224.009C411.633 224.002 410.488 223.443 410.108 221.928V219.847V216.726V192.624C410.09 189.728 409.348 189.602 410.91 186.729C411.219 186.162 411.412 185.586 412.024 185.281C412.611 184.989 413.448 184.996 414.091 184.995H429.724C431.117 184.993 432.296 185.139 432.329 183.434V174.418V139.912C432.329 139.529 432.368 138.922 432.152 138.598C431.89 138.204 431.206 138.041 430.766 137.947C429.88 137.758 427.624 137.831 426.597 137.831H407.49H325.676C324.939 137.833 322.27 138.024 321.717 138.355C321.337 138.584 321.161 139.005 320.876 139.328L320.09 140.122L319.258 141.79L318.457 142.867L317.981 144.073L317.158 145.287L316.461 146.659L315.82 147.571L315.082 149.26L314.234 150.331L313.725 151.696C313.425 152.327 313.102 152.445 312.81 152.932L312.224 154.47L311.272 155.707L310.753 156.905L309.938 158.292L309.45 159.325L308.526 160.562L307.944 161.933C307.644 162.455 307.25 162.762 307.005 163.32L306.61 164.517C306.313 165.087 305.924 165.198 305.603 165.765L304.993 167.308L304.175 168.522L303.577 169.736L302.784 170.95L302.214 172.163L301.503 173.204L300.862 174.757L299.956 175.834L299.395 177.365L298.405 178.752L297.807 180.14L296.888 181.527L296.351 182.741L295.551 183.954L294.962 185.152L294.258 186.065L293.668 187.594C293.346 188.185 292.971 188.378 292.697 188.839L292.212 190.195C291.906 190.855 291.496 191.034 291.187 191.599L290.684 192.955L289.791 194.192L289.276 195.383L288.451 196.619L287.887 197.963L286.987 199.057L286.48 200.425C286.188 201.049 285.861 201.19 285.564 201.67L284.977 203.194C284.668 203.787 284.272 203.952 283.946 204.595L283.397 205.96L282.763 206.872L281.253 209.443L280.673 210.831L279.839 212.044L279.193 213.425L278.281 214.661L277.809 216.032L276.714 217.593L276.27 218.633L274.712 221.17C274.057 221.909 272.632 223.353 271.799 223.806C271.041 224.217 268.986 224.26 268.184 223.911C267.322 223.537 267.452 222.883 267.485 222.101C267.558 220.437 267.944 220.568 268.703 219.327L269.388 217.969L270.018 217.057L270.626 215.528L271.507 214.456L272.054 213.085L273.042 211.698L273.511 210.326L274.585 208.921L275.095 207.709L275.879 206.496L276.391 205.297L277.201 204.226L277.781 202.861L278.679 201.625L279.097 200.429C279.434 199.664 279.884 199.549 280.263 198.859L280.874 197.306L281.707 196.092L282.217 194.951L282.931 194.009L283.537 192.631L284.397 191.395L284.889 190.198L285.917 188.794L286.495 187.256L287.423 186.019L287.941 184.821L288.839 183.434L289.382 182.236L290.143 181.164L290.776 179.8L291.578 178.723L292.165 177.199L293.166 175.963C293.419 175.51 293.395 175.004 293.727 174.433L294.512 173.362L295.118 171.99L295.855 170.95L296.508 169.563L297.22 168.522L297.897 166.977C298.207 166.476 298.583 166.287 298.874 165.741L299.37 164.368C299.666 163.787 300.013 163.619 300.293 163.131L300.824 161.76L301.802 160.373L302.247 159.332L303.124 157.945L303.663 156.747L304.498 155.675L305.082 154.146L306.034 152.91L306.645 151.372L307.465 150.3L308.076 148.771L308.886 147.699L310.404 144.94L310.899 143.742L311.757 142.671C312.044 142.177 312.07 141.545 312.447 140.982C312.721 140.569 313.016 140.42 313.268 139.905L313.743 138.54L314.719 137.304L315.325 135.924C316.023 134.622 316.612 134.093 317.597 133.096C317.878 132.811 318.056 132.524 318.412 132.307C319.2 131.825 320.286 131.99 321.16 131.906L323.07 131.638ZM73.1121 134.722H85.7924H110.632H129.392L133.213 134.884H150.41H188.624C190.718 134.887 190.226 135.05 191.767 136.038C192.272 136.363 192.632 136.463 193.019 136.982L193.914 138.65C194.47 139.381 195.453 140.999 195.85 141.819L196.29 142.858L197.365 144.262L197.857 145.627L198.757 146.863L199.366 148.235L200.24 149.449C200.511 149.939 200.481 150.206 200.893 150.836L201.6 151.876C201.815 152.301 201.826 152.622 202.125 153.09L203.054 154.304L203.585 155.689L204.513 156.934L205.173 158.45L205.972 159.521L206.417 160.546L207.346 161.933L207.919 163.147L208.786 164.361L209.347 165.906C209.672 166.464 210.108 166.615 210.412 167.166L210.911 168.507L211.713 169.578L212.319 170.943L213.104 172.02L213.709 173.362L214.494 174.433C214.826 175.004 214.803 175.519 215.055 175.961C215.331 176.45 215.732 176.604 216.023 177.055L216.613 178.579L217.461 179.793L218.071 181.007L220.068 184.301L220.747 185.86L221.73 187.105L222.318 188.629L223.212 189.865L223.93 191.381L224.659 192.458L225.116 193.491L226.068 194.878L226.568 196.076L227.511 197.313L228.078 198.849L229.021 199.943L229.606 201.467L230.343 202.508L231.004 203.888L231.802 204.965L232.396 206.307C232.693 206.785 233.005 206.971 233.271 207.543L233.775 208.908C234.072 209.393 234.477 209.579 234.777 210.144L235.338 211.668L236.073 212.58L236.709 213.952L237.437 214.992L238.027 216.206L238.826 217.42L239.493 218.973C239.799 219.464 240.181 219.672 240.463 220.209C240.782 220.818 241.185 222.869 240.789 223.45C240.369 224.069 239.34 224.204 238.651 224.166C236.523 224.047 235.55 223.18 234.23 221.597C233.924 221.229 233.553 220.945 233.315 220.525L232.748 218.996L231.889 217.924L231.169 216.379L230.456 215.339L229.894 214.125L229.108 212.911L228.409 211.524L227.657 210.484C227.239 209.802 227.35 209.402 226.915 208.75L226.096 207.709C225.746 207.161 225.769 206.785 225.55 206.324C225.286 205.771 224.94 205.559 224.652 205.079L224.046 203.721L223.315 202.681L222.721 201.467L221.989 200.427L221.378 198.873C221.03 198.24 220.61 198.076 220.29 197.472L219.794 196.108L218.92 194.871L218.314 193.507L217.602 192.595L217.04 191.41L216.241 190.197C215.866 189.539 215.937 189.165 215.595 188.652L214.695 187.58C214.395 187.086 214.39 186.621 214.211 186.21C213.929 185.565 213.518 185.383 213.193 184.806L212.557 183.29L211.741 182.213L211.036 180.66L210.334 179.619L209.698 178.406L208.962 177.365L208.374 175.82L207.372 174.584L206.842 173.211L205.937 171.974L205.378 170.618L204.478 169.382L203.914 168.175L203.139 166.962L202.647 165.755L201.775 164.678C201.406 164.137 201.445 163.686 201.143 163.147L200.276 161.933L199.695 160.553L198.77 159.317L198.282 158.292L197.454 156.905L196.94 155.72L195.996 154.475L195.474 153.106C195.229 152.632 194.928 152.44 194.648 152.034L193.853 150.331L193.063 149.26L192.548 148.062L191.762 146.848C191.162 145.795 191.48 146.015 190.586 144.868C189.938 144.035 190.144 143.884 189.788 143.208C189.587 142.827 188.102 141.211 187.726 141.056C187.421 140.932 186.877 140.952 186.54 140.952H77.4547C76.1241 140.956 75.5718 141.004 75.544 142.513V151.009V184.301C75.5457 184.781 75.4936 185.418 75.8219 185.808C76.1571 186.203 76.6331 186.2 77.1073 186.215H78.8443L80.5814 186.382H85.445L88.2243 186.175H93.0879C93.6125 186.091 93.8106 186.16 94.3039 186.175C95.8463 186.299 96.4925 186.174 97.6459 187.351C98.3685 188.088 98.4588 188.312 98.4727 189.33V221.408C98.471 222.084 98.5092 223.025 98.0037 223.549C97.5365 224.033 96.0339 224.102 95.3461 224.151C94.7016 224.196 93.2651 224.041 92.7944 223.587C92.3879 223.195 92.3341 222.469 92.2351 221.928V217.246V194.531C92.2177 194.051 92.2698 193.415 91.9415 193.025C91.4065 192.39 88.589 192.624 87.7032 192.624H73.1121C71.0242 192.621 69.3202 191.835 69.2907 189.503V180.313V148.235L69.117 145.287L69.2611 139.045C69.3897 137.694 69.011 136.519 70.1922 135.471C70.9982 134.757 72.1151 134.903 73.1121 134.722ZM351.905 199.173C352.238 199.223 352.388 199.192 352.645 199.475C353.269 200.162 353.121 203.246 353.121 204.242V220.541C353.119 221.432 353.077 222.949 352.377 223.587C351.75 224.161 350.467 224.009 349.647 223.984H343.046C342.713 224.009 342.145 224.022 341.837 223.984C340.746 223.622 340.571 222.145 340.936 221.234L341.907 219.674C342.065 219.342 342.145 218.985 342.242 218.633C342.593 217.368 342.779 217.543 343.331 216.553C343.767 215.769 343.708 215.353 343.969 214.819L344.858 213.431L345.403 211.699C345.723 211.047 346.142 210.863 346.399 210.295L346.835 208.757L347.684 207.52L348.196 205.809C348.464 205.235 348.824 205.063 349.103 204.573C349.409 204.037 349.412 203.385 349.645 202.861C349.954 202.168 350.364 202.058 350.63 201.292C350.965 200.326 350.698 199.527 351.905 199.173ZM166.535 199.416C167.396 199.818 167.33 200.668 167.65 201.465C167.957 202.234 168.298 202.298 168.595 202.87C168.878 203.413 168.852 204.137 169.191 204.746L170.08 205.982L170.631 207.694L171.421 208.93L172.025 210.657L172.937 212.044L173.387 213.431C173.681 214.144 174.014 214.422 174.306 214.992L174.897 216.724C175.185 217.357 175.486 217.513 175.758 217.969C176.128 218.588 176.087 219.202 176.391 219.847L177.332 221.408C177.629 222.15 177.641 223.501 176.78 223.88C176.434 224.033 175.807 224.009 175.423 224.009H167.433C167.031 224.009 166.43 224.043 166.083 223.832C165.383 223.405 165.352 221.805 165.348 221.061V202.508C165.35 201.485 165.256 199.636 166.535 199.416ZM58 277.067V283.483H83.0132C83.6698 283.485 84.3385 283.445 84.9204 283.804C85.8254 284.362 85.954 285.111 85.9661 286.084V290.592V313.48C85.9644 314.486 85.8932 316.366 84.9048 316.919C84.4758 317.158 83.8435 317.122 83.3606 317.122H66.3377H61.4741C61.0659 317.122 60.4666 317.089 60.1105 317.299C59.5772 317.612 59.5737 318.136 59.5633 318.682V342.091V385.439C59.5633 385.838 59.4921 386.525 59.836 386.797C60.1991 387.081 61.5036 387 61.9952 387H67.2062H92.3931H199.915C200.396 387 201.181 387.055 201.548 386.698C201.885 386.369 201.824 385.705 201.826 385.266V379.544V355.095V320.59C201.824 319.825 201.855 319.137 201.246 318.563C200.831 318.172 200.448 318.172 199.915 318.162H196.094H177.507C176.5 318.16 175.334 318.115 174.629 317.273C174.183 316.738 174.211 316.211 174.207 315.561V311.573V290.766V285.564C174.219 284.905 174.275 284.367 174.787 283.884C175.26 283.438 176.347 283.341 176.986 283.317L178.897 283.476H181.155L185.672 282.789C186.512 282.781 187.85 282.73 188.624 282.952L190.361 283.707L192.265 284.255L194.289 285.805L195.746 287.66C196.142 288.288 196.094 288.865 196.342 289.363C196.592 289.867 197.004 290.098 197.285 290.599L197.858 292.326L198.826 293.713L199.375 295.012L200.224 295.983L200.926 297.528L201.63 298.568L202.095 299.536L203.07 300.823L203.615 302.194L204.543 303.43L205.138 304.637L205.981 305.851L206.485 306.891L207.346 308.105L207.928 309.463L208.8 310.54L209.347 311.918C209.646 312.492 210.019 312.685 210.323 313.163L210.78 314.174L211.652 315.561L212.097 316.595L213.103 317.831C213.382 318.289 213.44 318.812 213.612 319.187C213.869 319.743 214.226 319.934 214.534 320.423L215.215 321.947L216.057 323.024L216.651 324.201L217.386 325.278L217.859 326.469C218.168 327.033 218.566 327.184 218.951 327.874L219.531 329.259L220.271 330.3L221.531 332.38L222.272 333.911L223.018 334.824L223.737 336.369L224.61 337.582L225.272 338.969L226.097 340.183L226.617 341.224L227.409 342.264C227.789 342.867 227.748 343.325 228.043 343.795L228.951 344.872L229.63 346.41L230.317 347.322L230.98 348.68L231.751 349.72L232.396 351.091L233.195 352.163L233.81 353.679L234.791 354.924L235.347 356.087L236.047 357.178L236.539 358.201C236.855 358.683 237.221 358.868 237.532 359.437L238.031 360.802L238.96 362.038L239.591 363.389L240.376 364.465L240.945 365.643L241.708 366.72L242.337 368.084L243.316 369.321L243.886 370.845L244.882 372.09L245.37 373.128L246.176 374.342L246.688 375.526L247.669 376.771L248.201 378.127C248.515 378.66 248.825 378.682 249.238 379.544L249.778 380.728L250.466 381.64L252.003 384.226L252.396 385.236C252.629 385.623 253.7 386.858 254.128 386.936C254.803 387.059 255.424 386.461 255.733 385.93L256.336 384.753L257.162 383.676L257.68 382.327C258.107 381.597 258.479 381.677 258.88 380.754L260.657 377.479L261.418 376.567L262.073 375.043L262.844 374.12L263.49 372.781L264.361 371.568L264.998 370.354L265.728 369.314L266.294 368.1L267.298 366.713L267.948 365.326L268.654 364.285L269.339 363.087L270.044 362.175C270.306 361.721 270.362 361.193 270.732 360.651L271.632 359.574L272.099 358.39L273.563 355.969L274.42 354.892L274.977 353.542L275.851 352.465L276.532 350.949L277.268 350.037L277.944 348.695L278.595 347.783L279.195 346.441L280.194 345.205L280.758 343.998L281.559 342.784L282.089 341.751L283.023 340.514L283.612 339.15L284.486 338.073L285.092 336.715L285.948 335.502L286.541 334.303L287.265 333.391L287.996 331.876L288.863 330.804L289.393 329.44L290.218 328.363L290.772 327.352L291.512 326.312L292.271 324.758L293.171 323.681L293.728 322.324L295.214 319.925L295.83 319.173L296.614 317.484L297.375 316.572L298.029 315.057L298.912 313.985L299.32 313.134L300.129 311.92L300.701 310.706L301.781 309.289L302.412 307.774L303.1 306.862L303.76 305.685L304.453 304.762L305.144 303.266L305.988 302.194L306.734 300.665L307.52 299.593L308.128 298.424L308.815 297.512L309.362 296.314L310.394 294.927L310.927 293.547L311.828 292.47L313.131 290.245L313.786 288.865L314.708 287.788L315.179 286.604C315.438 286.075 316.68 284.497 317.171 284.189C318.759 283.195 322.362 283.487 324.286 283.483L327.239 283.31H333.319C334.038 283.311 335.502 283.356 336.089 283.76C336.866 284.293 336.956 285.051 336.967 285.911V290.766V313.654C336.965 314.54 336.935 315.674 336.333 316.388C335.466 317.415 332.051 317.122 330.713 317.122H311.259C309.454 317.125 308.83 317.279 308.827 319.202V332.901V385.266C308.828 385.699 308.764 386.358 309.105 386.679C309.473 387.026 310.26 386.998 310.737 387H316.47H341.83H449.873C450.219 387 450.883 387.04 451.159 386.823C451.454 386.589 451.43 386.124 451.437 385.786V383.185V370.874V317.642C451.435 317.201 451.492 316.518 451.159 316.185C450.848 315.875 450.282 315.911 449.873 315.908H445.531H426.25C425.44 315.906 423.969 315.861 423.349 315.299C422.81 314.812 422.784 313.98 422.776 313.307V308.625V286.084C422.776 285.562 422.744 285.014 422.965 284.527C423.891 282.463 427.857 282.963 429.724 282.963H453V277.067H58ZM253.937 364.285C255.536 363.337 255.49 362.924 256.381 361.54L257.077 360.628L257.756 359.113L258.654 358.036L259.377 356.512L260.655 354.431L261.392 353.519L261.974 352.154L262.898 350.918L263.433 349.72L264.39 348.333L264.894 347.308L265.702 346.236L266.436 344.707L267.289 343.636C267.565 343.157 267.543 342.73 267.951 342.091L268.724 341.05L269.37 339.885L269.952 339.127L270.626 337.589L271.666 336.353L272.314 334.837L272.981 333.925L273.53 332.916L274.362 331.845L274.969 330.48L275.809 329.403L276.367 328.046L277.267 326.832L277.904 325.634L278.582 324.722L279.139 323.371L280.178 322.135L280.711 320.763L281.707 319.376L282.2 318.335L283.048 317.122L283.61 315.924L284.362 315.011L285.078 313.48L286.06 312.093L287.816 308.972L288.703 307.758L289.344 306.213L290.322 304.977L290.932 303.77L291.708 302.556L292.165 301.539C292.954 300.308 292.629 301.52 293.464 299.435C293.84 298.497 294.262 298.452 294.661 297.695L295.175 296.517L296.072 295.272L296.541 294.263L297.342 293.186L297.897 291.822L298.912 290.585L299.516 289.221L300.781 287.14L301.538 286.228C301.941 285.663 302.002 285.285 302.591 284.733C303.97 283.447 307.64 282.939 309.119 284.298C309.916 285.03 308.905 285.654 308.58 286.113C308.222 286.62 308.274 287.06 307.943 287.645C307.602 288.248 307.206 288.485 306.852 289.205L305.598 291.286L305.035 292.484L304.184 293.556L303.628 294.927L302.587 296.314L300.883 299.428L299.815 300.829L299.257 302.21L298.326 303.423L297.866 304.29L297.086 305.504L296.522 306.718L295.476 308.105L294.957 309.319L294.158 310.359L293.503 311.731L292.709 312.802L292.139 313.985L291.271 315.057L290.737 316.421L289.733 317.657L289.276 318.682L288.5 319.896L287.911 321.094L286.928 322.33L286.348 323.704L285.547 324.781L285.017 325.791L284.3 326.832L283.52 328.377L282.759 329.289C282.471 329.752 282.507 330.177 282.097 330.82L281.18 332.034L280.616 333.247L279.81 334.461L279.236 335.495L278.415 336.571L277.762 338.101L276.716 339.346L276.296 340.357L274.892 342.769L274.058 343.84L273.47 345.205L272.535 346.441L271.988 347.639L270.494 350.037L269.89 350.79C269.539 351.339 269.556 351.908 269.184 352.458C268.882 352.905 268.495 353.06 268.203 353.552L267.736 354.748C267.485 355.262 267.194 355.517 266.909 355.962L266.396 356.987C265.853 357.916 265.655 357.502 265.154 358.91C264.689 360.217 264.401 359.971 263.914 360.833L263.395 362.024L262.61 363.101L261.915 364.429L261.211 365.341L260.544 366.706L259.634 367.942L259.017 369.314L257.119 372.161C256.591 372.875 256.718 373.203 256.353 373.82C256.052 374.33 255.602 374.659 255.182 375.062C254.863 375.367 254.479 375.889 253.971 375.75C253.443 375.604 253.212 374.776 252.976 374.349L252.04 373.113C251.718 372.587 251.772 372.296 251.267 371.568C250.358 370.26 250.41 369.889 250.021 369.321C249.704 368.856 249.309 368.623 249.031 368.084L248.529 366.728L247.572 365.492L246.978 364.285L246.195 363.071L245.75 362.047L244.777 360.81L244.286 359.605L243.283 358.201L242.724 356.845L241.916 355.773L241.369 354.764L240.727 353.852L239.994 352.17C239.69 351.686 239.337 351.582 239.045 351.085L238.455 349.562L237.748 348.65L237.082 347.308L236.287 346.236L235.684 344.88L234.843 343.809L234.256 342.295C233.978 341.815 233.589 341.664 233.28 341.192L232.602 339.663L231.883 338.623L231.225 337.409L230.501 336.369L229.943 334.997L228.986 333.761L228.263 332.223L227.572 331.311L227.001 330.126L226.169 328.913L225.576 327.714L224.767 326.643L224.157 325.115L223.254 324.021L222.623 322.67L221.923 321.63L221.432 320.591L220.459 319.346C220.167 318.868 220.157 318.424 219.952 317.996C219.669 317.399 219.306 317.247 218.996 316.759C218.673 316.253 218.651 315.689 218.402 315.237C218.123 314.722 217.786 314.639 217.473 314.151L217.016 313.134L216.144 311.746L215.699 310.708L214.694 309.463L214.088 307.947L213.261 306.876L212.465 305.331L211.749 304.29L211.256 303.25L210.4 302.036L209.794 300.665L208.845 299.428L208.267 298.048L207.53 297.008L206.867 295.794L206.141 294.754L205.522 293.368L204.619 292.278C204.268 291.731 204.291 291.161 203.936 290.622L203.301 289.869C202.88 289.307 202.884 288.893 202.599 288.345C202.31 287.794 202.055 287.679 201.775 287.268L201.135 285.911C200.834 285.377 200.375 285 200.848 284.402C201.345 283.774 202.957 283.214 203.737 283.273C204.503 283.332 206.637 284.192 207.195 284.719C208.147 285.619 208.654 286.732 209.307 287.818L210.375 289.235L210.881 290.563L211.713 291.64L212.39 293.178L213.104 294.09L213.698 295.258L214.47 296.33L215.079 297.852C215.408 298.398 215.816 298.449 216.13 299.097L216.613 300.46L217.445 301.532L217.902 302.556L218.835 303.944L219.384 305.15L220.224 306.227L220.782 307.585L221.788 308.972L222.368 310.344L223.155 311.415L224.416 313.48L225.125 315.025L226.097 316.262L226.651 317.635L227.463 318.712L228.196 320.243L228.953 321.283L229.563 322.497L230.299 323.537L230.831 324.918L231.863 326.154L232.444 327.525L233.897 329.953L234.642 330.993L235.224 332.365L236.073 333.436L236.619 334.801L237.596 336.037L238.22 337.402L238.929 338.479L239.358 339.316L240.374 340.703L240.93 342.084L241.849 343.32L242.615 344.865L243.329 345.905L243.968 347.119L244.692 348.159L245.239 349.373L246.146 350.587L246.789 352.132L247.669 353.203L248.274 354.559L249 355.631L249.545 356.822L250.447 357.899L251.036 359.414L251.903 360.486L252.561 362.001C253.033 362.763 253.367 362.598 253.937 364.285ZM414.438 283.369C415.967 283.45 416 284.702 416.001 285.911V291.806V319.376C416.003 320.003 415.956 320.888 416.462 321.353C416.971 321.821 419.562 321.63 420.344 321.63H433.372H441.883C442.244 321.635 442.569 321.637 442.925 321.722C443.462 321.848 445.442 322.814 445.75 323.229C446.05 323.633 446.045 324.101 446.052 324.578V343.131V377.29C446.05 377.964 446.074 378.765 445.717 379.364C445.282 380.088 443.227 381.24 442.404 381.486C441.975 381.614 441.628 381.619 441.188 381.625H416.87H404.016L401.41 381.451H384.561H354.163L351.558 381.625H320.117C318.391 381.621 317.991 381.437 316.47 380.674C315.966 380.421 315.4 380.217 315.11 379.698C314.924 379.367 314.74 376.77 314.733 376.249V368.447L314.906 365.499V336.195L314.733 333.247V328.739L314.891 326.658C314.993 325.169 314.641 324.623 315.956 323.497C316.268 323.23 316.602 322.97 316.991 322.825C317.461 322.648 318.054 322.67 318.554 322.67H340.441C341.075 322.669 342.478 322.658 342.942 322.197C343.336 321.805 343.22 320.614 343.22 320.069V314.174V286.257C343.223 284.591 343.614 283.689 345.478 283.656C346.253 283.644 347.403 283.521 347.985 284.102C348.591 284.707 348.431 285.966 348.431 286.778V293.54V326.138C348.429 326.828 348.459 327.772 347.962 328.318C347.573 328.744 347.052 328.73 346.52 328.739H342.351H323.07C321.74 328.743 321.187 328.791 321.16 330.3V338.969V372.608C321.161 373.194 321.094 373.988 321.582 374.411C321.962 374.743 322.594 374.687 323.07 374.689H327.587H348.431H437.888C438.772 374.687 439.363 374.751 439.783 373.818C440.066 373.192 439.972 371.618 439.972 370.874V364.459V330.82C439.971 330.055 439.934 328.522 439.338 327.976C438.972 327.64 438.355 327.701 437.888 327.699H433.372H413.396C412.701 327.697 411.921 327.772 411.459 327.139C411.025 326.542 411.138 325.148 411.138 324.404V317.815V291.979V285.737C411.146 285.148 411.162 284.558 411.598 284.102C412.169 283.504 413.63 283.466 414.438 283.369ZM163.615 283.745C164.594 283.57 166.63 283.474 167.358 284.244C167.843 284.757 167.778 285.432 167.78 286.084V292.5V321.977C167.782 322.445 167.725 323.08 168.058 323.449C168.385 323.811 169.217 323.946 169.691 324.049H174.555H186.714C189.191 324.054 190.136 323.726 192.967 324.049H194.009C194.463 324.227 194.704 324.442 195.044 324.746C196.116 325.698 196.25 326.299 196.267 327.699V345.212V376.943C196.266 377.503 196.161 379.435 195.916 379.854C195.722 380.187 195.361 380.388 195.051 380.596C193.662 381.534 193.424 381.621 191.751 381.625H166.564H101.252L98.6464 381.451H68.4222C67.2549 381.449 65.8861 381.17 65.2556 380.055C64.8005 379.253 64.9481 377.387 64.9481 376.423V368.62V326.138C64.9498 325.398 64.9742 323.645 65.5439 323.142C66.0876 322.663 67.2115 322.672 67.9011 322.67H90.3087C90.8611 322.669 91.5472 322.736 91.9415 322.27C92.3358 321.803 92.2194 320.512 92.2194 319.896V314.174V286.084C92.2229 284.151 92.6919 283.854 94.6513 283.83C95.4364 283.821 97.6633 283.83 98.1705 284.425C98.5926 284.92 98.4727 286.296 98.4727 286.951V293.713V325.271C98.4727 325.738 98.4953 326.386 98.3181 326.816C98.1323 327.265 97.8214 327.472 97.4774 327.785C96.4248 328.743 96.4161 328.737 94.9987 328.739H73.2858C71.964 328.741 71.2309 328.763 71.2014 330.3V338.969V372.435C71.2031 373.142 71.1615 373.921 71.7816 374.411C72.1985 374.743 72.7838 374.687 73.2858 374.689H77.6284H98.4727H187.93C188.6 374.687 189.255 374.762 189.693 374.143C190.127 373.527 190.014 372.152 190.014 371.394V364.805V332.207C190.012 331.656 190.08 330.971 189.613 330.577C189.25 330.272 188.722 330.303 188.277 330.3H184.108H164.827C164.127 330.298 163.345 330.367 162.871 329.74C162.461 329.199 162.569 328.026 162.569 327.352V321.803V294.06V285.564C162.583 284.562 162.647 284.175 163.615 283.745Z" fill="#447CCE"/>
</g>
</svg>
