<svg width="512" height="512" viewBox="0 0 512 512" fill="none" xmlns="http://www.w3.org/2000/svg">
<g id="emfull">
<g id="emlogo">
<path id="msuperior" d="M38.535 112H187.235C187.505 113.571 188.281 112.857 189.316 114.025C191.247 116.203 190.665 116.295 191.417 117.588L192.498 119.013L193.257 120.76L194.081 122.001L194.766 123.392L195.632 124.592L196.395 126.19L197.261 127.39L198.056 129.18L199.011 130.422L199.841 132.368L200.63 133.42L201.306 134.785L202.183 136.184L203.021 137.965L203.98 139.2L204.65 140.781L205.653 142.18L206.283 143.777L207.34 145.212L207.932 146.577L208.825 147.976L209.474 149.373L210.538 150.808L211.147 152.371C211.497 153.128 211.925 153.332 212.283 153.99L212.878 155.553L214.001 156.978L214.781 158.769L215.59 159.968L216.244 161.367L217.201 162.766L217.897 164.347L218.772 165.582L219.44 167.163L220.597 168.762L221.239 170.361L222.33 171.96L222.973 173.351L223.879 174.776L224.424 175.957L225.5 177.556L226.095 178.947L227.121 180.372L227.794 182.135L228.792 183.37L229.621 185.317L230.392 186.368L231.022 187.749L232.007 189.148L232.769 190.747L233.604 191.946L234.372 193.737L235.349 194.978L236.057 196.743L237.034 198.142L237.656 199.541L238.657 200.94C239.003 201.49 239.009 201.836 239.257 202.339L240.29 203.938L240.887 205.337L241.983 206.936L242.742 208.735L243.754 210.134L244.423 211.733L245.38 213.132L246.05 214.731L247.051 216.13L247.681 217.529L248.462 218.729L249.176 220.319C249.532 221.021 249.859 221.177 250.233 221.744L251.133 223.483C251.542 224.001 253.535 225.208 254.191 225.396C254.794 225.572 256.115 225.532 256.789 225.524C258.114 225.506 260.227 224.517 261.046 223.483C261.4 223.038 261.544 222.426 261.829 221.934L262.903 220.509L263.598 218.928L264.498 217.529L265.127 216.13L266.129 214.731L266.798 213.132L267.855 211.533L268.425 210.134L269.554 208.535L270.196 206.936L271.179 205.537L271.889 203.938L272.816 202.539C273.214 201.83 273.106 201.528 273.66 200.741C274.905 198.966 274.421 199.34 275.145 198.142L276.122 196.743L276.727 195.162L277.807 193.737L278.574 191.946L279.41 190.747L280.171 189.148L281.156 187.749L281.786 186.368L282.661 185.133L283.387 183.37L284.384 182.135L285.058 180.372L286.083 178.947L286.679 177.556L287.754 175.957L288.3 174.776L289.205 173.351L289.849 171.96L290.94 170.361L291.581 168.762L292.621 167.363L293.406 165.582L294.282 164.347L295.095 162.566L296.053 161.167L296.588 159.968L297.508 158.569L298.177 156.978L299.3 155.553L299.896 153.99L300.935 152.565L301.641 150.808L302.594 149.567L304.247 146.577L304.839 145.212L305.788 143.971L306.416 142.38L307.529 140.781L308.198 139.2L309.158 137.965L309.995 136.184L310.873 134.785L311.548 133.42L312.338 132.368L313.167 130.422L314.122 129.18L314.918 127.39L315.783 126.19L316.547 124.592L317.412 123.392L318.098 122.001L318.921 120.76L319.681 119.013L320.762 117.588C321.513 116.295 320.932 116.203 322.863 114.025C323.898 112.857 324.673 113.571 324.943 112H473.644C473.71 114.54 474.637 113.089 474.643 115.997V175.957V192.546C474.639 195.022 473.791 195.34 471.445 195.344H452.857C452.44 195.344 451.846 195.32 451.458 195.464C450.743 195.728 449.644 196.827 449.38 197.543C449.236 197.93 449.26 198.524 449.26 198.942V222.326V227.523C449.256 228.018 449.302 228.598 448.94 228.992C448.404 229.573 447.385 229.519 446.662 229.521H156.256H84.7041H68.1152C66.9799 229.521 63.7701 229.843 63.1225 228.844C62.8747 228.46 62.9186 227.77 62.9186 227.323V198.542C62.8947 197.251 61.9713 195.924 60.7201 195.464C60.3324 195.32 59.7388 195.344 59.3211 195.344H40.7335C38.3871 195.34 37.5396 195.022 37.5356 192.546V115.997C37.5416 113.089 38.469 114.54 38.535 112ZM51.1265 120.408C50.2371 120.578 48.1425 120.516 47.5709 120.856C47.2551 121.044 47.0513 121.32 46.8194 121.594C45.7222 122.899 45.7322 123.53 45.7302 125.191V133.586V172.16V181.354C45.7322 182.387 45.8321 185.811 46.2998 186.54C46.9773 187.591 48.0266 187.547 49.1279 187.549H68.315C70.5116 187.577 71.5089 188.303 71.5129 190.547V217.13V222.526C71.5269 223.525 71.7967 224.587 72.7461 225.12C73.2257 225.388 74.1551 225.328 74.7107 225.324C76.8473 225.312 77.1051 223.977 77.1091 222.126V201.34V189.748L77.291 187.35C77.355 186.206 76.8193 182.855 75.832 182.207C75.1724 181.775 73.8853 181.755 73.1118 181.753H56.9227C55.4696 181.753 52.6735 182.203 52.0459 180.55C51.904 180.176 51.926 179.563 51.926 179.155V138.182V130.188C51.926 129.159 51.7601 127.646 52.4277 126.816C53.2151 125.839 54.964 125.793 56.1232 125.791H100.493H120.68L123.678 125.591H174.444C175.771 125.593 179.403 126.228 180.43 126.934L182.624 129.224L183.282 130.588L184.101 131.787L184.787 133.186L185.714 134.585L186.452 136.184L187.419 137.583L188.059 139.164L189.128 140.589L189.86 142.38L190.817 143.779L191.343 144.978L192.388 146.577L193.047 147.976L193.867 149.175L194.616 150.966L195.718 152.391L196.415 154.172L197.405 155.571L198.124 157.152L199.013 158.387L199.709 159.968L200.63 161.367L201.424 162.966L202.257 164.165L202.995 165.964L204.054 167.363L204.684 168.944L205.713 170.369L206.439 172.142L207.396 173.377L208.093 174.958L208.997 176.357L209.588 177.738L210.538 178.973L211.243 180.736L212.283 182.161L212.878 183.734L213.991 185.159L214.697 186.916L215.536 188.157L216.212 189.548L217.171 190.947L217.869 192.546L218.902 194.145L219.468 195.526L220.531 196.951L221.265 198.708L222.158 199.949L223.025 201.74L223.815 202.939L224.49 204.338L225.504 205.937L226.063 207.136L227.121 208.735L227.72 210.3L228.919 211.933L229.467 213.332L230.524 214.931L231.116 216.312L232.007 217.547L232.631 218.928L233.468 220.128L234.372 222.092L235.165 222.958C236.45 224.349 237.582 225.5 239.6 225.524C239.98 225.528 240.819 225.556 241.143 225.404C241.521 225.23 241.653 224.906 241.729 224.521C242.051 222.912 240.899 222.394 240.394 221.319L239.83 219.928L238.855 218.529L238.175 216.804C237.863 216.332 237.49 216.24 237.112 215.523L236.416 213.732L235.457 212.333L234.836 210.934L233.858 209.535L233.209 208.136L232.293 206.737L231.638 205.156L230.65 203.92L229.845 201.974L228.925 200.733L228.098 198.976L227.223 197.735L226.503 196.144L224.093 192.146L223.331 190.382L222.222 188.914L221.7 187.549L220.629 185.95L219.959 184.37L219.03 183.134L218.335 181.587L217.495 180.346L216.8 178.773L215.832 177.538L215.135 175.775L214.099 174.35L213.392 172.593L212.435 171.352L211.737 169.761L210.818 168.362L210.052 166.797L209.263 165.746L208.533 163.983L207.504 162.558L206.74 160.801L205.821 159.56L205.085 157.803L204.068 156.368L203.411 154.971L202.621 153.772L201.812 152.007L200.87 150.766L200.201 149.175L199.087 147.576L198.542 146.011L197.445 144.576L196.775 142.979L195.846 141.58L195.214 140.181L194.367 138.982L193.615 137.383L192.544 135.784L192.006 134.385L190.849 132.786L190.213 131.221L189.34 129.98L188.598 128.389L187.585 126.79C187.089 125.881 185.768 123.342 185.143 122.667L184.089 121.761C183.77 121.45 183.602 121.142 183.19 120.924C182.596 120.608 178.889 120.396 178.042 120.394H140.667H119.88L117.082 120.594H112.086L109.088 120.408H93.698H65.5169H51.1265ZM332.738 120.408C331.723 120.598 329.748 120.518 328.988 120.924C328.577 121.142 328.409 121.45 328.089 121.761L327.036 122.667C326.284 123.476 325.091 125.957 324.479 126.99L323.58 128.389L322.839 129.98L321.965 131.221L321.33 132.786L320.172 134.385L319.531 135.984L318.683 137.183L317.932 138.782L316.964 140.181L316.333 141.58L315.404 142.979L314.734 144.576L313.637 146.011L313.091 147.576L311.978 149.175L311.308 150.766L310.367 152.007L309.771 153.372L308.768 154.971L308.11 156.368L307.093 157.803L306.47 159.366L305.438 160.801L304.675 162.558L303.645 163.983L303.022 165.556L302.011 166.981L301.361 168.362L300.442 169.761L299.744 171.352L298.787 172.593L298.079 174.35L297.044 175.775L296.346 177.538L295.379 178.773L294.781 180.152L293.844 181.587L293.148 183.134L292.219 184.37L291.55 185.95L290.478 187.549L289.957 188.914L288.847 190.382L288.086 192.146L285.675 196.144L284.956 197.735L284.081 198.976L283.253 200.733L282.334 201.974L281.528 203.92L280.541 205.156L279.885 206.737L278.97 208.136L278.32 209.535L277.343 210.934L276.721 212.333L275.762 213.732L275.067 215.523C274.689 216.24 274.315 216.332 274.003 216.804L273.324 218.529L272.348 219.928L271.785 221.319C271.279 222.394 270.128 222.912 270.45 224.521C270.526 224.906 270.658 225.23 271.035 225.404C271.359 225.556 272.198 225.528 272.578 225.524C274.597 225.5 275.728 224.349 277.013 222.958L277.807 222.092L278.71 220.128L279.548 218.928L280.171 217.547L281.063 216.312L281.654 214.931L282.711 213.332L283.259 211.933L284.458 210.3L285.058 208.735L286.115 207.136L286.675 205.937L287.688 204.338L288.364 202.939L289.153 201.74L290.021 199.949L290.914 198.708L291.647 196.951L292.711 195.526L293.276 194.145L294.31 192.546L295.007 190.947L295.967 189.548L296.642 188.157L297.482 186.916L298.187 185.159L299.3 183.734L299.896 182.161L300.935 180.736L301.641 178.973L302.59 177.738L303.182 176.357L304.085 174.958L304.783 173.377L305.74 172.142L306.466 170.369L307.495 168.944L308.124 167.363L309.184 165.964L309.921 164.165L310.755 162.966L311.548 161.367L312.47 159.968L313.165 158.387L314.054 157.152L314.774 155.571L315.763 154.172L316.461 152.391L317.562 150.966L318.312 149.175L319.131 147.976L319.791 146.577L320.836 144.978L321.362 143.779L322.319 142.38L323.05 140.589L324.12 139.164L324.759 137.583L325.727 136.184L326.464 134.585L327.392 133.186L328.077 131.787L328.897 130.588L329.554 129.224L331.749 126.934C332.776 126.228 336.407 125.593 337.735 125.591H370.713H388.9L391.898 125.791H431.672H456.255C457.628 125.797 459.495 125.899 460.075 127.39C460.279 127.915 460.253 128.629 460.253 129.188V169.561V179.355C460.239 181.475 459.369 181.749 457.454 181.753H438.867C438.151 181.757 436.956 181.809 436.347 182.207C435.803 182.563 435.489 183.544 435.327 184.152C434.57 186.972 435.065 187.254 435.069 189.748V216.93V222.526C435.083 223.457 435.291 224.589 436.163 225.126C436.602 225.398 437.73 225.334 438.267 225.324C440.302 225.286 440.664 223.859 440.666 222.126V200.341V190.148C440.718 187.348 443.22 187.549 445.263 187.549H448.66H463.45C466.189 187.515 466.101 186.33 466.28 184.154L466.448 181.354V135.184V124.791C466.43 123.282 466.332 122.751 465.359 121.594C465.127 121.32 464.923 121.044 464.608 120.856C464.016 120.504 463.127 120.608 462.451 120.592L459.653 120.394H423.077H402.691L399.893 120.594H394.896L391.898 120.408H375.309H347.128H332.738ZM145.463 198.342C145.214 198.592 145.13 198.614 144.966 198.964C144.506 199.939 144.664 203.665 144.664 204.938V222.526C144.674 224.501 144.774 225.32 146.862 225.324H157.096V223.325L156.216 221.727L155.567 219.736L154.485 218.121L153.986 216.53L152.856 214.531L152.345 212.932L151.313 211.333L150.504 209.153L149.643 207.728L148.955 205.771L147.882 204.138L147.202 202.14L146.203 200.541L145.463 198.342ZM366.915 198.342C366.044 199.216 366.385 199.561 365.976 200.541L364.976 202.14C364.621 202.853 364.657 203.525 364.191 204.336L363.224 205.771L362.536 207.728L361.675 209.153L360.865 211.333L359.936 212.733C359.56 213.412 359.586 213.902 359.322 214.531L358.193 216.53L357.609 218.311L356.612 219.736L355.962 221.727L355.083 223.325C354.843 223.911 355.043 224.715 355.083 225.324H365.516C367.565 225.312 367.513 224.073 367.515 222.326V205.737C367.515 203.717 367.846 200.037 366.915 198.342Z" fill="#447CCE"/>
<path id="minferior" d="M29 271.865H483.296V280.459H457.113H452.316C451.445 280.471 450.032 280.737 449.522 281.536C449.275 281.926 449.318 282.604 449.318 283.057V308.64V313.837C449.334 314.686 449.474 315.508 450.194 316.067C450.919 316.633 452.043 316.633 452.916 316.635H475.301H480.298C480.881 316.647 481.373 316.645 481.811 317.096C482.362 317.666 482.294 318.503 482.296 319.233V380.992V395.182C482.296 396.247 482.616 398.912 481.651 399.517C481.165 399.821 480.456 399.777 479.898 399.779H354.582H325.202H318.806C318.144 399.771 317.385 399.759 316.869 399.277C316.334 398.776 316.409 398.05 316.407 397.381V336.222V320.832C316.411 318.052 317.347 317.638 320.005 317.634H342.39C343.999 317.634 347.976 317.982 348.896 316.407C349.226 315.841 349.184 315.07 349.186 314.436V288.853V282.857C349.178 282.264 349.186 281.606 348.7 281.176C348.134 280.677 346.531 280.661 345.788 280.659H337.194L333.996 280.859H329.399C327.514 280.881 327.252 281.143 326.225 282.658L325.284 284.057C324.968 284.636 324.912 285.026 324.476 285.6L323.739 286.473L322.807 288.42L321.886 289.661L321.208 291.034L320.287 292.269L319.639 293.65L318.774 294.849L317.99 296.63L316.833 298.055L316.399 299.047L314.671 302.027L313.663 303.262C313.366 303.787 313.324 304.345 312.872 305.043L310.533 308.64L309.74 310.205L308.827 311.446L308.197 312.837L307.152 314.236L306.37 315.835L305.411 317.234L304.679 318.615L303.832 319.667L303.072 321.432L301.985 322.831L301.404 324.03L300.5 325.429L299.937 326.62L298.835 328.045L298.138 329.618L297.102 331.043L296.539 332.224L295.611 333.623L294.98 334.815L294.009 336.056L293.289 337.801L292.238 339.062L291.626 340.419L290.585 342.018L290.009 343.199L288.996 344.434L288.226 346.215L287.335 347.414L286.627 348.813L285.626 350.212L284.865 351.777C284.553 352.251 284.283 352.377 283.935 353.018L283.216 354.591L282.246 355.826L281.527 357.389L280.649 358.625L279.896 359.972L279.196 360.839L278.417 362.602L277.26 364.037L276.564 365.584L275.715 366.819L275.037 368.182L274.052 369.417L273.41 370.99L272.437 372.232L271.751 373.762L270.804 375.004L269.969 376.561L269.229 377.612L268.424 379.375L267.408 380.61L266.571 382.357L265.831 383.408L265.076 384.755L264.256 385.806L263.561 387.379L262.516 388.804L261.762 390.385L260.809 391.784L260.229 392.966L259.274 394.201L258.446 395.948C257.915 396.753 257.691 396.567 257.187 397.78C256.999 398.23 256.642 399.493 255.918 399.145C255.392 398.894 255.165 397.746 254.833 397.189L253.849 395.948L253.132 394.391C252.788 393.761 252.522 393.629 252.187 393.149L251.487 391.784L250.534 390.385L249.78 388.804L248.735 387.379L248.039 385.806L247.22 384.755L246.464 383.408L245.725 382.357L244.887 380.61L243.872 379.375L243.067 377.612L242.327 376.561L241.492 375.004L240.544 373.762L239.859 372.232L238.885 370.99L238.244 369.417L237.259 368.182L236.581 366.819L235.732 365.584L235.036 364.037L233.879 362.602L233.209 361.023L232.4 359.972L231.646 358.625L230.769 357.389L230.049 355.826L229.08 354.591L228.253 352.828L227.431 351.777L226.67 350.212L225.668 348.813L224.961 347.414L224.069 346.215L223.3 344.434L222.287 343.199L221.711 342.018L220.67 340.419L220.058 339.062L219.007 337.801L218.287 336.056L217.316 334.815L216.684 333.623L215.757 332.224L215.193 331.043L214.158 329.618L213.46 328.045L212.359 326.62L211.796 325.429L210.892 324.03L210.311 322.831L209.223 321.432L208.464 319.667L207.494 318.426L206.885 317.234L205.816 315.635L205.266 314.436L204.221 313.037L203.469 311.446L202.556 310.205L201.762 308.64L200.811 307.241L200.177 306.042L199.302 304.843L198.632 303.262L197.501 301.837L196.898 300.645L195.998 299.246L195.463 298.055L194.305 296.63L193.636 295.049L192.656 293.65L192.009 292.269L191.087 291.034L190.296 289.471L189.375 288.236C188.621 286.925 189.299 287.392 187.964 285.771C186.958 284.55 186.179 281.87 184.688 281.145C184.058 280.837 183.187 280.861 182.497 280.859H178.3L175.102 280.659H166.108C165.373 280.669 163.952 280.717 163.458 281.32C163.11 281.746 163.118 282.34 163.11 282.857V288.653V310.439V314.836C163.118 315.432 163.13 316.079 163.512 316.575C164.139 317.394 165.94 317.632 166.908 317.634H189.093C190.71 317.634 194.543 317.232 195.518 318.659C195.934 319.269 195.886 320.124 195.888 320.832V381.391V397.381C195.884 399.643 195.191 399.775 193.09 399.779H67.9739H38.7934H32.3977C31.7681 399.777 30.9967 399.835 30.485 399.401C29.9114 398.914 30.0013 398.06 29.9993 397.381V335.422V321.232C29.9993 320.044 29.6476 317.498 30.8208 316.839C31.2525 316.597 31.9101 316.635 32.3977 316.635H55.7821C57.2131 316.635 60.8307 316.867 61.9359 316.179C62.3597 315.917 62.6435 315.498 62.8134 315.036C63.0032 314.518 62.9752 313.979 62.9772 313.437V288.254V283.657C62.9772 283.109 63.0572 281.98 62.7734 281.536C62.1718 280.595 60.5729 280.461 59.5795 280.459H29V271.865ZM72.9925 280.779C72.1591 281.31 72.1851 281.72 72.1711 282.658V289.253V314.836V321.831C72.1671 322.719 72.0931 323.682 71.4436 324.368C70.9279 324.911 70.2604 324.827 69.5728 324.829H42.5909C41.4397 324.843 38.8694 325.201 38.1099 326.106C37.5823 326.738 37.5962 328.035 37.5942 328.827V339.419V379.193V387.987C37.6402 391.353 41.5016 391.98 44.1898 391.984H84.7627L88.5601 391.585H142.924L147.72 391.984H180.698C182.181 391.976 183.66 391.668 185.095 391.311C185.687 391.161 186.528 390.999 186.924 390.501C187.34 389.976 187.492 386.612 187.494 385.788V377.994L187.294 374.996V339.419L187.494 336.421V332.024L187.146 327.653C186.962 327.224 186.638 327.02 186.287 326.742C184.894 325.637 184.43 325.631 182.697 325.629H160.912C159.88 325.629 156.477 325.745 155.715 325.451C155.211 325.255 154.802 324.907 154.55 324.426C154.274 323.896 154.316 323.214 154.316 322.631V290.652V283.657C154.316 283.031 154.444 281.624 153.996 281.178C153.561 280.741 152.132 280.849 151.518 280.859C149.889 280.889 149.921 281.414 149.919 282.857V320.032V327.428C149.919 328.263 149.807 330.092 150.233 330.767C150.595 331.339 151.326 331.223 151.918 331.225H174.503C175.426 331.225 179.521 331.129 180.099 331.345C180.602 331.533 181.02 331.948 181.264 332.424C181.54 332.968 181.498 333.629 181.498 334.223V374.196V382.79C181.484 383.89 181.276 385.607 180.091 386.068C179.725 386.21 179.099 386.188 178.7 386.188H74.9692H51.1851H46.1885C45.5949 386.186 44.9353 386.246 44.4317 385.868C43.4483 385.131 43.3924 383.312 43.3904 382.191V342.218V334.023C43.3984 333.322 43.5323 331.379 43.91 330.847C44.5316 329.972 45.439 330.028 46.3884 330.026H69.5728H74.7693C75.237 330.022 75.8666 330.068 76.2204 329.706C76.6321 329.284 76.5681 328.381 76.5681 327.827V291.252V282.458C76.5601 282.1 76.5701 281.63 76.3643 281.32C75.8966 280.621 73.742 280.613 72.9925 280.779ZM256.048 372.797L254.795 370.433L253.843 369.192L253.14 367.818L252.155 366.393L251.455 365.002L250.534 363.603L249.97 362.422L248.869 360.997L248.055 359.206L247.162 358.007L246.518 356.808L245.565 355.409L244.885 353.844L243.824 352.603L243.043 350.868L242.253 349.805L241.462 348.232L240.54 346.996L239.891 345.615L238.875 344.216L238.21 342.673L237.103 341.218L235.732 338.82L235.048 337.455L234.031 336.214L233.249 334.441L232.46 333.39L231.758 332.024L230.663 330.426L230.011 329.06L229.072 327.819L228.243 326.062L227.283 324.821L226.536 323.23L225.604 321.831L224.875 320.488L224.083 319.425L223.416 317.852L222.285 316.427L221.629 315.036L220.726 313.637L220.248 312.645L219.271 311.404L218.457 309.639L217.442 308.24L216.764 306.675L215.817 305.434L215.131 304.043L214.244 302.844C213.402 301.459 214.232 302.132 212.723 300.228C212.011 299.33 212.141 298.867 211.664 298.103L210.998 297.23L210.237 295.849L209.275 294.45L208.512 292.851L207.49 291.452L206.673 289.853L205.846 288.653L204.456 286.255C203.519 284.758 202.35 282.4 200.885 281.388C199.244 280.257 196.648 280.683 194.889 281.258V281.658C196.306 282.797 195.754 282.795 196.486 284.057L197.405 285.456L198.113 286.821L199.072 288.062L199.74 289.635L200.843 291.06L201.556 292.451L202.47 293.85L203.047 295.049L204.055 296.448L204.708 297.847L205.684 299.246L206.363 300.637L207.285 301.879L207.962 303.226L208.882 304.461L209.649 306.224L210.68 307.459L211.386 309.022L212.367 310.447L212.903 311.604L213.878 312.845L214.662 314.602L215.659 315.843L216.319 317.234L217.278 318.633L218.009 320.032L218.857 321.232L219.488 322.613L220.474 323.848L221.431 325.829L222.275 327.028L222.912 328.193L223.845 329.434L224.485 331.023L225.642 332.458L226.234 333.805L227.077 335.04L227.747 336.404L228.868 337.857L229.52 339.385L230.467 340.627L231.281 342.383L232.128 343.435L232.859 344.816L233.667 346.015L234.426 347.58L235.418 348.821L236.257 350.612L237.065 351.811L237.674 352.954L238.644 354.212L239.313 355.791L240.263 357.026L241.152 358.789L242.059 360.024L242.711 361.405L243.666 362.804L244.362 364.169L245.439 365.604L246.107 367.183L247.03 368.418L248.491 370.798L249.238 372.397L250.312 373.796L251.067 375.395L251.915 376.595L252.646 377.976L253.454 379.027L254.265 380.758C254.595 381.285 254.997 381.513 255.36 382.193C255.766 382.952 255.61 383.244 256.248 383.99L256.935 382.193C257.297 381.513 257.701 381.283 258.031 380.758L258.728 379.211L259.763 377.786L260.381 376.595L261.228 375.395L261.984 373.796L263.057 372.397L263.685 370.998L264.604 369.599L265.266 368.418L266.081 367.367L266.857 365.604L267.934 364.169L268.629 362.804L269.585 361.405L270.236 360.024L271.144 358.789L272.033 357.026L272.873 355.974L273.652 354.212L274.621 352.954L275.231 351.811L276.039 350.612L276.878 348.821L277.869 347.58L278.629 346.015L279.436 344.816L280.168 343.435L281.015 342.383L281.713 340.821L282.776 339.385L283.428 337.857L284.549 336.404L285.218 335.04L286.062 333.805L286.653 332.458L287.811 331.023L288.45 329.434L289.384 328.193L290.021 327.028L290.865 325.829L291.706 324.038L292.807 322.613L293.439 321.232L294.286 320.032L295.018 318.633L295.977 317.234L296.637 315.843L297.634 314.602L298.418 312.845L299.393 311.604L299.929 310.447L300.91 309.022L301.499 307.649C301.891 306.963 302.303 306.761 302.647 306.224L303.414 304.461L304.22 303.41L304.897 302.062L305.819 300.827L306.496 299.446L307.471 298.047L308.123 296.648L309.248 295.049L309.826 293.85L310.739 292.451L311.453 291.06L312.444 289.819L313.224 288.062L314.183 286.821L314.891 285.456L315.81 284.057C316.541 282.795 315.99 282.797 317.407 281.658V281.258C315.648 280.683 313.052 280.257 311.411 281.388C309.946 282.4 308.777 284.758 307.839 286.255L306.45 288.653L305.623 289.853L304.805 291.452L303.784 292.851L303.02 294.45L302.059 295.849L301.298 297.23L300.632 298.103C300.154 298.867 300.284 299.33 299.573 300.228C298.064 302.132 298.893 301.459 298.052 302.844L297.164 304.043L296.479 305.434L295.531 306.675L294.854 308.24L293.839 309.639L293.025 311.404L292.048 312.645L291.57 313.637L290.667 315.036L290.011 316.427L288.88 317.852L288.212 319.425L287.421 320.488L286.691 321.831L285.76 323.23L285.013 324.821L284.053 326.062L283.224 327.819L282.284 329.06L281.633 330.426L280.538 332.024L279.836 333.39L279.047 334.441L278.265 336.214L277.248 337.455L276.564 338.82L275.193 341.218L274.086 342.673L273.42 344.216L272.405 345.615L271.755 346.996L270.834 348.232L270.043 349.805L269.253 350.868L268.472 352.603L267.3 354.028L266.731 355.409L265.777 356.808L265.134 358.007L264.24 359.206L263.427 360.997L262.442 362.238L261.762 363.603L260.841 365.002L260.141 366.393L259.156 367.818L258.452 369.192L257.501 370.433C256.903 371.404 257.397 371.286 256.048 372.797ZM437.726 280.715C437.173 280.797 436.265 280.821 435.931 281.32C435.638 281.764 435.728 283.275 435.728 283.857V290.053V319.633V326.628C435.728 327.3 435.622 329.052 435.961 329.564C436.333 330.12 437.139 330.024 437.726 330.026H465.907C466.389 330.026 467.059 330 467.506 330.174C468.979 330.745 468.903 333.068 468.905 334.423V374.196V382.191C468.903 383.404 468.845 385.543 467.498 386.068C467.133 386.21 466.507 386.188 466.107 386.188H362.377H338.593H333.596C333.002 386.186 332.343 386.246 331.839 385.868C330.86 385.135 330.8 383.5 330.798 382.391V343.017V335.822C330.798 334.976 330.678 333.12 331.032 332.424C331.627 331.259 332.449 331.227 333.596 331.225H355.581H360.378C360.784 331.225 361.507 331.277 361.837 331.027C362.423 330.583 362.375 329.29 362.377 328.627V292.051V284.057C362.377 283.379 362.529 281.648 362.057 281.178C361.621 280.741 360.192 280.849 359.579 280.859C357.95 280.889 357.982 281.414 357.98 282.857V315.635V321.831C357.98 322.671 358.104 323.914 357.632 324.619C356.936 325.661 355.891 325.627 354.782 325.629H333.396C330.792 325.629 327.16 325.015 325.35 327.318C324.838 327.967 325.04 329.22 324.984 330.026L324.802 332.024V336.821L325.002 339.819V375.395L324.802 378.393V385.788C324.804 386.612 324.956 389.976 325.371 390.501C325.767 390.999 326.609 391.161 327.2 391.311C328.711 391.688 330.238 391.982 331.797 391.984H364.975L369.372 391.585H404.548H424.135L427.533 391.984H447.919H468.506C470.426 391.96 473.664 391.347 474.502 389.368C474.735 388.816 474.701 388.177 474.701 387.587V339.619V330.026C474.701 329.006 474.843 326.892 474.186 326.106C473.328 325.085 470.582 324.831 469.305 324.829H447.12H442.523C441.991 324.825 441.442 324.865 441.002 324.509C440.161 323.83 440.127 322.609 440.125 321.631V290.053V283.057C440.125 282.452 440.183 281.612 439.777 281.121C439.291 280.533 438.4 280.653 437.726 280.715Z" fill="#447CCE"/>
<g id="text">
<path d="M82.4659 248.491L82.3362 242.396H66.5173V243.272H69.1106V260.971H66.5173V261.846H82.3362L82.4659 255.752H81.6231L80.9747 257.761C80.4129 259.447 79.5701 260.463 78.4463 260.809C78.0789 260.917 77.6791 260.971 77.2469 260.971H73.0977V252.316H79.4836V251.343H73.0977V243.272H77.2469C78.9109 243.272 80.0887 244.136 80.7803 245.865C80.8667 246.059 80.9423 246.265 81.0072 246.481L81.6231 248.491H82.4659Z" fill="#447CCE"/>
<path d="M98.653 261.846V260.971H96.0597V252.964H98.1343L103.062 261.878L108.507 261.846C108.507 261.37 108.367 261.1 108.086 261.035C107.956 261.014 107.827 261.003 107.697 261.003H107.016L101.927 252.607C104.131 252.024 105.536 250.857 106.141 249.106C106.314 248.566 106.4 248.026 106.4 247.486C106.4 245.865 105.687 244.568 104.261 243.596C103.072 242.796 101.624 242.396 99.9172 242.396H89.4793V243.272H92.0726V260.971H89.4793V261.846H98.653ZM98.2964 243.272C100.047 243.272 101.225 244.082 101.83 245.703C102.046 246.286 102.154 246.913 102.154 247.583C102.154 249.312 101.603 250.576 100.501 251.376C99.9172 251.786 99.2473 251.991 98.4909 251.991H96.0597V243.272H98.2964Z" fill="#447CCE"/>
<path d="M138.73 242.396H132.345L126.153 256.984L119.119 242.396H113.673V243.272H116.266V260.971H113.673V261.846H120.221C120.091 261.306 119.8 261.014 119.346 260.971H117.628V248.231L124.597 262.105H125.213L132.345 245.508V260.971H129.751V261.846H138.73C138.601 261.306 138.309 261.014 137.855 260.971H136.137V243.272H138.73V242.396Z" fill="#447CCE"/>
<path d="M164.545 261.846C164.545 261.349 164.394 261.068 164.091 261.003C164.005 260.981 163.886 260.971 163.735 260.971H162.73L155.145 242.396H153.135L146.003 260.971H143.929V261.846H149.828C149.828 261.349 149.677 261.068 149.375 261.003C149.266 260.981 149.148 260.971 149.018 260.971H147.3L149.666 254.747H156.214L158.645 260.971H156.409V261.846H164.545ZM155.825 253.774H150.023L152.908 246.189L155.825 253.774Z" fill="#447CCE"/>
<path d="M183.974 243.272H186.632V256.432L174.897 242.396H169.743V243.272H172.337V260.971H169.743V261.846H176.421C176.291 261.306 175.999 261.014 175.546 260.971H173.666V246.999L186.243 262.008L187.961 261.684V243.272H190.554V242.396H183.974V243.272Z" fill="#447CCE"/>
<path d="M206.936 242.072C204.148 242.072 201.782 242.958 199.837 244.73C197.784 246.61 196.757 249.042 196.757 252.024C196.757 255.46 197.978 258.129 200.42 260.031C202.257 261.457 204.397 262.17 206.839 262.17C209.605 262.17 211.949 261.273 213.873 259.48C215.904 257.578 216.92 255.136 216.92 252.154C216.92 248.609 215.666 245.908 213.16 244.05C211.388 242.731 209.313 242.072 206.936 242.072ZM206.936 261.23C204.256 261.23 202.538 259.814 201.782 256.984C201.436 255.665 201.263 254.055 201.263 252.154C201.263 246.384 202.916 243.347 206.223 243.045C206.439 243.023 206.644 243.012 206.839 243.012C209.734 243.012 211.496 244.774 212.122 248.296C212.317 249.377 212.414 250.619 212.414 252.024C212.414 257.34 211.074 260.355 208.394 261.068C207.941 261.176 207.454 261.23 206.936 261.23Z" fill="#447CCE"/>
<path d="M259.44 242.396H253.054L246.863 256.984L239.829 242.396H234.383V243.272H236.976V260.971H234.383V261.846H240.931C240.801 261.306 240.509 261.014 240.056 260.971H238.338V248.231L245.307 262.105H245.923L253.054 245.508V260.971H250.461V261.846H259.44C259.311 261.306 259.019 261.014 258.565 260.971H256.847V243.272H259.44V242.396Z" fill="#447CCE"/>
<path d="M285.255 261.846C285.255 261.349 285.103 261.068 284.801 261.003C284.714 260.981 284.596 260.971 284.444 260.971H283.439L275.854 242.396H273.844L266.713 260.971H264.638V261.846H270.538C270.538 261.349 270.387 261.068 270.084 261.003C269.976 260.981 269.857 260.971 269.728 260.971H268.01L270.376 254.747H276.924L279.355 260.971H277.118V261.846H285.255ZM276.535 253.774H270.733L273.618 246.189L276.535 253.774Z" fill="#447CCE"/>
<path d="M299.918 261.846V260.971H297.325V252.964H299.4L304.327 261.878L309.773 261.846C309.773 261.37 309.632 261.1 309.351 261.035C309.222 261.014 309.092 261.003 308.962 261.003H308.282L303.192 252.607C305.397 252.024 306.801 250.857 307.406 249.106C307.579 248.566 307.666 248.026 307.666 247.486C307.666 245.865 306.953 244.568 305.526 243.596C304.338 242.796 302.89 242.396 301.183 242.396H290.745V243.272H293.338V260.971H290.745V261.846H299.918ZM299.562 243.272C301.312 243.272 302.49 244.082 303.095 245.703C303.311 246.286 303.419 246.913 303.419 247.583C303.419 249.312 302.868 250.576 301.766 251.376C301.183 251.786 300.513 251.991 299.756 251.991H297.325V243.272H299.562Z" fill="#447CCE"/>
<path d="M332.119 260.517C332.097 261.36 332.27 261.835 332.637 261.943C332.789 261.986 332.983 262.008 333.221 262.008V255.719H332.248C331.341 258.982 329.612 260.798 327.062 261.165C326.695 261.208 326.327 261.23 325.96 261.23C322.07 261.187 320.114 258.118 320.093 252.024C320.093 247.291 321.411 244.406 324.047 243.369C324.696 243.131 325.398 243.012 326.154 243.012C328.596 243.012 330.358 244.212 331.438 246.61C331.676 247.172 331.892 247.799 332.086 248.491H333.124L333.026 242.234C332.486 242.234 332.162 242.418 332.054 242.785C332.011 243.002 331.989 243.315 331.989 243.725C330.195 242.623 328.121 242.072 325.765 242.072C322.2 242.072 319.477 243.336 317.597 245.865C316.257 247.68 315.587 249.755 315.587 252.089C315.587 254.898 316.484 257.254 318.277 259.155C320.179 261.165 322.675 262.17 325.765 262.17C327.991 262.148 330.109 261.597 332.119 260.517Z" fill="#447CCE"/>
<path d="M348.792 261.846C348.663 261.306 348.371 261.014 347.917 260.971H346.199V252.316H354.984V260.971H352.39V261.846H361.532C361.359 261.306 361.078 261.014 360.689 260.971H358.971V243.272H361.532V242.396H352.39V243.272H354.984V251.343H346.199V243.272H348.792V242.396H339.619V243.272H342.212V260.971H339.619V261.846H348.792Z" fill="#447CCE"/>
<path d="M383.845 248.491L383.716 242.396H367.897V243.272H370.49V260.971H367.897V261.846H383.716L383.845 255.752H383.002L382.354 257.761C381.792 259.447 380.949 260.463 379.826 260.809C379.458 260.917 379.059 260.971 378.626 260.971H374.477V252.316H380.863V251.343H374.477V243.272H378.626C380.29 243.272 381.468 244.136 382.16 245.865C382.246 246.059 382.322 246.265 382.387 246.481L383.002 248.491H383.845Z" fill="#447CCE"/>
<path d="M404.149 261.846C403.976 261.306 403.695 261.014 403.306 260.971H401.102V243.272H402.075C403.652 243.272 404.776 244.071 405.446 245.67C405.554 245.93 405.651 246.2 405.738 246.481L406.58 249.171H407.52L407.391 242.396H390.859L390.697 249.171H391.669L392.512 246.481C393.031 244.795 393.863 243.78 395.008 243.434C395.354 243.326 395.743 243.272 396.175 243.272H397.115V260.971H394.035V261.846H404.149Z" fill="#447CCE"/>
<path d="M427.014 261.846C426.841 261.306 426.56 261.014 426.171 260.971H423.967V243.272H424.939C426.517 243.272 427.641 244.071 428.311 245.67C428.419 245.93 428.516 246.2 428.602 246.481L429.445 249.171H430.385L430.255 242.396H413.723L413.561 249.171H414.534L415.377 246.481C415.895 244.795 416.727 243.78 417.873 243.434C418.218 243.326 418.607 243.272 419.04 243.272H419.98V260.971H416.9V261.846H427.014Z" fill="#447CCE"/>
<path d="M445.762 261.846C445.632 261.306 445.34 261.014 444.887 260.971H443.169V243.272H445.762V242.396H436.588V243.272H439.181V260.971H436.588V261.846H445.762Z" fill="#447CCE"/>
<path d="M82.4659 248.491L82.3362 242.396H66.5173V243.272H69.1106V260.971H66.5173V261.846H82.3362L82.4659 255.752H81.6231L80.9747 257.761C80.4129 259.447 79.5701 260.463 78.4463 260.809C78.0789 260.917 77.6791 260.971 77.2469 260.971H73.0977V252.316H79.4836V251.343H73.0977V243.272H77.2469C78.9109 243.272 80.0887 244.136 80.7803 245.865C80.8667 246.059 80.9423 246.265 81.0072 246.481L81.6231 248.491H82.4659Z" stroke="#447CCE" stroke-width="1.5"/>
<path d="M98.653 261.846V260.971H96.0597V252.964H98.1343L103.062 261.878L108.507 261.846C108.507 261.37 108.367 261.1 108.086 261.035C107.956 261.014 107.827 261.003 107.697 261.003H107.016L101.927 252.607C104.131 252.024 105.536 250.857 106.141 249.106C106.314 248.566 106.4 248.026 106.4 247.486C106.4 245.865 105.687 244.568 104.261 243.596C103.072 242.796 101.624 242.396 99.9172 242.396H89.4793V243.272H92.0726V260.971H89.4793V261.846H98.653ZM98.2964 243.272C100.047 243.272 101.225 244.082 101.83 245.703C102.046 246.286 102.154 246.913 102.154 247.583C102.154 249.312 101.603 250.576 100.501 251.376C99.9172 251.786 99.2473 251.991 98.4909 251.991H96.0597V243.272H98.2964Z" stroke="#447CCE" stroke-width="1.5"/>
<path d="M138.73 242.396H132.345L126.153 256.984L119.119 242.396H113.673V243.272H116.266V260.971H113.673V261.846H120.221C120.091 261.306 119.8 261.014 119.346 260.971H117.628V248.231L124.597 262.105H125.213L132.345 245.508V260.971H129.751V261.846H138.73C138.601 261.306 138.309 261.014 137.855 260.971H136.137V243.272H138.73V242.396Z" stroke="#447CCE" stroke-width="1.5"/>
<path d="M164.545 261.846C164.545 261.349 164.394 261.068 164.091 261.003C164.005 260.981 163.886 260.971 163.735 260.971H162.73L155.145 242.396H153.135L146.003 260.971H143.929V261.846H149.828C149.828 261.349 149.677 261.068 149.375 261.003C149.266 260.981 149.148 260.971 149.018 260.971H147.3L149.666 254.747H156.214L158.645 260.971H156.409V261.846H164.545ZM155.825 253.774H150.023L152.908 246.189L155.825 253.774Z" stroke="#447CCE" stroke-width="1.5"/>
<path d="M183.974 243.272H186.632V256.432L174.897 242.396H169.743V243.272H172.337V260.971H169.743V261.846H176.421C176.291 261.306 175.999 261.014 175.546 260.971H173.666V246.999L186.243 262.008L187.961 261.684V243.272H190.554V242.396H183.974V243.272Z" stroke="#447CCE" stroke-width="1.5"/>
<path d="M206.936 242.072C204.148 242.072 201.782 242.958 199.837 244.73C197.784 246.61 196.757 249.042 196.757 252.024C196.757 255.46 197.978 258.129 200.42 260.031C202.257 261.457 204.397 262.17 206.839 262.17C209.605 262.17 211.949 261.273 213.873 259.48C215.904 257.578 216.92 255.136 216.92 252.154C216.92 248.609 215.666 245.908 213.16 244.05C211.388 242.731 209.313 242.072 206.936 242.072ZM206.936 261.23C204.256 261.23 202.538 259.814 201.782 256.984C201.436 255.665 201.263 254.055 201.263 252.154C201.263 246.384 202.916 243.347 206.223 243.045C206.439 243.023 206.644 243.012 206.839 243.012C209.734 243.012 211.496 244.774 212.122 248.296C212.317 249.377 212.414 250.619 212.414 252.024C212.414 257.34 211.074 260.355 208.394 261.068C207.941 261.176 207.454 261.23 206.936 261.23Z" stroke="#447CCE" stroke-width="1.5"/>
<path d="M259.44 242.396H253.054L246.863 256.984L239.829 242.396H234.383V243.272H236.976V260.971H234.383V261.846H240.931C240.801 261.306 240.509 261.014 240.056 260.971H238.338V248.231L245.307 262.105H245.923L253.054 245.508V260.971H250.461V261.846H259.44C259.311 261.306 259.019 261.014 258.565 260.971H256.847V243.272H259.44V242.396Z" stroke="#447CCE" stroke-width="1.5"/>
<path d="M285.255 261.846C285.255 261.349 285.103 261.068 284.801 261.003C284.714 260.981 284.596 260.971 284.444 260.971H283.439L275.854 242.396H273.844L266.713 260.971H264.638V261.846H270.538C270.538 261.349 270.387 261.068 270.084 261.003C269.976 260.981 269.857 260.971 269.728 260.971H268.01L270.376 254.747H276.924L279.355 260.971H277.118V261.846H285.255ZM276.535 253.774H270.733L273.618 246.189L276.535 253.774Z" stroke="#447CCE" stroke-width="1.5"/>
<path d="M299.918 261.846V260.971H297.325V252.964H299.4L304.327 261.878L309.773 261.846C309.773 261.37 309.632 261.1 309.351 261.035C309.222 261.014 309.092 261.003 308.962 261.003H308.282L303.192 252.607C305.397 252.024 306.801 250.857 307.406 249.106C307.579 248.566 307.666 248.026 307.666 247.486C307.666 245.865 306.953 244.568 305.526 243.596C304.338 242.796 302.89 242.396 301.183 242.396H290.745V243.272H293.338V260.971H290.745V261.846H299.918ZM299.562 243.272C301.312 243.272 302.49 244.082 303.095 245.703C303.311 246.286 303.419 246.913 303.419 247.583C303.419 249.312 302.868 250.576 301.766 251.376C301.183 251.786 300.513 251.991 299.756 251.991H297.325V243.272H299.562Z" stroke="#447CCE" stroke-width="1.5"/>
<path d="M332.119 260.517C332.097 261.36 332.27 261.835 332.637 261.943C332.789 261.986 332.983 262.008 333.221 262.008V255.719H332.248C331.341 258.982 329.612 260.798 327.062 261.165C326.695 261.208 326.327 261.23 325.96 261.23C322.07 261.187 320.114 258.118 320.093 252.024C320.093 247.291 321.411 244.406 324.047 243.369C324.696 243.131 325.398 243.012 326.154 243.012C328.596 243.012 330.358 244.212 331.438 246.61C331.676 247.172 331.892 247.799 332.086 248.491H333.124L333.026 242.234C332.486 242.234 332.162 242.418 332.054 242.785C332.011 243.002 331.989 243.315 331.989 243.725C330.195 242.623 328.121 242.072 325.765 242.072C322.2 242.072 319.477 243.336 317.597 245.865C316.257 247.68 315.587 249.755 315.587 252.089C315.587 254.898 316.484 257.254 318.277 259.155C320.179 261.165 322.675 262.17 325.765 262.17C327.991 262.148 330.109 261.597 332.119 260.517Z" stroke="#447CCE" stroke-width="1.5"/>
<path d="M348.792 261.846C348.663 261.306 348.371 261.014 347.917 260.971H346.199V252.316H354.984V260.971H352.39V261.846H361.532C361.359 261.306 361.078 261.014 360.689 260.971H358.971V243.272H361.532V242.396H352.39V243.272H354.984V251.343H346.199V243.272H348.792V242.396H339.619V243.272H342.212V260.971H339.619V261.846H348.792Z" stroke="#447CCE" stroke-width="1.5"/>
<path d="M383.845 248.491L383.716 242.396H367.897V243.272H370.49V260.971H367.897V261.846H383.716L383.845 255.752H383.002L382.354 257.761C381.792 259.447 380.949 260.463 379.826 260.809C379.458 260.917 379.059 260.971 378.626 260.971H374.477V252.316H380.863V251.343H374.477V243.272H378.626C380.29 243.272 381.468 244.136 382.16 245.865C382.246 246.059 382.322 246.265 382.387 246.481L383.002 248.491H383.845Z" stroke="#447CCE" stroke-width="1.5"/>
<path d="M404.149 261.846C403.976 261.306 403.695 261.014 403.306 260.971H401.102V243.272H402.075C403.652 243.272 404.776 244.071 405.446 245.67C405.554 245.93 405.651 246.2 405.738 246.481L406.58 249.171H407.52L407.391 242.396H390.859L390.697 249.171H391.669L392.512 246.481C393.031 244.795 393.863 243.78 395.008 243.434C395.354 243.326 395.743 243.272 396.175 243.272H397.115V260.971H394.035V261.846H404.149Z" stroke="#447CCE" stroke-width="1.5"/>
<path d="M427.014 261.846C426.841 261.306 426.56 261.014 426.171 260.971H423.967V243.272H424.939C426.517 243.272 427.641 244.071 428.311 245.67C428.419 245.93 428.516 246.2 428.602 246.481L429.445 249.171H430.385L430.255 242.396H413.723L413.561 249.171H414.534L415.377 246.481C415.895 244.795 416.727 243.78 417.873 243.434C418.218 243.326 418.607 243.272 419.04 243.272H419.98V260.971H416.9V261.846H427.014Z" stroke="#447CCE" stroke-width="1.5"/>
<path d="M445.762 261.846C445.632 261.306 445.34 261.014 444.887 260.971H443.169V243.272H445.762V242.396H436.588V243.272H439.181V260.971H436.588V261.846H445.762Z" stroke="#447CCE" stroke-width="1.5"/>
</g>
</g>
</g>
</svg>
