<svg width="512" height="512" viewBox="0 0 512 512" fill="none" xmlns="http://www.w3.org/2000/svg">
<mask id="mask0_111_11" style="mask-type:alpha" maskUnits="userSpaceOnUse" x="8" y="86" width="496" height="339">
<mask id="path-1-outside-1_111_11" maskUnits="userSpaceOnUse" x="8" y="86" width="496" height="339" fill="black">
<rect fill="white" x="8" y="86" width="496" height="339"/>
<path fill-rule="evenodd" clip-rule="evenodd" d="M11.0583 87C9.92155 87 9 87.9215 9 89.0582V183.737C9 184.873 9.92155 185.795 11.0583 185.795H39.875C41.0118 185.795 41.9333 186.716 41.9333 187.853V216.668C41.9333 217.805 42.8549 218.726 43.9917 218.726H468.008C469.145 218.726 470.067 217.805 470.067 216.668V187.853C470.067 186.716 470.988 185.795 472.125 185.795H500.942C502.078 185.795 503 184.873 503 183.737V89.0582C503 87.9215 502.078 87 500.942 87H327.155C326.429 87 325.756 87.3829 325.385 88.0074L257.77 201.88C256.972 203.223 255.028 203.223 254.23 201.88L186.615 88.0074C186.244 87.3829 185.571 87 184.845 87H11.0583ZM52.225 210.493C51.0882 210.493 50.1667 209.572 50.1667 208.435V179.62C50.1667 178.483 49.2451 177.562 48.1083 177.562H19.2917C18.1549 177.562 17.2333 176.64 17.2333 175.504L17.2333 97.2911C17.2333 96.1544 18.1549 95.2329 19.2917 95.2329H180.718C181.45 95.2329 182.127 95.6217 182.496 96.254L247.333 207.398C248.134 208.77 247.144 210.493 245.555 210.493H240.722C239.987 210.493 239.307 210.101 238.939 209.464L178.377 104.495C178.01 103.858 177.33 103.466 176.595 103.466H27.525C26.3882 103.466 25.4667 104.387 25.4667 105.524V167.271C25.4667 168.407 26.3882 169.329 27.525 169.329H56.3417C57.4785 169.329 58.4 170.25 58.4 171.387V208.435C58.4 209.572 57.4785 210.493 56.3417 210.493H52.225ZM147.207 207.414C147.991 208.786 147 210.493 145.42 210.493H134.558C133.422 210.493 132.5 209.572 132.5 208.435V181.678C132.5 181.675 132.498 181.678 132.5 181.678L147.207 207.414ZM459.775 210.493C460.912 210.493 461.833 209.572 461.833 208.435V179.62C461.833 178.483 462.755 177.562 463.892 177.562H492.708C493.845 177.562 494.767 176.64 494.767 175.504V97.2911C494.767 96.1544 493.845 95.2329 492.708 95.2329H331.282C330.55 95.2329 329.873 95.6217 329.504 96.254L264.667 207.398C263.866 208.77 264.856 210.493 266.445 210.493H271.278C272.013 210.493 272.693 210.101 273.061 209.464L333.623 104.495C333.99 103.858 334.67 103.466 335.405 103.466H484.475C485.612 103.466 486.533 104.387 486.533 105.524V167.271C486.533 168.407 485.612 169.329 484.475 169.329H455.658C454.522 169.329 453.6 170.25 453.6 171.387V208.435C453.6 209.572 454.522 210.493 455.658 210.493H459.775ZM364.793 207.414C364.009 208.786 365 210.493 366.58 210.493H377.442C378.578 210.493 379.5 209.572 379.5 208.435V181.678C379.5 181.673 379.493 181.671 379.491 181.676C379.49 181.68 379.497 181.682 379.5 181.678L364.793 207.414Z"/>
<path fill-rule="evenodd" clip-rule="evenodd" d="M503 282.531C503 283.668 502.078 284.59 500.942 284.59H472.125C470.988 284.59 470.067 285.511 470.067 286.648V323.696C470.067 324.833 470.988 325.754 472.125 325.754H500.942C502.078 325.754 503 326.676 503 327.812V422.491C503 423.627 502.078 424.549 500.942 424.549H332.158C331.022 424.549 330.1 423.627 330.1 422.491V327.812C330.1 326.676 331.022 325.754 332.158 325.754H360.975C362.112 325.754 363.033 324.833 363.033 323.696V286.648C363.033 285.511 362.112 284.59 360.975 284.59H318.838C318.157 284.59 317.521 284.926 317.137 285.488L257.701 372.657C256.884 373.856 255.116 373.856 254.299 372.657L194.863 285.488C194.479 284.926 193.843 284.59 193.162 284.59H151.025C149.888 284.59 148.967 285.511 148.967 286.648V323.696C148.967 324.833 149.888 325.754 151.025 325.754H179.842C180.978 325.754 181.9 326.676 181.9 327.812V422.491C181.9 423.627 180.978 424.549 179.842 424.549H11.0583C9.92155 424.549 9 423.627 9 422.491V327.812C9 326.676 9.92155 325.754 11.0583 325.754H39.875C41.0118 325.754 41.9333 324.833 41.9333 323.696V286.648C41.9333 285.511 41.0118 284.59 39.875 284.59H11.0583C9.92155 284.59 9 283.668 9 282.531V278.415C9 277.278 9.92155 276.357 11.0583 276.357H500.942C502.078 276.357 503 277.278 503 278.415V282.531ZM300.672 285.506C301.054 284.933 301.697 284.59 302.385 284.59H305.652C307.3 284.59 308.28 286.429 307.36 287.796L257.708 361.634C256.892 362.847 255.108 362.847 254.292 361.634L204.64 287.796C203.72 286.429 204.7 284.59 206.348 284.59H209.615C210.303 284.59 210.946 284.933 211.328 285.506L254.287 349.942C255.102 351.164 256.898 351.164 257.713 349.942L300.672 285.506ZM371.267 286.648V331.929C371.267 333.065 370.345 333.987 369.208 333.987H340.392C339.255 333.987 338.333 334.908 338.333 336.045V414.258C338.333 415.394 339.255 416.316 340.392 416.316H492.708C493.845 416.316 494.767 415.394 494.767 414.258V336.045C494.767 334.908 493.845 333.987 492.708 333.987H463.892C462.755 333.987 461.833 333.065 461.833 331.929V286.648C461.833 285.511 460.912 284.59 459.775 284.59H455.658C454.522 284.59 453.6 285.511 453.6 286.648V340.162C453.6 341.298 454.522 342.22 455.658 342.22H484.475C485.612 342.22 486.533 343.141 486.533 344.278V406.025C486.533 407.162 485.612 408.083 484.475 408.083H348.625C347.488 408.083 346.567 407.162 346.567 406.025V344.278C346.567 343.141 347.488 342.22 348.625 342.22H377.442C378.578 342.22 379.5 341.298 379.5 340.162V286.648C379.5 285.511 378.578 284.59 377.442 284.59H373.325C372.188 284.59 371.267 285.511 371.267 286.648ZM140.733 286.648V331.929C140.733 333.065 141.655 333.987 142.792 333.987H171.608C172.745 333.987 173.667 334.908 173.667 336.045V414.258C173.667 415.394 172.745 416.316 171.608 416.316H19.2917C18.1549 416.316 17.2333 415.394 17.2333 414.258V336.045C17.2333 334.908 18.1549 333.987 19.2917 333.987H48.1083C49.2451 333.987 50.1667 333.065 50.1667 331.929V286.648C50.1667 285.511 51.0882 284.59 52.225 284.59H56.3417C57.4785 284.59 58.4 285.511 58.4 286.648V340.162C58.4 341.298 57.4785 342.22 56.3417 342.22H27.525C26.3882 342.22 25.4667 343.141 25.4667 344.278V406.025C25.4667 407.162 26.3882 408.083 27.525 408.083H163.375C164.512 408.083 165.433 407.162 165.433 406.025V344.278C165.433 343.141 164.512 342.22 163.375 342.22H134.558C133.422 342.22 132.5 341.298 132.5 340.162V286.648C132.5 285.511 133.422 284.59 134.558 284.59H138.675C139.812 284.59 140.733 285.511 140.733 286.648Z"/>
<path d="M77.6607 243.329L77.4999 235.771H57.8814V236.856H61.0975V258.805H57.8814V259.891H77.4999L77.6607 252.333H76.6154L75.8114 254.826C75.1146 256.916 74.0693 258.176 72.6757 258.604C72.2201 258.738 71.7242 258.805 71.1882 258.805H66.0424V248.072H73.9621V246.866H66.0424V236.856H71.1882C73.2519 236.856 74.7126 237.928 75.5702 240.072C75.6774 240.314 75.7712 240.568 75.8516 240.836L76.6154 243.329H77.6607Z"/>
<path fill-rule="evenodd" clip-rule="evenodd" d="M92.7959 259.891V258.805H89.5797V248.876H92.1526L98.2633 259.931L105.017 259.891C105.017 259.301 104.843 258.966 104.495 258.886C104.334 258.859 104.173 258.846 104.012 258.846H103.168L96.8563 248.434C99.59 247.71 101.332 246.263 102.083 244.092C102.297 243.422 102.404 242.752 102.404 242.082C102.404 240.072 101.52 238.464 99.7508 237.258C98.2767 236.267 96.481 235.771 94.3638 235.771H81.4188V236.856H84.6349V258.805H81.4188V259.891H92.7959ZM92.3537 236.856C94.5246 236.856 95.9852 237.861 96.7357 239.871C97.0037 240.595 97.1377 241.372 97.1377 242.203C97.1377 244.347 96.4542 245.915 95.0874 246.906C94.3638 247.416 93.5329 247.67 92.5949 247.67H89.5797V236.856H92.3537Z"/>
<path d="M137.56 235.771H129.64L121.961 253.861L113.238 235.771H106.484V236.856H109.7V258.805H106.484V259.891H114.605C114.444 259.221 114.082 258.859 113.519 258.805H111.388V243.007L120.032 260.212H120.796L129.64 239.63V258.805H126.424V259.891H137.56C137.399 259.221 137.037 258.859 136.474 258.805H134.344V236.856H137.56V235.771Z"/>
<path fill-rule="evenodd" clip-rule="evenodd" d="M164.635 259.891C164.635 259.274 164.447 258.926 164.072 258.846C163.965 258.819 163.817 258.805 163.63 258.805H162.384L152.976 235.771H150.484L141.639 258.805H139.067V259.891H146.383C146.383 259.274 146.196 258.926 145.82 258.846C145.686 258.819 145.539 258.805 145.378 258.805H143.248L146.182 251.087H154.303L157.318 258.805H154.544V259.891H164.635ZM153.821 249.881H146.625L150.202 240.474L153.821 249.881Z"/>
<path d="M183.79 236.856H187.087V253.177L172.534 235.771H166.142V236.856H169.358V258.805H166.142V259.891H174.423C174.262 259.221 173.901 258.859 173.338 258.805H171.006V241.479L186.604 260.092L188.735 259.69V236.856H191.951V235.771H183.79V236.856Z"/>
<path fill-rule="evenodd" clip-rule="evenodd" d="M207.328 235.369C203.87 235.369 200.936 236.468 198.523 238.665C195.977 240.997 194.704 244.012 194.704 247.71C194.704 251.971 196.219 255.281 199.247 257.64C201.525 259.408 204.179 260.293 207.207 260.293C210.638 260.293 213.546 259.181 215.931 256.956C218.45 254.598 219.71 251.57 219.71 247.871C219.71 243.476 218.155 240.126 215.046 237.821C212.849 236.186 210.276 235.369 207.328 235.369ZM207.328 259.127C204.004 259.127 201.874 257.372 200.936 253.861C200.507 252.226 200.292 250.23 200.292 247.871C200.292 240.716 202.343 236.95 206.443 236.575C206.711 236.548 206.966 236.535 207.207 236.535C210.798 236.535 212.983 238.719 213.76 243.087C214.001 244.427 214.122 245.968 214.122 247.71C214.122 254.303 212.46 258.042 209.137 258.926C208.574 259.06 207.971 259.127 207.328 259.127Z"/>
<path d="M262.563 235.771H254.644L246.965 253.861L238.241 235.771H231.487V236.856H234.703V258.805H231.487V259.891H239.608C239.447 259.221 239.085 258.859 238.523 258.805H236.392V243.007L245.035 260.212H245.799L254.644 239.63V258.805H251.427V259.891H262.563C262.403 259.221 262.041 258.859 261.478 258.805H259.347V236.856H262.563V235.771Z"/>
<path fill-rule="evenodd" clip-rule="evenodd" d="M289.638 259.891C289.638 259.274 289.451 258.926 289.076 258.846C288.968 258.819 288.821 258.805 288.633 258.805H287.387L277.98 235.771H275.487L266.643 258.805H264.07V259.891H271.387C271.387 259.274 271.199 258.926 270.824 258.846C270.69 258.819 270.543 258.805 270.382 258.805H268.251L271.186 251.087H279.307L282.322 258.805H279.548V259.891H289.638ZM278.824 249.881H271.628L275.206 240.474L278.824 249.881Z"/>
<path fill-rule="evenodd" clip-rule="evenodd" d="M302.884 259.891V258.805H299.668V248.876H302.241L308.352 259.931L315.106 259.891C315.106 259.301 314.931 258.966 314.583 258.886C314.422 258.859 314.261 258.846 314.1 258.846H313.256L306.945 248.434C309.678 247.71 311.42 246.263 312.171 244.092C312.385 243.422 312.492 242.752 312.492 242.082C312.492 240.072 311.608 238.464 309.839 237.258C308.365 236.267 306.569 235.771 304.452 235.771H291.507V236.856H294.723V258.805H291.507V259.891H302.884ZM302.442 236.856C304.613 236.856 306.073 237.861 306.824 239.871C307.092 240.595 307.226 241.372 307.226 242.203C307.226 244.347 306.543 245.915 305.176 246.906C304.452 247.416 303.621 247.67 302.683 247.67H299.668V236.856H302.442Z"/>
<path d="M337.879 258.243C337.852 259.288 338.067 259.877 338.522 260.011C338.71 260.065 338.951 260.092 339.246 260.092V252.293H338.04C336.914 256.34 334.77 258.591 331.608 259.047C331.152 259.1 330.696 259.127 330.241 259.127C325.417 259.073 322.991 255.268 322.964 247.71C322.964 241.841 324.599 238.263 327.869 236.977C328.673 236.682 329.544 236.535 330.482 236.535C333.51 236.535 335.695 238.022 337.035 240.997C337.33 241.694 337.598 242.471 337.839 243.329H339.125L339.005 235.57C338.335 235.57 337.933 235.798 337.799 236.253C337.745 236.521 337.718 236.91 337.718 237.419C335.494 236.052 332.921 235.369 330 235.369C325.577 235.369 322.2 236.937 319.869 240.072C318.207 242.324 317.376 244.896 317.376 247.791C317.376 251.275 318.488 254.196 320.713 256.554C323.071 259.047 326.167 260.293 330 260.293C332.76 260.266 335.387 259.583 337.879 258.243Z"/>
<path d="M353.617 259.891C353.456 259.221 353.095 258.859 352.532 258.805H350.401V248.072H361.296V258.805H358.08V259.891H369.417C369.202 259.221 368.854 258.859 368.371 258.805H366.241V236.856H369.417V235.771H358.08V236.856H361.296V246.866H350.401V236.856H353.617V235.771H342.24V236.856H345.456V258.805H342.24V259.891H353.617Z"/>
<path d="M392.15 243.329L391.989 235.771H372.371V236.856H375.587V258.805H372.371V259.891H391.989L392.15 252.333H391.105L390.301 254.826C389.604 256.916 388.559 258.176 387.165 258.604C386.709 258.738 386.213 258.805 385.677 258.805H380.532V248.072H388.451V246.866H380.532V236.856H385.677C387.741 236.856 389.202 237.928 390.059 240.072C390.167 240.314 390.26 240.568 390.341 240.836L391.105 243.329H392.15Z"/>
<path d="M412.391 259.891C412.176 259.221 411.828 258.859 411.345 258.805H408.612V236.856H409.818C411.774 236.856 413.168 237.848 413.999 239.831C414.133 240.153 414.253 240.488 414.361 240.836L415.406 244.173H416.572L416.411 235.771H395.908L395.707 244.173H396.913L397.958 240.836C398.602 238.746 399.633 237.486 401.054 237.057C401.483 236.923 401.965 236.856 402.501 236.856H403.667V258.805H399.848V259.891H412.391Z"/>
<path d="M435.807 259.891C435.593 259.221 435.245 258.859 434.762 258.805H432.029V236.856H433.235C435.191 236.856 436.585 237.848 437.416 239.831C437.55 240.153 437.67 240.488 437.777 240.836L438.823 244.173H439.988L439.828 235.771H419.325L419.124 244.173H420.33L421.375 240.836C422.018 238.746 423.05 237.486 424.471 237.057C424.899 236.923 425.382 236.856 425.918 236.856H427.084V258.805H423.265V259.891H435.807Z"/>
<path d="M454.119 259.891C453.958 259.221 453.596 258.859 453.033 258.805H450.902V236.856H454.119V235.771H442.741V236.856H445.958V258.805H442.741V259.891H454.119Z"/>
</mask>
<path fill-rule="evenodd" clip-rule="evenodd" d="M11.0583 87C9.92155 87 9 87.9215 9 89.0582V183.737C9 184.873 9.92155 185.795 11.0583 185.795H39.875C41.0118 185.795 41.9333 186.716 41.9333 187.853V216.668C41.9333 217.805 42.8549 218.726 43.9917 218.726H468.008C469.145 218.726 470.067 217.805 470.067 216.668V187.853C470.067 186.716 470.988 185.795 472.125 185.795H500.942C502.078 185.795 503 184.873 503 183.737V89.0582C503 87.9215 502.078 87 500.942 87H327.155C326.429 87 325.756 87.3829 325.385 88.0074L257.77 201.88C256.972 203.223 255.028 203.223 254.23 201.88L186.615 88.0074C186.244 87.3829 185.571 87 184.845 87H11.0583ZM52.225 210.493C51.0882 210.493 50.1667 209.572 50.1667 208.435V179.62C50.1667 178.483 49.2451 177.562 48.1083 177.562H19.2917C18.1549 177.562 17.2333 176.64 17.2333 175.504L17.2333 97.2911C17.2333 96.1544 18.1549 95.2329 19.2917 95.2329H180.718C181.45 95.2329 182.127 95.6217 182.496 96.254L247.333 207.398C248.134 208.77 247.144 210.493 245.555 210.493H240.722C239.987 210.493 239.307 210.101 238.939 209.464L178.377 104.495C178.01 103.858 177.33 103.466 176.595 103.466H27.525C26.3882 103.466 25.4667 104.387 25.4667 105.524V167.271C25.4667 168.407 26.3882 169.329 27.525 169.329H56.3417C57.4785 169.329 58.4 170.25 58.4 171.387V208.435C58.4 209.572 57.4785 210.493 56.3417 210.493H52.225ZM147.207 207.414C147.991 208.786 147 210.493 145.42 210.493H134.558C133.422 210.493 132.5 209.572 132.5 208.435V181.678C132.5 181.675 132.498 181.678 132.5 181.678L147.207 207.414ZM459.775 210.493C460.912 210.493 461.833 209.572 461.833 208.435V179.62C461.833 178.483 462.755 177.562 463.892 177.562H492.708C493.845 177.562 494.767 176.64 494.767 175.504V97.2911C494.767 96.1544 493.845 95.2329 492.708 95.2329H331.282C330.55 95.2329 329.873 95.6217 329.504 96.254L264.667 207.398C263.866 208.77 264.856 210.493 266.445 210.493H271.278C272.013 210.493 272.693 210.101 273.061 209.464L333.623 104.495C333.99 103.858 334.67 103.466 335.405 103.466H484.475C485.612 103.466 486.533 104.387 486.533 105.524V167.271C486.533 168.407 485.612 169.329 484.475 169.329H455.658C454.522 169.329 453.6 170.25 453.6 171.387V208.435C453.6 209.572 454.522 210.493 455.658 210.493H459.775ZM364.793 207.414C364.009 208.786 365 210.493 366.58 210.493H377.442C378.578 210.493 379.5 209.572 379.5 208.435V181.678C379.5 181.673 379.493 181.671 379.491 181.676C379.49 181.68 379.497 181.682 379.5 181.678L364.793 207.414Z" fill="#447CCE"/>
<path fill-rule="evenodd" clip-rule="evenodd" d="M503 282.531C503 283.668 502.078 284.59 500.942 284.59H472.125C470.988 284.59 470.067 285.511 470.067 286.648V323.696C470.067 324.833 470.988 325.754 472.125 325.754H500.942C502.078 325.754 503 326.676 503 327.812V422.491C503 423.627 502.078 424.549 500.942 424.549H332.158C331.022 424.549 330.1 423.627 330.1 422.491V327.812C330.1 326.676 331.022 325.754 332.158 325.754H360.975C362.112 325.754 363.033 324.833 363.033 323.696V286.648C363.033 285.511 362.112 284.59 360.975 284.59H318.838C318.157 284.59 317.521 284.926 317.137 285.488L257.701 372.657C256.884 373.856 255.116 373.856 254.299 372.657L194.863 285.488C194.479 284.926 193.843 284.59 193.162 284.59H151.025C149.888 284.59 148.967 285.511 148.967 286.648V323.696C148.967 324.833 149.888 325.754 151.025 325.754H179.842C180.978 325.754 181.9 326.676 181.9 327.812V422.491C181.9 423.627 180.978 424.549 179.842 424.549H11.0583C9.92155 424.549 9 423.627 9 422.491V327.812C9 326.676 9.92155 325.754 11.0583 325.754H39.875C41.0118 325.754 41.9333 324.833 41.9333 323.696V286.648C41.9333 285.511 41.0118 284.59 39.875 284.59H11.0583C9.92155 284.59 9 283.668 9 282.531V278.415C9 277.278 9.92155 276.357 11.0583 276.357H500.942C502.078 276.357 503 277.278 503 278.415V282.531ZM300.672 285.506C301.054 284.933 301.697 284.59 302.385 284.59H305.652C307.3 284.59 308.28 286.429 307.36 287.796L257.708 361.634C256.892 362.847 255.108 362.847 254.292 361.634L204.64 287.796C203.72 286.429 204.7 284.59 206.348 284.59H209.615C210.303 284.59 210.946 284.933 211.328 285.506L254.287 349.942C255.102 351.164 256.898 351.164 257.713 349.942L300.672 285.506ZM371.267 286.648V331.929C371.267 333.065 370.345 333.987 369.208 333.987H340.392C339.255 333.987 338.333 334.908 338.333 336.045V414.258C338.333 415.394 339.255 416.316 340.392 416.316H492.708C493.845 416.316 494.767 415.394 494.767 414.258V336.045C494.767 334.908 493.845 333.987 492.708 333.987H463.892C462.755 333.987 461.833 333.065 461.833 331.929V286.648C461.833 285.511 460.912 284.59 459.775 284.59H455.658C454.522 284.59 453.6 285.511 453.6 286.648V340.162C453.6 341.298 454.522 342.22 455.658 342.22H484.475C485.612 342.22 486.533 343.141 486.533 344.278V406.025C486.533 407.162 485.612 408.083 484.475 408.083H348.625C347.488 408.083 346.567 407.162 346.567 406.025V344.278C346.567 343.141 347.488 342.22 348.625 342.22H377.442C378.578 342.22 379.5 341.298 379.5 340.162V286.648C379.5 285.511 378.578 284.59 377.442 284.59H373.325C372.188 284.59 371.267 285.511 371.267 286.648ZM140.733 286.648V331.929C140.733 333.065 141.655 333.987 142.792 333.987H171.608C172.745 333.987 173.667 334.908 173.667 336.045V414.258C173.667 415.394 172.745 416.316 171.608 416.316H19.2917C18.1549 416.316 17.2333 415.394 17.2333 414.258V336.045C17.2333 334.908 18.1549 333.987 19.2917 333.987H48.1083C49.2451 333.987 50.1667 333.065 50.1667 331.929V286.648C50.1667 285.511 51.0882 284.59 52.225 284.59H56.3417C57.4785 284.59 58.4 285.511 58.4 286.648V340.162C58.4 341.298 57.4785 342.22 56.3417 342.22H27.525C26.3882 342.22 25.4667 343.141 25.4667 344.278V406.025C25.4667 407.162 26.3882 408.083 27.525 408.083H163.375C164.512 408.083 165.433 407.162 165.433 406.025V344.278C165.433 343.141 164.512 342.22 163.375 342.22H134.558C133.422 342.22 132.5 341.298 132.5 340.162V286.648C132.5 285.511 133.422 284.59 134.558 284.59H138.675C139.812 284.59 140.733 285.511 140.733 286.648Z" fill="#447CCE"/>
<path d="M77.6607 243.329L77.4999 235.771H57.8814V236.856H61.0975V258.805H57.8814V259.891H77.4999L77.6607 252.333H76.6154L75.8114 254.826C75.1146 256.916 74.0693 258.176 72.6757 258.604C72.2201 258.738 71.7242 258.805 71.1882 258.805H66.0424V248.072H73.9621V246.866H66.0424V236.856H71.1882C73.2519 236.856 74.7126 237.928 75.5702 240.072C75.6774 240.314 75.7712 240.568 75.8516 240.836L76.6154 243.329H77.6607Z" fill="#447CCE"/>
<path fill-rule="evenodd" clip-rule="evenodd" d="M92.7959 259.891V258.805H89.5797V248.876H92.1526L98.2633 259.931L105.017 259.891C105.017 259.301 104.843 258.966 104.495 258.886C104.334 258.859 104.173 258.846 104.012 258.846H103.168L96.8563 248.434C99.59 247.71 101.332 246.263 102.083 244.092C102.297 243.422 102.404 242.752 102.404 242.082C102.404 240.072 101.52 238.464 99.7508 237.258C98.2767 236.267 96.481 235.771 94.3638 235.771H81.4188V236.856H84.6349V258.805H81.4188V259.891H92.7959ZM92.3537 236.856C94.5246 236.856 95.9852 237.861 96.7357 239.871C97.0037 240.595 97.1377 241.372 97.1377 242.203C97.1377 244.347 96.4542 245.915 95.0874 246.906C94.3638 247.416 93.5329 247.67 92.5949 247.67H89.5797V236.856H92.3537Z" fill="#447CCE"/>
<path d="M137.56 235.771H129.64L121.961 253.861L113.238 235.771H106.484V236.856H109.7V258.805H106.484V259.891H114.605C114.444 259.221 114.082 258.859 113.519 258.805H111.388V243.007L120.032 260.212H120.796L129.64 239.63V258.805H126.424V259.891H137.56C137.399 259.221 137.037 258.859 136.474 258.805H134.344V236.856H137.56V235.771Z" fill="#447CCE"/>
<path fill-rule="evenodd" clip-rule="evenodd" d="M164.635 259.891C164.635 259.274 164.447 258.926 164.072 258.846C163.965 258.819 163.817 258.805 163.63 258.805H162.384L152.976 235.771H150.484L141.639 258.805H139.067V259.891H146.383C146.383 259.274 146.196 258.926 145.82 258.846C145.686 258.819 145.539 258.805 145.378 258.805H143.248L146.182 251.087H154.303L157.318 258.805H154.544V259.891H164.635ZM153.821 249.881H146.625L150.202 240.474L153.821 249.881Z" fill="#447CCE"/>
<path d="M183.79 236.856H187.087V253.177L172.534 235.771H166.142V236.856H169.358V258.805H166.142V259.891H174.423C174.262 259.221 173.901 258.859 173.338 258.805H171.006V241.479L186.604 260.092L188.735 259.69V236.856H191.951V235.771H183.79V236.856Z" fill="#447CCE"/>
<path fill-rule="evenodd" clip-rule="evenodd" d="M207.328 235.369C203.87 235.369 200.936 236.468 198.523 238.665C195.977 240.997 194.704 244.012 194.704 247.71C194.704 251.971 196.219 255.281 199.247 257.64C201.525 259.408 204.179 260.293 207.207 260.293C210.638 260.293 213.546 259.181 215.931 256.956C218.45 254.598 219.71 251.57 219.71 247.871C219.71 243.476 218.155 240.126 215.046 237.821C212.849 236.186 210.276 235.369 207.328 235.369ZM207.328 259.127C204.004 259.127 201.874 257.372 200.936 253.861C200.507 252.226 200.292 250.23 200.292 247.871C200.292 240.716 202.343 236.95 206.443 236.575C206.711 236.548 206.966 236.535 207.207 236.535C210.798 236.535 212.983 238.719 213.76 243.087C214.001 244.427 214.122 245.968 214.122 247.71C214.122 254.303 212.46 258.042 209.137 258.926C208.574 259.06 207.971 259.127 207.328 259.127Z" fill="#447CCE"/>
<path d="M262.563 235.771H254.644L246.965 253.861L238.241 235.771H231.487V236.856H234.703V258.805H231.487V259.891H239.608C239.447 259.221 239.085 258.859 238.523 258.805H236.392V243.007L245.035 260.212H245.799L254.644 239.63V258.805H251.427V259.891H262.563C262.403 259.221 262.041 258.859 261.478 258.805H259.347V236.856H262.563V235.771Z" fill="#447CCE"/>
<path fill-rule="evenodd" clip-rule="evenodd" d="M289.638 259.891C289.638 259.274 289.451 258.926 289.076 258.846C288.968 258.819 288.821 258.805 288.633 258.805H287.387L277.98 235.771H275.487L266.643 258.805H264.07V259.891H271.387C271.387 259.274 271.199 258.926 270.824 258.846C270.69 258.819 270.543 258.805 270.382 258.805H268.251L271.186 251.087H279.307L282.322 258.805H279.548V259.891H289.638ZM278.824 249.881H271.628L275.206 240.474L278.824 249.881Z" fill="#447CCE"/>
<path fill-rule="evenodd" clip-rule="evenodd" d="M302.884 259.891V258.805H299.668V248.876H302.241L308.352 259.931L315.106 259.891C315.106 259.301 314.931 258.966 314.583 258.886C314.422 258.859 314.261 258.846 314.1 258.846H313.256L306.945 248.434C309.678 247.71 311.42 246.263 312.171 244.092C312.385 243.422 312.492 242.752 312.492 242.082C312.492 240.072 311.608 238.464 309.839 237.258C308.365 236.267 306.569 235.771 304.452 235.771H291.507V236.856H294.723V258.805H291.507V259.891H302.884ZM302.442 236.856C304.613 236.856 306.073 237.861 306.824 239.871C307.092 240.595 307.226 241.372 307.226 242.203C307.226 244.347 306.543 245.915 305.176 246.906C304.452 247.416 303.621 247.67 302.683 247.67H299.668V236.856H302.442Z" fill="#447CCE"/>
<path d="M337.879 258.243C337.852 259.288 338.067 259.877 338.522 260.011C338.71 260.065 338.951 260.092 339.246 260.092V252.293H338.04C336.914 256.34 334.77 258.591 331.608 259.047C331.152 259.1 330.696 259.127 330.241 259.127C325.417 259.073 322.991 255.268 322.964 247.71C322.964 241.841 324.599 238.263 327.869 236.977C328.673 236.682 329.544 236.535 330.482 236.535C333.51 236.535 335.695 238.022 337.035 240.997C337.33 241.694 337.598 242.471 337.839 243.329H339.125L339.005 235.57C338.335 235.57 337.933 235.798 337.799 236.253C337.745 236.521 337.718 236.91 337.718 237.419C335.494 236.052 332.921 235.369 330 235.369C325.577 235.369 322.2 236.937 319.869 240.072C318.207 242.324 317.376 244.896 317.376 247.791C317.376 251.275 318.488 254.196 320.713 256.554C323.071 259.047 326.167 260.293 330 260.293C332.76 260.266 335.387 259.583 337.879 258.243Z" fill="#447CCE"/>
<path d="M353.617 259.891C353.456 259.221 353.095 258.859 352.532 258.805H350.401V248.072H361.296V258.805H358.08V259.891H369.417C369.202 259.221 368.854 258.859 368.371 258.805H366.241V236.856H369.417V235.771H358.08V236.856H361.296V246.866H350.401V236.856H353.617V235.771H342.24V236.856H345.456V258.805H342.24V259.891H353.617Z" fill="#447CCE"/>
<path d="M392.15 243.329L391.989 235.771H372.371V236.856H375.587V258.805H372.371V259.891H391.989L392.15 252.333H391.105L390.301 254.826C389.604 256.916 388.559 258.176 387.165 258.604C386.709 258.738 386.213 258.805 385.677 258.805H380.532V248.072H388.451V246.866H380.532V236.856H385.677C387.741 236.856 389.202 237.928 390.059 240.072C390.167 240.314 390.26 240.568 390.341 240.836L391.105 243.329H392.15Z" fill="#447CCE"/>
<path d="M412.391 259.891C412.176 259.221 411.828 258.859 411.345 258.805H408.612V236.856H409.818C411.774 236.856 413.168 237.848 413.999 239.831C414.133 240.153 414.253 240.488 414.361 240.836L415.406 244.173H416.572L416.411 235.771H395.908L395.707 244.173H396.913L397.958 240.836C398.602 238.746 399.633 237.486 401.054 237.057C401.483 236.923 401.965 236.856 402.501 236.856H403.667V258.805H399.848V259.891H412.391Z" fill="#447CCE"/>
<path d="M435.807 259.891C435.593 259.221 435.245 258.859 434.762 258.805H432.029V236.856H433.235C435.191 236.856 436.585 237.848 437.416 239.831C437.55 240.153 437.67 240.488 437.777 240.836L438.823 244.173H439.988L439.828 235.771H419.325L419.124 244.173H420.33L421.375 240.836C422.018 238.746 423.05 237.486 424.471 237.057C424.899 236.923 425.382 236.856 425.918 236.856H427.084V258.805H423.265V259.891H435.807Z" fill="#447CCE"/>
<path d="M454.119 259.891C453.958 259.221 453.596 258.859 453.033 258.805H450.902V236.856H454.119V235.771H442.741V236.856H445.958V258.805H442.741V259.891H454.119Z" fill="#447CCE"/>
<path d="M132.547 181.663C132.545 181.657 132.541 181.651 132.535 181.646C132.53 181.64 132.523 181.638 132.518 181.636C132.508 181.634 132.501 181.636 132.498 181.636C132.492 181.638 132.488 181.64 132.487 181.64C132.486 181.641 132.485 181.641 132.485 181.642C132.484 181.642 132.484 181.642 132.484 181.642C132.485 181.642 132.486 181.641 132.487 181.64C132.488 181.64 132.494 181.638 132.503 181.638L132.497 181.718C132.502 181.719 132.506 181.718 132.509 181.717C132.511 181.717 132.513 181.716 132.514 181.716C132.517 181.715 132.519 181.714 132.52 181.714C132.521 181.713 132.521 181.713 132.522 181.712C132.523 181.712 132.523 181.712 132.523 181.712C132.524 181.711 132.521 181.713 132.517 181.714C132.515 181.714 132.508 181.716 132.499 181.714C132.494 181.713 132.487 181.71 132.482 181.705C132.476 181.7 132.473 181.693 132.471 181.688L132.547 181.663ZM325.385 88.0074L325.316 87.9666V87.9666L325.385 88.0074ZM257.77 201.88L257.701 201.839L257.77 201.88ZM254.23 201.88L254.299 201.839L254.23 201.88ZM186.615 88.0074L186.684 87.9666V87.9666L186.615 88.0074ZM17.2333 175.504H17.1533H17.2333ZM17.2333 97.2911H17.3133H17.2333ZM182.496 96.254L182.427 96.2944L182.496 96.254ZM247.333 207.398L247.264 207.438L247.333 207.398ZM238.939 209.464L239.009 209.424L238.939 209.464ZM178.377 104.495L178.308 104.535L178.377 104.495ZM147.207 207.414L147.276 207.374V207.374L147.207 207.414ZM329.504 96.254L329.435 96.2137V96.2137L329.504 96.254ZM264.667 207.398L264.736 207.438L264.667 207.398ZM273.061 209.464L272.991 209.424L273.061 209.464ZM333.623 104.495L333.692 104.535L333.623 104.495ZM364.793 207.414L364.863 207.454L364.793 207.414ZM379.491 181.676L379.415 181.651L379.415 181.652L379.491 181.676ZM317.137 285.488L317.071 285.443L317.137 285.488ZM257.701 372.657L257.635 372.612L257.701 372.657ZM254.299 372.657L254.365 372.612L254.299 372.657ZM194.863 285.488L194.797 285.533L194.863 285.488ZM300.672 285.506L300.739 285.55L300.672 285.506ZM307.36 287.796L307.427 287.841L307.36 287.796ZM257.708 361.634L257.642 361.589L257.708 361.634ZM254.292 361.634L254.358 361.589L254.292 361.634ZM204.64 287.796L204.573 287.841L204.64 287.796ZM211.328 285.506L211.261 285.55L211.328 285.506ZM254.287 349.942L254.221 349.987L254.287 349.942ZM257.713 349.942L257.646 349.898L257.713 349.942ZM77.4999 235.771L77.5799 235.769L77.5782 235.691H77.4999V235.771ZM77.6607 243.329V243.409H77.7424L77.7407 243.327L77.6607 243.329ZM57.8814 235.771V235.691H57.8014V235.771H57.8814ZM57.8814 236.856H57.8014V236.936H57.8814V236.856ZM61.0975 236.856H61.1775V236.776H61.0975V236.856ZM61.0975 258.805V258.885H61.1775V258.805H61.0975ZM57.8814 258.805V258.725H57.8014V258.805H57.8814ZM57.8814 259.891H57.8014V259.971H57.8814V259.891ZM77.4999 259.891V259.971H77.5782L77.5799 259.893L77.4999 259.891ZM77.6607 252.333L77.7407 252.335L77.7424 252.253H77.6607V252.333ZM76.6154 252.333V252.253H76.5572L76.5393 252.309L76.6154 252.333ZM75.8114 254.826L75.8873 254.851L75.8876 254.85L75.8114 254.826ZM72.6757 258.604L72.6982 258.681L72.6992 258.681L72.6757 258.604ZM66.0424 258.805H65.9624V258.885H66.0424V258.805ZM66.0424 248.072V247.992H65.9624V248.072H66.0424ZM73.9621 248.072V248.152H74.0421V248.072H73.9621ZM73.9621 246.866H74.0421V246.786H73.9621V246.866ZM66.0424 246.866H65.9624V246.946H66.0424V246.866ZM66.0424 236.856V236.776H65.9624V236.856H66.0424ZM75.5702 240.072L75.4959 240.102L75.4971 240.105L75.5702 240.072ZM75.8516 240.836L75.775 240.859L75.7751 240.86L75.8516 240.836ZM76.6154 243.329L76.539 243.352L76.5563 243.409H76.6154V243.329ZM92.7959 258.805H92.8759V258.725H92.7959V258.805ZM92.7959 259.891V259.971H92.8759V259.891H92.7959ZM89.5797 258.805H89.4997V258.885H89.5797V258.805ZM89.5797 248.876V248.796H89.4997V248.876H89.5797ZM92.1526 248.876L92.2227 248.837L92.1998 248.796H92.1526V248.876ZM98.2633 259.931L98.1933 259.97L98.2163 260.011L98.2638 260.011L98.2633 259.931ZM105.017 259.891L105.018 259.971L105.097 259.97V259.891H105.017ZM104.495 258.886L104.513 258.808L104.508 258.807L104.495 258.886ZM103.168 258.846L103.1 258.887L103.123 258.926H103.168V258.846ZM96.8563 248.434L96.8358 248.357L96.7324 248.384L96.7878 248.475L96.8563 248.434ZM102.083 244.092L102.158 244.119L102.159 244.117L102.083 244.092ZM99.7508 237.258L99.7959 237.192L99.7954 237.192L99.7508 237.258ZM81.4188 235.771V235.691H81.3388V235.771H81.4188ZM81.4188 236.856H81.3388V236.936H81.4188V236.856ZM84.6349 236.856H84.7149V236.776H84.6349V236.856ZM84.6349 258.805V258.885H84.7149V258.805H84.6349ZM81.4188 258.805V258.725H81.3388V258.805H81.4188ZM81.4188 259.891H81.3388V259.971H81.4188V259.891ZM96.7357 239.871L96.8107 239.844L96.8106 239.843L96.7357 239.871ZM95.0874 246.906L95.1334 246.972L95.1344 246.971L95.0874 246.906ZM89.5797 247.67H89.4997V247.75H89.5797V247.67ZM89.5797 236.856V236.776H89.4997V236.856H89.5797ZM129.64 235.771V235.691H129.587L129.566 235.74L129.64 235.771ZM137.56 235.771H137.64V235.691H137.56V235.771ZM121.961 253.861L121.889 253.896L121.966 254.055L122.035 253.892L121.961 253.861ZM113.238 235.771L113.31 235.736L113.288 235.691H113.238V235.771ZM106.484 235.771V235.691H106.404V235.771H106.484ZM106.484 236.856H106.404V236.936H106.484V236.856ZM109.7 236.856H109.78V236.776H109.7V236.856ZM109.7 258.805V258.885H109.78V258.805H109.7ZM106.484 258.805V258.725H106.404V258.805H106.484ZM106.484 259.891H106.404V259.971H106.484V259.891ZM114.605 259.891V259.971H114.706L114.682 259.872L114.605 259.891ZM113.519 258.805L113.527 258.725H113.519V258.805ZM111.388 258.805H111.308V258.885H111.388V258.805ZM111.388 243.007L111.46 242.971L111.308 243.007H111.388ZM120.032 260.212L119.96 260.248L119.982 260.292H120.032V260.212ZM120.796 260.212V260.292H120.848L120.869 260.244L120.796 260.212ZM129.64 239.63H129.72L129.567 239.599L129.64 239.63ZM129.64 258.805V258.885H129.72V258.805H129.64ZM126.424 258.805V258.725H126.344V258.805H126.424ZM126.424 259.891H126.344V259.971H126.424V259.891ZM137.56 259.891V259.971H137.661L137.638 259.872L137.56 259.891ZM136.474 258.805L136.482 258.725H136.474V258.805ZM134.344 258.805H134.264V258.885H134.344V258.805ZM134.344 236.856V236.776H134.264V236.856H134.344ZM137.56 236.856V236.936H137.64V236.856H137.56ZM164.072 258.846L164.053 258.923L164.055 258.924L164.072 258.846ZM164.635 259.891V259.971H164.715V259.891H164.635ZM162.384 258.805L162.31 258.836L162.33 258.885H162.384V258.805ZM152.976 235.771L153.05 235.741L153.03 235.691H152.976V235.771ZM150.484 235.771V235.691H150.429L150.409 235.742L150.484 235.771ZM141.639 258.805V258.885H141.694L141.714 258.834L141.639 258.805ZM139.067 258.805V258.725H138.987V258.805H139.067ZM139.067 259.891H138.987V259.971H139.067V259.891ZM146.383 259.891V259.971H146.463V259.891H146.383ZM145.82 258.846L145.837 258.767L145.836 258.767L145.82 258.846ZM143.248 258.805L143.173 258.777L143.132 258.885H143.248V258.805ZM146.182 251.087V251.007H146.127L146.107 251.059L146.182 251.087ZM154.303 251.087L154.378 251.058L154.358 251.007H154.303V251.087ZM157.318 258.805V258.885H157.435L157.393 258.776L157.318 258.805ZM154.544 258.805V258.725H154.464V258.805H154.544ZM154.544 259.891H154.464V259.971H154.544V259.891ZM146.625 249.881L146.55 249.853L146.508 249.961H146.625V249.881ZM153.821 249.881V249.961H153.937L153.895 249.852L153.821 249.881ZM150.202 240.474L150.277 240.446L150.202 240.25L150.128 240.446L150.202 240.474ZM187.087 236.856H187.167V236.776H187.087V236.856ZM183.79 236.856H183.71V236.936H183.79V236.856ZM187.087 253.177L187.025 253.229L187.167 253.398V253.177H187.087ZM172.534 235.771L172.595 235.72L172.571 235.691H172.534V235.771ZM166.142 235.771V235.691H166.062V235.771H166.142ZM166.142 236.856H166.062V236.936H166.142V236.856ZM169.358 236.856H169.438V236.776H169.358V236.856ZM169.358 258.805V258.885H169.438V258.805H169.358ZM166.142 258.805V258.725H166.062V258.805H166.142ZM166.142 259.891H166.062V259.971H166.142V259.891ZM174.423 259.891V259.971H174.525L174.501 259.872L174.423 259.891ZM173.338 258.805L173.345 258.725H173.338V258.805ZM171.006 258.805H170.926V258.885H171.006V258.805ZM171.006 241.479L171.067 241.428L170.926 241.259V241.479H171.006ZM186.604 260.092L186.543 260.143L186.573 260.179L186.619 260.17L186.604 260.092ZM188.735 259.69L188.75 259.768L188.815 259.756V259.69H188.735ZM188.735 236.856V236.776H188.655V236.856H188.735ZM191.951 236.856V236.936H192.031V236.856H191.951ZM191.951 235.771H192.031V235.691H191.951V235.771ZM183.79 235.771V235.691H183.71V235.771H183.79ZM198.523 238.665L198.47 238.606L198.469 238.606L198.523 238.665ZM199.247 257.64L199.198 257.703L199.198 257.703L199.247 257.64ZM215.931 256.956L215.985 257.015L215.986 257.015L215.931 256.956ZM215.046 237.821L214.999 237.885L214.999 237.885L215.046 237.821ZM200.936 253.861L200.858 253.881L200.858 253.882L200.936 253.861ZM206.443 236.575L206.451 236.655L206.451 236.655L206.443 236.575ZM213.76 243.087L213.681 243.101L213.681 243.102L213.76 243.087ZM209.137 258.926L209.155 259.004L209.157 259.003L209.137 258.926ZM254.644 235.771V235.691H254.591L254.57 235.74L254.644 235.771ZM262.563 235.771H262.643V235.691H262.563V235.771ZM246.965 253.861L246.893 253.896L246.97 254.055L247.039 253.892L246.965 253.861ZM238.241 235.771L238.313 235.736L238.291 235.691H238.241V235.771ZM231.487 235.771V235.691H231.407V235.771H231.487ZM231.487 236.856H231.407V236.936H231.487V236.856ZM234.703 236.856H234.783V236.776H234.703V236.856ZM234.703 258.805V258.885H234.783V258.805H234.703ZM231.487 258.805V258.725H231.407V258.805H231.487ZM231.487 259.891H231.407V259.971H231.487V259.891ZM239.608 259.891V259.971H239.71L239.686 259.872L239.608 259.891ZM238.523 258.805L238.53 258.725H238.523V258.805ZM236.392 258.805H236.312V258.885H236.392V258.805ZM236.392 243.007L236.463 242.971L236.312 243.007H236.392ZM245.035 260.212L244.964 260.248L244.986 260.292H245.035V260.212ZM245.799 260.212V260.292H245.852L245.873 260.244L245.799 260.212ZM254.644 239.63H254.724L254.57 239.599L254.644 239.63ZM254.644 258.805V258.885H254.724V258.805H254.644ZM251.427 258.805V258.725H251.347V258.805H251.427ZM251.427 259.891H251.347V259.971H251.427V259.891ZM262.563 259.891V259.971H262.665L262.641 259.872L262.563 259.891ZM261.478 258.805L261.486 258.725H261.478V258.805ZM259.347 258.805H259.267V258.885H259.347V258.805ZM259.347 236.856V236.776H259.267V236.856H259.347ZM262.563 236.856V236.936H262.643V236.856H262.563ZM289.076 258.846L289.056 258.923L289.059 258.924L289.076 258.846ZM289.638 259.891V259.971H289.718V259.891H289.638ZM287.387 258.805L287.313 258.836L287.333 258.885H287.387V258.805ZM277.98 235.771L278.054 235.741L278.034 235.691H277.98V235.771ZM275.487 235.771V235.691H275.432L275.413 235.742L275.487 235.771ZM266.643 258.805V258.885H266.698L266.718 258.834L266.643 258.805ZM264.07 258.805V258.725H263.99V258.805H264.07ZM264.07 259.891H263.99V259.971H264.07V259.891ZM271.387 259.891V259.971H271.467V259.891H271.387ZM270.824 258.846L270.841 258.767L270.84 258.767L270.824 258.846ZM268.251 258.805L268.176 258.777L268.135 258.885H268.251V258.805ZM271.186 251.087V251.007H271.131L271.111 251.059L271.186 251.087ZM279.307 251.087L279.381 251.058L279.361 251.007H279.307V251.087ZM282.322 258.805V258.885H282.439L282.396 258.776L282.322 258.805ZM279.548 258.805V258.725H279.468V258.805H279.548ZM279.548 259.891H279.468V259.971H279.548V259.891ZM271.628 249.881L271.553 249.853L271.512 249.961H271.628V249.881ZM278.824 249.881V249.961H278.941L278.899 249.852L278.824 249.881ZM275.206 240.474L275.281 240.446L275.206 240.25L275.131 240.446L275.206 240.474ZM302.884 258.805H302.964V258.725H302.884V258.805ZM302.884 259.891V259.971H302.964V259.891H302.884ZM299.668 258.805H299.588V258.885H299.668V258.805ZM299.668 248.876V248.796H299.588V248.876H299.668ZM302.241 248.876L302.311 248.837L302.288 248.796H302.241V248.876ZM308.352 259.931L308.282 259.97L308.305 260.011L308.352 260.011L308.352 259.931ZM315.106 259.891L315.106 259.971L315.186 259.97V259.891H315.106ZM314.583 258.886L314.601 258.808L314.596 258.807L314.583 258.886ZM313.256 258.846L313.188 258.887L313.211 258.926H313.256V258.846ZM306.945 248.434L306.924 248.357L306.821 248.384L306.876 248.475L306.945 248.434ZM312.171 244.092L312.246 244.119L312.247 244.117L312.171 244.092ZM309.839 237.258L309.884 237.192L309.884 237.192L309.839 237.258ZM291.507 235.771V235.691H291.427V235.771H291.507ZM291.507 236.856H291.427V236.936H291.507V236.856ZM294.723 236.856H294.803V236.776H294.723V236.856ZM294.723 258.805V258.885H294.803V258.805H294.723ZM291.507 258.805V258.725H291.427V258.805H291.507ZM291.507 259.891H291.427V259.971H291.507V259.891ZM306.824 239.871L306.899 239.844L306.899 239.843L306.824 239.871ZM305.176 246.906L305.222 246.972L305.223 246.971L305.176 246.906ZM299.668 247.67H299.588V247.75H299.668V247.67ZM299.668 236.856V236.776H299.588V236.856H299.668ZM338.522 260.011L338.5 260.088L338.5 260.088L338.522 260.011ZM337.879 258.243L337.959 258.245L337.963 258.107L337.841 258.172L337.879 258.243ZM339.246 260.092V260.172H339.326V260.092H339.246ZM339.246 252.293H339.326V252.213H339.246V252.293ZM338.04 252.293V252.213H337.979L337.963 252.272L338.04 252.293ZM331.608 259.047L331.617 259.126L331.619 259.126L331.608 259.047ZM330.241 259.127L330.24 259.207H330.241V259.127ZM322.964 247.71H322.884V247.711L322.964 247.71ZM327.869 236.977L327.841 236.902L327.84 236.903L327.869 236.977ZM337.035 240.997L337.108 240.966L337.108 240.964L337.035 240.997ZM337.839 243.329L337.762 243.35L337.778 243.409H337.839V243.329ZM339.125 243.329V243.409H339.207L339.205 243.327L339.125 243.329ZM339.005 235.57L339.085 235.569L339.083 235.49H339.005V235.57ZM337.799 236.253L337.722 236.231L337.72 236.238L337.799 236.253ZM337.718 237.419L337.676 237.487L337.798 237.562V237.419H337.718ZM319.869 240.072L319.804 240.025L319.804 240.025L319.869 240.072ZM320.713 256.554L320.655 256.609L320.655 256.609L320.713 256.554ZM330 260.293V260.373L330 260.373L330 260.293ZM352.532 258.805L352.539 258.725H352.532V258.805ZM353.617 259.891V259.971H353.719L353.695 259.872L353.617 259.891ZM350.401 258.805H350.321V258.885H350.401V258.805ZM350.401 248.072V247.992H350.321V248.072H350.401ZM361.296 248.072H361.376V247.992H361.296V248.072ZM361.296 258.805V258.885H361.376V258.805H361.296ZM358.08 258.805V258.725H358V258.805H358.08ZM358.08 259.891H358V259.971H358.08V259.891ZM369.417 259.891V259.971H369.526L369.493 259.866L369.417 259.891ZM368.371 258.805L368.38 258.725H368.371V258.805ZM366.241 258.805H366.161V258.885H366.241V258.805ZM366.241 236.856V236.776H366.161V236.856H366.241ZM369.417 236.856V236.936H369.497V236.856H369.417ZM369.417 235.771H369.497V235.691H369.417V235.771ZM358.08 235.771V235.691H358V235.771H358.08ZM358.08 236.856H358V236.936H358.08V236.856ZM361.296 236.856H361.376V236.776H361.296V236.856ZM361.296 246.866V246.946H361.376V246.866H361.296ZM350.401 246.866H350.321V246.946H350.401V246.866ZM350.401 236.856V236.776H350.321V236.856H350.401ZM353.617 236.856V236.936H353.697V236.856H353.617ZM353.617 235.771H353.697V235.691H353.617V235.771ZM342.24 235.771V235.691H342.16V235.771H342.24ZM342.24 236.856H342.16V236.936H342.24V236.856ZM345.456 236.856H345.536V236.776H345.456V236.856ZM345.456 258.805V258.885H345.536V258.805H345.456ZM342.24 258.805V258.725H342.16V258.805H342.24ZM342.24 259.891H342.16V259.971H342.24V259.891ZM391.989 235.771L392.069 235.769L392.067 235.691H391.989V235.771ZM392.15 243.329V243.409H392.232L392.23 243.327L392.15 243.329ZM372.371 235.771V235.691H372.291V235.771H372.371ZM372.371 236.856H372.291V236.936H372.371V236.856ZM375.587 236.856H375.667V236.776H375.587V236.856ZM375.587 258.805V258.885H375.667V258.805H375.587ZM372.371 258.805V258.725H372.291V258.805H372.371ZM372.371 259.891H372.291V259.971H372.371V259.891ZM391.989 259.891V259.971H392.067L392.069 259.893L391.989 259.891ZM392.15 252.333L392.23 252.335L392.232 252.253H392.15V252.333ZM391.105 252.333V252.253H391.046L391.029 252.309L391.105 252.333ZM390.301 254.826L390.377 254.851L390.377 254.85L390.301 254.826ZM387.165 258.604L387.187 258.681L387.188 258.681L387.165 258.604ZM380.532 258.805H380.452V258.885H380.532V258.805ZM380.532 248.072V247.992H380.452V248.072H380.532ZM388.451 248.072V248.152H388.531V248.072H388.451ZM388.451 246.866H388.531V246.786H388.451V246.866ZM380.532 246.866H380.452V246.946H380.532V246.866ZM380.532 236.856V236.776H380.452V236.856H380.532ZM390.059 240.072L389.985 240.102L389.986 240.105L390.059 240.072ZM390.341 240.836L390.264 240.859L390.264 240.86L390.341 240.836ZM391.105 243.329L391.028 243.352L391.046 243.409H391.105V243.329ZM411.345 258.805L411.354 258.725H411.345V258.805ZM412.391 259.891V259.971H412.5L412.467 259.866L412.391 259.891ZM408.612 258.805H408.532V258.885H408.612V258.805ZM408.612 236.856V236.776H408.532V236.856H408.612ZM413.999 239.831L414.073 239.8L414.073 239.8L413.999 239.831ZM414.361 240.836L414.284 240.86L414.284 240.86L414.361 240.836ZM415.406 244.173L415.33 244.197L415.347 244.253H415.406V244.173ZM416.572 244.173V244.253H416.653L416.652 244.171L416.572 244.173ZM416.411 235.771L416.491 235.77L416.489 235.691H416.411V235.771ZM395.908 235.771V235.691H395.83L395.828 235.769L395.908 235.771ZM395.707 244.173L395.627 244.171L395.625 244.253H395.707V244.173ZM396.913 244.173V244.253H396.972L396.989 244.197L396.913 244.173ZM397.958 240.836L398.035 240.86L398.035 240.86L397.958 240.836ZM401.054 237.057L401.077 237.134L401.078 237.134L401.054 237.057ZM403.667 236.856H403.747V236.776H403.667V236.856ZM403.667 258.805V258.885H403.747V258.805H403.667ZM399.848 258.805V258.725H399.768V258.805H399.848ZM399.848 259.891H399.768V259.971H399.848V259.891ZM434.762 258.805L434.771 258.725H434.762V258.805ZM435.807 259.891V259.971H435.917L435.884 259.866L435.807 259.891ZM432.029 258.805H431.949V258.885H432.029V258.805ZM432.029 236.856V236.776H431.949V236.856H432.029ZM437.416 239.831L437.489 239.8L437.489 239.8L437.416 239.831ZM437.777 240.836L437.701 240.86L437.701 240.86L437.777 240.836ZM438.823 244.173L438.746 244.197L438.764 244.253H438.823V244.173ZM439.988 244.173V244.253H440.07L440.068 244.171L439.988 244.173ZM439.828 235.771L439.908 235.77L439.906 235.691H439.828V235.771ZM419.325 235.771V235.691H419.247L419.245 235.769L419.325 235.771ZM419.124 244.173L419.044 244.171L419.042 244.253H419.124V244.173ZM420.33 244.173V244.253H420.389L420.406 244.197L420.33 244.173ZM421.375 240.836L421.451 240.86L421.452 240.86L421.375 240.836ZM424.471 237.057L424.494 237.134L424.494 237.134L424.471 237.057ZM427.084 236.856H427.164V236.776H427.084V236.856ZM427.084 258.805V258.885H427.164V258.805H427.084ZM423.265 258.805V258.725H423.185V258.805H423.265ZM423.265 259.891H423.185V259.971H423.265V259.891ZM453.033 258.805L453.041 258.725H453.033V258.805ZM454.119 259.891V259.971H454.22L454.196 259.872L454.119 259.891ZM450.902 258.805H450.822V258.885H450.902V258.805ZM450.902 236.856V236.776H450.822V236.856H450.902ZM454.119 236.856V236.936H454.199V236.856H454.119ZM454.119 235.771H454.199V235.691H454.119V235.771ZM442.741 235.771V235.691H442.661V235.771H442.741ZM442.741 236.856H442.661V236.936H442.741V236.856ZM445.958 236.856H446.038V236.776H445.958V236.856ZM445.958 258.805V258.885H446.038V258.805H445.958ZM442.741 258.805V258.725H442.661V258.805H442.741ZM442.741 259.891H442.661V259.971H442.741V259.891ZM9.08 89.0582C9.08 87.9657 9.96573 87.08 11.0583 87.08V86.92C9.87737 86.92 8.92 87.8773 8.92 89.0582H9.08ZM11.0583 185.715C9.96573 185.715 9.08 184.829 9.08 183.737H8.92C8.92 184.917 9.87737 185.875 11.0583 185.875V185.715ZM42.0133 187.853C42.0133 186.672 41.056 185.715 39.875 185.715V185.875C40.9676 185.875 41.8533 186.76 41.8533 187.853H42.0133ZM42.0133 216.668V187.853H41.8533V216.668H42.0133ZM43.9917 218.646C42.8991 218.646 42.0133 217.761 42.0133 216.668H41.8533C41.8533 217.849 42.8107 218.806 43.9917 218.806V218.646ZM469.987 216.668C469.987 217.761 469.101 218.646 468.008 218.646V218.806C469.189 218.806 470.147 217.849 470.147 216.668H469.987ZM469.987 187.853V216.668H470.147V187.853H469.987ZM472.125 185.715C470.944 185.715 469.987 186.672 469.987 187.853H470.147C470.147 186.76 471.032 185.875 472.125 185.875V185.715ZM502.92 183.737C502.92 184.829 502.034 185.715 500.942 185.715V185.875C502.123 185.875 503.08 184.917 503.08 183.737H502.92ZM500.942 87.08C502.034 87.08 502.92 87.9657 502.92 89.0582H503.08C503.08 87.8773 502.123 86.92 500.942 86.92V87.08ZM325.454 88.0483C325.81 87.448 326.457 87.08 327.155 87.08V86.92C326.4 86.92 325.702 87.3177 325.316 87.9666L325.454 88.0483ZM257.839 201.921L325.454 88.0483L325.316 87.9666L257.701 201.839L257.839 201.921ZM254.161 201.921C254.99 203.316 257.01 203.316 257.839 201.921L257.701 201.839C256.934 203.13 255.065 203.13 254.299 201.839L254.161 201.921ZM186.546 88.0483L254.161 201.921L254.299 201.839L186.684 87.9666L186.546 88.0483ZM184.845 87.08C185.543 87.08 186.19 87.448 186.546 88.0483L186.684 87.9666C186.298 87.3177 185.6 86.92 184.845 86.92V87.08ZM50.0867 208.435C50.0867 209.616 51.044 210.573 52.225 210.573V210.413C51.1324 210.413 50.2467 209.528 50.2467 208.435H50.0867ZM48.1083 177.642C49.2009 177.642 50.0867 178.528 50.0867 179.62H50.2467C50.2467 178.439 49.2893 177.482 48.1083 177.482V177.642ZM17.1533 175.504C17.1533 176.685 18.1107 177.642 19.2917 177.642V177.482C18.1991 177.482 17.3133 176.596 17.3133 175.504H17.1533ZM17.1533 97.2911L17.1533 175.504H17.3133L17.3133 97.2911H17.1533ZM19.2917 95.1529C18.1107 95.1529 17.1533 96.1102 17.1533 97.2911H17.3133C17.3133 96.1986 18.1991 95.3129 19.2917 95.3129V95.1529ZM180.718 95.1529H19.2917V95.3129H180.718V95.1529ZM182.565 96.2137C182.182 95.5568 181.478 95.1529 180.718 95.1529V95.3129C181.421 95.3129 182.072 95.6866 182.427 96.2944L182.565 96.2137ZM247.402 207.358L182.565 96.2137L182.427 96.2944L247.264 207.438L247.402 207.358ZM245.555 210.573C247.206 210.573 248.234 208.783 247.402 207.358L247.264 207.438C248.033 208.757 247.082 210.413 245.555 210.413V210.573ZM240.722 210.573H245.555V210.413H240.722V210.573ZM238.87 209.504C239.252 210.166 239.958 210.573 240.722 210.573V210.413C240.015 210.413 239.362 210.036 239.009 209.424L238.87 209.504ZM178.308 104.535L238.87 209.504L239.009 209.424L178.447 104.455L178.308 104.535ZM176.595 103.546C177.302 103.546 177.955 103.923 178.308 104.535L178.447 104.455C178.065 103.794 177.359 103.386 176.595 103.386V103.546ZM25.5467 105.524C25.5467 104.431 26.4324 103.546 27.525 103.546V103.386C26.344 103.386 25.3867 104.343 25.3867 105.524H25.5467ZM25.5467 167.271V105.524H25.3867V167.271H25.5467ZM27.525 169.249C26.4324 169.249 25.5467 168.363 25.5467 167.271H25.3867C25.3867 168.452 26.344 169.409 27.525 169.409V169.249ZM56.3417 169.249H27.525V169.409H56.3417V169.249ZM58.48 171.387C58.48 170.206 57.5226 169.249 56.3417 169.249V169.409C57.4343 169.409 58.32 170.295 58.32 171.387H58.48ZM58.48 208.435V171.387H58.32V208.435H58.48ZM56.3417 210.573C57.5226 210.573 58.48 209.616 58.48 208.435H58.32C58.32 209.528 57.4343 210.413 56.3417 210.413V210.573ZM52.225 210.573H56.3417V210.413H52.225V210.573ZM145.42 210.573C147.062 210.573 148.091 208.8 147.276 207.374L147.137 207.454C147.891 208.773 146.939 210.413 145.42 210.413V210.573ZM134.558 210.573H145.42V210.413H134.558V210.573ZM132.42 208.435C132.42 209.616 133.377 210.573 134.558 210.573V210.413C133.466 210.413 132.58 209.528 132.58 208.435H132.42ZM132.42 181.678V208.435H132.58V181.678H132.42ZM132.505 181.598C132.519 181.599 132.554 181.607 132.572 181.645C132.587 181.678 132.575 181.71 132.561 181.728C132.553 181.738 132.539 181.75 132.518 181.755C132.494 181.76 132.468 181.755 132.449 181.739C132.432 181.725 132.425 181.708 132.423 181.7C132.42 181.69 132.42 181.683 132.42 181.678H132.58C132.58 181.673 132.58 181.665 132.577 181.655C132.574 181.646 132.568 181.63 132.551 181.615C132.531 181.599 132.505 181.593 132.481 181.599C132.46 181.604 132.446 181.616 132.438 181.626C132.422 181.644 132.411 181.677 132.426 181.711C132.444 181.749 132.48 181.757 132.495 181.758L132.505 181.598ZM147.276 207.374L132.569 181.639L132.431 181.718L147.137 207.454L147.276 207.374ZM461.753 208.435C461.753 209.528 460.868 210.413 459.775 210.413V210.573C460.956 210.573 461.913 209.616 461.913 208.435H461.753ZM463.892 177.482C462.711 177.482 461.753 178.439 461.753 179.62H461.913C461.913 178.528 462.799 177.642 463.892 177.642V177.482ZM494.687 175.504C494.687 176.596 493.801 177.482 492.708 177.482V177.642C493.889 177.642 494.847 176.685 494.847 175.504H494.687ZM494.687 97.2911V175.504H494.847V97.2911H494.687ZM492.708 95.3129C493.801 95.3129 494.687 96.1986 494.687 97.2911H494.847C494.847 96.1102 493.889 95.1529 492.708 95.1529V95.3129ZM331.282 95.3129H492.708V95.1529H331.282V95.3129ZM329.573 96.2944C329.928 95.6866 330.579 95.3129 331.282 95.3129V95.1529C330.522 95.1529 329.818 95.5568 329.435 96.2137L329.573 96.2944ZM264.736 207.438L329.573 96.2944L329.435 96.2137L264.598 207.358L264.736 207.438ZM266.445 210.413C264.918 210.413 263.967 208.757 264.736 207.438L264.598 207.358C263.766 208.783 264.794 210.573 266.445 210.573V210.413ZM271.278 210.413H266.445V210.573H271.278V210.413ZM272.991 209.424C272.638 210.036 271.985 210.413 271.278 210.413V210.573C272.042 210.573 272.748 210.166 273.13 209.504L272.991 209.424ZM333.553 104.455L272.991 209.424L273.13 209.504L333.692 104.535L333.553 104.455ZM335.405 103.386C334.641 103.386 333.935 103.794 333.553 104.455L333.692 104.535C334.045 103.923 334.698 103.546 335.405 103.546V103.386ZM486.613 105.524C486.613 104.343 485.656 103.386 484.475 103.386V103.546C485.568 103.546 486.453 104.431 486.453 105.524H486.613ZM486.613 167.271V105.524H486.453V167.271H486.613ZM484.475 169.409C485.656 169.409 486.613 168.452 486.613 167.271H486.453C486.453 168.363 485.568 169.249 484.475 169.249V169.409ZM455.658 169.409H484.475V169.249H455.658V169.409ZM453.68 171.387C453.68 170.295 454.566 169.409 455.658 169.409V169.249C454.477 169.249 453.52 170.206 453.52 171.387H453.68ZM453.68 208.435V171.387H453.52V208.435H453.68ZM455.658 210.413C454.566 210.413 453.68 209.528 453.68 208.435H453.52C453.52 209.616 454.477 210.573 455.658 210.573V210.413ZM459.775 210.413H455.658V210.573H459.775V210.413ZM366.58 210.413C365.061 210.413 364.109 208.773 364.863 207.454L364.724 207.374C363.909 208.8 364.938 210.573 366.58 210.573V210.413ZM377.442 210.413H366.58V210.573H377.442V210.413ZM379.42 208.435C379.42 209.528 378.534 210.413 377.442 210.413V210.573C378.623 210.573 379.58 209.616 379.58 208.435H379.42ZM379.42 181.678V208.435H379.58V181.678H379.42ZM379.567 181.7C379.561 181.719 379.546 181.738 379.524 181.747C379.503 181.756 379.484 181.753 379.471 181.749C379.446 181.741 379.42 181.716 379.42 181.678H379.58C379.58 181.635 379.55 181.607 379.521 181.597C379.506 181.592 379.485 181.59 379.463 181.599C379.438 181.609 379.422 181.629 379.415 181.651L379.567 181.7ZM379.435 181.632C379.457 181.601 379.492 181.596 379.517 181.604C379.53 181.608 379.547 181.617 379.559 181.636C379.572 181.656 379.574 181.68 379.568 181.699L379.415 181.652C379.408 181.674 379.41 181.699 379.424 181.722C379.437 181.742 379.456 181.752 379.471 181.757C379.5 181.766 379.54 181.76 379.565 181.725L379.435 181.632ZM364.863 207.454L379.569 181.718L379.431 181.639L364.724 207.374L364.863 207.454ZM500.942 284.67C502.123 284.67 503.08 283.712 503.08 282.531H502.92C502.92 283.624 502.034 284.51 500.942 284.51V284.67ZM472.125 284.67H500.942V284.51H472.125V284.67ZM470.147 286.648C470.147 285.555 471.032 284.67 472.125 284.67V284.51C470.944 284.51 469.987 285.467 469.987 286.648H470.147ZM470.147 323.696V286.648H469.987V323.696H470.147ZM472.125 325.674C471.032 325.674 470.147 324.788 470.147 323.696H469.987C469.987 324.877 470.944 325.834 472.125 325.834V325.674ZM500.942 325.674H472.125V325.834H500.942V325.674ZM503.08 327.812C503.08 326.631 502.123 325.674 500.942 325.674V325.834C502.034 325.834 502.92 326.72 502.92 327.812H503.08ZM500.942 424.629C502.123 424.629 503.08 423.671 503.08 422.491H502.92C502.92 423.583 502.034 424.469 500.942 424.469V424.629ZM330.02 422.491C330.02 423.671 330.977 424.629 332.158 424.629V424.469C331.066 424.469 330.18 423.583 330.18 422.491H330.02ZM332.158 325.674C330.977 325.674 330.02 326.631 330.02 327.812H330.18C330.18 326.72 331.066 325.834 332.158 325.834V325.674ZM360.975 325.674H332.158V325.834H360.975V325.674ZM362.953 323.696C362.953 324.788 362.068 325.674 360.975 325.674V325.834C362.156 325.834 363.113 324.877 363.113 323.696H362.953ZM362.953 286.648V323.696H363.113V286.648H362.953ZM360.975 284.67C362.068 284.67 362.953 285.555 362.953 286.648H363.113C363.113 285.467 362.156 284.51 360.975 284.51V284.67ZM318.838 284.67H360.975V284.51H318.838V284.67ZM317.203 285.533C317.572 284.993 318.184 284.67 318.838 284.67V284.51C318.131 284.51 317.469 284.859 317.071 285.443L317.203 285.533ZM257.767 372.702L317.203 285.533L317.071 285.443L257.635 372.612L257.767 372.702ZM254.233 372.702C255.082 373.947 256.918 373.947 257.767 372.702L257.635 372.612C256.849 373.764 255.151 373.764 254.365 372.612L254.233 372.702ZM194.797 285.533L254.233 372.702L254.365 372.612L194.929 285.443L194.797 285.533ZM193.162 284.67C193.816 284.67 194.428 284.993 194.797 285.533L194.929 285.443C194.531 284.859 193.869 284.51 193.162 284.51V284.67ZM151.025 284.67H193.162V284.51H151.025V284.67ZM149.047 286.648C149.047 285.555 149.932 284.67 151.025 284.67V284.51C149.844 284.51 148.887 285.467 148.887 286.648H149.047ZM149.047 323.696V286.648H148.887V323.696H149.047ZM151.025 325.674C149.932 325.674 149.047 324.788 149.047 323.696H148.887C148.887 324.877 149.844 325.834 151.025 325.834V325.674ZM179.842 325.674H151.025V325.834H179.842V325.674ZM181.98 327.812C181.98 326.631 181.023 325.674 179.842 325.674V325.834C180.934 325.834 181.82 326.72 181.82 327.812H181.98ZM179.842 424.629C181.023 424.629 181.98 423.671 181.98 422.491H181.82C181.82 423.583 180.934 424.469 179.842 424.469V424.629ZM8.92 422.491C8.92 423.671 9.87737 424.629 11.0583 424.629V424.469C9.96573 424.469 9.08 423.583 9.08 422.491H8.92ZM11.0583 325.674C9.87737 325.674 8.92 326.631 8.92 327.812H9.08C9.08 326.72 9.96573 325.834 11.0583 325.834V325.674ZM39.875 325.674H11.0583V325.834H39.875V325.674ZM41.8533 323.696C41.8533 324.788 40.9676 325.674 39.875 325.674V325.834C41.056 325.834 42.0133 324.877 42.0133 323.696H41.8533ZM41.8533 286.648V323.696H42.0133V286.648H41.8533ZM39.875 284.67C40.9676 284.67 41.8533 285.555 41.8533 286.648H42.0133C42.0133 285.467 41.056 284.51 39.875 284.51V284.67ZM11.0583 284.67H39.875V284.51H11.0583V284.67ZM8.92 282.531C8.92 283.712 9.87737 284.67 11.0583 284.67V284.51C9.96573 284.51 9.08 283.624 9.08 282.531H8.92ZM8.92 278.415V282.531H9.08V278.415H8.92ZM11.0583 276.277C9.87737 276.277 8.92 277.234 8.92 278.415H9.08C9.08 277.322 9.96573 276.437 11.0583 276.437V276.277ZM503.08 278.415C503.08 277.234 502.123 276.277 500.942 276.277V276.437C502.034 276.437 502.92 277.322 502.92 278.415H503.08ZM503.08 282.531V278.415H502.92V282.531H503.08ZM302.385 284.51C301.67 284.51 301.002 284.867 300.606 285.462L300.739 285.55C301.106 285 301.723 284.67 302.385 284.67V284.51ZM305.652 284.51H302.385V284.67H305.652V284.51ZM307.427 287.841C308.382 286.421 307.364 284.51 305.652 284.51V284.67C307.236 284.67 308.178 286.438 307.294 287.752L307.427 287.841ZM257.774 361.679L307.427 287.841L307.294 287.752L257.642 361.589L257.774 361.679ZM254.226 361.679C255.073 362.939 256.927 362.939 257.774 361.679L257.642 361.589C256.858 362.755 255.142 362.755 254.358 361.589L254.226 361.679ZM204.573 287.841L254.226 361.679L254.358 361.589L204.706 287.752L204.573 287.841ZM206.348 284.51C204.636 284.51 203.618 286.421 204.573 287.841L204.706 287.752C203.822 286.438 204.764 284.67 206.348 284.67V284.51ZM209.615 284.51H206.348V284.67H209.615V284.51ZM211.394 285.462C210.998 284.867 210.33 284.51 209.615 284.51V284.67C210.277 284.67 210.894 285 211.261 285.55L211.394 285.462ZM254.354 349.898L211.394 285.462L211.261 285.55L254.221 349.987L254.354 349.898ZM257.646 349.898C256.863 351.072 255.137 351.072 254.354 349.898L254.221 349.987C255.067 351.256 256.933 351.256 257.779 349.987L257.646 349.898ZM300.606 285.462L257.646 349.898L257.779 349.987L300.739 285.55L300.606 285.462ZM369.208 334.067C370.389 334.067 371.347 333.11 371.347 331.929H371.187C371.187 333.021 370.301 333.907 369.208 333.907V334.067ZM340.392 334.067H369.208V333.907H340.392V334.067ZM338.413 336.045C338.413 334.953 339.299 334.067 340.392 334.067V333.907C339.211 333.907 338.253 334.864 338.253 336.045H338.413ZM338.413 414.258V336.045H338.253V414.258H338.413ZM340.392 416.236C339.299 416.236 338.413 415.35 338.413 414.258H338.253C338.253 415.439 339.211 416.396 340.392 416.396V416.236ZM492.708 416.236H340.392V416.396H492.708V416.236ZM494.687 414.258C494.687 415.35 493.801 416.236 492.708 416.236V416.396C493.889 416.396 494.847 415.439 494.847 414.258H494.687ZM494.687 336.045V414.258H494.847V336.045H494.687ZM492.708 334.067C493.801 334.067 494.687 334.953 494.687 336.045H494.847C494.847 334.864 493.889 333.907 492.708 333.907V334.067ZM461.753 331.929C461.753 333.11 462.711 334.067 463.892 334.067V333.907C462.799 333.907 461.913 333.021 461.913 331.929H461.753ZM461.753 286.648V331.929H461.913V286.648H461.753ZM459.775 284.67C460.868 284.67 461.753 285.555 461.753 286.648H461.913C461.913 285.467 460.956 284.51 459.775 284.51V284.67ZM455.658 284.67H459.775V284.51H455.658V284.67ZM453.68 286.648C453.68 285.555 454.566 284.67 455.658 284.67V284.51C454.477 284.51 453.52 285.467 453.52 286.648H453.68ZM453.68 340.162V286.648H453.52V340.162H453.68ZM455.658 342.14C454.566 342.14 453.68 341.254 453.68 340.162H453.52C453.52 341.343 454.477 342.3 455.658 342.3V342.14ZM484.475 342.14H455.658V342.3H484.475V342.14ZM486.613 344.278C486.613 343.097 485.656 342.14 484.475 342.14V342.3C485.568 342.3 486.453 343.186 486.453 344.278H486.613ZM486.613 406.025V344.278H486.453V406.025H486.613ZM484.475 408.163C485.656 408.163 486.613 407.206 486.613 406.025H486.453C486.453 407.117 485.568 408.003 484.475 408.003V408.163ZM346.487 406.025C346.487 407.206 347.444 408.163 348.625 408.163V408.003C347.532 408.003 346.647 407.117 346.647 406.025H346.487ZM346.487 344.278V406.025H346.647V344.278H346.487ZM348.625 342.14C347.444 342.14 346.487 343.097 346.487 344.278H346.647C346.647 343.186 347.532 342.3 348.625 342.3V342.14ZM377.442 342.14H348.625V342.3H377.442V342.14ZM379.42 340.162C379.42 341.254 378.534 342.14 377.442 342.14V342.3C378.623 342.3 379.58 341.343 379.58 340.162H379.42ZM379.42 286.648V340.162H379.58V286.648H379.42ZM377.442 284.67C378.534 284.67 379.42 285.555 379.42 286.648H379.58C379.58 285.467 378.623 284.51 377.442 284.51V284.67ZM373.325 284.67H377.442V284.51H373.325V284.67ZM371.347 286.648C371.347 285.555 372.232 284.67 373.325 284.67V284.51C372.144 284.51 371.187 285.467 371.187 286.648H371.347ZM142.792 333.907C141.699 333.907 140.813 333.021 140.813 331.929H140.653C140.653 333.11 141.611 334.067 142.792 334.067V333.907ZM171.608 333.907H142.792V334.067H171.608V333.907ZM173.747 336.045C173.747 334.864 172.789 333.907 171.608 333.907V334.067C172.701 334.067 173.587 334.953 173.587 336.045H173.747ZM173.747 414.258V336.045H173.587V414.258H173.747ZM171.608 416.396C172.789 416.396 173.747 415.439 173.747 414.258H173.587C173.587 415.35 172.701 416.236 171.608 416.236V416.396ZM19.2917 416.396H171.608V416.236H19.2917V416.396ZM17.1533 414.258C17.1533 415.439 18.1107 416.396 19.2917 416.396V416.236C18.1991 416.236 17.3133 415.35 17.3133 414.258H17.1533ZM17.1533 336.045V414.258H17.3133V336.045H17.1533ZM19.2917 333.907C18.1107 333.907 17.1533 334.864 17.1533 336.045H17.3133C17.3133 334.953 18.1991 334.067 19.2917 334.067V333.907ZM50.0867 331.929C50.0867 333.021 49.2009 333.907 48.1083 333.907V334.067C49.2893 334.067 50.2467 333.11 50.2467 331.929H50.0867ZM50.0867 286.648V331.929H50.2467V286.648H50.0867ZM52.225 284.51C51.044 284.51 50.0867 285.467 50.0867 286.648H50.2467C50.2467 285.555 51.1324 284.67 52.225 284.67V284.51ZM56.3417 284.51H52.225V284.67H56.3417V284.51ZM58.48 286.648C58.48 285.467 57.5226 284.51 56.3417 284.51V284.67C57.4343 284.67 58.32 285.555 58.32 286.648H58.48ZM58.48 340.162V286.648H58.32V340.162H58.48ZM56.3417 342.3C57.5226 342.3 58.48 341.343 58.48 340.162H58.32C58.32 341.254 57.4343 342.14 56.3417 342.14V342.3ZM27.525 342.3H56.3417V342.14H27.525V342.3ZM25.5467 344.278C25.5467 343.186 26.4324 342.3 27.525 342.3V342.14C26.344 342.14 25.3867 343.097 25.3867 344.278H25.5467ZM25.5467 406.025V344.278H25.3867V406.025H25.5467ZM27.525 408.003C26.4324 408.003 25.5467 407.117 25.5467 406.025H25.3867C25.3867 407.206 26.344 408.163 27.525 408.163V408.003ZM165.353 406.025C165.353 407.117 164.468 408.003 163.375 408.003V408.163C164.556 408.163 165.513 407.206 165.513 406.025H165.353ZM165.353 344.278V406.025H165.513V344.278H165.353ZM163.375 342.3C164.468 342.3 165.353 343.186 165.353 344.278H165.513C165.513 343.097 164.556 342.14 163.375 342.14V342.3ZM134.558 342.3H163.375V342.14H134.558V342.3ZM132.42 340.162C132.42 341.343 133.377 342.3 134.558 342.3V342.14C133.466 342.14 132.58 341.254 132.58 340.162H132.42ZM132.42 286.648V340.162H132.58V286.648H132.42ZM134.558 284.51C133.377 284.51 132.42 285.467 132.42 286.648H132.58C132.58 285.555 133.466 284.67 134.558 284.67V284.51ZM138.675 284.51H134.558V284.67H138.675V284.51ZM140.813 286.648C140.813 285.467 139.856 284.51 138.675 284.51V284.67C139.768 284.67 140.653 285.555 140.653 286.648H140.813ZM77.4199 235.773L77.5807 243.33L77.7407 243.327L77.5799 235.769L77.4199 235.773ZM57.8814 235.851H77.4999V235.691H57.8814V235.851ZM57.9614 236.856V235.771H57.8014V236.856H57.9614ZM61.0975 236.776H57.8814V236.936H61.0975V236.776ZM61.1775 258.805V236.856H61.0175V258.805H61.1775ZM57.8814 258.885H61.0975V258.725H57.8814V258.885ZM57.9614 259.891V258.805H57.8014V259.891H57.9614ZM77.4999 259.811H57.8814V259.971H77.4999V259.811ZM77.5807 252.332L77.4199 259.889L77.5799 259.893L77.7407 252.335L77.5807 252.332ZM76.6154 252.413H77.6607V252.253H76.6154V252.413ZM75.8876 254.85L76.6916 252.358L76.5393 252.309L75.7353 254.801L75.8876 254.85ZM72.6992 258.681C74.1283 258.241 75.1867 256.953 75.8873 254.851L75.7355 254.8C75.0425 256.879 74.0104 258.11 72.6521 258.528L72.6992 258.681ZM71.1882 258.885C71.7309 258.885 72.2344 258.818 72.6982 258.681L72.6531 258.528C72.2057 258.659 71.7175 258.725 71.1882 258.725V258.885ZM66.0424 258.885H71.1882V258.725H66.0424V258.885ZM65.9624 248.072V258.805H66.1224V248.072H65.9624ZM73.9621 247.992H66.0424V248.152H73.9621V247.992ZM73.8821 246.866V248.072H74.0421V246.866H73.8821ZM66.0424 246.946H73.9621V246.786H66.0424V246.946ZM65.9624 236.856V246.866H66.1224V236.856H65.9624ZM71.1882 236.776H66.0424V236.936H71.1882V236.776ZM75.6445 240.043C75.2116 238.961 74.6241 238.143 73.8788 237.596C73.1329 237.048 72.2346 236.776 71.1882 236.776V236.936C72.2055 236.936 73.0694 237.2 73.7841 237.725C74.4995 238.25 75.0712 239.04 75.4959 240.102L75.6445 240.043ZM75.9282 240.813C75.8469 240.542 75.752 240.284 75.6433 240.04L75.4971 240.105C75.6028 240.343 75.6955 240.594 75.775 240.859L75.9282 240.813ZM76.6919 243.305L75.9281 240.813L75.7751 240.86L76.539 243.352L76.6919 243.305ZM77.6607 243.249H76.6154V243.409H77.6607V243.249ZM92.7159 258.805V259.891H92.8759V258.805H92.7159ZM89.5797 258.885H92.7959V258.725H89.5797V258.885ZM89.4997 248.876V258.805H89.6597V248.876H89.4997ZM92.1526 248.796H89.5797V248.956H92.1526V248.796ZM98.3333 259.892L92.2227 248.837L92.0826 248.915L98.1933 259.97L98.3333 259.892ZM105.017 259.811L98.2628 259.851L98.2638 260.011L105.018 259.971L105.017 259.811ZM104.477 258.964C104.627 258.998 104.739 259.086 104.816 259.234C104.894 259.386 104.937 259.602 104.937 259.891H105.097C105.097 259.59 105.053 259.344 104.958 259.16C104.86 258.974 104.711 258.854 104.513 258.808L104.477 258.964ZM104.012 258.926C104.169 258.926 104.325 258.939 104.481 258.965L104.508 258.807C104.343 258.779 104.177 258.766 104.012 258.766V258.926ZM103.168 258.926H104.012V258.766H103.168V258.926ZM96.7878 248.475L103.1 258.887L103.236 258.804L96.9247 248.392L96.7878 248.475ZM102.007 244.066C101.267 246.206 99.5505 247.638 96.8358 248.357L96.8767 248.511C99.6294 247.783 101.397 246.32 102.158 244.118L102.007 244.066ZM102.324 242.082C102.324 242.744 102.218 243.405 102.006 244.068L102.159 244.117C102.375 243.439 102.484 242.761 102.484 242.082H102.324ZM99.7057 237.325C101.454 238.517 102.324 240.101 102.324 242.082H102.484C102.484 240.044 101.585 238.412 99.7959 237.192L99.7057 237.325ZM94.3638 235.851C96.4682 235.851 98.2476 236.344 99.7061 237.325L99.7954 237.192C98.3058 236.19 96.4939 235.691 94.3638 235.691V235.851ZM81.4188 235.851H94.3638V235.691H81.4188V235.851ZM81.4988 236.856V235.771H81.3388V236.856H81.4988ZM84.6349 236.776H81.4188V236.936H84.6349V236.776ZM84.7149 258.805V236.856H84.5549V258.805H84.7149ZM81.4188 258.885H84.6349V258.725H81.4188V258.885ZM81.4988 259.891V258.805H81.3388V259.891H81.4988ZM92.7959 259.811H81.4188V259.971H92.7959V259.811ZM96.8106 239.843C96.4309 238.826 95.8692 238.058 95.1227 237.544C94.3763 237.031 93.4516 236.776 92.3537 236.776V236.936C93.4266 236.936 94.3177 237.185 95.032 237.676C95.7462 238.167 96.29 238.906 96.6607 239.899L96.8106 239.843ZM97.2177 242.203C97.2177 241.363 97.0822 240.577 96.8107 239.844L96.6606 239.899C96.9251 240.613 97.0577 241.381 97.0577 242.203H97.2177ZM95.1344 246.971C96.5275 245.96 97.2177 244.365 97.2177 242.203H97.0577C97.0577 244.329 96.381 245.869 95.0404 246.842L95.1344 246.971ZM92.5949 247.75C93.5483 247.75 94.3955 247.491 95.1334 246.972L95.0413 246.841C94.332 247.34 93.5175 247.59 92.5949 247.59V247.75ZM89.5797 247.75H92.5949V247.59H89.5797V247.75ZM89.4997 236.856V247.67H89.6597V236.856H89.4997ZM92.3537 236.776H89.5797V236.936H92.3537V236.776ZM129.64 235.851H137.56V235.691H129.64V235.851ZM122.035 253.892L129.714 235.802L129.566 235.74L121.888 253.83L122.035 253.892ZM113.166 235.806L121.889 253.896L122.034 253.826L113.31 235.736L113.166 235.806ZM106.484 235.851H113.238V235.691H106.484V235.851ZM106.564 236.856V235.771H106.404V236.856H106.564ZM109.7 236.776H106.484V236.936H109.7V236.776ZM109.78 258.805V236.856H109.62V258.805H109.78ZM106.484 258.885H109.7V258.725H106.484V258.885ZM106.564 259.891V258.805H106.404V259.891H106.564ZM114.605 259.811H106.484V259.971H114.605V259.811ZM113.512 258.885C113.776 258.91 113.99 259.007 114.156 259.174C114.323 259.341 114.449 259.584 114.527 259.91L114.682 259.872C114.6 259.528 114.464 259.255 114.269 259.06C114.074 258.865 113.825 258.754 113.527 258.726L113.512 258.885ZM111.388 258.885H113.519V258.725H111.388V258.885ZM111.308 243.007V258.805H111.468V243.007H111.308ZM120.103 260.177L111.46 242.971L111.317 243.043L119.96 260.248L120.103 260.177ZM120.796 260.132H120.032V260.292H120.796V260.132ZM129.567 239.599L120.722 260.181L120.869 260.244L129.714 239.662L129.567 239.599ZM129.72 258.805V239.63H129.56V258.805H129.72ZM126.424 258.885H129.64V258.725H126.424V258.885ZM126.504 259.891V258.805H126.344V259.891H126.504ZM137.56 259.811H126.424V259.971H137.56V259.811ZM136.467 258.885C136.732 258.91 136.945 259.007 137.111 259.174C137.279 259.341 137.404 259.584 137.482 259.91L137.638 259.872C137.555 259.528 137.419 259.255 137.224 259.06C137.029 258.865 136.78 258.754 136.482 258.726L136.467 258.885ZM134.344 258.885H136.474V258.725H134.344V258.885ZM134.264 236.856V258.805H134.424V236.856H134.264ZM137.56 236.776H134.344V236.936H137.56V236.776ZM137.48 235.771V236.856H137.64V235.771H137.48ZM164.055 258.924C164.219 258.959 164.341 259.051 164.424 259.205C164.509 259.363 164.555 259.589 164.555 259.891H164.715C164.715 259.576 164.667 259.32 164.565 259.129C164.46 258.935 164.3 258.813 164.089 258.767L164.055 258.924ZM163.63 258.885C163.815 258.885 163.955 258.899 164.053 258.923L164.092 258.768C163.975 258.739 163.82 258.725 163.63 258.725V258.885ZM162.384 258.885H163.63V258.725H162.384V258.885ZM152.902 235.801L162.31 258.836L162.458 258.775L153.05 235.741L152.902 235.801ZM150.484 235.851H152.976V235.691H150.484V235.851ZM141.714 258.834L150.559 235.8L150.409 235.742L141.565 258.777L141.714 258.834ZM139.067 258.885H141.639V258.725H139.067V258.885ZM139.147 259.891V258.805H138.987V259.891H139.147ZM146.383 259.811H139.067V259.971H146.383V259.811ZM145.804 258.924C145.968 258.959 146.089 259.051 146.172 259.205C146.257 259.363 146.303 259.589 146.303 259.891H146.463C146.463 259.576 146.416 259.32 146.313 259.129C146.209 258.935 146.049 258.813 145.837 258.767L145.804 258.924ZM145.378 258.885C145.535 258.885 145.677 258.898 145.805 258.924L145.836 258.767C145.696 258.739 145.543 258.725 145.378 258.725V258.885ZM143.248 258.885H145.378V258.725H143.248V258.885ZM146.107 251.059L143.173 258.777L143.322 258.834L146.257 251.116L146.107 251.059ZM154.303 251.007H146.182V251.167H154.303V251.007ZM157.393 258.776L154.378 251.058L154.229 251.116L157.244 258.835L157.393 258.776ZM154.544 258.885H157.318V258.725H154.544V258.885ZM154.624 259.891V258.805H154.464V259.891H154.624ZM164.635 259.811H154.544V259.971H164.635V259.811ZM146.625 249.961H153.821V249.801H146.625V249.961ZM150.128 240.446L146.55 249.853L146.699 249.91L150.277 240.503L150.128 240.446ZM153.895 249.852L150.277 240.446L150.128 240.503L153.746 249.91L153.895 249.852ZM187.087 236.776H183.79V236.936H187.087V236.776ZM187.167 253.177V236.856H187.007V253.177H187.167ZM172.472 235.822L187.025 253.229L187.148 253.126L172.595 235.72L172.472 235.822ZM166.142 235.851H172.534V235.691H166.142V235.851ZM166.222 236.856V235.771H166.062V236.856H166.222ZM169.358 236.776H166.142V236.936H169.358V236.776ZM169.438 258.805V236.856H169.278V258.805H169.438ZM166.142 258.885H169.358V258.725H166.142V258.885ZM166.222 259.891V258.805H166.062V259.891H166.222ZM174.423 259.811H166.142V259.971H174.423V259.811ZM173.33 258.885C173.595 258.91 173.808 259.007 173.975 259.174C174.142 259.341 174.267 259.584 174.345 259.91L174.501 259.872C174.418 259.528 174.282 259.255 174.088 259.06C173.892 258.865 173.643 258.754 173.345 258.726L173.33 258.885ZM171.006 258.885H173.338V258.725H171.006V258.885ZM170.926 241.479V258.805H171.086V241.479H170.926ZM186.666 260.04L171.067 241.428L170.945 241.531L186.543 260.143L186.666 260.04ZM188.72 259.611L186.59 260.013L186.619 260.17L188.75 259.768L188.72 259.611ZM188.655 236.856V259.69H188.815V236.856H188.655ZM191.951 236.776H188.735V236.936H191.951V236.776ZM191.871 235.771V236.856H192.031V235.771H191.871ZM183.79 235.851H191.951V235.691H183.79V235.851ZM183.87 236.856V235.771H183.71V236.856H183.87ZM198.577 238.725C200.974 236.541 203.889 235.449 207.328 235.449V235.289C203.852 235.289 200.897 236.394 198.47 238.606L198.577 238.725ZM194.784 247.71C194.784 244.033 196.049 241.04 198.577 238.724L198.469 238.606C195.905 240.954 194.624 243.991 194.624 247.71H194.784ZM199.296 257.577C196.289 255.235 194.784 251.95 194.784 247.71H194.624C194.624 251.993 196.148 255.327 199.198 257.703L199.296 257.577ZM207.207 260.213C204.195 260.213 201.559 259.334 199.296 257.576L199.198 257.703C201.491 259.483 204.162 260.373 207.207 260.373V260.213ZM215.876 256.898C213.507 259.108 210.618 260.213 207.207 260.213V260.373C210.657 260.373 213.584 259.254 215.985 257.015L215.876 256.898ZM219.63 247.871C219.63 251.549 218.378 254.556 215.876 256.898L215.986 257.015C218.522 254.64 219.79 251.59 219.79 247.871H219.63ZM214.999 237.885C218.084 240.173 219.63 243.497 219.63 247.871H219.79C219.79 243.455 218.226 240.079 215.094 237.757L214.999 237.885ZM207.328 235.449C210.26 235.449 212.816 236.262 214.999 237.885L215.094 237.757C212.882 236.111 210.292 235.289 207.328 235.289V235.449ZM200.858 253.882C201.33 255.648 202.104 256.981 203.186 257.872C204.269 258.764 205.651 259.207 207.328 259.207V259.047C205.681 259.047 204.336 258.612 203.288 257.749C202.239 256.885 201.479 255.585 201.013 253.84L200.858 253.882ZM200.212 247.871C200.212 250.234 200.427 252.238 200.858 253.881L201.013 253.841C200.586 252.214 200.372 250.225 200.372 247.871H200.212ZM206.436 236.495C204.358 236.686 202.797 237.737 201.76 239.642C200.725 241.542 200.212 244.288 200.212 247.871H200.372C200.372 244.299 200.884 241.584 201.9 239.719C202.913 237.858 204.428 236.84 206.451 236.655L206.436 236.495ZM207.207 236.455C206.963 236.455 206.706 236.468 206.435 236.495L206.451 236.655C206.717 236.628 206.969 236.615 207.207 236.615V236.455ZM213.839 243.073C213.448 240.88 212.703 239.224 211.595 238.116C210.486 237.007 209.02 236.455 207.207 236.455V236.615C208.985 236.615 210.408 237.155 211.482 238.23C212.559 239.306 213.294 240.927 213.681 243.101L213.839 243.073ZM214.202 247.71C214.202 245.965 214.081 244.419 213.839 243.073L213.681 243.102C213.921 244.436 214.042 245.972 214.042 247.71H214.202ZM209.157 259.003C210.847 258.554 212.11 257.378 212.949 255.491C213.786 253.607 214.202 251.012 214.202 247.71H214.042C214.042 251.002 213.627 253.572 212.802 255.426C211.979 257.278 210.75 258.414 209.116 258.849L209.157 259.003ZM207.328 259.207C207.976 259.207 208.586 259.139 209.155 259.004L209.118 258.848C208.562 258.981 207.965 259.047 207.328 259.047V259.207ZM254.644 235.851H262.563V235.691H254.644V235.851ZM247.039 253.892L254.717 235.802L254.57 235.74L246.891 253.83L247.039 253.892ZM238.169 235.806L246.893 253.896L247.037 253.826L238.313 235.736L238.169 235.806ZM231.487 235.851H238.241V235.691H231.487V235.851ZM231.567 236.856V235.771H231.407V236.856H231.567ZM234.703 236.776H231.487V236.936H234.703V236.776ZM234.783 258.805V236.856H234.623V258.805H234.783ZM231.487 258.885H234.703V258.725H231.487V258.885ZM231.567 259.891V258.805H231.407V259.891H231.567ZM239.608 259.811H231.487V259.971H239.608V259.811ZM238.515 258.885C238.78 258.91 238.993 259.007 239.16 259.174C239.327 259.341 239.452 259.584 239.53 259.91L239.686 259.872C239.603 259.528 239.467 259.255 239.273 259.06C239.077 258.865 238.828 258.754 238.53 258.726L238.515 258.885ZM236.392 258.885H238.523V258.725H236.392V258.885ZM236.312 243.007V258.805H236.472V243.007H236.312ZM245.107 260.177L236.463 242.971L236.32 243.043L244.964 260.248L245.107 260.177ZM245.799 260.132H245.035V260.292H245.799V260.132ZM254.57 239.599L245.726 260.181L245.873 260.244L254.717 239.662L254.57 239.599ZM254.724 258.805V239.63H254.564V258.805H254.724ZM251.427 258.885H254.644V258.725H251.427V258.885ZM251.507 259.891V258.805H251.347V259.891H251.507ZM262.563 259.811H251.427V259.971H262.563V259.811ZM261.47 258.885C261.735 258.91 261.948 259.007 262.115 259.174C262.282 259.341 262.407 259.584 262.486 259.91L262.641 259.872C262.558 259.528 262.422 259.255 262.228 259.06C262.032 258.865 261.783 258.754 261.485 258.726L261.47 258.885ZM259.347 258.885H261.478V258.725H259.347V258.885ZM259.267 236.856V258.805H259.427V236.856H259.267ZM262.563 236.776H259.347V236.936H262.563V236.776ZM262.483 235.771V236.856H262.643V235.771H262.483ZM289.059 258.924C289.223 258.959 289.344 259.051 289.427 259.205C289.512 259.363 289.558 259.589 289.558 259.891H289.718C289.718 259.576 289.671 259.32 289.568 259.129C289.464 258.935 289.304 258.813 289.092 258.767L289.059 258.924ZM288.633 258.885C288.818 258.885 288.958 258.899 289.056 258.923L289.095 258.768C288.979 258.739 288.824 258.725 288.633 258.725V258.885ZM287.387 258.885H288.633V258.725H287.387V258.885ZM277.906 235.801L287.313 258.836L287.461 258.775L278.054 235.741L277.906 235.801ZM275.487 235.851H277.98V235.691H275.487V235.851ZM266.718 258.834L275.562 235.8L275.413 235.742L266.568 258.777L266.718 258.834ZM264.07 258.885H266.643V258.725H264.07V258.885ZM264.15 259.891V258.805H263.99V259.891H264.15ZM271.387 259.811H264.07V259.971H271.387V259.811ZM270.807 258.924C270.971 258.959 271.093 259.051 271.176 259.205C271.261 259.363 271.307 259.589 271.307 259.891H271.467C271.467 259.576 271.419 259.32 271.317 259.129C271.212 258.935 271.052 258.813 270.841 258.767L270.807 258.924ZM270.382 258.885C270.538 258.885 270.68 258.898 270.808 258.924L270.84 258.767C270.7 258.739 270.547 258.725 270.382 258.725V258.885ZM268.251 258.885H270.382V258.725H268.251V258.885ZM271.111 251.059L268.176 258.777L268.326 258.834L271.261 251.116L271.111 251.059ZM279.307 251.007H271.186V251.167H279.307V251.007ZM282.396 258.776L279.381 251.058L279.232 251.116L282.247 258.835L282.396 258.776ZM279.548 258.885H282.322V258.725H279.548V258.885ZM279.628 259.891V258.805H279.468V259.891H279.628ZM289.638 259.811H279.548V259.971H289.638V259.811ZM271.628 249.961H278.824V249.801H271.628V249.961ZM275.131 240.446L271.553 249.853L271.703 249.91L275.281 240.503L275.131 240.446ZM278.899 249.852L275.281 240.446L275.131 240.503L278.75 249.91L278.899 249.852ZM302.804 258.805V259.891H302.964V258.805H302.804ZM299.668 258.885H302.884V258.725H299.668V258.885ZM299.588 248.876V258.805H299.748V248.876H299.588ZM302.241 248.796H299.668V248.956H302.241V248.796ZM308.422 259.892L302.311 248.837L302.171 248.915L308.282 259.97L308.422 259.892ZM315.105 259.811L308.351 259.851L308.352 260.011L315.106 259.971L315.105 259.811ZM314.565 258.964C314.715 258.998 314.827 259.086 314.904 259.234C314.983 259.386 315.026 259.602 315.026 259.891H315.186C315.186 259.59 315.141 259.344 315.046 259.16C314.949 258.974 314.799 258.854 314.601 258.808L314.565 258.964ZM314.1 258.926C314.257 258.926 314.413 258.939 314.57 258.965L314.596 258.807C314.431 258.779 314.266 258.766 314.1 258.766V258.926ZM313.256 258.926H314.1V258.766H313.256V258.926ZM306.876 248.475L313.188 258.887L313.325 258.804L307.013 248.392L306.876 248.475ZM312.095 244.066C311.356 246.206 309.639 247.638 306.924 248.357L306.965 248.511C309.718 247.783 311.485 246.32 312.246 244.118L312.095 244.066ZM312.412 242.082C312.412 242.744 312.307 243.405 312.095 244.068L312.247 244.117C312.464 243.439 312.572 242.761 312.572 242.082H312.412ZM309.794 237.325C311.543 238.517 312.412 240.101 312.412 242.082H312.572C312.572 240.044 311.673 238.412 309.884 237.192L309.794 237.325ZM304.452 235.851C306.557 235.851 308.336 236.344 309.794 237.325L309.884 237.192C308.394 236.19 306.582 235.691 304.452 235.691V235.851ZM291.507 235.851H304.452V235.691H291.507V235.851ZM291.587 236.856V235.771H291.427V236.856H291.587ZM294.723 236.776H291.507V236.936H294.723V236.776ZM294.803 258.805V236.856H294.643V258.805H294.803ZM291.507 258.885H294.723V258.725H291.507V258.885ZM291.587 259.891V258.805H291.427V259.891H291.587ZM302.884 259.811H291.507V259.971H302.884V259.811ZM306.899 239.843C306.519 238.826 305.957 238.058 305.211 237.544C304.465 237.031 303.54 236.776 302.442 236.776V236.936C303.515 236.936 304.406 237.185 305.12 237.676C305.834 238.167 306.378 238.906 306.749 239.899L306.899 239.843ZM307.306 242.203C307.306 241.363 307.171 240.577 306.899 239.844L306.749 239.899C307.013 240.613 307.146 241.381 307.146 242.203H307.306ZM305.223 246.971C306.616 245.96 307.306 244.365 307.306 242.203H307.146C307.146 244.329 306.469 245.869 305.129 246.842L305.223 246.971ZM302.683 247.75C303.637 247.75 304.484 247.491 305.222 246.972L305.13 246.841C304.42 247.34 303.606 247.59 302.683 247.59V247.75ZM299.668 247.75H302.683V247.59H299.668V247.75ZM299.588 236.856V247.67H299.748V236.856H299.588ZM302.442 236.776H299.668V236.936H302.442V236.776ZM338.545 259.935C338.349 259.877 338.197 259.721 338.095 259.441C337.993 259.16 337.946 258.763 337.959 258.245L337.799 258.241C337.786 258.767 337.832 259.188 337.945 259.496C338.057 259.806 338.24 260.012 338.5 260.088L338.545 259.935ZM339.246 260.012C338.955 260.012 338.722 259.985 338.544 259.935L338.5 260.088C338.698 260.145 338.947 260.172 339.246 260.172V260.012ZM339.166 252.293V260.092H339.326V252.293H339.166ZM338.04 252.373H339.246V252.213H338.04V252.373ZM331.619 259.126C333.217 258.896 334.561 258.211 335.645 257.072C336.729 255.934 337.552 254.346 338.117 252.315L337.963 252.272C337.402 254.287 336.59 255.848 335.53 256.961C334.47 258.074 333.16 258.742 331.596 258.967L331.619 259.126ZM330.241 259.207C330.699 259.207 331.158 259.18 331.617 259.126L331.598 258.967C331.146 259.02 330.693 259.047 330.241 259.047V259.207ZM322.884 247.711C322.898 251.495 323.511 254.354 324.736 256.276C325.964 258.203 327.803 259.18 330.24 259.207L330.242 259.047C327.854 259.021 326.068 258.068 324.871 256.19C323.67 254.306 323.058 251.483 323.044 247.71L322.884 247.711ZM327.84 236.903C324.521 238.208 322.884 241.833 322.884 247.71H323.044C323.044 241.85 324.677 238.319 327.898 237.051L327.84 236.903ZM330.482 236.455C329.535 236.455 328.655 236.604 327.841 236.902L327.896 237.052C328.691 236.761 329.552 236.615 330.482 236.615V236.455ZM337.108 240.964C336.433 239.466 335.543 238.338 334.437 237.584C333.329 236.83 332.01 236.455 330.482 236.455V236.615C331.983 236.615 333.27 236.983 334.347 237.716C335.424 238.45 336.296 239.553 336.962 241.03L337.108 240.964ZM337.916 243.307C337.674 242.447 337.405 241.666 337.108 240.966L336.961 241.028C337.254 241.721 337.521 242.495 337.762 243.35L337.916 243.307ZM339.125 243.249H337.839V243.409H339.125V243.249ZM338.925 235.571L339.045 243.33L339.205 243.327L339.085 235.569L338.925 235.571ZM337.875 236.276C337.937 236.068 338.058 235.914 338.24 235.81C338.425 235.706 338.678 235.65 339.005 235.65V235.49C338.662 235.49 338.379 235.548 338.161 235.671C337.942 235.796 337.795 235.984 337.722 236.231L337.875 236.276ZM337.798 237.419C337.798 236.912 337.825 236.529 337.877 236.269L337.72 236.238C337.665 236.514 337.638 236.908 337.638 237.419H337.798ZM330 235.449C332.908 235.449 335.466 236.129 337.676 237.487L337.76 237.351C335.522 235.976 332.934 235.289 330 235.289V235.449ZM319.933 240.12C322.247 237.008 325.599 235.449 330 235.449V235.289C325.556 235.289 322.153 236.866 319.804 240.025L319.933 240.12ZM317.456 247.791C317.456 244.913 318.282 242.357 319.933 240.12L319.804 240.025C318.132 242.29 317.296 244.88 317.296 247.791H317.456ZM320.771 256.499C318.562 254.157 317.456 251.256 317.456 247.791H317.296C317.296 251.293 318.415 254.235 320.655 256.609L320.771 256.499ZM330 260.213C326.186 260.213 323.113 258.974 320.771 256.499L320.655 256.609C323.03 259.12 326.148 260.373 330 260.373V260.213ZM337.841 258.172C335.36 259.506 332.746 260.186 329.999 260.213L330 260.373C332.774 260.346 335.413 259.659 337.917 258.313L337.841 258.172ZM352.524 258.885C352.789 258.91 353.002 259.007 353.169 259.174C353.336 259.341 353.461 259.584 353.539 259.91L353.695 259.872C353.612 259.528 353.476 259.255 353.282 259.06C353.086 258.865 352.837 258.754 352.539 258.726L352.524 258.885ZM350.401 258.885H352.532V258.725H350.401V258.885ZM350.321 248.072V258.805H350.481V248.072H350.321ZM361.296 247.992H350.401V248.152H361.296V247.992ZM361.376 258.805V248.072H361.216V258.805H361.376ZM358.08 258.885H361.296V258.725H358.08V258.885ZM358.16 259.891V258.805H358V259.891H358.16ZM369.417 259.811H358.08V259.971H369.417V259.811ZM368.362 258.885C368.8 258.934 369.131 259.26 369.34 259.915L369.493 259.866C369.274 259.182 368.908 258.785 368.38 258.726L368.362 258.885ZM366.241 258.885H368.371V258.725H366.241V258.885ZM366.161 236.856V258.805H366.321V236.856H366.161ZM369.417 236.776H366.241V236.936H369.417V236.776ZM369.337 235.771V236.856H369.497V235.771H369.337ZM358.08 235.851H369.417V235.691H358.08V235.851ZM358.16 236.856V235.771H358V236.856H358.16ZM361.296 236.776H358.08V236.936H361.296V236.776ZM361.376 246.866V236.856H361.216V246.866H361.376ZM350.401 246.946H361.296V246.786H350.401V246.946ZM350.321 236.856V246.866H350.481V236.856H350.321ZM353.617 236.776H350.401V236.936H353.617V236.776ZM353.537 235.771V236.856H353.697V235.771H353.537ZM342.24 235.851H353.617V235.691H342.24V235.851ZM342.32 236.856V235.771H342.16V236.856H342.32ZM345.456 236.776H342.24V236.936H345.456V236.776ZM345.536 258.805V236.856H345.376V258.805H345.536ZM342.24 258.885H345.456V258.725H342.24V258.885ZM342.32 259.891V258.805H342.16V259.891H342.32ZM353.617 259.811H342.24V259.971H353.617V259.811ZM391.909 235.773L392.07 243.33L392.23 243.327L392.069 235.769L391.909 235.773ZM372.371 235.851H391.989V235.691H372.371V235.851ZM372.451 236.856V235.771H372.291V236.856H372.451ZM375.587 236.776H372.371V236.936H375.587V236.776ZM375.667 258.805V236.856H375.507V258.805H375.667ZM372.371 258.885H375.587V258.725H372.371V258.885ZM372.451 259.891V258.805H372.291V259.891H372.451ZM391.989 259.811H372.371V259.971H391.989V259.811ZM392.07 252.332L391.909 259.889L392.069 259.893L392.23 252.335L392.07 252.332ZM391.105 252.413H392.15V252.253H391.105V252.413ZM390.377 254.85L391.181 252.358L391.029 252.309L390.224 254.801L390.377 254.85ZM387.188 258.681C388.617 258.241 389.676 256.953 390.377 254.851L390.225 254.8C389.532 256.879 388.5 258.11 387.141 258.528L387.188 258.681ZM385.677 258.885C386.22 258.885 386.724 258.818 387.187 258.681L387.142 258.528C386.695 258.659 386.207 258.725 385.677 258.725V258.885ZM380.532 258.885H385.677V258.725H380.532V258.885ZM380.452 248.072V258.805H380.612V248.072H380.452ZM388.451 247.992H380.532V248.152H388.451V247.992ZM388.371 246.866V248.072H388.531V246.866H388.371ZM380.532 246.946H388.451V246.786H380.532V246.946ZM380.452 236.856V246.866H380.612V236.856H380.452ZM385.677 236.776H380.532V236.936H385.677V236.776ZM390.134 240.043C389.701 238.961 389.113 238.143 388.368 237.596C387.622 237.048 386.724 236.776 385.677 236.776V236.936C386.695 236.936 387.559 237.2 388.273 237.725C388.989 238.25 389.56 239.04 389.985 240.102L390.134 240.043ZM390.417 240.813C390.336 240.542 390.241 240.284 390.133 240.04L389.986 240.105C390.092 240.343 390.185 240.594 390.264 240.859L390.417 240.813ZM391.181 243.305L390.417 240.813L390.264 240.86L391.028 243.352L391.181 243.305ZM392.15 243.249H391.105V243.409H392.15V243.249ZM411.337 258.885C411.774 258.934 412.105 259.26 412.315 259.915L412.467 259.866C412.248 259.182 411.882 258.785 411.354 258.726L411.337 258.885ZM408.612 258.885H411.345V258.725H408.612V258.885ZM408.532 236.856V258.805H408.692V236.856H408.532ZM409.818 236.776H408.612V236.936H409.818V236.776ZM414.073 239.8C413.653 238.798 413.089 238.041 412.377 237.535C411.665 237.028 410.81 236.776 409.818 236.776V236.936C410.782 236.936 411.603 237.18 412.284 237.665C412.966 238.15 413.514 238.881 413.925 239.862L414.073 239.8ZM414.437 240.813C414.329 240.462 414.208 240.124 414.073 239.8L413.925 239.862C414.058 240.181 414.178 240.514 414.284 240.86L414.437 240.813ZM415.482 244.149L414.437 240.812L414.284 240.86L415.33 244.197L415.482 244.149ZM416.572 244.093H415.406V244.253H416.572V244.093ZM416.331 235.773L416.492 244.174L416.652 244.171L416.491 235.77L416.331 235.773ZM395.908 235.851H416.411V235.691H395.908V235.851ZM395.787 244.175L395.988 235.773L395.828 235.769L395.627 244.171L395.787 244.175ZM396.913 244.093H395.707V244.253H396.913V244.093ZM397.882 240.812L396.837 244.149L396.989 244.197L398.035 240.86L397.882 240.812ZM401.031 236.981C399.574 237.421 398.529 238.71 397.882 240.813L398.035 240.86C398.674 238.782 399.693 237.552 401.077 237.134L401.031 236.981ZM402.501 236.776C401.958 236.776 401.468 236.844 401.03 236.981L401.078 237.134C401.497 237.003 401.972 236.936 402.501 236.936V236.776ZM403.667 236.776H402.501V236.936H403.667V236.776ZM403.747 258.805V236.856H403.587V258.805H403.747ZM399.848 258.885H403.667V258.725H399.848V258.885ZM399.928 259.891V258.805H399.768V259.891H399.928ZM412.391 259.811H399.848V259.971H412.391V259.811ZM434.753 258.885C435.191 258.934 435.521 259.26 435.731 259.915L435.884 259.866C435.665 259.182 435.298 258.785 434.771 258.726L434.753 258.885ZM432.029 258.885H434.762V258.725H432.029V258.885ZM431.949 236.856V258.805H432.109V236.856H431.949ZM433.235 236.776H432.029V236.936H433.235V236.776ZM437.489 239.8C437.07 238.798 436.505 238.041 435.794 237.535C435.081 237.028 434.227 236.776 433.235 236.776V236.936C434.199 236.936 435.019 237.18 435.701 237.665C436.383 238.15 436.931 238.881 437.342 239.862L437.489 239.8ZM437.854 240.813C437.746 240.462 437.624 240.124 437.489 239.8L437.342 239.862C437.475 240.181 437.594 240.514 437.701 240.86L437.854 240.813ZM438.899 244.149L437.854 240.812L437.701 240.86L438.746 244.197L438.899 244.149ZM439.988 244.093H438.823V244.253H439.988V244.093ZM439.748 235.773L439.909 244.174L440.068 244.171L439.908 235.77L439.748 235.773ZM419.325 235.851H439.828V235.691H419.325V235.851ZM419.204 244.175L419.405 235.773L419.245 235.769L419.044 244.171L419.204 244.175ZM420.33 244.093H419.124V244.253H420.33V244.093ZM421.299 240.812L420.253 244.149L420.406 244.197L421.451 240.86L421.299 240.812ZM424.447 236.981C422.991 237.421 421.946 238.71 421.299 240.813L421.452 240.86C422.091 238.782 423.109 237.552 424.494 237.134L424.447 236.981ZM425.918 236.776C425.375 236.776 424.885 236.844 424.447 236.981L424.494 237.134C424.914 237.003 425.388 236.936 425.918 236.936V236.776ZM427.084 236.776H425.918V236.936H427.084V236.776ZM427.164 258.805V236.856H427.004V258.805H427.164ZM423.265 258.885H427.084V258.725H423.265V258.885ZM423.345 259.891V258.805H423.185V259.891H423.345ZM435.807 259.811H423.265V259.971H435.807V259.811ZM453.026 258.885C453.291 258.91 453.504 259.007 453.67 259.174C453.838 259.341 453.963 259.584 454.041 259.91L454.196 259.872C454.114 259.528 453.978 259.255 453.783 259.06C453.588 258.865 453.339 258.754 453.041 258.726L453.026 258.885ZM450.902 258.885H453.033V258.725H450.902V258.885ZM450.822 236.856V258.805H450.982V236.856H450.822ZM454.119 236.776H450.902V236.936H454.119V236.776ZM454.039 235.771V236.856H454.199V235.771H454.039ZM442.741 235.851H454.119V235.691H442.741V235.851ZM442.821 236.856V235.771H442.661V236.856H442.821ZM445.958 236.776H442.741V236.936H445.958V236.776ZM446.038 258.805V236.856H445.878V258.805H446.038ZM442.741 258.885H445.958V258.725H442.741V258.885ZM442.821 259.891V258.805H442.661V259.891H442.821ZM454.119 259.811H442.741V259.971H454.119V259.811ZM9.08 183.737V89.0582H8.92V183.737H9.08ZM39.875 185.715H11.0583V185.875H39.875V185.715ZM468.008 218.646H43.9917V218.806H468.008V218.646ZM500.942 185.715H472.125V185.875H500.942V185.715ZM502.92 89.0582V183.737H503.08V89.0582H502.92ZM327.155 87.08H500.942V86.92H327.155V87.08ZM11.0583 87.08H184.845V86.92H11.0583V87.08ZM50.0867 179.62V208.435H50.2467V179.62H50.0867ZM19.2917 177.642H48.1083V177.482H19.2917V177.642ZM27.525 103.546H176.595V103.386H27.525V103.546ZM461.753 179.62V208.435H461.913V179.62H461.753ZM492.708 177.482H463.892V177.642H492.708V177.482ZM484.475 103.386H335.405V103.546H484.475V103.386ZM503.08 422.491V327.812H502.92V422.491H503.08ZM332.158 424.629H500.942V424.469H332.158V424.629ZM330.02 327.812V422.491H330.18V327.812H330.02ZM181.98 422.491V327.812H181.82V422.491H181.98ZM11.0583 424.629H179.842V424.469H11.0583V424.629ZM8.92 327.812V422.491H9.08V327.812H8.92ZM500.942 276.277H11.0583V276.437H500.942V276.277ZM371.347 331.929V286.648H371.187V331.929H371.347ZM463.892 334.067H492.708V333.907H463.892V334.067ZM348.625 408.163H484.475V408.003H348.625V408.163ZM140.813 331.929V286.648H140.653V331.929H140.813ZM48.1083 333.907H19.2917V334.067H48.1083V333.907ZM163.375 408.003H27.525V408.163H163.375V408.003Z" fill="#447CCE" mask="url(#path-1-outside-1_111_11)"/>
</mask>
<g mask="url(#mask0_111_11)">
<rect x="9" y="87" width="494" height="337.549" fill="#447CCE"/>
</g>
</svg>
