<svg width="128" height="128" viewBox="0 0 128 128" fill="none" xmlns="http://www.w3.org/2000/svg">
<mask id="mask0_111_22" style="mask-type:alpha" maskUnits="userSpaceOnUse" x="26" y="37" width="77" height="53">
<mask id="path-1-outside-1_111_22" maskUnits="userSpaceOnUse" x="26" y="37" width="77" height="53" fill="black">
<rect fill="white" x="26" y="37" width="77" height="53"/>
<path fill-rule="evenodd" clip-rule="evenodd" d="M27.3122 38C27.1398 38 27 38.1398 27 38.3122V52.6732C27 52.8456 27.1398 52.9854 27.3122 52.9854H31.6832C31.8556 52.9854 31.9954 53.1251 31.9954 53.2976V57.6683C31.9954 57.8407 32.1352 57.9805 32.3076 57.9805H96.6232C96.7956 57.9805 96.9354 57.8407 96.9354 57.6683V53.2976C96.9354 53.1251 97.0752 52.9854 97.2476 52.9854H101.619C101.791 52.9854 101.931 52.8456 101.931 52.6732V38.3122C101.931 38.1398 101.791 38 101.619 38H75.2583C75.1481 38 75.0461 38.0581 74.9899 38.1528L64.7339 55.4252C64.6129 55.6289 64.3179 55.6289 64.1969 55.4252L53.9409 38.1528C53.8847 38.0581 53.7827 38 53.6725 38H27.3122ZM33.5564 56.7317C33.384 56.7317 33.2442 56.5919 33.2442 56.4195V52.0488C33.2442 51.8764 33.1045 51.7366 32.932 51.7366H28.5611C28.3886 51.7366 28.2488 51.5968 28.2488 51.4244L28.2488 39.561C28.2488 39.3886 28.3886 39.2488 28.5611 39.2488H53.0465C53.1575 39.2488 53.2602 39.3078 53.3161 39.4037L63.1508 56.2622C63.2722 56.4703 63.1221 56.7317 62.8811 56.7317H62.148C62.0365 56.7317 61.9334 56.6722 61.8776 56.5755L52.6915 40.6537C52.6357 40.5571 52.5326 40.4976 52.421 40.4976H29.8099C29.6375 40.4976 29.4977 40.6373 29.4977 40.8098V50.1756C29.4977 50.348 29.6375 50.4878 29.8099 50.4878H34.1809C34.3533 50.4878 34.4931 50.6276 34.4931 50.8V56.4195C34.4931 56.5919 34.3533 56.7317 34.1809 56.7317H33.5564ZM47.9635 56.2646C48.0824 56.4727 47.9321 56.7317 47.6924 56.7317H46.0449C45.8725 56.7317 45.7327 56.5919 45.7327 56.4195V52.361C45.7327 52.3605 45.7323 52.361 45.7327 52.361L47.9635 56.2646ZM95.3744 56.7317C95.5468 56.7317 95.6866 56.5919 95.6866 56.4195V52.0488C95.6866 51.8764 95.8264 51.7366 95.9988 51.7366H100.37C100.542 51.7366 100.682 51.5968 100.682 51.4244V39.561C100.682 39.3886 100.542 39.2488 100.37 39.2488H75.8843C75.7733 39.2488 75.6706 39.3078 75.6147 39.4037L65.78 56.2622C65.6586 56.4703 65.8087 56.7317 66.0497 56.7317H66.7828C66.8944 56.7317 66.9975 56.6722 67.0532 56.5755L76.2393 40.6537C76.2951 40.5571 76.3982 40.4976 76.5098 40.4976H99.1209C99.2933 40.4976 99.4331 40.6373 99.4331 40.8098V50.1756C99.4331 50.348 99.2933 50.4878 99.1209 50.4878H94.7499C94.5775 50.4878 94.4377 50.6276 94.4377 50.8V56.4195C94.4377 56.5919 94.5775 56.7317 94.7499 56.7317H95.3744ZM80.9673 56.2646C80.8484 56.4727 80.9987 56.7317 81.2384 56.7317H82.8859C83.0583 56.7317 83.1981 56.5919 83.1981 56.4195V52.361C83.1981 52.3602 83.197 52.3598 83.1968 52.3606C83.1965 52.3613 83.1977 52.3616 83.1981 52.361L80.9673 56.2646Z"/>
<path fill-rule="evenodd" clip-rule="evenodd" d="M101.931 67.6585C101.931 67.831 101.791 67.9707 101.619 67.9707H97.2476C97.0752 67.9707 96.9354 68.1105 96.9354 68.2829V73.9024C96.9354 74.0749 97.0752 74.2146 97.2476 74.2146H101.619C101.791 74.2146 101.931 74.3544 101.931 74.5268V88.8878C101.931 89.0602 101.791 89.2 101.619 89.2H76.0172C75.8448 89.2 75.705 89.0602 75.705 88.8878V74.5268C75.705 74.3544 75.8448 74.2146 76.0172 74.2146H80.3882C80.5606 74.2146 80.7004 74.0749 80.7004 73.9024V68.2829C80.7004 68.1105 80.5606 67.9707 80.3882 67.9707H73.9968C73.8935 67.9707 73.797 68.0218 73.7388 68.1071L64.7234 81.329C64.5994 81.5108 64.3314 81.5108 64.2074 81.329L55.192 68.1071C55.1338 68.0218 55.0373 67.9707 54.934 67.9707H48.5426C48.3702 67.9707 48.2304 68.1105 48.2304 68.2829V73.9024C48.2304 74.0749 48.3702 74.2146 48.5426 74.2146H52.9136C53.086 74.2146 53.2258 74.3544 53.2258 74.5268V88.8878C53.2258 89.0602 53.086 89.2 52.9136 89.2H27.3122C27.1398 89.2 27 89.0602 27 88.8878V74.5268C27 74.3544 27.1398 74.2146 27.3122 74.2146H31.6832C31.8556 74.2146 31.9954 74.0749 31.9954 73.9024V68.2829C31.9954 68.1105 31.8556 67.9707 31.6832 67.9707H27.3122C27.1398 67.9707 27 67.831 27 67.6585V67.0341C27 66.8617 27.1398 66.722 27.3122 66.722H101.619C101.791 66.722 101.931 66.8617 101.931 67.0341V67.6585ZM71.2414 68.1098C71.2993 68.0229 71.3968 67.9707 71.5012 67.9707H71.9967C72.2467 67.9707 72.3953 68.2497 72.2558 68.4571L64.7245 79.657C64.6008 79.841 64.33 79.841 64.2063 79.657L56.675 68.4571C56.5355 68.2497 56.6841 67.9707 56.9341 67.9707H57.4297C57.534 67.9707 57.6315 68.0229 57.6894 68.1098L64.2056 77.8835C64.3292 78.0689 64.6016 78.0689 64.7252 77.8835L71.2414 68.1098ZM81.9493 68.2829V75.1512C81.9493 75.3236 81.8095 75.4634 81.637 75.4634H77.2661C77.0937 75.4634 76.9539 75.6032 76.9539 75.7756V87.639C76.9539 87.8114 77.0937 87.9512 77.2661 87.9512H100.37C100.542 87.9512 100.682 87.8114 100.682 87.639V75.7756C100.682 75.6032 100.542 75.4634 100.37 75.4634H95.9988C95.8264 75.4634 95.6866 75.3236 95.6866 75.1512V68.2829C95.6866 68.1105 95.5468 67.9707 95.3744 67.9707H94.7499C94.5775 67.9707 94.4377 68.1105 94.4377 68.2829V76.4C94.4377 76.5724 94.5775 76.7122 94.7499 76.7122H99.1209C99.2933 76.7122 99.4331 76.852 99.4331 77.0244V86.3902C99.4331 86.5627 99.2933 86.7024 99.1209 86.7024H78.5149C78.3425 86.7024 78.2027 86.5627 78.2027 86.3902V77.0244C78.2027 76.852 78.3425 76.7122 78.5149 76.7122H82.8859C83.0583 76.7122 83.1981 76.5724 83.1981 76.4V68.2829C83.1981 68.1105 83.0583 67.9707 82.8859 67.9707H82.2615C82.089 67.9707 81.9493 68.1105 81.9493 68.2829ZM46.9815 68.2829V75.1512C46.9815 75.3236 47.1213 75.4634 47.2938 75.4634H51.6647C51.8372 75.4634 51.9769 75.6032 51.9769 75.7756V87.639C51.9769 87.8114 51.8372 87.9512 51.6647 87.9512H28.5611C28.3886 87.9512 28.2488 87.8114 28.2488 87.639V75.7756C28.2488 75.6032 28.3886 75.4634 28.5611 75.4634H32.932C33.1045 75.4634 33.2442 75.3236 33.2442 75.1512V68.2829C33.2442 68.1105 33.384 67.9707 33.5564 67.9707H34.1809C34.3533 67.9707 34.4931 68.1105 34.4931 68.2829V76.4C34.4931 76.5724 34.3533 76.7122 34.1809 76.7122H29.8099C29.6375 76.7122 29.4977 76.852 29.4977 77.0244V86.3902C29.4977 86.5627 29.6375 86.7024 29.8099 86.7024H50.4159C50.5883 86.7024 50.7281 86.5627 50.7281 86.3902V77.0244C50.7281 76.852 50.5883 76.7122 50.4159 76.7122H46.0449C45.8725 76.7122 45.7327 76.5724 45.7327 76.4V68.2829C45.7327 68.1105 45.8725 67.9707 46.0449 67.9707H46.6693C46.8418 67.9707 46.9815 68.1105 46.9815 68.2829Z"/>
<path d="M37.4146 61.7122L37.3902 60.5659H34.4144V60.7305H34.9022V64.0598H34.4144V64.2244H37.3902L37.4146 63.078H37.256L37.1341 63.4561C37.0284 63.7732 36.8698 63.9642 36.6584 64.0293C36.5893 64.0496 36.5141 64.0598 36.4328 64.0598H35.6523V62.4317H36.8536V62.2488H35.6523V60.7305H36.4328C36.7458 60.7305 36.9674 60.8931 37.0975 61.2183C37.1137 61.2549 37.128 61.2935 37.1402 61.3341L37.256 61.7122H37.4146Z"/>
<path fill-rule="evenodd" clip-rule="evenodd" d="M39.7103 64.2244V64.0598H39.2225V62.5537H39.6127L40.5396 64.2305L41.5641 64.2244C41.5641 64.135 41.5376 64.0841 41.4848 64.072C41.4604 64.0679 41.436 64.0659 41.4116 64.0659H41.2836L40.3262 62.4866C40.7409 62.3768 41.0051 62.1573 41.1189 61.828C41.1514 61.7264 41.1677 61.6248 41.1677 61.5232C41.1677 61.2183 41.0335 60.9744 40.7652 60.7915C40.5417 60.6411 40.2693 60.5659 39.9481 60.5659H37.9846V60.7305H38.4724V64.0598H37.9846V64.2244H39.7103ZM39.6432 60.7305C39.9725 60.7305 40.1941 60.8829 40.3079 61.1878C40.3486 61.2976 40.3689 61.4154 40.3689 61.5415C40.3689 61.8667 40.2652 62.1045 40.0579 62.2549C39.9481 62.3321 39.8221 62.3707 39.6798 62.3707H39.2225V60.7305H39.6432Z"/>
<path d="M46.5002 60.5659H45.2989L44.1342 63.3098L42.811 60.5659H41.7865V60.7305H42.2743V64.0598H41.7865V64.2244H43.0183C42.9939 64.1228 42.939 64.0679 42.8536 64.0598H42.5305V61.6634L43.8415 64.2732H43.9574L45.2989 61.1512V64.0598H44.8111V64.2244H46.5002C46.4758 64.1228 46.4209 64.0679 46.3355 64.0598H46.0124V60.7305H46.5002V60.5659Z"/>
<path fill-rule="evenodd" clip-rule="evenodd" d="M50.607 64.2244C50.607 64.1309 50.5785 64.078 50.5216 64.0659C50.5054 64.0618 50.483 64.0598 50.4545 64.0598H50.2655L48.8386 60.5659H48.4605L47.119 64.0598H46.7287V64.2244H47.8385C47.8385 64.1309 47.8101 64.078 47.7532 64.0659C47.7328 64.0618 47.7105 64.0598 47.6861 64.0598H47.3629L47.8081 62.889H49.0398L49.4972 64.0598H49.0764V64.2244H50.607ZM48.9667 62.7061H47.8751L48.4178 61.2793L48.9667 62.7061Z"/>
<path d="M53.5125 60.7305H54.0125V63.2061L51.8051 60.5659H50.8355V60.7305H51.3234V64.0598H50.8355V64.2244H52.0917C52.0673 64.1228 52.0124 64.0679 51.9271 64.0598H51.5734V61.4317L53.9394 64.2549L54.2625 64.1939V60.7305H54.7504V60.5659H53.5125V60.7305Z"/>
<path fill-rule="evenodd" clip-rule="evenodd" d="M57.0827 60.5049C56.5583 60.5049 56.1131 60.6715 55.7473 61.0049C55.3611 61.3585 55.168 61.8159 55.168 62.3768C55.168 63.0232 55.3976 63.5252 55.857 63.8829C56.2026 64.1512 56.605 64.2854 57.0644 64.2854C57.5848 64.2854 58.0258 64.1167 58.3876 63.7793C58.7698 63.4215 58.9608 62.9622 58.9608 62.4012C58.9608 61.7346 58.7251 61.2264 58.2535 60.8768C57.9201 60.6289 57.5299 60.5049 57.0827 60.5049ZM57.0827 64.1085C56.5786 64.1085 56.2554 63.8423 56.1131 63.3098C56.0481 63.0618 56.0156 62.7589 56.0156 62.4012C56.0156 61.3159 56.3266 60.7447 56.9485 60.6878C56.9892 60.6837 57.0278 60.6817 57.0644 60.6817C57.6091 60.6817 57.9405 61.013 58.0584 61.6756C58.0949 61.8789 58.1132 62.1126 58.1132 62.3768C58.1132 63.3768 57.8612 63.9439 57.3571 64.078C57.2717 64.0984 57.1803 64.1085 57.0827 64.1085Z"/>
<path d="M65.4609 60.5659H64.2597L63.095 63.3098L61.7717 60.5659H60.7473V60.7305H61.2351V64.0598H60.7473V64.2244H61.9791C61.9547 64.1228 61.8998 64.0679 61.8144 64.0598H61.4912V61.6634L62.8023 64.2732H62.9181L64.2597 61.1512V64.0598H63.7718V64.2244H65.4609C65.4366 64.1228 65.3817 64.0679 65.2963 64.0598H64.9731V60.7305H65.4609V60.5659Z"/>
<path fill-rule="evenodd" clip-rule="evenodd" d="M69.5677 64.2244C69.5677 64.1309 69.5393 64.078 69.4824 64.0659C69.4661 64.0618 69.4438 64.0598 69.4153 64.0598H69.2263L67.7994 60.5659H67.4213L66.0798 64.0598H65.6895V64.2244H66.7993C66.7993 64.1309 66.7708 64.078 66.7139 64.0659C66.6936 64.0618 66.6712 64.0598 66.6469 64.0598H66.3237L66.7688 62.889H68.0006L68.4579 64.0598H68.0372V64.2244H69.5677ZM67.9274 62.7061H66.8359L67.3786 61.2793L67.9274 62.7061Z"/>
<path fill-rule="evenodd" clip-rule="evenodd" d="M71.5769 64.2244V64.0598H71.089V62.5537H71.4793L72.4062 64.2305L73.4306 64.2244C73.4306 64.135 73.4042 64.0841 73.3514 64.072C73.327 64.0679 73.3026 64.0659 73.2782 64.0659H73.1501L72.1928 62.4866C72.6074 62.3768 72.8717 62.1573 72.9855 61.828C73.018 61.7264 73.0343 61.6248 73.0343 61.5232C73.0343 61.2183 72.9001 60.9744 72.6318 60.7915C72.4082 60.6411 72.1359 60.5659 71.8147 60.5659H69.8512V60.7305H70.339V64.0598H69.8512V64.2244H71.5769ZM71.5098 60.7305C71.8391 60.7305 72.0606 60.8829 72.1745 61.1878C72.2151 61.2976 72.2355 61.4154 72.2355 61.5415C72.2355 61.8667 72.1318 62.1045 71.9245 62.2549C71.8147 62.3321 71.6887 62.3707 71.5464 62.3707H71.089V60.7305H71.5098Z"/>
<path d="M76.885 63.9744C76.8809 64.1329 76.9134 64.2224 76.9825 64.2427C77.011 64.2508 77.0476 64.2549 77.0923 64.2549V63.072H76.9094C76.7386 63.6858 76.4134 64.0272 75.9337 64.0963C75.8646 64.1045 75.7955 64.1085 75.7264 64.1085C74.9946 64.1004 74.6267 63.5232 74.6227 62.3768C74.6227 61.4866 74.8706 60.9439 75.3666 60.7488C75.4885 60.7041 75.6207 60.6817 75.763 60.6817C76.2223 60.6817 76.5536 60.9073 76.7569 61.3585C76.8016 61.4642 76.8423 61.5821 76.8789 61.7122H77.074L77.0557 60.5354C76.9541 60.5354 76.8931 60.5699 76.8728 60.639C76.8646 60.6797 76.8606 60.7386 76.8606 60.8159C76.5232 60.6085 76.1329 60.5049 75.6898 60.5049C75.019 60.5049 74.5068 60.7427 74.1531 61.2183C73.9011 61.5598 73.775 61.95 73.775 62.389C73.775 62.9175 73.9438 63.3606 74.2812 63.7183C74.6389 64.0963 75.1084 64.2854 75.6898 64.2854C76.1085 64.2813 76.5069 64.1776 76.885 63.9744Z"/>
<path d="M79.2722 64.2244C79.2478 64.1228 79.1929 64.0679 79.1075 64.0598H78.7843V62.4317H80.4369V64.0598H79.949V64.2244H81.6686C81.6361 64.1228 81.5833 64.0679 81.5101 64.0598H81.1869V60.7305H81.6686V60.5659H79.949V60.7305H80.4369V62.2488H78.7843V60.7305H79.2722V60.5659H77.5465V60.7305H78.0343V64.0598H77.5465V64.2244H79.2722Z"/>
<path d="M85.1169 61.7122L85.0925 60.5659H82.1167V60.7305H82.6045V64.0598H82.1167V64.2244H85.0925L85.1169 63.078H84.9583L84.8364 63.4561C84.7307 63.7732 84.5721 63.9642 84.3607 64.0293C84.2916 64.0496 84.2164 64.0598 84.1351 64.0598H83.3546V62.4317H84.5559V62.2488H83.3546V60.7305H84.1351C84.4481 60.7305 84.6697 60.8931 84.7998 61.2183C84.816 61.2549 84.8303 61.2935 84.8425 61.3341L84.9583 61.7122H85.1169Z"/>
<path d="M88.187 64.2244C88.1545 64.1228 88.1017 64.0679 88.0285 64.0598H87.6138V60.7305H87.7968C88.0935 60.7305 88.3049 60.8809 88.4309 61.1817C88.4513 61.2305 88.4696 61.2813 88.4858 61.3341L88.6444 61.8402H88.8212L88.7968 60.5659H85.6869L85.6564 61.8402H85.8393L85.9979 61.3341C86.0955 61.0171 86.252 60.826 86.4674 60.761C86.5325 60.7407 86.6056 60.7305 86.6869 60.7305H86.8638V64.0598H86.2845V64.2244H88.187Z"/>
<path d="M91.7389 64.2244C91.7064 64.1228 91.6536 64.0679 91.5804 64.0598H91.1657V60.7305H91.3487C91.6454 60.7305 91.8568 60.8809 91.9828 61.1817C92.0032 61.2305 92.0215 61.2813 92.0377 61.3341L92.1963 61.8402H92.3731L92.3487 60.5659H89.2388L89.2083 61.8402H89.3912L89.5498 61.3341C89.6474 61.0171 89.8039 60.826 90.0193 60.761C90.0844 60.7407 90.1575 60.7305 90.2388 60.7305H90.4157V64.0598H89.8364V64.2244H91.7389Z"/>
<path d="M94.5164 64.2244C94.492 64.1228 94.4371 64.0679 94.3517 64.0598H94.0286V60.7305H94.5164V60.5659H92.7907V60.7305H93.2785V64.0598H92.7907V64.2244H94.5164Z"/>
</mask>
<path fill-rule="evenodd" clip-rule="evenodd" d="M27.3122 38C27.1398 38 27 38.1398 27 38.3122V52.6732C27 52.8456 27.1398 52.9854 27.3122 52.9854H31.6832C31.8556 52.9854 31.9954 53.1251 31.9954 53.2976V57.6683C31.9954 57.8407 32.1352 57.9805 32.3076 57.9805H96.6232C96.7956 57.9805 96.9354 57.8407 96.9354 57.6683V53.2976C96.9354 53.1251 97.0752 52.9854 97.2476 52.9854H101.619C101.791 52.9854 101.931 52.8456 101.931 52.6732V38.3122C101.931 38.1398 101.791 38 101.619 38H75.2583C75.1481 38 75.0461 38.0581 74.9899 38.1528L64.7339 55.4252C64.6129 55.6289 64.3179 55.6289 64.1969 55.4252L53.9409 38.1528C53.8847 38.0581 53.7827 38 53.6725 38H27.3122ZM33.5564 56.7317C33.384 56.7317 33.2442 56.5919 33.2442 56.4195V52.0488C33.2442 51.8764 33.1045 51.7366 32.932 51.7366H28.5611C28.3886 51.7366 28.2488 51.5968 28.2488 51.4244L28.2488 39.561C28.2488 39.3886 28.3886 39.2488 28.5611 39.2488H53.0465C53.1575 39.2488 53.2602 39.3078 53.3161 39.4037L63.1508 56.2622C63.2722 56.4703 63.1221 56.7317 62.8811 56.7317H62.148C62.0365 56.7317 61.9334 56.6722 61.8776 56.5755L52.6915 40.6537C52.6357 40.5571 52.5326 40.4976 52.421 40.4976H29.8099C29.6375 40.4976 29.4977 40.6373 29.4977 40.8098V50.1756C29.4977 50.348 29.6375 50.4878 29.8099 50.4878H34.1809C34.3533 50.4878 34.4931 50.6276 34.4931 50.8V56.4195C34.4931 56.5919 34.3533 56.7317 34.1809 56.7317H33.5564ZM47.9635 56.2646C48.0824 56.4727 47.9321 56.7317 47.6924 56.7317H46.0449C45.8725 56.7317 45.7327 56.5919 45.7327 56.4195V52.361C45.7327 52.3605 45.7323 52.361 45.7327 52.361L47.9635 56.2646ZM95.3744 56.7317C95.5468 56.7317 95.6866 56.5919 95.6866 56.4195V52.0488C95.6866 51.8764 95.8264 51.7366 95.9988 51.7366H100.37C100.542 51.7366 100.682 51.5968 100.682 51.4244V39.561C100.682 39.3886 100.542 39.2488 100.37 39.2488H75.8843C75.7733 39.2488 75.6706 39.3078 75.6147 39.4037L65.78 56.2622C65.6586 56.4703 65.8087 56.7317 66.0497 56.7317H66.7828C66.8944 56.7317 66.9975 56.6722 67.0532 56.5755L76.2393 40.6537C76.2951 40.5571 76.3982 40.4976 76.5098 40.4976H99.1209C99.2933 40.4976 99.4331 40.6373 99.4331 40.8098V50.1756C99.4331 50.348 99.2933 50.4878 99.1209 50.4878H94.7499C94.5775 50.4878 94.4377 50.6276 94.4377 50.8V56.4195C94.4377 56.5919 94.5775 56.7317 94.7499 56.7317H95.3744ZM80.9673 56.2646C80.8484 56.4727 80.9987 56.7317 81.2384 56.7317H82.8859C83.0583 56.7317 83.1981 56.5919 83.1981 56.4195V52.361C83.1981 52.3602 83.197 52.3598 83.1968 52.3606C83.1965 52.3613 83.1977 52.3616 83.1981 52.361L80.9673 56.2646Z" fill="#447CCE"/>
<path fill-rule="evenodd" clip-rule="evenodd" d="M101.931 67.6585C101.931 67.831 101.791 67.9707 101.619 67.9707H97.2476C97.0752 67.9707 96.9354 68.1105 96.9354 68.2829V73.9024C96.9354 74.0749 97.0752 74.2146 97.2476 74.2146H101.619C101.791 74.2146 101.931 74.3544 101.931 74.5268V88.8878C101.931 89.0602 101.791 89.2 101.619 89.2H76.0172C75.8448 89.2 75.705 89.0602 75.705 88.8878V74.5268C75.705 74.3544 75.8448 74.2146 76.0172 74.2146H80.3882C80.5606 74.2146 80.7004 74.0749 80.7004 73.9024V68.2829C80.7004 68.1105 80.5606 67.9707 80.3882 67.9707H73.9968C73.8935 67.9707 73.797 68.0218 73.7388 68.1071L64.7234 81.329C64.5994 81.5108 64.3314 81.5108 64.2074 81.329L55.192 68.1071C55.1338 68.0218 55.0373 67.9707 54.934 67.9707H48.5426C48.3702 67.9707 48.2304 68.1105 48.2304 68.2829V73.9024C48.2304 74.0749 48.3702 74.2146 48.5426 74.2146H52.9136C53.086 74.2146 53.2258 74.3544 53.2258 74.5268V88.8878C53.2258 89.0602 53.086 89.2 52.9136 89.2H27.3122C27.1398 89.2 27 89.0602 27 88.8878V74.5268C27 74.3544 27.1398 74.2146 27.3122 74.2146H31.6832C31.8556 74.2146 31.9954 74.0749 31.9954 73.9024V68.2829C31.9954 68.1105 31.8556 67.9707 31.6832 67.9707H27.3122C27.1398 67.9707 27 67.831 27 67.6585V67.0341C27 66.8617 27.1398 66.722 27.3122 66.722H101.619C101.791 66.722 101.931 66.8617 101.931 67.0341V67.6585ZM71.2414 68.1098C71.2993 68.0229 71.3968 67.9707 71.5012 67.9707H71.9967C72.2467 67.9707 72.3953 68.2497 72.2558 68.4571L64.7245 79.657C64.6008 79.841 64.33 79.841 64.2063 79.657L56.675 68.4571C56.5355 68.2497 56.6841 67.9707 56.9341 67.9707H57.4297C57.534 67.9707 57.6315 68.0229 57.6894 68.1098L64.2056 77.8835C64.3292 78.0689 64.6016 78.0689 64.7252 77.8835L71.2414 68.1098ZM81.9493 68.2829V75.1512C81.9493 75.3236 81.8095 75.4634 81.637 75.4634H77.2661C77.0937 75.4634 76.9539 75.6032 76.9539 75.7756V87.639C76.9539 87.8114 77.0937 87.9512 77.2661 87.9512H100.37C100.542 87.9512 100.682 87.8114 100.682 87.639V75.7756C100.682 75.6032 100.542 75.4634 100.37 75.4634H95.9988C95.8264 75.4634 95.6866 75.3236 95.6866 75.1512V68.2829C95.6866 68.1105 95.5468 67.9707 95.3744 67.9707H94.7499C94.5775 67.9707 94.4377 68.1105 94.4377 68.2829V76.4C94.4377 76.5724 94.5775 76.7122 94.7499 76.7122H99.1209C99.2933 76.7122 99.4331 76.852 99.4331 77.0244V86.3902C99.4331 86.5627 99.2933 86.7024 99.1209 86.7024H78.5149C78.3425 86.7024 78.2027 86.5627 78.2027 86.3902V77.0244C78.2027 76.852 78.3425 76.7122 78.5149 76.7122H82.8859C83.0583 76.7122 83.1981 76.5724 83.1981 76.4V68.2829C83.1981 68.1105 83.0583 67.9707 82.8859 67.9707H82.2615C82.089 67.9707 81.9493 68.1105 81.9493 68.2829ZM46.9815 68.2829V75.1512C46.9815 75.3236 47.1213 75.4634 47.2938 75.4634H51.6647C51.8372 75.4634 51.9769 75.6032 51.9769 75.7756V87.639C51.9769 87.8114 51.8372 87.9512 51.6647 87.9512H28.5611C28.3886 87.9512 28.2488 87.8114 28.2488 87.639V75.7756C28.2488 75.6032 28.3886 75.4634 28.5611 75.4634H32.932C33.1045 75.4634 33.2442 75.3236 33.2442 75.1512V68.2829C33.2442 68.1105 33.384 67.9707 33.5564 67.9707H34.1809C34.3533 67.9707 34.4931 68.1105 34.4931 68.2829V76.4C34.4931 76.5724 34.3533 76.7122 34.1809 76.7122H29.8099C29.6375 76.7122 29.4977 76.852 29.4977 77.0244V86.3902C29.4977 86.5627 29.6375 86.7024 29.8099 86.7024H50.4159C50.5883 86.7024 50.7281 86.5627 50.7281 86.3902V77.0244C50.7281 76.852 50.5883 76.7122 50.4159 76.7122H46.0449C45.8725 76.7122 45.7327 76.5724 45.7327 76.4V68.2829C45.7327 68.1105 45.8725 67.9707 46.0449 67.9707H46.6693C46.8418 67.9707 46.9815 68.1105 46.9815 68.2829Z" fill="#447CCE"/>
<path d="M37.4146 61.7122L37.3902 60.5659H34.4144V60.7305H34.9022V64.0598H34.4144V64.2244H37.3902L37.4146 63.078H37.256L37.1341 63.4561C37.0284 63.7732 36.8698 63.9642 36.6584 64.0293C36.5893 64.0496 36.5141 64.0598 36.4328 64.0598H35.6523V62.4317H36.8536V62.2488H35.6523V60.7305H36.4328C36.7458 60.7305 36.9674 60.8931 37.0975 61.2183C37.1137 61.2549 37.128 61.2935 37.1402 61.3341L37.256 61.7122H37.4146Z" fill="#447CCE"/>
<path fill-rule="evenodd" clip-rule="evenodd" d="M39.7103 64.2244V64.0598H39.2225V62.5537H39.6127L40.5396 64.2305L41.5641 64.2244C41.5641 64.135 41.5376 64.0841 41.4848 64.072C41.4604 64.0679 41.436 64.0659 41.4116 64.0659H41.2836L40.3262 62.4866C40.7409 62.3768 41.0051 62.1573 41.1189 61.828C41.1514 61.7264 41.1677 61.6248 41.1677 61.5232C41.1677 61.2183 41.0335 60.9744 40.7652 60.7915C40.5417 60.6411 40.2693 60.5659 39.9481 60.5659H37.9846V60.7305H38.4724V64.0598H37.9846V64.2244H39.7103ZM39.6432 60.7305C39.9725 60.7305 40.1941 60.8829 40.3079 61.1878C40.3486 61.2976 40.3689 61.4154 40.3689 61.5415C40.3689 61.8667 40.2652 62.1045 40.0579 62.2549C39.9481 62.3321 39.8221 62.3707 39.6798 62.3707H39.2225V60.7305H39.6432Z" fill="#447CCE"/>
<path d="M46.5002 60.5659H45.2989L44.1342 63.3098L42.811 60.5659H41.7865V60.7305H42.2743V64.0598H41.7865V64.2244H43.0183C42.9939 64.1228 42.939 64.0679 42.8536 64.0598H42.5305V61.6634L43.8415 64.2732H43.9574L45.2989 61.1512V64.0598H44.8111V64.2244H46.5002C46.4758 64.1228 46.4209 64.0679 46.3355 64.0598H46.0124V60.7305H46.5002V60.5659Z" fill="#447CCE"/>
<path fill-rule="evenodd" clip-rule="evenodd" d="M50.607 64.2244C50.607 64.1309 50.5785 64.078 50.5216 64.0659C50.5054 64.0618 50.483 64.0598 50.4545 64.0598H50.2655L48.8386 60.5659H48.4605L47.119 64.0598H46.7287V64.2244H47.8385C47.8385 64.1309 47.8101 64.078 47.7532 64.0659C47.7328 64.0618 47.7105 64.0598 47.6861 64.0598H47.3629L47.8081 62.889H49.0398L49.4972 64.0598H49.0764V64.2244H50.607ZM48.9667 62.7061H47.8751L48.4178 61.2793L48.9667 62.7061Z" fill="#447CCE"/>
<path d="M53.5125 60.7305H54.0125V63.2061L51.8051 60.5659H50.8355V60.7305H51.3234V64.0598H50.8355V64.2244H52.0917C52.0673 64.1228 52.0124 64.0679 51.9271 64.0598H51.5734V61.4317L53.9394 64.2549L54.2625 64.1939V60.7305H54.7504V60.5659H53.5125V60.7305Z" fill="#447CCE"/>
<path fill-rule="evenodd" clip-rule="evenodd" d="M57.0827 60.5049C56.5583 60.5049 56.1131 60.6715 55.7473 61.0049C55.3611 61.3585 55.168 61.8159 55.168 62.3768C55.168 63.0232 55.3976 63.5252 55.857 63.8829C56.2026 64.1512 56.605 64.2854 57.0644 64.2854C57.5848 64.2854 58.0258 64.1167 58.3876 63.7793C58.7698 63.4215 58.9608 62.9622 58.9608 62.4012C58.9608 61.7346 58.7251 61.2264 58.2535 60.8768C57.9201 60.6289 57.5299 60.5049 57.0827 60.5049ZM57.0827 64.1085C56.5786 64.1085 56.2554 63.8423 56.1131 63.3098C56.0481 63.0618 56.0156 62.7589 56.0156 62.4012C56.0156 61.3159 56.3266 60.7447 56.9485 60.6878C56.9892 60.6837 57.0278 60.6817 57.0644 60.6817C57.6091 60.6817 57.9405 61.013 58.0584 61.6756C58.0949 61.8789 58.1132 62.1126 58.1132 62.3768C58.1132 63.3768 57.8612 63.9439 57.3571 64.078C57.2717 64.0984 57.1803 64.1085 57.0827 64.1085Z" fill="#447CCE"/>
<path d="M65.4609 60.5659H64.2597L63.095 63.3098L61.7717 60.5659H60.7473V60.7305H61.2351V64.0598H60.7473V64.2244H61.9791C61.9547 64.1228 61.8998 64.0679 61.8144 64.0598H61.4912V61.6634L62.8023 64.2732H62.9181L64.2597 61.1512V64.0598H63.7718V64.2244H65.4609C65.4366 64.1228 65.3817 64.0679 65.2963 64.0598H64.9731V60.7305H65.4609V60.5659Z" fill="#447CCE"/>
<path fill-rule="evenodd" clip-rule="evenodd" d="M69.5677 64.2244C69.5677 64.1309 69.5393 64.078 69.4824 64.0659C69.4661 64.0618 69.4438 64.0598 69.4153 64.0598H69.2263L67.7994 60.5659H67.4213L66.0798 64.0598H65.6895V64.2244H66.7993C66.7993 64.1309 66.7708 64.078 66.7139 64.0659C66.6936 64.0618 66.6712 64.0598 66.6469 64.0598H66.3237L66.7688 62.889H68.0006L68.4579 64.0598H68.0372V64.2244H69.5677ZM67.9274 62.7061H66.8359L67.3786 61.2793L67.9274 62.7061Z" fill="#447CCE"/>
<path fill-rule="evenodd" clip-rule="evenodd" d="M71.5769 64.2244V64.0598H71.089V62.5537H71.4793L72.4062 64.2305L73.4306 64.2244C73.4306 64.135 73.4042 64.0841 73.3514 64.072C73.327 64.0679 73.3026 64.0659 73.2782 64.0659H73.1501L72.1928 62.4866C72.6074 62.3768 72.8717 62.1573 72.9855 61.828C73.018 61.7264 73.0343 61.6248 73.0343 61.5232C73.0343 61.2183 72.9001 60.9744 72.6318 60.7915C72.4082 60.6411 72.1359 60.5659 71.8147 60.5659H69.8512V60.7305H70.339V64.0598H69.8512V64.2244H71.5769ZM71.5098 60.7305C71.8391 60.7305 72.0606 60.8829 72.1745 61.1878C72.2151 61.2976 72.2355 61.4154 72.2355 61.5415C72.2355 61.8667 72.1318 62.1045 71.9245 62.2549C71.8147 62.3321 71.6887 62.3707 71.5464 62.3707H71.089V60.7305H71.5098Z" fill="#447CCE"/>
<path d="M76.885 63.9744C76.8809 64.1329 76.9134 64.2224 76.9825 64.2427C77.011 64.2508 77.0476 64.2549 77.0923 64.2549V63.072H76.9094C76.7386 63.6858 76.4134 64.0272 75.9337 64.0963C75.8646 64.1045 75.7955 64.1085 75.7264 64.1085C74.9946 64.1004 74.6267 63.5232 74.6227 62.3768C74.6227 61.4866 74.8706 60.9439 75.3666 60.7488C75.4885 60.7041 75.6207 60.6817 75.763 60.6817C76.2223 60.6817 76.5536 60.9073 76.7569 61.3585C76.8016 61.4642 76.8423 61.5821 76.8789 61.7122H77.074L77.0557 60.5354C76.9541 60.5354 76.8931 60.5699 76.8728 60.639C76.8646 60.6797 76.8606 60.7386 76.8606 60.8159C76.5232 60.6085 76.1329 60.5049 75.6898 60.5049C75.019 60.5049 74.5068 60.7427 74.1531 61.2183C73.9011 61.5598 73.775 61.95 73.775 62.389C73.775 62.9175 73.9438 63.3606 74.2812 63.7183C74.6389 64.0963 75.1084 64.2854 75.6898 64.2854C76.1085 64.2813 76.5069 64.1776 76.885 63.9744Z" fill="#447CCE"/>
<path d="M79.2722 64.2244C79.2478 64.1228 79.1929 64.0679 79.1075 64.0598H78.7843V62.4317H80.4369V64.0598H79.949V64.2244H81.6686C81.6361 64.1228 81.5833 64.0679 81.5101 64.0598H81.1869V60.7305H81.6686V60.5659H79.949V60.7305H80.4369V62.2488H78.7843V60.7305H79.2722V60.5659H77.5465V60.7305H78.0343V64.0598H77.5465V64.2244H79.2722Z" fill="#447CCE"/>
<path d="M85.1169 61.7122L85.0925 60.5659H82.1167V60.7305H82.6045V64.0598H82.1167V64.2244H85.0925L85.1169 63.078H84.9583L84.8364 63.4561C84.7307 63.7732 84.5721 63.9642 84.3607 64.0293C84.2916 64.0496 84.2164 64.0598 84.1351 64.0598H83.3546V62.4317H84.5559V62.2488H83.3546V60.7305H84.1351C84.4481 60.7305 84.6697 60.8931 84.7998 61.2183C84.816 61.2549 84.8303 61.2935 84.8425 61.3341L84.9583 61.7122H85.1169Z" fill="#447CCE"/>
<path d="M88.187 64.2244C88.1545 64.1228 88.1017 64.0679 88.0285 64.0598H87.6138V60.7305H87.7968C88.0935 60.7305 88.3049 60.8809 88.4309 61.1817C88.4513 61.2305 88.4696 61.2813 88.4858 61.3341L88.6444 61.8402H88.8212L88.7968 60.5659H85.6869L85.6564 61.8402H85.8393L85.9979 61.3341C86.0955 61.0171 86.252 60.826 86.4674 60.761C86.5325 60.7407 86.6056 60.7305 86.6869 60.7305H86.8638V64.0598H86.2845V64.2244H88.187Z" fill="#447CCE"/>
<path d="M91.7389 64.2244C91.7064 64.1228 91.6536 64.0679 91.5804 64.0598H91.1657V60.7305H91.3487C91.6454 60.7305 91.8568 60.8809 91.9828 61.1817C92.0032 61.2305 92.0215 61.2813 92.0377 61.3341L92.1963 61.8402H92.3731L92.3487 60.5659H89.2388L89.2083 61.8402H89.3912L89.5498 61.3341C89.6474 61.0171 89.8039 60.826 90.0193 60.761C90.0844 60.7407 90.1575 60.7305 90.2388 60.7305H90.4157V64.0598H89.8364V64.2244H91.7389Z" fill="#447CCE"/>
<path d="M94.5164 64.2244C94.492 64.1228 94.4371 64.0679 94.3517 64.0598H94.0286V60.7305H94.5164V60.5659H92.7907V60.7305H93.2785V64.0598H92.7907V64.2244H94.5164Z" fill="#447CCE"/>
<path d="M45.7722 52.3485C45.7703 52.3425 45.7667 52.3362 45.7609 52.3309C45.7551 52.3256 45.7488 52.3229 45.7435 52.3216C45.7342 52.3193 45.7267 52.3211 45.7244 52.3216C45.7213 52.3224 45.719 52.3233 45.718 52.3238C45.7168 52.3243 45.7158 52.3247 45.7154 52.325C45.7151 52.3251 45.7149 52.3252 45.7148 52.3252C45.7148 52.3253 45.7147 52.3253 45.7147 52.3253C45.7146 52.3254 45.7147 52.3253 45.7146 52.3253C45.7145 52.3254 45.715 52.3252 45.7155 52.3249C45.7159 52.3247 45.7174 52.324 45.7194 52.3233C45.7202 52.323 45.7267 52.3205 45.7353 52.3211L45.7301 52.4009C45.735 52.4012 45.739 52.4005 45.7411 52.4001C45.7433 52.3996 45.7451 52.399 45.7462 52.3986C45.7484 52.3979 45.75 52.3971 45.7505 52.3968C45.7512 52.3965 45.7517 52.3962 45.7518 52.3962C45.752 52.3961 45.7517 52.3962 45.7515 52.3964C45.7512 52.3965 45.7504 52.3969 45.7493 52.3974C45.7484 52.3977 45.7462 52.3986 45.7432 52.3994C45.7411 52.3999 45.7336 52.4016 45.7244 52.3993C45.7192 52.398 45.7129 52.3953 45.7071 52.3901C45.7013 52.3849 45.6978 52.3785 45.6959 52.3726L45.7722 52.3485ZM74.9899 38.1528L74.9211 38.112L74.9211 38.112L74.9899 38.1528ZM64.7339 55.4252L64.6651 55.3843L64.6651 55.3843L64.7339 55.4252ZM64.1969 55.4252L64.2657 55.3843L64.2657 55.3843L64.1969 55.4252ZM53.9409 38.1528L54.0097 38.112L54.0097 38.112L53.9409 38.1528ZM28.2488 51.4244L28.1688 51.4244V51.4244H28.2488ZM28.2488 39.561L28.3288 39.561V39.561H28.2488ZM53.3161 39.4037L53.247 39.444L53.247 39.444L53.3161 39.4037ZM63.1508 56.2622L63.0817 56.3025L63.0817 56.3025L63.1508 56.2622ZM61.8776 56.5755L61.9469 56.5355L61.9469 56.5355L61.8776 56.5755ZM52.6915 40.6537L52.6222 40.6937L52.6222 40.6937L52.6915 40.6537ZM47.9635 56.2646L48.0329 56.2249L48.0329 56.2249L47.9635 56.2646ZM75.6147 39.4037L75.5456 39.3634L75.5456 39.3634L75.6147 39.4037ZM65.78 56.2622L65.8491 56.3025L65.8491 56.3025L65.78 56.2622ZM67.0532 56.5755L66.9839 56.5355L66.9839 56.5355L67.0532 56.5755ZM76.2393 40.6537L76.3086 40.6937L76.3086 40.6937L76.2393 40.6537ZM80.9673 56.2646L81.0368 56.3043L81.0368 56.3043L80.9673 56.2646ZM83.1968 52.3606L83.1206 52.3362L83.1204 52.3366L83.1968 52.3606ZM73.7388 68.1071L73.6727 68.062L73.6727 68.062L73.7388 68.1071ZM64.7234 81.329L64.6573 81.2839L64.6573 81.2839L64.7234 81.329ZM64.2074 81.329L64.2735 81.2839L64.2735 81.2839L64.2074 81.329ZM55.192 68.1071L55.1259 68.1521L55.1259 68.1521L55.192 68.1071ZM71.2414 68.1098L71.3079 68.1541L71.3079 68.1541L71.2414 68.1098ZM72.2558 68.4571L72.3222 68.5018L72.3222 68.5018L72.2558 68.4571ZM64.7245 79.657L64.6581 79.6123L64.6581 79.6123L64.7245 79.657ZM64.2063 79.657L64.2727 79.6123L64.2727 79.6123L64.2063 79.657ZM56.675 68.4571L56.6086 68.5018L56.6086 68.5018L56.675 68.4571ZM57.6894 68.1098L57.6229 68.1541L57.6229 68.1541L57.6894 68.1098ZM64.2056 77.8835L64.1391 77.9279L64.1391 77.9279L64.2056 77.8835ZM64.7252 77.8835L64.6586 77.8392L64.6586 77.8392L64.7252 77.8835ZM37.3902 60.5659L37.4702 60.5642L37.4685 60.4859H37.3902V60.5659ZM37.4146 61.7122V61.7922H37.4963L37.4946 61.7105L37.4146 61.7122ZM34.4144 60.5659V60.4859H34.3344V60.5659H34.4144ZM34.4144 60.7305H34.3344V60.8105H34.4144V60.7305ZM34.9022 60.7305H34.9822V60.6505H34.9022V60.7305ZM34.9022 64.0598V64.1398H34.9822V64.0598H34.9022ZM34.4144 64.0598V63.9798H34.3344V64.0598H34.4144ZM34.4144 64.2244H34.3344V64.3044H34.4144V64.2244ZM37.3902 64.2244V64.3044H37.4685L37.4702 64.2261L37.3902 64.2244ZM37.4146 63.078L37.4946 63.0798L37.4963 62.998H37.4146V63.078ZM37.256 63.078V62.998H37.1978L37.1799 63.0535L37.256 63.078ZM37.1341 63.4561L37.21 63.4814L37.2102 63.4807L37.1341 63.4561ZM36.6584 64.0293L36.681 64.106L36.682 64.1057L36.6584 64.0293ZM35.6523 64.0598H35.5723V64.1398H35.6523V64.0598ZM35.6523 62.4317V62.3517H35.5723V62.4317H35.6523ZM36.8536 62.4317V62.5117H36.9336V62.4317H36.8536ZM36.8536 62.2488H36.9336V62.1688H36.8536V62.2488ZM35.6523 62.2488H35.5723V62.3288H35.6523V62.2488ZM35.6523 60.7305V60.6505H35.5723V60.7305H35.6523ZM37.0975 61.2183L37.0232 61.248L37.0244 61.2508L37.0975 61.2183ZM37.1402 61.3341L37.0635 61.3571L37.0637 61.3576L37.1402 61.3341ZM37.256 61.7122L37.1795 61.7356L37.1969 61.7922H37.256V61.7122ZM39.7103 64.0598H39.7903V63.9798H39.7103V64.0598ZM39.7103 64.2244V64.3044H39.7903V64.2244H39.7103ZM39.2225 64.0598H39.1425V64.1398H39.2225V64.0598ZM39.2225 62.5537V62.4737H39.1425V62.5537H39.2225ZM39.6127 62.5537L39.6828 62.515L39.6599 62.4737H39.6127V62.5537ZM40.5396 64.2305L40.4696 64.2692L40.4926 64.3108L40.5401 64.3105L40.5396 64.2305ZM41.5641 64.2244L41.5645 64.3044L41.6441 64.3039V64.2244H41.5641ZM41.4848 64.072L41.5028 63.9939L41.4979 63.993L41.4848 64.072ZM41.2836 64.0659L41.2152 64.1073L41.2385 64.1459H41.2836V64.0659ZM40.3262 62.4866L40.3057 62.4092L40.2023 62.4366L40.2578 62.5281L40.3262 62.4866ZM41.1189 61.828L41.1946 61.8542L41.1951 61.8524L41.1189 61.828ZM40.7652 60.7915L40.8103 60.7254L40.8099 60.7251L40.7652 60.7915ZM37.9846 60.5659V60.4859H37.9046V60.5659H37.9846ZM37.9846 60.7305H37.9046V60.8105H37.9846V60.7305ZM38.4724 60.7305H38.5524V60.6505H38.4724V60.7305ZM38.4724 64.0598V64.1398H38.5524V64.0598H38.4724ZM37.9846 64.0598V63.9798H37.9046V64.0598H37.9846ZM37.9846 64.2244H37.9046V64.3044H37.9846V64.2244ZM40.3079 61.1878L40.3829 61.16L40.3828 61.1598L40.3079 61.1878ZM40.0579 62.2549L40.1039 62.3203L40.1049 62.3196L40.0579 62.2549ZM39.2225 62.3707H39.1425V62.4507H39.2225V62.3707ZM39.2225 60.7305V60.6505H39.1425V60.7305H39.2225ZM45.2989 60.5659V60.4859H45.2459L45.2253 60.5346L45.2989 60.5659ZM46.5002 60.5659H46.5802V60.4859H46.5002V60.5659ZM44.1342 63.3098L44.0621 63.3445L44.1388 63.5036L44.2078 63.341L44.1342 63.3098ZM42.811 60.5659L42.883 60.5311L42.8612 60.4859H42.811V60.5659ZM41.7865 60.5659V60.4859H41.7065V60.5659H41.7865ZM41.7865 60.7305H41.7065V60.8105H41.7865V60.7305ZM42.2743 60.7305H42.3543V60.6505H42.2743V60.7305ZM42.2743 64.0598V64.1398H42.3543V64.0598H42.2743ZM41.7865 64.0598V63.9798H41.7065V64.0598H41.7865ZM41.7865 64.2244H41.7065V64.3044H41.7865V64.2244ZM43.0183 64.2244V64.3044H43.1198L43.0961 64.2057L43.0183 64.2244ZM42.8536 64.0598L42.8613 63.9798H42.8536V64.0598ZM42.5305 64.0598H42.4505V64.1398H42.5305V64.0598ZM42.5305 61.6634L42.6019 61.6275L42.4505 61.6634H42.5305ZM43.8415 64.2732L43.77 64.3091L43.7922 64.3532H43.8415V64.2732ZM43.9574 64.2732V64.3532H44.0101L44.0309 64.3048L43.9574 64.2732ZM45.2989 61.1512H45.3789L45.2254 61.1196L45.2989 61.1512ZM45.2989 64.0598V64.1398H45.3789V64.0598H45.2989ZM44.8111 64.0598V63.9798H44.7311V64.0598H44.8111ZM44.8111 64.2244H44.7311V64.3044H44.8111V64.2244ZM46.5002 64.2244V64.3044H46.6017L46.578 64.2057L46.5002 64.2244ZM46.3355 64.0598L46.3432 63.9798H46.3355V64.0598ZM46.0124 64.0598H45.9324V64.1398H46.0124V64.0598ZM46.0124 60.7305V60.6505H45.9324V60.7305H46.0124ZM46.5002 60.7305V60.8105H46.5802V60.7305H46.5002ZM50.5216 64.0659L50.5022 64.1435L50.5049 64.1441L50.5216 64.0659ZM50.607 64.2244V64.3044H50.687V64.2244H50.607ZM50.2655 64.0598L50.1914 64.09L50.2118 64.1398H50.2655V64.0598ZM48.8386 60.5659L48.9127 60.5356L48.8923 60.4859H48.8386V60.5659ZM48.4605 60.5659V60.4859H48.4056L48.3858 60.5372L48.4605 60.5659ZM47.119 64.0598V64.1398H47.174L47.1937 64.0884L47.119 64.0598ZM46.7287 64.0598V63.9798H46.6487V64.0598H46.7287ZM46.7287 64.2244H46.6487V64.3044H46.7287V64.2244ZM47.8385 64.2244V64.3044H47.9185V64.2244H47.8385ZM47.7532 64.0659L47.7699 63.9876L47.7689 63.9874L47.7532 64.0659ZM47.3629 64.0598L47.2881 64.0313L47.2469 64.1398H47.3629V64.0598ZM47.8081 62.889V62.809H47.7529L47.7333 62.8606L47.8081 62.889ZM49.0398 62.889L49.1143 62.8599L49.0945 62.809H49.0398V62.889ZM49.4972 64.0598V64.1398H49.6143L49.5717 64.0306L49.4972 64.0598ZM49.0764 64.0598V63.9798H48.9964V64.0598H49.0764ZM49.0764 64.2244H48.9964V64.3044H49.0764V64.2244ZM47.8751 62.7061L47.8004 62.6777L47.7591 62.7861H47.8751V62.7061ZM48.9667 62.7061V62.7861H49.0831L49.0413 62.6774L48.9667 62.7061ZM48.4178 61.2793L48.4925 61.2505L48.4174 61.0553L48.3431 61.2508L48.4178 61.2793ZM54.0125 60.7305H54.0925V60.6505H54.0125V60.7305ZM53.5125 60.7305H53.4325V60.8105H53.5125V60.7305ZM54.0125 63.2061L53.9512 63.2574L54.0925 63.4265V63.2061H54.0125ZM51.8051 60.5659L51.8665 60.5145L51.8425 60.4859H51.8051V60.5659ZM50.8355 60.5659V60.4859H50.7555V60.5659H50.8355ZM50.8355 60.7305H50.7555V60.8105H50.8355V60.7305ZM51.3234 60.7305H51.4034V60.6505H51.3234V60.7305ZM51.3234 64.0598V64.1398H51.4034V64.0598H51.3234ZM50.8355 64.0598V63.9798H50.7555V64.0598H50.8355ZM50.8355 64.2244H50.7555V64.3044H50.8355V64.2244ZM52.0917 64.2244V64.3044H52.1932L52.1695 64.2057L52.0917 64.2244ZM51.9271 64.0598L51.9347 63.9798H51.9271V64.0598ZM51.5734 64.0598H51.4934V64.1398H51.5734V64.0598ZM51.5734 61.4317L51.6347 61.3803L51.4934 61.2117V61.4317H51.5734ZM53.9394 64.2549L53.878 64.3063L53.9081 64.3422L53.9542 64.3335L53.9394 64.2549ZM54.2625 64.1939L54.2774 64.2725L54.3425 64.2602V64.1939H54.2625ZM54.2625 60.7305V60.6505H54.1825V60.7305H54.2625ZM54.7504 60.7305V60.8105H54.8304V60.7305H54.7504ZM54.7504 60.5659H54.8304V60.4859H54.7504V60.5659ZM53.5125 60.5659V60.4859H53.4325V60.5659H53.5125ZM55.7473 61.0049L55.6934 60.9457L55.6932 60.9459L55.7473 61.0049ZM55.857 63.8829L55.8079 63.946L55.808 63.9461L55.857 63.8829ZM58.3876 63.7793L58.4422 63.8378L58.4423 63.8377L58.3876 63.7793ZM58.2535 60.8768L58.2057 60.941L58.2058 60.9411L58.2535 60.8768ZM56.1131 63.3098L56.0357 63.3301L56.0358 63.3304L56.1131 63.3098ZM56.9485 60.6878L56.9558 60.7675L56.9565 60.7674L56.9485 60.6878ZM58.0584 61.6756L57.9796 61.6896L57.9796 61.6898L58.0584 61.6756ZM57.3571 64.078L57.3756 64.1559L57.3777 64.1554L57.3571 64.078ZM64.2597 60.5659V60.4859H64.2067L64.186 60.5346L64.2597 60.5659ZM65.4609 60.5659H65.5409V60.4859H65.4609V60.5659ZM63.095 63.3098L63.0229 63.3445L63.0996 63.5036L63.1686 63.341L63.095 63.3098ZM61.7717 60.5659L61.8438 60.5311L61.822 60.4859H61.7717V60.5659ZM60.7473 60.5659V60.4859H60.6673V60.5659H60.7473ZM60.7473 60.7305H60.6673V60.8105H60.7473V60.7305ZM61.2351 60.7305H61.3151V60.6505H61.2351V60.7305ZM61.2351 64.0598V64.1398H61.3151V64.0598H61.2351ZM60.7473 64.0598V63.9798H60.6673V64.0598H60.7473ZM60.7473 64.2244H60.6673V64.3044H60.7473V64.2244ZM61.9791 64.2244V64.3044H62.0805L62.0568 64.2057L61.9791 64.2244ZM61.8144 64.0598L61.822 63.9798H61.8144V64.0598ZM61.4912 64.0598H61.4112V64.1398H61.4912V64.0598ZM61.4912 61.6634L61.5627 61.6275L61.4112 61.6634H61.4912ZM62.8023 64.2732L62.7308 64.3091L62.7529 64.3532H62.8023V64.2732ZM62.9181 64.2732V64.3532H62.9708L62.9916 64.3048L62.9181 64.2732ZM64.2597 61.1512H64.3397L64.1862 61.1196L64.2597 61.1512ZM64.2597 64.0598V64.1398H64.3397V64.0598H64.2597ZM63.7718 64.0598V63.9798H63.6918V64.0598H63.7718ZM63.7718 64.2244H63.6918V64.3044H63.7718V64.2244ZM65.4609 64.2244V64.3044H65.5624L65.5387 64.2057L65.4609 64.2244ZM65.2963 64.0598L65.3039 63.9798H65.2963V64.0598ZM64.9731 64.0598H64.8931V64.1398H64.9731V64.0598ZM64.9731 60.7305V60.6505H64.8931V60.7305H64.9731ZM65.4609 60.7305V60.8105H65.5409V60.7305H65.4609ZM69.4824 64.0659L69.463 64.1435L69.4656 64.1441L69.4824 64.0659ZM69.5677 64.2244V64.3044H69.6477V64.2244H69.5677ZM69.2263 64.0598L69.1522 64.09L69.1725 64.1398H69.2263V64.0598ZM67.7994 60.5659L67.8734 60.5356L67.8531 60.4859H67.7994V60.5659ZM67.4213 60.5659V60.4859H67.3663L67.3466 60.5372L67.4213 60.5659ZM66.0798 64.0598V64.1398H66.1347L66.1544 64.0884L66.0798 64.0598ZM65.6895 64.0598V63.9798H65.6095V64.0598H65.6895ZM65.6895 64.2244H65.6095V64.3044H65.6895V64.2244ZM66.7993 64.2244V64.3044H66.8793V64.2244H66.7993ZM66.7139 64.0659L66.7307 63.9876L66.7296 63.9874L66.7139 64.0659ZM66.3237 64.0598L66.2489 64.0313L66.2077 64.1398H66.3237V64.0598ZM66.7688 62.889V62.809H66.7136L66.694 62.8606L66.7688 62.889ZM68.0006 62.889L68.0751 62.8599L68.0552 62.809H68.0006V62.889ZM68.4579 64.0598V64.1398H68.5751L68.5324 64.0306L68.4579 64.0598ZM68.0372 64.0598V63.9798H67.9572V64.0598H68.0372ZM68.0372 64.2244H67.9572V64.3044H68.0372V64.2244ZM66.8359 62.7061L66.7611 62.6777L66.7199 62.7861H66.8359V62.7061ZM67.9274 62.7061V62.7861H68.0439L68.0021 62.6774L67.9274 62.7061ZM67.3786 61.2793L67.4533 61.2505L67.3782 61.0553L67.3038 61.2508L67.3786 61.2793ZM71.5769 64.0598H71.6569V63.9798H71.5769V64.0598ZM71.5769 64.2244V64.3044H71.6569V64.2244H71.5769ZM71.089 64.0598H71.009V64.1398H71.089V64.0598ZM71.089 62.5537V62.4737H71.009V62.5537H71.089ZM71.4793 62.5537L71.5493 62.515L71.5265 62.4737H71.4793V62.5537ZM72.4062 64.2305L72.3362 64.2692L72.3592 64.3108L72.4067 64.3105L72.4062 64.2305ZM73.4306 64.2244L73.4311 64.3044L73.5106 64.3039V64.2244H73.4306ZM73.3514 64.072L73.3694 63.9939L73.3645 63.993L73.3514 64.072ZM73.1501 64.0659L73.0817 64.1073L73.1051 64.1459H73.1501V64.0659ZM72.1928 62.4866L72.1723 62.4092L72.0689 62.4366L72.1244 62.5281L72.1928 62.4866ZM72.9855 61.828L73.0611 61.8542L73.0617 61.8524L72.9855 61.828ZM72.6318 60.7915L72.6769 60.7254L72.6765 60.7251L72.6318 60.7915ZM69.8512 60.5659V60.4859H69.7712V60.5659H69.8512ZM69.8512 60.7305H69.7712V60.8105H69.8512V60.7305ZM70.339 60.7305H70.419V60.6505H70.339V60.7305ZM70.339 64.0598V64.1398H70.419V64.0598H70.339ZM69.8512 64.0598V63.9798H69.7712V64.0598H69.8512ZM69.8512 64.2244H69.7712V64.3044H69.8512V64.2244ZM72.1745 61.1878L72.2495 61.16L72.2494 61.1598L72.1745 61.1878ZM71.9245 62.2549L71.9705 62.3203L71.9714 62.3196L71.9245 62.2549ZM71.089 62.3707H71.009V62.4507H71.089V62.3707ZM71.089 60.7305V60.6505H71.009V60.7305H71.089ZM76.9825 64.2427L76.96 64.3194L76.9606 64.3196L76.9825 64.2427ZM76.885 63.9744L76.9649 63.9764L76.9685 63.8387L76.8471 63.9039L76.885 63.9744ZM77.0923 64.2549V64.3349H77.1723V64.2549H77.0923ZM77.0923 63.072H77.1723V62.992H77.0923V63.072ZM76.9094 63.072V62.992H76.8486L76.8323 63.0505L76.9094 63.072ZM75.9337 64.0963L75.943 64.1758L75.9451 64.1755L75.9337 64.0963ZM75.7264 64.1085L75.7255 64.1885H75.7264V64.1085ZM74.6227 62.3768H74.5427L74.5427 62.3771L74.6227 62.3768ZM75.3666 60.7488L75.339 60.6736L75.3373 60.6743L75.3666 60.7488ZM76.7569 61.3585L76.8306 61.3274L76.8298 61.3257L76.7569 61.3585ZM76.8789 61.7122L76.8019 61.7339L76.8183 61.7922H76.8789V61.7122ZM77.074 61.7122V61.7922H77.1553L77.154 61.711L77.074 61.7122ZM77.0557 60.5354L77.1357 60.5341L77.1345 60.4554H77.0557V60.5354ZM76.8728 60.639L76.7957 60.6164L76.7943 60.6233L76.8728 60.639ZM76.8606 60.8159L76.8187 60.884L76.9406 60.9589V60.8159H76.8606ZM74.1531 61.2183L74.0889 61.1706L74.0887 61.1708L74.1531 61.2183ZM74.2812 63.7183L74.223 63.7732L74.2231 63.7733L74.2812 63.7183ZM75.6898 64.2854V64.3654L75.6906 64.3654L75.6898 64.2854ZM79.1075 64.0598L79.1151 63.9798H79.1075V64.0598ZM79.2722 64.2244V64.3044H79.3736L79.35 64.2057L79.2722 64.2244ZM78.7843 64.0598H78.7043V64.1398H78.7843V64.0598ZM78.7843 62.4317V62.3517H78.7043V62.4317H78.7843ZM80.4369 62.4317H80.5169V62.3517H80.4369V62.4317ZM80.4369 64.0598V64.1398H80.5169V64.0598H80.4369ZM79.949 64.0598V63.9798H79.869V64.0598H79.949ZM79.949 64.2244H79.869V64.3044H79.949V64.2244ZM81.6686 64.2244V64.3044H81.7782L81.7448 64.2L81.6686 64.2244ZM81.5101 64.0598L81.519 63.9798H81.5101V64.0598ZM81.1869 64.0598H81.1069V64.1398H81.1869V64.0598ZM81.1869 60.7305V60.6505H81.1069V60.7305H81.1869ZM81.6686 60.7305V60.8105H81.7486V60.7305H81.6686ZM81.6686 60.5659H81.7486V60.4859H81.6686V60.5659ZM79.949 60.5659V60.4859H79.869V60.5659H79.949ZM79.949 60.7305H79.869V60.8105H79.949V60.7305ZM80.4369 60.7305H80.5169V60.6505H80.4369V60.7305ZM80.4369 62.2488V62.3288H80.5169V62.2488H80.4369ZM78.7843 62.2488H78.7043V62.3288H78.7843V62.2488ZM78.7843 60.7305V60.6505H78.7043V60.7305H78.7843ZM79.2722 60.7305V60.8105H79.3522V60.7305H79.2722ZM79.2722 60.5659H79.3522V60.4859H79.2722V60.5659ZM77.5465 60.5659V60.4859H77.4665V60.5659H77.5465ZM77.5465 60.7305H77.4665V60.8105H77.5465V60.7305ZM78.0343 60.7305H78.1143V60.6505H78.0343V60.7305ZM78.0343 64.0598V64.1398H78.1143V64.0598H78.0343ZM77.5465 64.0598V63.9798H77.4665V64.0598H77.5465ZM77.5465 64.2244H77.4665V64.3044H77.5465V64.2244ZM85.0925 60.5659L85.1725 60.5642L85.1708 60.4859H85.0925V60.5659ZM85.1169 61.7122V61.7922H85.1986L85.1968 61.7105L85.1169 61.7122ZM82.1167 60.5659V60.4859H82.0367V60.5659H82.1167ZM82.1167 60.7305H82.0367V60.8105H82.1167V60.7305ZM82.6045 60.7305H82.6845V60.6505H82.6045V60.7305ZM82.6045 64.0598V64.1398H82.6845V64.0598H82.6045ZM82.1167 64.0598V63.9798H82.0367V64.0598H82.1167ZM82.1167 64.2244H82.0367V64.3044H82.1167V64.2244ZM85.0925 64.2244V64.3044H85.1708L85.1725 64.2261L85.0925 64.2244ZM85.1169 63.078L85.1968 63.0798L85.1986 62.998H85.1169V63.078ZM84.9583 63.078V62.998H84.9001L84.8822 63.0535L84.9583 63.078ZM84.8364 63.4561L84.9123 63.4814L84.9125 63.4807L84.8364 63.4561ZM84.3607 64.0293L84.3833 64.106L84.3843 64.1057L84.3607 64.0293ZM83.3546 64.0598H83.2746V64.1398H83.3546V64.0598ZM83.3546 62.4317V62.3517H83.2746V62.4317H83.3546ZM84.5559 62.4317V62.5117H84.6359V62.4317H84.5559ZM84.5559 62.2488H84.6359V62.1688H84.5559V62.2488ZM83.3546 62.2488H83.2746V62.3288H83.3546V62.2488ZM83.3546 60.7305V60.6505H83.2746V60.7305H83.3546ZM84.7998 61.2183L84.7254 61.248L84.7267 61.2508L84.7998 61.2183ZM84.8425 61.3341L84.7658 61.3571L84.766 61.3576L84.8425 61.3341ZM84.9583 61.7122L84.8818 61.7356L84.8992 61.7922H84.9583V61.7122ZM88.0285 64.0598L88.0374 63.9798H88.0285V64.0598ZM88.187 64.2244V64.3044H88.2966L88.2632 64.2L88.187 64.2244ZM87.6138 64.0598H87.5338V64.1398H87.6138V64.0598ZM87.6138 60.7305V60.6505H87.5338V60.7305H87.6138ZM88.4309 61.1817L88.5048 61.1509L88.5047 61.1508L88.4309 61.1817ZM88.4858 61.3341L88.4094 61.3577L88.4095 61.3581L88.4858 61.3341ZM88.6444 61.8402L88.568 61.8642L88.5856 61.9202H88.6444V61.8402ZM88.8212 61.8402V61.9202H88.9027L88.9012 61.8387L88.8212 61.8402ZM88.7968 60.5659L88.8768 60.5643L88.8753 60.4859H88.7968V60.5659ZM85.6869 60.5659V60.4859H85.6088L85.6069 60.5639L85.6869 60.5659ZM85.6564 61.8402L85.5764 61.8383L85.5745 61.9202H85.6564V61.8402ZM85.8393 61.8402V61.9202H85.8981L85.9157 61.8642L85.8393 61.8402ZM85.9979 61.3341L86.0742 61.3581L86.0743 61.3577L85.9979 61.3341ZM86.4674 60.761L86.4905 60.8376L86.4913 60.8373L86.4674 60.761ZM86.8638 60.7305H86.9438V60.6505H86.8638V60.7305ZM86.8638 64.0598V64.1398H86.9438V64.0598H86.8638ZM86.2845 64.0598V63.9798H86.2045V64.0598H86.2845ZM86.2845 64.2244H86.2045V64.3044H86.2845V64.2244ZM91.5804 64.0598L91.5893 63.9798H91.5804V64.0598ZM91.7389 64.2244V64.3044H91.8485L91.8151 64.2L91.7389 64.2244ZM91.1657 64.0598H91.0857V64.1398H91.1657V64.0598ZM91.1657 60.7305V60.6505H91.0857V60.7305H91.1657ZM91.9828 61.1817L92.0567 61.1509L92.0566 61.1508L91.9828 61.1817ZM92.0377 61.3341L91.9613 61.3577L91.9614 61.3581L92.0377 61.3341ZM92.1963 61.8402L92.1199 61.8642L92.1375 61.9202H92.1963V61.8402ZM92.3731 61.8402V61.9202H92.4547L92.4531 61.8387L92.3731 61.8402ZM92.3487 60.5659L92.4287 60.5643L92.4272 60.4859H92.3487V60.5659ZM89.2388 60.5659V60.4859H89.1607L89.1588 60.5639L89.2388 60.5659ZM89.2083 61.8402L89.1283 61.8383L89.1264 61.9202H89.2083V61.8402ZM89.3912 61.8402V61.9202H89.45L89.4676 61.8642L89.3912 61.8402ZM89.5498 61.3341L89.6261 61.3581L89.6262 61.3577L89.5498 61.3341ZM90.0193 60.761L90.0424 60.8376L90.0432 60.8373L90.0193 60.761ZM90.4157 60.7305H90.4957V60.6505H90.4157V60.7305ZM90.4157 64.0598V64.1398H90.4957V64.0598H90.4157ZM89.8364 64.0598V63.9798H89.7564V64.0598H89.8364ZM89.8364 64.2244H89.7564V64.3044H89.8364V64.2244ZM94.3517 64.0598L94.3594 63.9798H94.3517V64.0598ZM94.5164 64.2244V64.3044H94.6179L94.5942 64.2057L94.5164 64.2244ZM94.0286 64.0598H93.9486V64.1398H94.0286V64.0598ZM94.0286 60.7305V60.6505H93.9486V60.7305H94.0286ZM94.5164 60.7305V60.8105H94.5964V60.7305H94.5164ZM94.5164 60.5659H94.5964V60.4859H94.5164V60.5659ZM92.7907 60.5659V60.4859H92.7107V60.5659H92.7907ZM92.7907 60.7305H92.7107V60.8105H92.7907V60.7305ZM93.2785 60.7305H93.3585V60.6505H93.2785V60.7305ZM93.2785 64.0598V64.1398H93.3585V64.0598H93.2785ZM92.7907 64.0598V63.9798H92.7107V64.0598H92.7907ZM92.7907 64.2244H92.7107V64.3044H92.7907V64.2244ZM27.08 38.3122C27.08 38.184 27.184 38.08 27.3122 38.08V37.92C27.0956 37.92 26.92 38.0956 26.92 38.3122H27.08ZM27.3122 52.9054C27.184 52.9054 27.08 52.8014 27.08 52.6732H26.92C26.92 52.8898 27.0956 53.0654 27.3122 53.0654V52.9054ZM32.0754 53.2976C32.0754 53.081 31.8998 52.9054 31.6832 52.9054V53.0654C31.8114 53.0654 31.9154 53.1693 31.9154 53.2976H32.0754ZM32.0754 57.6683V53.2976H31.9154V57.6683H32.0754ZM32.3076 57.9005C32.1793 57.9005 32.0754 57.7965 32.0754 57.6683H31.9154C31.9154 57.8849 32.091 58.0605 32.3076 58.0605V57.9005ZM96.8554 57.6683C96.8554 57.7965 96.7515 57.9005 96.6232 57.9005V58.0605C96.8398 58.0605 97.0154 57.8849 97.0154 57.6683H96.8554ZM96.8554 53.2976V57.6683H97.0154V53.2976H96.8554ZM97.2476 52.9054C97.031 52.9054 96.8554 53.081 96.8554 53.2976H97.0154C97.0154 53.1693 97.1194 53.0654 97.2476 53.0654V52.9054ZM101.851 52.6732C101.851 52.8014 101.747 52.9054 101.619 52.9054V53.0654C101.835 53.0654 102.011 52.8898 102.011 52.6732H101.851ZM101.619 38.08C101.747 38.08 101.851 38.184 101.851 38.3122H102.011C102.011 38.0956 101.835 37.92 101.619 37.92V38.08ZM75.0587 38.1937C75.1005 38.1232 75.1764 38.08 75.2583 38.08V37.92C75.1199 37.92 74.9917 37.993 74.9211 38.112L75.0587 38.1937ZM64.8026 55.466L75.0587 38.1937L74.9211 38.112L64.6651 55.3843L64.8026 55.466ZM64.1282 55.466C64.2801 55.722 64.6507 55.722 64.8026 55.466L64.6651 55.3843C64.5751 55.5359 64.3557 55.5359 64.2657 55.3843L64.1282 55.466ZM53.8722 38.1937L64.1282 55.466L64.2657 55.3843L54.0097 38.112L53.8722 38.1937ZM53.6725 38.08C53.7544 38.08 53.8303 38.1232 53.8722 38.1937L54.0097 38.112C53.9391 37.993 53.8109 37.92 53.6725 37.92V38.08ZM33.1642 56.4195C33.1642 56.6361 33.3398 56.8117 33.5564 56.8117V56.6517C33.4282 56.6517 33.3242 56.5477 33.3242 56.4195H33.1642ZM32.932 51.8166C33.0603 51.8166 33.1642 51.9205 33.1642 52.0488H33.3242C33.3242 51.8322 33.1486 51.6566 32.932 51.6566V51.8166ZM28.1688 51.4244C28.1688 51.641 28.3444 51.8166 28.5611 51.8166V51.6566C28.4328 51.6566 28.3288 51.5526 28.3288 51.4244H28.1688ZM28.1688 39.561L28.1688 51.4244L28.3288 51.4244L28.3288 39.561L28.1688 39.561ZM28.5611 39.1688C28.3445 39.1688 28.1688 39.3444 28.1688 39.561H28.3288C28.3288 39.4327 28.4328 39.3288 28.5611 39.3288V39.1688ZM53.0465 39.1688H28.5611V39.3288H53.0465V39.1688ZM53.3852 39.3634C53.315 39.2429 53.186 39.1688 53.0465 39.1688V39.3288C53.129 39.3288 53.2054 39.3726 53.247 39.444L53.3852 39.3634ZM63.2199 56.2219L53.3852 39.3634L53.247 39.444L63.0817 56.3025L63.2199 56.2219ZM62.8811 56.8117C63.1838 56.8117 63.3724 56.4834 63.2199 56.2219L63.0817 56.3025C63.172 56.4573 63.0603 56.6517 62.8811 56.6517V56.8117ZM62.148 56.8117H62.8811V56.6517H62.148V56.8117ZM61.8083 56.6155C61.8784 56.7369 62.0079 56.8117 62.148 56.8117V56.6517C62.065 56.6517 61.9884 56.6074 61.9469 56.5355L61.8083 56.6155ZM52.6222 40.6937L61.8083 56.6155L61.9469 56.5355L52.7608 40.6138L52.6222 40.6937ZM52.421 40.5776C52.504 40.5776 52.5807 40.6218 52.6222 40.6937L52.7608 40.6138C52.6907 40.4924 52.5612 40.4176 52.421 40.4176V40.5776ZM29.5777 40.8098C29.5777 40.6815 29.6817 40.5776 29.8099 40.5776V40.4176C29.5933 40.4176 29.4177 40.5931 29.4177 40.8098H29.5777ZM29.5777 50.1756V40.8098H29.4177V50.1756H29.5777ZM29.8099 50.4078C29.6817 50.4078 29.5777 50.3038 29.5777 50.1756H29.4177C29.4177 50.3922 29.5933 50.5678 29.8099 50.5678V50.4078ZM34.1809 50.4078H29.8099V50.5678H34.1809V50.4078ZM34.5731 50.8C34.5731 50.5834 34.3975 50.4078 34.1809 50.4078V50.5678C34.3091 50.5678 34.4131 50.6718 34.4131 50.8H34.5731ZM34.5731 56.4195V50.8H34.4131V56.4195H34.5731ZM34.1809 56.8117C34.3975 56.8117 34.5731 56.6361 34.5731 56.4195H34.4131C34.4131 56.5477 34.3091 56.6517 34.1809 56.6517V56.8117ZM33.5564 56.8117H34.1809V56.6517H33.5564V56.8117ZM47.6924 56.8117C47.9935 56.8117 48.1823 56.4864 48.0329 56.2249L47.894 56.3043C47.9825 56.4591 47.8707 56.6517 47.6924 56.6517V56.8117ZM46.0449 56.8117H47.6924V56.6517H46.0449V56.8117ZM45.6527 56.4195C45.6527 56.6361 45.8283 56.8117 46.0449 56.8117V56.6517C45.9167 56.6517 45.8127 56.5477 45.8127 56.4195H45.6527ZM45.6527 52.361V56.4195H45.8127V52.361H45.6527ZM45.738 52.2811C45.7523 52.2821 45.7879 52.2896 45.8053 52.3276C45.8209 52.3616 45.809 52.3939 45.7941 52.4119C45.7861 52.4216 45.772 52.4337 45.751 52.4386C45.727 52.4443 45.7012 52.4386 45.6816 52.4224C45.6647 52.4084 45.6583 52.3916 45.6558 52.3829C45.6531 52.3735 45.6527 52.3656 45.6527 52.361H45.8127C45.8127 52.3563 45.8123 52.3483 45.8096 52.3388C45.8071 52.3301 45.8006 52.3132 45.7837 52.2992C45.764 52.2829 45.7382 52.2772 45.7142 52.2829C45.6932 52.2879 45.6791 52.3 45.671 52.3097C45.656 52.3277 45.6442 52.3601 45.6598 52.3942C45.6772 52.4322 45.7129 52.4398 45.7274 52.4408L45.738 52.2811ZM48.0329 56.2249L45.8022 52.3213L45.6632 52.4007L47.894 56.3043L48.0329 56.2249ZM95.6066 56.4195C95.6066 56.5477 95.5026 56.6517 95.3744 56.6517V56.8117C95.591 56.8117 95.7666 56.6361 95.7666 56.4195H95.6066ZM95.9988 51.6566C95.7822 51.6566 95.6066 51.8322 95.6066 52.0488H95.7666C95.7666 51.9205 95.8705 51.8166 95.9988 51.8166V51.6566ZM100.602 51.4244C100.602 51.5526 100.498 51.6566 100.37 51.6566V51.8166C100.586 51.8166 100.762 51.641 100.762 51.4244H100.602ZM100.602 39.561V51.4244H100.762V39.561H100.602ZM100.37 39.3288C100.498 39.3288 100.602 39.4327 100.602 39.561H100.762C100.762 39.3444 100.586 39.1688 100.37 39.1688V39.3288ZM75.8843 39.3288H100.37V39.1688H75.8843V39.3288ZM75.6838 39.444C75.7254 39.3726 75.8018 39.3288 75.8843 39.3288V39.1688C75.7449 39.1688 75.6159 39.2429 75.5456 39.3634L75.6838 39.444ZM65.8491 56.3025L75.6838 39.444L75.5456 39.3634L65.7109 56.2219L65.8491 56.3025ZM66.0497 56.6517C65.8705 56.6517 65.7588 56.4573 65.8491 56.3025L65.7109 56.2219C65.5584 56.4834 65.747 56.8117 66.0497 56.8117V56.6517ZM66.7828 56.6517H66.0497V56.8117H66.7828V56.6517ZM66.9839 56.5355C66.9424 56.6074 66.8658 56.6517 66.7828 56.6517V56.8117C66.9229 56.8117 67.0525 56.7369 67.1225 56.6155L66.9839 56.5355ZM76.17 40.6138L66.9839 56.5355L67.1225 56.6155L76.3086 40.6937L76.17 40.6138ZM76.5098 40.4176C76.3696 40.4176 76.2401 40.4924 76.17 40.6138L76.3086 40.6937C76.3501 40.6218 76.4268 40.5776 76.5098 40.5776V40.4176ZM99.5131 40.8098C99.5131 40.5931 99.3375 40.4176 99.1209 40.4176V40.5776C99.2492 40.5776 99.3531 40.6815 99.3531 40.8098H99.5131ZM99.5131 50.1756V40.8098H99.3531V50.1756H99.5131ZM99.1209 50.5678C99.3375 50.5678 99.5131 50.3922 99.5131 50.1756H99.3531C99.3531 50.3038 99.2492 50.4078 99.1209 50.4078V50.5678ZM94.7499 50.5678H99.1209V50.4078H94.7499V50.5678ZM94.5177 50.8C94.5177 50.6718 94.6217 50.5678 94.7499 50.5678V50.4078C94.5333 50.4078 94.3577 50.5834 94.3577 50.8H94.5177ZM94.5177 56.4195V50.8H94.3577V56.4195H94.5177ZM94.7499 56.6517C94.6217 56.6517 94.5177 56.5477 94.5177 56.4195H94.3577C94.3577 56.6361 94.5333 56.8117 94.7499 56.8117V56.6517ZM95.3744 56.6517H94.7499V56.8117H95.3744V56.6517ZM81.2384 56.6517C81.0601 56.6517 80.9483 56.4591 81.0368 56.3043L80.8979 56.2249C80.7485 56.4864 80.9373 56.8117 81.2384 56.8117V56.6517ZM82.8859 56.6517H81.2384V56.8117H82.8859V56.6517ZM83.1181 56.4195C83.1181 56.5477 83.0141 56.6517 82.8859 56.6517V56.8117C83.1025 56.8117 83.2781 56.6361 83.2781 56.4195H83.1181ZM83.1181 52.361V56.4195H83.2781V52.361H83.1181ZM83.273 52.3849C83.2664 52.4054 83.2509 52.4246 83.2275 52.4342C83.2063 52.4429 83.1862 52.4408 83.1722 52.4361C83.1458 52.4273 83.1181 52.4009 83.1181 52.361H83.2781C83.2781 52.3203 83.2498 52.2933 83.2228 52.2843C83.2085 52.2795 83.1881 52.2774 83.1667 52.2862C83.143 52.2959 83.1272 52.3153 83.1206 52.3362L83.273 52.3849ZM83.133 52.3145C83.1561 52.2821 83.1938 52.2767 83.2203 52.2847C83.2343 52.2889 83.252 52.2987 83.2643 52.318C83.2779 52.3393 83.2796 52.3639 83.2731 52.3845L83.1204 52.3366C83.1139 52.3575 83.1156 52.3825 83.1294 52.4041C83.1418 52.4236 83.1597 52.4335 83.1741 52.4379C83.2012 52.446 83.2396 52.4405 83.2632 52.4075L83.133 52.3145ZM81.0368 56.3043L83.2676 52.4007L83.1286 52.3213L80.8979 56.2249L81.0368 56.3043ZM101.619 68.0507C101.835 68.0507 102.011 67.8751 102.011 67.6585H101.851C101.851 67.7868 101.747 67.8907 101.619 67.8907V68.0507ZM97.2476 68.0507H101.619V67.8907H97.2476V68.0507ZM97.0154 68.2829C97.0154 68.1547 97.1194 68.0507 97.2476 68.0507V67.8907C97.031 67.8907 96.8554 68.0663 96.8554 68.2829H97.0154ZM97.0154 73.9024V68.2829H96.8554V73.9024H97.0154ZM97.2476 74.1346C97.1194 74.1346 97.0154 74.0307 97.0154 73.9024H96.8554C96.8554 74.119 97.031 74.2946 97.2476 74.2946V74.1346ZM101.619 74.1346H97.2476V74.2946H101.619V74.1346ZM102.011 74.5268C102.011 74.3102 101.835 74.1346 101.619 74.1346V74.2946C101.747 74.2946 101.851 74.3986 101.851 74.5268H102.011ZM101.619 89.28C101.835 89.28 102.011 89.1044 102.011 88.8878H101.851C101.851 89.016 101.747 89.12 101.619 89.12V89.28ZM75.625 88.8878C75.625 89.1044 75.8006 89.28 76.0172 89.28V89.12C75.889 89.12 75.785 89.016 75.785 88.8878H75.625ZM76.0172 74.1346C75.8006 74.1346 75.625 74.3102 75.625 74.5268H75.785C75.785 74.3986 75.889 74.2946 76.0172 74.2946V74.1346ZM80.3882 74.1346H76.0172V74.2946H80.3882V74.1346ZM80.6204 73.9024C80.6204 74.0307 80.5165 74.1346 80.3882 74.1346V74.2946C80.6048 74.2946 80.7804 74.119 80.7804 73.9024H80.6204ZM80.6204 68.2829V73.9024H80.7804V68.2829H80.6204ZM80.3882 68.0507C80.5165 68.0507 80.6204 68.1547 80.6204 68.2829H80.7804C80.7804 68.0663 80.6048 67.8907 80.3882 67.8907V68.0507ZM73.9968 68.0507H80.3882V67.8907H73.9968V68.0507ZM73.8049 68.1521C73.8481 68.0887 73.92 68.0507 73.9968 68.0507V67.8907C73.8671 67.8907 73.7458 67.9548 73.6727 68.062L73.8049 68.1521ZM64.7895 81.3741L73.8049 68.1521L73.6727 68.062L64.6573 81.2839L64.7895 81.3741ZM64.1413 81.3741C64.297 81.6024 64.6338 81.6024 64.7895 81.3741L64.6573 81.2839C64.5651 81.4191 64.3657 81.4191 64.2735 81.2839L64.1413 81.3741ZM55.1259 68.1521L64.1413 81.3741L64.2735 81.2839L55.2581 68.062L55.1259 68.1521ZM54.934 68.0507C55.0108 68.0507 55.0827 68.0887 55.1259 68.1521L55.2581 68.062C55.185 67.9548 55.0637 67.8907 54.934 67.8907V68.0507ZM48.5426 68.0507H54.934V67.8907H48.5426V68.0507ZM48.3104 68.2829C48.3104 68.1547 48.4144 68.0507 48.5426 68.0507V67.8907C48.326 67.8907 48.1504 68.0663 48.1504 68.2829H48.3104ZM48.3104 73.9024V68.2829H48.1504V73.9024H48.3104ZM48.5426 74.1346C48.4144 74.1346 48.3104 74.0307 48.3104 73.9024H48.1504C48.1504 74.119 48.326 74.2946 48.5426 74.2946V74.1346ZM52.9136 74.1346H48.5426V74.2946H52.9136V74.1346ZM53.3058 74.5268C53.3058 74.3102 53.1302 74.1346 52.9136 74.1346V74.2946C53.0418 74.2946 53.1458 74.3986 53.1458 74.5268H53.3058ZM52.9136 89.28C53.1302 89.28 53.3058 89.1044 53.3058 88.8878H53.1458C53.1458 89.016 53.0418 89.12 52.9136 89.12V89.28ZM26.92 88.8878C26.92 89.1044 27.0956 89.28 27.3122 89.28V89.12C27.184 89.12 27.08 89.016 27.08 88.8878H26.92ZM27.3122 74.1346C27.0956 74.1346 26.92 74.3102 26.92 74.5268H27.08C27.08 74.3986 27.184 74.2946 27.3122 74.2946V74.1346ZM31.6832 74.1346H27.3122V74.2946H31.6832V74.1346ZM31.9154 73.9024C31.9154 74.0307 31.8114 74.1346 31.6832 74.1346V74.2946C31.8998 74.2946 32.0754 74.119 32.0754 73.9024H31.9154ZM31.9154 68.2829V73.9024H32.0754V68.2829H31.9154ZM31.6832 68.0507C31.8114 68.0507 31.9154 68.1547 31.9154 68.2829H32.0754C32.0754 68.0663 31.8998 67.8907 31.6832 67.8907V68.0507ZM27.3122 68.0507H31.6832V67.8907H27.3122V68.0507ZM26.92 67.6585C26.92 67.8751 27.0956 68.0507 27.3122 68.0507V67.8907C27.184 67.8907 27.08 67.7868 27.08 67.6585H26.92ZM26.92 67.0341V67.6585H27.08V67.0341H26.92ZM27.3122 66.642C27.0956 66.642 26.92 66.8175 26.92 67.0341H27.08C27.08 66.9059 27.184 66.802 27.3122 66.802V66.642ZM102.011 67.0341C102.011 66.8175 101.835 66.642 101.619 66.642V66.802C101.747 66.802 101.851 66.9059 101.851 67.0341H102.011ZM102.011 67.6585V67.0341H101.851V67.6585H102.011ZM71.5012 67.8907C71.37 67.8907 71.2476 67.9563 71.1748 68.0654L71.3079 68.1541C71.351 68.0895 71.4235 68.0507 71.5012 68.0507V67.8907ZM71.9967 67.8907H71.5012V68.0507H71.9967V67.8907ZM72.3222 68.5018C72.4974 68.2412 72.3107 67.8907 71.9967 67.8907V68.0507C72.1826 68.0507 72.2932 68.2583 72.1894 68.4125L72.3222 68.5018ZM64.7909 79.7016L72.3222 68.5018L72.1894 68.4125L64.6581 79.6123L64.7909 79.7016ZM64.1399 79.7016C64.2954 79.9328 64.6355 79.9328 64.7909 79.7016L64.6581 79.6123C64.5661 79.7492 64.3647 79.7492 64.2727 79.6123L64.1399 79.7016ZM56.6086 68.5018L64.1399 79.7016L64.2727 79.6123L56.7414 68.4125L56.6086 68.5018ZM56.9341 67.8907C56.6201 67.8907 56.4334 68.2412 56.6086 68.5018L56.7414 68.4125C56.6376 68.2583 56.7482 68.0507 56.9341 68.0507V67.8907ZM57.4297 67.8907H56.9341V68.0507H57.4297V67.8907ZM57.756 68.0654C57.6833 67.9563 57.5608 67.8907 57.4297 67.8907V68.0507C57.5073 68.0507 57.5798 68.0895 57.6229 68.1541L57.756 68.0654ZM64.2722 77.8392L57.756 68.0654L57.6229 68.1541L64.1391 77.9279L64.2722 77.8392ZM64.6586 77.8392C64.5667 77.977 64.3641 77.977 64.2722 77.8392L64.1391 77.9279C64.2943 78.1608 64.6365 78.1608 64.7917 77.9279L64.6586 77.8392ZM71.1748 68.0654L64.6586 77.8392L64.7917 77.9279L71.3079 68.1541L71.1748 68.0654ZM81.637 75.5434C81.8537 75.5434 82.0293 75.3678 82.0293 75.1512H81.8693C81.8693 75.2795 81.7653 75.3834 81.637 75.3834V75.5434ZM77.2661 75.5434H81.637V75.3834H77.2661V75.5434ZM77.0339 75.7756C77.0339 75.6474 77.1378 75.5434 77.2661 75.5434V75.3834C77.0495 75.3834 76.8739 75.559 76.8739 75.7756H77.0339ZM77.0339 87.639V75.7756H76.8739V87.639H77.0339ZM77.2661 87.8712C77.1378 87.8712 77.0339 87.7673 77.0339 87.639H76.8739C76.8739 87.8556 77.0495 88.0312 77.2661 88.0312V87.8712ZM100.37 87.8712H77.2661V88.0312H100.37V87.8712ZM100.602 87.639C100.602 87.7673 100.498 87.8712 100.37 87.8712V88.0312C100.586 88.0312 100.762 87.8556 100.762 87.639H100.602ZM100.602 75.7756V87.639H100.762V75.7756H100.602ZM100.37 75.5434C100.498 75.5434 100.602 75.6474 100.602 75.7756H100.762C100.762 75.559 100.586 75.3834 100.37 75.3834V75.5434ZM95.6066 75.1512C95.6066 75.3678 95.7822 75.5434 95.9988 75.5434V75.3834C95.8705 75.3834 95.7666 75.2795 95.7666 75.1512H95.6066ZM95.6066 68.2829V75.1512H95.7666V68.2829H95.6066ZM95.3744 68.0507C95.5026 68.0507 95.6066 68.1547 95.6066 68.2829H95.7666C95.7666 68.0663 95.591 67.8907 95.3744 67.8907V68.0507ZM94.7499 68.0507H95.3744V67.8907H94.7499V68.0507ZM94.5177 68.2829C94.5177 68.1547 94.6217 68.0507 94.7499 68.0507V67.8907C94.5333 67.8907 94.3577 68.0663 94.3577 68.2829H94.5177ZM94.5177 76.4V68.2829H94.3577V76.4H94.5177ZM94.7499 76.6322C94.6217 76.6322 94.5177 76.5282 94.5177 76.4H94.3577C94.3577 76.6166 94.5333 76.7922 94.7499 76.7922V76.6322ZM99.1209 76.6322H94.7499V76.7922H99.1209V76.6322ZM99.5131 77.0244C99.5131 76.8078 99.3375 76.6322 99.1209 76.6322V76.7922C99.2492 76.7922 99.3531 76.8962 99.3531 77.0244H99.5131ZM99.5131 86.3902V77.0244H99.3531V86.3902H99.5131ZM99.1209 86.7824C99.3375 86.7824 99.5131 86.6069 99.5131 86.3902H99.3531C99.3531 86.5185 99.2492 86.6224 99.1209 86.6224V86.7824ZM78.1227 86.3902C78.1227 86.6069 78.2983 86.7824 78.5149 86.7824V86.6224C78.3867 86.6224 78.2827 86.5185 78.2827 86.3902H78.1227ZM78.1227 77.0244V86.3902H78.2827V77.0244H78.1227ZM78.5149 76.6322C78.2983 76.6322 78.1227 76.8078 78.1227 77.0244H78.2827C78.2827 76.8962 78.3867 76.7922 78.5149 76.7922V76.6322ZM82.8859 76.6322H78.5149V76.7922H82.8859V76.6322ZM83.1181 76.4C83.1181 76.5282 83.0141 76.6322 82.8859 76.6322V76.7922C83.1025 76.7922 83.2781 76.6166 83.2781 76.4H83.1181ZM83.1181 68.2829V76.4H83.2781V68.2829H83.1181ZM82.8859 68.0507C83.0141 68.0507 83.1181 68.1547 83.1181 68.2829H83.2781C83.2781 68.0663 83.1025 67.8907 82.8859 67.8907V68.0507ZM82.2615 68.0507H82.8859V67.8907H82.2615V68.0507ZM82.0293 68.2829C82.0293 68.1547 82.1332 68.0507 82.2615 68.0507V67.8907C82.0449 67.8907 81.8693 68.0663 81.8693 68.2829H82.0293ZM47.2938 75.3834C47.1655 75.3834 47.0615 75.2795 47.0615 75.1512H46.9015C46.9015 75.3678 47.0772 75.5434 47.2938 75.5434V75.3834ZM51.6647 75.3834H47.2938V75.5434H51.6647V75.3834ZM52.0569 75.7756C52.0569 75.559 51.8813 75.3834 51.6647 75.3834V75.5434C51.793 75.5434 51.8969 75.6474 51.8969 75.7756H52.0569ZM52.0569 87.639V75.7756H51.8969V87.639H52.0569ZM51.6647 88.0312C51.8813 88.0312 52.0569 87.8556 52.0569 87.639H51.8969C51.8969 87.7673 51.793 87.8712 51.6647 87.8712V88.0312ZM28.5611 88.0312H51.6647V87.8712H28.5611V88.0312ZM28.1688 87.639C28.1688 87.8556 28.3444 88.0312 28.5611 88.0312V87.8712C28.4328 87.8712 28.3288 87.7673 28.3288 87.639H28.1688ZM28.1688 75.7756V87.639H28.3288V75.7756H28.1688ZM28.5611 75.3834C28.3444 75.3834 28.1688 75.559 28.1688 75.7756H28.3288C28.3288 75.6474 28.4328 75.5434 28.5611 75.5434V75.3834ZM33.1642 75.1512C33.1642 75.2795 33.0603 75.3834 32.932 75.3834V75.5434C33.1486 75.5434 33.3242 75.3678 33.3242 75.1512H33.1642ZM33.1642 68.2829V75.1512H33.3242V68.2829H33.1642ZM33.5564 67.8907C33.3398 67.8907 33.1642 68.0663 33.1642 68.2829H33.3242C33.3242 68.1547 33.4282 68.0507 33.5564 68.0507V67.8907ZM34.1809 67.8907H33.5564V68.0507H34.1809V67.8907ZM34.5731 68.2829C34.5731 68.0663 34.3975 67.8907 34.1809 67.8907V68.0507C34.3091 68.0507 34.4131 68.1547 34.4131 68.2829H34.5731ZM34.5731 76.4V68.2829H34.4131V76.4H34.5731ZM34.1809 76.7922C34.3975 76.7922 34.5731 76.6166 34.5731 76.4H34.4131C34.4131 76.5282 34.3091 76.6322 34.1809 76.6322V76.7922ZM29.8099 76.7922H34.1809V76.6322H29.8099V76.7922ZM29.5777 77.0244C29.5777 76.8962 29.6817 76.7922 29.8099 76.7922V76.6322C29.5933 76.6322 29.4177 76.8078 29.4177 77.0244H29.5777ZM29.5777 86.3902V77.0244H29.4177V86.3902H29.5777ZM29.8099 86.6224C29.6817 86.6224 29.5777 86.5185 29.5777 86.3902H29.4177C29.4177 86.6069 29.5933 86.7824 29.8099 86.7824V86.6224ZM50.6481 86.3902C50.6481 86.5185 50.5441 86.6224 50.4159 86.6224V86.7824C50.6325 86.7824 50.8081 86.6069 50.8081 86.3902H50.6481ZM50.6481 77.0244V86.3902H50.8081V77.0244H50.6481ZM50.4159 76.7922C50.5441 76.7922 50.6481 76.8962 50.6481 77.0244H50.8081C50.8081 76.8078 50.6325 76.6322 50.4159 76.6322V76.7922ZM46.0449 76.7922H50.4159V76.6322H46.0449V76.7922ZM45.6527 76.4C45.6527 76.6166 45.8283 76.7922 46.0449 76.7922V76.6322C45.9167 76.6322 45.8127 76.5282 45.8127 76.4H45.6527ZM45.6527 68.2829V76.4H45.8127V68.2829H45.6527ZM46.0449 67.8907C45.8283 67.8907 45.6527 68.0663 45.6527 68.2829H45.8127C45.8127 68.1547 45.9167 68.0507 46.0449 68.0507V67.8907ZM46.6693 67.8907H46.0449V68.0507H46.6693V67.8907ZM47.0615 68.2829C47.0615 68.0663 46.8859 67.8907 46.6693 67.8907V68.0507C46.7976 68.0507 46.9015 68.1547 46.9015 68.2829H47.0615ZM37.3102 60.5676L37.3346 61.7139L37.4946 61.7105L37.4702 60.5642L37.3102 60.5676ZM34.4144 60.6459H37.3902V60.4859H34.4144V60.6459ZM34.4944 60.7305V60.5659H34.3344V60.7305H34.4944ZM34.9022 60.6505H34.4144V60.8105H34.9022V60.6505ZM34.9822 64.0598V60.7305H34.8222V64.0598H34.9822ZM34.4144 64.1398H34.9022V63.9798H34.4144V64.1398ZM34.4944 64.2244V64.0598H34.3344V64.2244H34.4944ZM37.3902 64.1444H34.4144V64.3044H37.3902V64.1444ZM37.3346 63.0763L37.3102 64.2227L37.4702 64.2261L37.4946 63.0798L37.3346 63.0763ZM37.256 63.158H37.4146V62.998H37.256V63.158ZM37.2102 63.4807L37.3322 63.1026L37.1799 63.0535L37.0579 63.4315L37.2102 63.4807ZM36.682 64.1057C36.9288 64.0298 37.1005 63.8099 37.21 63.4814L37.0582 63.4308C36.9563 63.7364 36.8109 63.8987 36.6349 63.9528L36.682 64.1057ZM36.4328 64.1398C36.5208 64.1398 36.6037 64.1288 36.681 64.106L36.6359 63.9525C36.575 63.9704 36.5074 63.9798 36.4328 63.9798V64.1398ZM35.6523 64.1398H36.4328V63.9798H35.6523V64.1398ZM35.5723 62.4317V64.0598H35.7323V62.4317H35.5723ZM36.8536 62.3517H35.6523V62.5117H36.8536V62.3517ZM36.7736 62.2488V62.4317H36.9336V62.2488H36.7736ZM35.6523 62.3288H36.8536V62.1688H35.6523V62.3288ZM35.5723 60.7305V62.2488H35.7323V60.7305H35.5723ZM36.4328 60.6505H35.6523V60.8105H36.4328V60.6505ZM37.1718 61.1886C37.1027 61.0159 37.0068 60.8802 36.8811 60.7879C36.7547 60.6952 36.6039 60.6505 36.4328 60.6505V60.8105C36.5748 60.8105 36.6912 60.8471 36.7864 60.9169C36.8822 60.9873 36.9622 61.0955 37.0232 61.248L37.1718 61.1886ZM37.2168 61.3112C37.2037 61.2675 37.1883 61.2257 37.1706 61.1858L37.0244 61.2508C37.0392 61.2841 37.0523 61.3195 37.0635 61.3571L37.2168 61.3112ZM37.3325 61.6888L37.2167 61.3107L37.0637 61.3576L37.1795 61.7356L37.3325 61.6888ZM37.4146 61.6322H37.256V61.7922H37.4146V61.6322ZM39.6303 64.0598V64.2244H39.7903V64.0598H39.6303ZM39.2225 64.1398H39.7103V63.9798H39.2225V64.1398ZM39.1425 62.5537V64.0598H39.3025V62.5537H39.1425ZM39.6127 62.4737H39.2225V62.6337H39.6127V62.4737ZM40.6096 64.1918L39.6828 62.515L39.5427 62.5924L40.4696 64.2692L40.6096 64.1918ZM41.5636 64.1444L40.5391 64.1505L40.5401 64.3105L41.5645 64.3044L41.5636 64.1444ZM41.4668 64.1499C41.4682 64.1502 41.4689 64.1505 41.4692 64.1507C41.4695 64.1508 41.4696 64.1509 41.4697 64.151C41.4697 64.151 41.4712 64.1521 41.4733 64.1561C41.4781 64.1655 41.4841 64.186 41.4841 64.2244H41.6441C41.6441 64.1733 41.6368 64.1237 41.6152 64.0823C41.5919 64.0374 41.5534 64.0057 41.5028 63.994L41.4668 64.1499ZM41.4116 64.1459C41.4315 64.1459 41.4515 64.1475 41.4716 64.1509L41.4979 63.993C41.4693 63.9883 41.4405 63.9859 41.4116 63.9859V64.1459ZM41.2836 64.1459H41.4116V63.9859H41.2836V64.1459ZM40.2578 62.5281L41.2152 64.1073L41.352 64.0244L40.3946 62.4451L40.2578 62.5281ZM41.0433 61.8019C40.9403 62.1 40.7014 62.3045 40.3057 62.4092L40.3467 62.5639C40.7803 62.4491 41.0699 62.2146 41.1945 61.8542L41.0433 61.8019ZM41.0877 61.5232C41.0877 61.6161 41.0729 61.7095 41.0427 61.8037L41.1951 61.8524C41.23 61.7433 41.2477 61.6335 41.2477 61.5232H41.0877ZM40.7202 60.8576C40.9683 61.0267 41.0877 61.2467 41.0877 61.5232H41.2477C41.2477 61.1899 41.0988 60.922 40.8103 60.7254L40.7202 60.8576ZM39.9481 60.6459C40.2565 60.6459 40.5126 60.7179 40.7206 60.8578L40.8099 60.7251C40.5707 60.5642 40.2821 60.4859 39.9481 60.4859V60.6459ZM37.9846 60.6459H39.9481V60.4859H37.9846V60.6459ZM38.0646 60.7305V60.5659H37.9046V60.7305H38.0646ZM38.4724 60.6505H37.9846V60.8105H38.4724V60.6505ZM38.5524 64.0598V60.7305H38.3924V64.0598H38.5524ZM37.9846 64.1398H38.4724V63.9798H37.9846V64.1398ZM38.0646 64.2244V64.0598H37.9046V64.2244H38.0646ZM39.7103 64.1444H37.9846V64.3044H39.7103V64.1444ZM40.3828 61.1598C40.3214 60.9953 40.2286 60.8662 40.1017 60.7789C39.9749 60.6916 39.8204 60.6505 39.6432 60.6505V60.8105C39.7954 60.8105 39.9163 60.8456 40.011 60.9107C40.1056 60.9758 40.1806 61.0754 40.233 61.2158L40.3828 61.1598ZM40.4489 61.5415C40.4489 61.4067 40.4271 61.2793 40.3829 61.16L40.2329 61.2156C40.27 61.3158 40.2889 61.4242 40.2889 61.5415H40.4489ZM40.1049 62.3196C40.3385 62.1502 40.4489 61.8846 40.4489 61.5415H40.2889C40.2889 61.8487 40.192 62.0588 40.0109 62.1901L40.1049 62.3196ZM39.6798 62.4507C39.8375 62.4507 39.9799 62.4076 40.1039 62.3203L40.0119 62.1895C39.9164 62.2566 39.8067 62.2907 39.6798 62.2907V62.4507ZM39.2225 62.4507H39.6798V62.2907H39.2225V62.4507ZM39.1425 60.7305V62.3707H39.3025V60.7305H39.1425ZM39.6432 60.6505H39.2225V60.8105H39.6432V60.6505ZM45.2989 60.6459H46.5002V60.4859H45.2989V60.6459ZM44.2078 63.341L45.3725 60.5971L45.2253 60.5346L44.0606 63.2785L44.2078 63.341ZM42.7389 60.6006L44.0621 63.3445L44.2063 63.275L42.883 60.5311L42.7389 60.6006ZM41.7865 60.6459H42.811V60.4859H41.7865V60.6459ZM41.8665 60.7305V60.5659H41.7065V60.7305H41.8665ZM42.2743 60.6505H41.7865V60.8105H42.2743V60.6505ZM42.3543 64.0598V60.7305H42.1943V64.0598H42.3543ZM41.7865 64.1398H42.2743V63.9798H41.7865V64.1398ZM41.8665 64.2244V64.0598H41.7065V64.2244H41.8665ZM43.0183 64.1444H41.7865V64.3044H43.0183V64.1444ZM42.8461 64.1394C42.8723 64.1419 42.8894 64.1507 42.9023 64.1636C42.9163 64.1776 42.9306 64.2018 42.9405 64.2431L43.0961 64.2057C43.0816 64.1454 43.0563 64.0913 43.0154 64.0504C42.9734 64.0085 42.9204 63.9857 42.8612 63.9801L42.8461 64.1394ZM42.5305 64.1398H42.8536V63.9798H42.5305V64.1398ZM42.4505 61.6634V64.0598H42.6105V61.6634H42.4505ZM43.913 64.2373L42.6019 61.6275L42.459 61.6993L43.77 64.3091L43.913 64.2373ZM43.9574 64.1932H43.8415V64.3532H43.9574V64.1932ZM45.2254 61.1196L43.8839 64.2416L44.0309 64.3048L45.3724 61.1828L45.2254 61.1196ZM45.3789 64.0598V61.1512H45.2189V64.0598H45.3789ZM44.8111 64.1398H45.2989V63.9798H44.8111V64.1398ZM44.8911 64.2244V64.0598H44.7311V64.2244H44.8911ZM46.5002 64.1444H44.8111V64.3044H46.5002V64.1444ZM46.328 64.1394C46.3542 64.1419 46.3713 64.1507 46.3842 64.1636C46.3981 64.1776 46.4125 64.2018 46.4224 64.2431L46.578 64.2057C46.5635 64.1454 46.5382 64.0913 46.4973 64.0504C46.4553 64.0085 46.4022 63.9857 46.3431 63.9801L46.328 64.1394ZM46.0124 64.1398H46.3355V63.9798H46.0124V64.1398ZM45.9324 60.7305V64.0598H46.0924V60.7305H45.9324ZM46.5002 60.6505H46.0124V60.8105H46.5002V60.6505ZM46.4202 60.5659V60.7305H46.5802V60.5659H46.4202ZM50.5049 64.1441C50.5086 64.1449 50.51 64.1459 50.5105 64.1463C50.5111 64.1467 50.5129 64.1482 50.5152 64.1526C50.5206 64.1626 50.527 64.1842 50.527 64.2244H50.687C50.687 64.1711 50.6791 64.1195 50.6561 64.0767C50.6311 64.0304 50.5906 63.9988 50.5384 63.9876L50.5049 64.1441ZM50.4545 64.1398C50.4803 64.1398 50.4952 64.1417 50.5022 64.1435L50.541 63.9882C50.5155 63.9819 50.4857 63.9798 50.4545 63.9798V64.1398ZM50.2655 64.1398H50.4545V63.9798H50.2655V64.1398ZM48.7645 60.5961L50.1914 64.09L50.3396 64.0295L48.9127 60.5356L48.7645 60.5961ZM48.4605 60.6459H48.8386V60.4859H48.4605V60.6459ZM47.1937 64.0884L48.5352 60.5945L48.3858 60.5372L47.0443 64.0311L47.1937 64.0884ZM46.7287 64.1398H47.119V63.9798H46.7287V64.1398ZM46.8087 64.2244V64.0598H46.6487V64.2244H46.8087ZM47.8385 64.1444H46.7287V64.3044H47.8385V64.1444ZM47.7364 64.1441C47.7401 64.1449 47.7415 64.1459 47.742 64.1463C47.7426 64.1467 47.7444 64.1482 47.7468 64.1526C47.7522 64.1626 47.7585 64.1842 47.7585 64.2244H47.9185C47.9185 64.1711 47.9107 64.1195 47.8876 64.0767C47.8627 64.0304 47.8221 63.9988 47.7699 63.9876L47.7364 64.1441ZM47.6861 64.1398C47.7061 64.1398 47.7231 64.1414 47.7375 64.1443L47.7689 63.9874C47.7426 63.9821 47.7149 63.9798 47.6861 63.9798V64.1398ZM47.3629 64.1398H47.6861V63.9798H47.3629V64.1398ZM47.7333 62.8606L47.2881 64.0313L47.4377 64.0882L47.8828 62.9175L47.7333 62.8606ZM49.0398 62.809H47.8081V62.969H49.0398V62.809ZM49.5717 64.0306L49.1143 62.8599L48.9653 62.9181L49.4227 64.0889L49.5717 64.0306ZM49.0764 64.1398H49.4972V63.9798H49.0764V64.1398ZM49.1564 64.2244V64.0598H48.9964V64.2244H49.1564ZM50.607 64.1444H49.0764V64.3044H50.607V64.1444ZM47.8751 62.7861H48.9667V62.6261H47.8751V62.7861ZM48.3431 61.2508L47.8004 62.6777L47.9499 62.7345L48.4926 61.3077L48.3431 61.2508ZM49.0413 62.6774L48.4925 61.2505L48.3432 61.308L48.892 62.7348L49.0413 62.6774ZM54.0125 60.6505H53.5125V60.8105H54.0125V60.6505ZM54.0925 63.2061V60.7305H53.9325V63.2061H54.0925ZM51.7437 60.6172L53.9512 63.2574L54.0739 63.1548L51.8665 60.5145L51.7437 60.6172ZM50.8355 60.6459H51.8051V60.4859H50.8355V60.6459ZM50.9155 60.7305V60.5659H50.7555V60.7305H50.9155ZM51.3234 60.6505H50.8355V60.8105H51.3234V60.6505ZM51.4034 64.0598V60.7305H51.2434V64.0598H51.4034ZM50.8355 64.1398H51.3234V63.9798H50.8355V64.1398ZM50.9155 64.2244V64.0598H50.7555V64.2244H50.9155ZM52.0917 64.1444H50.8355V64.3044H52.0917V64.1444ZM51.9195 64.1394C51.9457 64.1419 51.9628 64.1507 51.9757 64.1636C51.9897 64.1776 52.004 64.2018 52.0139 64.2431L52.1695 64.2057C52.155 64.1454 52.1297 64.0913 52.0888 64.0504C52.0468 64.0085 51.9938 63.9857 51.9346 63.9801L51.9195 64.1394ZM51.5734 64.1398H51.9271V63.9798H51.5734V64.1398ZM51.4934 61.4317V64.0598H51.6534V61.4317H51.4934ZM54.0007 64.2035L51.6347 61.3803L51.5121 61.4831L53.878 64.3063L54.0007 64.2035ZM54.2477 64.1153L53.9245 64.1763L53.9542 64.3335L54.2774 64.2725L54.2477 64.1153ZM54.1825 60.7305V64.1939H54.3425V60.7305H54.1825ZM54.7504 60.6505H54.2625V60.8105H54.7504V60.6505ZM54.6704 60.5659V60.7305H54.8304V60.5659H54.6704ZM53.5125 60.6459H54.7504V60.4859H53.5125V60.6459ZM53.5925 60.7305V60.5659H53.4325V60.7305H53.5925ZM55.8011 61.064C56.1513 60.745 56.5769 60.5849 57.0827 60.5849V60.4249C56.5396 60.4249 56.0749 60.5981 55.6934 60.9457L55.8011 61.064ZM55.248 62.3768C55.248 61.8365 55.4329 61.4012 55.8013 61.0639L55.6932 60.9459C55.2892 61.3159 55.088 61.7952 55.088 62.3768H55.248ZM55.9062 63.8198C55.4686 63.4791 55.248 63.0016 55.248 62.3768H55.088C55.088 63.0447 55.3267 63.5714 55.8079 63.946L55.9062 63.8198ZM57.0644 64.2054C56.6218 64.2054 56.2369 64.0766 55.9061 63.8197L55.808 63.9461C56.1683 64.2259 56.5882 64.3654 57.0644 64.3654V64.2054ZM58.3331 63.7208C57.9869 64.0436 57.5657 64.2054 57.0644 64.2054V64.3654C57.6038 64.3654 58.0648 64.1898 58.4422 63.8378L58.3331 63.7208ZM58.8808 62.4012C58.8808 62.9418 58.6977 63.3794 58.333 63.7209L58.4423 63.8377C58.8419 63.4637 59.0408 62.9826 59.0408 62.4012H58.8808ZM58.2058 60.9411C58.6541 61.2734 58.8808 61.756 58.8808 62.4012H59.0408C59.0408 61.7132 58.796 61.1794 58.3011 60.8126L58.2058 60.9411ZM57.0827 60.5849C57.5141 60.5849 57.8873 60.7041 58.2057 60.941L58.3012 60.8126C57.953 60.5536 57.5457 60.4249 57.0827 60.4249V60.5849ZM56.0358 63.3304C56.1099 63.6077 56.2334 63.8239 56.4114 63.9706C56.5901 64.1178 56.816 64.1885 57.0827 64.1885V64.0285C56.8453 64.0285 56.6576 63.9661 56.5131 63.8471C56.3679 63.7275 56.2586 63.5443 56.1904 63.2891L56.0358 63.3304ZM55.9356 62.4012C55.9356 62.7633 55.9684 63.0734 56.0357 63.3301L56.1905 63.2895C56.1277 63.0501 56.0956 62.7546 56.0956 62.4012H55.9356ZM56.9413 60.6081C56.6024 60.6391 56.3462 60.8127 56.1785 61.1206C56.0137 61.4233 55.9356 61.8531 55.9356 62.4012H56.0956C56.0956 61.864 56.1729 61.4655 56.3191 61.1971C56.4624 60.9338 56.6727 60.7934 56.9558 60.7675L56.9413 60.6081ZM57.0644 60.6017C57.0249 60.6017 56.9836 60.6039 56.9406 60.6082L56.9565 60.7674C56.9948 60.7636 57.0308 60.7617 57.0644 60.7617V60.6017ZM58.1371 61.6616C58.0765 61.3209 57.9593 61.0549 57.778 60.8736C57.5949 60.6905 57.3543 60.6017 57.0644 60.6017V60.7617C57.3193 60.7617 57.5167 60.8386 57.6649 60.9868C57.8149 61.1368 57.9223 61.3677 57.9796 61.6896L58.1371 61.6616ZM58.1932 62.3768C58.1932 62.1091 58.1747 61.8704 58.1371 61.6614L57.9796 61.6898C58.0152 61.8873 58.0332 62.1161 58.0332 62.3768H58.1932ZM57.3777 64.1554C57.6576 64.0809 57.8635 63.8856 57.9973 63.5846C58.1298 63.2865 58.1932 62.882 58.1932 62.3768H58.0332C58.0332 62.8717 57.9706 63.2507 57.8511 63.5196C57.7328 63.7857 57.5607 63.9411 57.3365 64.0007L57.3777 64.1554ZM57.0827 64.1885C57.1858 64.1885 57.2836 64.1778 57.3756 64.1559L57.3386 64.0002C57.2599 64.019 57.1747 64.0285 57.0827 64.0285V64.1885ZM64.2597 60.6459H65.4609V60.4859H64.2597V60.6459ZM63.1686 63.341L64.3333 60.5971L64.186 60.5346L63.0213 63.2785L63.1686 63.341ZM61.6997 60.6006L63.0229 63.3445L63.167 63.275L61.8438 60.5311L61.6997 60.6006ZM60.7473 60.6459H61.7717V60.4859H60.7473V60.6459ZM60.8273 60.7305V60.5659H60.6673V60.7305H60.8273ZM61.2351 60.6505H60.7473V60.8105H61.2351V60.6505ZM61.3151 64.0598V60.7305H61.1551V64.0598H61.3151ZM60.7473 64.1398H61.2351V63.9798H60.7473V64.1398ZM60.8273 64.2244V64.0598H60.6673V64.2244H60.8273ZM61.9791 64.1444H60.7473V64.3044H61.9791V64.1444ZM61.8068 64.1394C61.8331 64.1419 61.8501 64.1507 61.863 64.1636C61.877 64.1776 61.8914 64.2018 61.9013 64.2431L62.0568 64.2057C62.0424 64.1454 62.0171 64.0913 61.9762 64.0504C61.9342 64.0085 61.8811 63.9857 61.822 63.9801L61.8068 64.1394ZM61.4912 64.1398H61.8144V63.9798H61.4912V64.1398ZM61.4112 61.6634V64.0598H61.5712V61.6634H61.4112ZM62.8738 64.2373L61.5627 61.6275L61.4197 61.6993L62.7308 64.3091L62.8738 64.2373ZM62.9181 64.1932H62.8023V64.3532H62.9181V64.1932ZM64.1862 61.1196L62.8446 64.2416L62.9916 64.3048L64.3332 61.1828L64.1862 61.1196ZM64.3397 64.0598V61.1512H64.1797V64.0598H64.3397ZM63.7718 64.1398H64.2597V63.9798H63.7718V64.1398ZM63.8518 64.2244V64.0598H63.6918V64.2244H63.8518ZM65.4609 64.1444H63.7718V64.3044H65.4609V64.1444ZM65.2887 64.1394C65.315 64.1419 65.332 64.1507 65.3449 64.1636C65.3589 64.1776 65.3732 64.2018 65.3832 64.2431L65.5387 64.2057C65.5243 64.1454 65.499 64.0913 65.4581 64.0504C65.4161 64.0085 65.363 63.9857 65.3039 63.9801L65.2887 64.1394ZM64.9731 64.1398H65.2963V63.9798H64.9731V64.1398ZM64.8931 60.7305V64.0598H65.0531V60.7305H64.8931ZM65.4609 60.6505H64.9731V60.8105H65.4609V60.6505ZM65.3809 60.5659V60.7305H65.5409V60.5659H65.3809ZM69.4656 64.1441C69.4693 64.1449 69.4707 64.1459 69.4712 64.1463C69.4718 64.1467 69.4736 64.1482 69.476 64.1526C69.4814 64.1626 69.4877 64.1842 69.4877 64.2244H69.6477C69.6477 64.1711 69.6399 64.1195 69.6168 64.0767C69.5919 64.0304 69.5513 63.9988 69.4991 63.9876L69.4656 64.1441ZM69.4153 64.1398C69.4411 64.1398 69.4559 64.1417 69.463 64.1435L69.5018 63.9882C69.4763 63.9819 69.4464 63.9798 69.4153 63.9798V64.1398ZM69.2263 64.1398H69.4153V63.9798H69.2263V64.1398ZM67.7253 60.5961L69.1522 64.09L69.3003 64.0295L67.8734 60.5356L67.7253 60.5961ZM67.4213 60.6459H67.7994V60.4859H67.4213V60.6459ZM66.1544 64.0884L67.496 60.5945L67.3466 60.5372L66.0051 64.0311L66.1544 64.0884ZM65.6895 64.1398H66.0798V63.9798H65.6895V64.1398ZM65.7695 64.2244V64.0598H65.6095V64.2244H65.7695ZM66.7993 64.1444H65.6895V64.3044H66.7993V64.1444ZM66.6972 64.1441C66.7009 64.1449 66.7023 64.1459 66.7028 64.1463C66.7034 64.1467 66.7052 64.1482 66.7075 64.1526C66.7129 64.1626 66.7193 64.1842 66.7193 64.2244H66.8793C66.8793 64.1711 66.8715 64.1195 66.8484 64.0767C66.8234 64.0304 66.7829 63.9988 66.7307 63.9876L66.6972 64.1441ZM66.6469 64.1398C66.6669 64.1398 66.6839 64.1414 66.6982 64.1443L66.7296 63.9874C66.7033 63.9821 66.6756 63.9798 66.6469 63.9798V64.1398ZM66.3237 64.1398H66.6469V63.9798H66.3237V64.1398ZM66.694 62.8606L66.2489 64.0313L66.3984 64.0882L66.8436 62.9175L66.694 62.8606ZM68.0006 62.809H66.7688V62.969H68.0006V62.809ZM68.5324 64.0306L68.0751 62.8599L67.9261 62.9181L68.3834 64.0889L68.5324 64.0306ZM68.0372 64.1398H68.4579V63.9798H68.0372V64.1398ZM68.1172 64.2244V64.0598H67.9572V64.2244H68.1172ZM69.5677 64.1444H68.0372V64.3044H69.5677V64.1444ZM66.8359 62.7861H67.9274V62.6261H66.8359V62.7861ZM67.3038 61.2508L66.7611 62.6777L66.9107 62.7345L67.4534 61.3077L67.3038 61.2508ZM68.0021 62.6774L67.4533 61.2505L67.3039 61.308L67.8527 62.7348L68.0021 62.6774ZM71.4969 64.0598V64.2244H71.6569V64.0598H71.4969ZM71.089 64.1398H71.5769V63.9798H71.089V64.1398ZM71.009 62.5537V64.0598H71.169V62.5537H71.009ZM71.4793 62.4737H71.089V62.6337H71.4793V62.4737ZM72.4762 64.1918L71.5493 62.515L71.4093 62.5924L72.3362 64.2692L72.4762 64.1918ZM73.4302 64.1444L72.4057 64.1505L72.4067 64.3105L73.4311 64.3044L73.4302 64.1444ZM73.3334 64.1499C73.3347 64.1502 73.3355 64.1505 73.3358 64.1507C73.336 64.1508 73.3362 64.1509 73.3363 64.151C73.3363 64.151 73.3377 64.1521 73.3398 64.1561C73.3447 64.1655 73.3506 64.186 73.3506 64.2244H73.5106C73.5106 64.1733 73.5033 64.1237 73.4818 64.0823C73.4585 64.0374 73.42 64.0057 73.3694 63.994L73.3334 64.1499ZM73.2782 64.1459C73.2981 64.1459 73.3181 64.1475 73.3382 64.1509L73.3645 63.993C73.3358 63.9883 73.307 63.9859 73.2782 63.9859V64.1459ZM73.1501 64.1459H73.2782V63.9859H73.1501V64.1459ZM72.1244 62.5281L73.0817 64.1073L73.2185 64.0244L72.2612 62.4451L72.1244 62.5281ZM72.9099 61.8019C72.8068 62.1 72.568 62.3045 72.1723 62.4092L72.2132 62.5639C72.6469 62.4491 72.9365 62.2146 73.0611 61.8542L72.9099 61.8019ZM72.9543 61.5232C72.9543 61.6161 72.9394 61.7095 72.9093 61.8037L73.0617 61.8524C73.0966 61.7433 73.1143 61.6335 73.1143 61.5232H72.9543ZM72.5867 60.8576C72.8349 61.0267 72.9543 61.2467 72.9543 61.5232H73.1143C73.1143 61.1899 72.9654 60.922 72.6769 60.7254L72.5867 60.8576ZM71.8147 60.6459C72.1231 60.6459 72.3791 60.7179 72.5872 60.8578L72.6765 60.7251C72.4373 60.5642 72.1487 60.4859 71.8147 60.4859V60.6459ZM69.8512 60.6459H71.8147V60.4859H69.8512V60.6459ZM69.9312 60.7305V60.5659H69.7712V60.7305H69.9312ZM70.339 60.6505H69.8512V60.8105H70.339V60.6505ZM70.419 64.0598V60.7305H70.259V64.0598H70.419ZM69.8512 64.1398H70.339V63.9798H69.8512V64.1398ZM69.9312 64.2244V64.0598H69.7712V64.2244H69.9312ZM71.5769 64.1444H69.8512V64.3044H71.5769V64.1444ZM72.2494 61.1598C72.188 60.9953 72.0952 60.8662 71.9683 60.7789C71.8414 60.6916 71.687 60.6505 71.5098 60.6505V60.8105C71.6619 60.8105 71.7829 60.8456 71.8776 60.9107C71.9722 60.9758 72.0471 61.0754 72.0995 61.2158L72.2494 61.1598ZM72.3155 61.5415C72.3155 61.4067 72.2937 61.2793 72.2495 61.16L72.0995 61.2156C72.1366 61.3158 72.1555 61.4242 72.1555 61.5415H72.3155ZM71.9714 62.3196C72.205 62.1502 72.3155 61.8846 72.3155 61.5415H72.1555C72.1555 61.8487 72.0586 62.0588 71.8775 62.1901L71.9714 62.3196ZM71.5464 62.4507C71.7041 62.4507 71.8464 62.4076 71.9705 62.3203L71.8784 62.1895C71.783 62.2566 71.6732 62.2907 71.5464 62.2907V62.4507ZM71.089 62.4507H71.5464V62.2907H71.089V62.4507ZM71.009 60.7305V62.3707H71.169V60.7305H71.009ZM71.5098 60.6505H71.089V60.8105H71.5098V60.6505ZM77.0051 64.1659C77.0024 64.1651 76.9921 64.1622 76.9815 64.133C76.9702 64.1019 76.963 64.0515 76.9649 63.9764L76.805 63.9723C76.8028 64.0558 76.8099 64.1294 76.8311 64.1877C76.853 64.2479 76.8936 64.2999 76.96 64.3194L77.0051 64.1659ZM77.0923 64.1749C77.0516 64.1749 77.0232 64.1711 77.0045 64.1658L76.9606 64.3196C76.9988 64.3305 77.0435 64.3349 77.0923 64.3349V64.1749ZM77.0123 63.072V64.2549H77.1723V63.072H77.0123ZM76.9094 63.152H77.0923V62.992H76.9094V63.152ZM75.9451 64.1755C76.2022 64.1385 76.42 64.0277 76.5953 63.8436C76.7696 63.6606 76.8987 63.4087 76.9864 63.0934L76.8323 63.0505C76.7492 63.349 76.6304 63.5748 76.4795 63.7332C76.3296 63.8906 76.1449 63.9851 75.9223 64.0172L75.9451 64.1755ZM75.7264 64.1885C75.7986 64.1885 75.8708 64.1843 75.943 64.1758L75.9243 64.0169C75.8583 64.0247 75.7923 64.0285 75.7264 64.0285V64.1885ZM74.5427 62.3771C74.5447 62.9563 74.6383 63.4052 74.8342 63.7125C75.0338 64.0257 75.3348 64.1842 75.7255 64.1885L75.7273 64.0285C75.3862 64.0248 75.1374 63.8905 74.9691 63.6265C74.7971 63.3566 74.7047 62.9437 74.7027 62.3765L74.5427 62.3771ZM75.3373 60.6743C74.793 60.8885 74.5427 61.4782 74.5427 62.3768H74.7027C74.7027 61.495 74.9482 60.9993 75.3959 60.8232L75.3373 60.6743ZM75.763 60.6017C75.6122 60.6017 75.4706 60.6254 75.3391 60.6737L75.3941 60.8239C75.5065 60.7827 75.6292 60.7617 75.763 60.7617V60.6017ZM76.8298 61.3257C76.7236 61.0898 76.5814 60.9076 76.401 60.7848C76.2202 60.6617 76.0063 60.6017 75.763 60.6017V60.7617C75.979 60.7617 76.1604 60.8145 76.3109 60.917C76.4618 61.0198 76.587 61.1761 76.684 61.3914L76.8298 61.3257ZM76.9559 61.6905C76.9185 61.5578 76.8768 61.4366 76.8306 61.3274L76.6832 61.3897C76.7264 61.4918 76.766 61.6065 76.8019 61.7339L76.9559 61.6905ZM77.074 61.6322H76.8789V61.7922H77.074V61.6322ZM76.9757 60.5366L76.994 61.7134L77.154 61.711L77.1357 60.5341L76.9757 60.5366ZM76.9495 60.6616C76.954 60.6464 76.9613 60.6376 76.9732 60.6309C76.9874 60.6228 77.0129 60.6154 77.0557 60.6154V60.4554C76.9969 60.4554 76.941 60.4652 76.8943 60.4917C76.8452 60.5195 76.8119 60.5626 76.796 60.6164L76.9495 60.6616ZM76.9406 60.8159C76.9406 60.7402 76.9447 60.6875 76.9512 60.6547L76.7943 60.6233C76.7846 60.6718 76.7806 60.737 76.7806 60.8159H76.9406ZM75.6898 60.5849C76.1199 60.5849 76.4953 60.6853 76.8187 60.884L76.9025 60.7477C76.551 60.5317 76.1459 60.4249 75.6898 60.4249V60.5849ZM74.2173 61.266C74.5537 60.8136 75.0405 60.5849 75.6898 60.5849V60.4249C74.9975 60.4249 74.4598 60.6718 74.0889 61.1706L74.2173 61.266ZM73.855 62.389C73.855 61.9665 73.976 61.593 74.2175 61.2658L74.0887 61.1708C73.8262 61.5265 73.695 61.9335 73.695 62.389H73.855ZM74.3394 63.6634C74.0171 63.3217 73.855 62.8987 73.855 62.389H73.695C73.695 62.9362 73.8704 63.3994 74.223 63.7732L74.3394 63.6634ZM75.6898 64.2054C75.1276 64.2054 74.6801 64.0234 74.3393 63.6633L74.2231 63.7733C74.5978 64.1692 75.0893 64.3654 75.6898 64.3654V64.2054ZM76.8471 63.9039C76.4801 64.1012 76.0944 64.2014 75.689 64.2054L75.6906 64.3654C76.1226 64.3612 76.5337 64.2541 76.9228 64.0449L76.8471 63.9039ZM79.0999 64.1394C79.1262 64.1419 79.1432 64.1507 79.1561 64.1636C79.1701 64.1776 79.1845 64.2018 79.1944 64.2431L79.35 64.2057C79.3355 64.1454 79.3102 64.0913 79.2693 64.0504C79.2273 64.0085 79.1742 63.9857 79.1151 63.9801L79.0999 64.1394ZM78.7843 64.1398H79.1075V63.9798H78.7843V64.1398ZM78.7043 62.4317V64.0598H78.8643V62.4317H78.7043ZM80.4369 62.3517H78.7843V62.5117H80.4369V62.3517ZM80.5169 64.0598V62.4317H80.3569V64.0598H80.5169ZM79.949 64.1398H80.4369V63.9798H79.949V64.1398ZM80.029 64.2244V64.0598H79.869V64.2244H80.029ZM81.6686 64.1444H79.949V64.3044H81.6686V64.1444ZM81.5013 64.1393C81.5295 64.1424 81.5645 64.1616 81.5924 64.2488L81.7448 64.2C81.7077 64.0839 81.637 63.9934 81.5189 63.9802L81.5013 64.1393ZM81.1869 64.1398H81.5101V63.9798H81.1869V64.1398ZM81.1069 60.7305V64.0598H81.2669V60.7305H81.1069ZM81.6686 60.6505H81.1869V60.8105H81.6686V60.6505ZM81.5886 60.5659V60.7305H81.7486V60.5659H81.5886ZM79.949 60.6459H81.6686V60.4859H79.949V60.6459ZM80.029 60.7305V60.5659H79.869V60.7305H80.029ZM80.4369 60.6505H79.949V60.8105H80.4369V60.6505ZM80.5169 62.2488V60.7305H80.3569V62.2488H80.5169ZM78.7843 62.3288H80.4369V62.1688H78.7843V62.3288ZM78.7043 60.7305V62.2488H78.8643V60.7305H78.7043ZM79.2722 60.6505H78.7843V60.8105H79.2722V60.6505ZM79.1922 60.5659V60.7305H79.3522V60.5659H79.1922ZM77.5465 60.6459H79.2722V60.4859H77.5465V60.6459ZM77.6265 60.7305V60.5659H77.4665V60.7305H77.6265ZM78.0343 60.6505H77.5465V60.8105H78.0343V60.6505ZM78.1143 64.0598V60.7305H77.9543V64.0598H78.1143ZM77.5465 64.1398H78.0343V63.9798H77.5465V64.1398ZM77.6265 64.2244V64.0598H77.4665V64.2244H77.6265ZM79.2722 64.1444H77.5465V64.3044H79.2722V64.1444ZM85.0125 60.5676L85.0369 61.7139L85.1968 61.7105L85.1725 60.5642L85.0125 60.5676ZM82.1167 60.6459H85.0925V60.4859H82.1167V60.6459ZM82.1967 60.7305V60.5659H82.0367V60.7305H82.1967ZM82.6045 60.6505H82.1167V60.8105H82.6045V60.6505ZM82.6845 64.0598V60.7305H82.5245V64.0598H82.6845ZM82.1167 64.1398H82.6045V63.9798H82.1167V64.1398ZM82.1967 64.2244V64.0598H82.0367V64.2244H82.1967ZM85.0925 64.1444H82.1167V64.3044H85.0925V64.1444ZM85.0369 63.0763L85.0125 64.2227L85.1725 64.2261L85.1968 63.0798L85.0369 63.0763ZM84.9583 63.158H85.1169V62.998H84.9583V63.158ZM84.9125 63.4807L85.0345 63.1026L84.8822 63.0535L84.7602 63.4315L84.9125 63.4807ZM84.3843 64.1057C84.6311 64.0298 84.8027 63.8099 84.9123 63.4814L84.7605 63.4308C84.6586 63.7364 84.5132 63.8987 84.3372 63.9528L84.3843 64.1057ZM84.1351 64.1398C84.2231 64.1398 84.306 64.1288 84.3833 64.106L84.3382 63.9525C84.2772 63.9704 84.2097 63.9798 84.1351 63.9798V64.1398ZM83.3546 64.1398H84.1351V63.9798H83.3546V64.1398ZM83.2746 62.4317V64.0598H83.4346V62.4317H83.2746ZM84.5559 62.3517H83.3546V62.5117H84.5559V62.3517ZM84.4759 62.2488V62.4317H84.6359V62.2488H84.4759ZM83.3546 62.3288H84.5559V62.1688H83.3546V62.3288ZM83.2746 60.7305V62.2488H83.4346V60.7305H83.2746ZM84.1351 60.6505H83.3546V60.8105H84.1351V60.6505ZM84.8741 61.1886C84.805 61.0159 84.7091 60.8802 84.5834 60.7879C84.457 60.6952 84.3062 60.6505 84.1351 60.6505V60.8105C84.2771 60.8105 84.3935 60.8471 84.4887 60.9169C84.5845 60.9873 84.6645 61.0955 84.7255 61.248L84.8741 61.1886ZM84.9191 61.3112C84.906 61.2675 84.8906 61.2257 84.8729 61.1858L84.7267 61.2508C84.7415 61.2841 84.7546 61.3195 84.7658 61.3571L84.9191 61.3112ZM85.0348 61.6888L84.9189 61.3107L84.766 61.3576L84.8818 61.7356L85.0348 61.6888ZM85.1169 61.6322H84.9583V61.7922H85.1169V61.6322ZM88.0196 64.1393C88.0479 64.1424 88.0829 64.1616 88.1108 64.2488L88.2632 64.2C88.2261 64.0839 88.1554 63.9934 88.0373 63.9802L88.0196 64.1393ZM87.6138 64.1398H88.0285V63.9798H87.6138V64.1398ZM87.5338 60.7305V64.0598H87.6938V60.7305H87.5338ZM87.7968 60.6505H87.6138V60.8105H87.7968V60.6505ZM88.5047 61.1508C88.4374 60.9901 88.3449 60.8639 88.2243 60.7781C88.1031 60.6919 87.9593 60.6505 87.7968 60.6505V60.8105C87.931 60.8105 88.0412 60.8443 88.1315 60.9085C88.2223 60.9731 88.2984 61.0725 88.3572 61.2126L88.5047 61.1508ZM88.5623 61.3106C88.5453 61.2554 88.5261 61.2022 88.5048 61.1509L88.3571 61.2125C88.3764 61.2588 88.3938 61.3072 88.4094 61.3577L88.5623 61.3106ZM88.7207 61.8163L88.5622 61.3102L88.4095 61.3581L88.568 61.8642L88.7207 61.8163ZM88.8212 61.7602H88.6444V61.9202H88.8212V61.7602ZM88.7168 60.5674L88.7412 61.8418L88.9012 61.8387L88.8768 60.5643L88.7168 60.5674ZM85.6869 60.6459H88.7968V60.4859H85.6869V60.6459ZM85.7364 61.8422L85.7669 60.5678L85.6069 60.5639L85.5764 61.8383L85.7364 61.8422ZM85.8393 61.7602H85.6564V61.9202H85.8393V61.7602ZM85.9215 61.3102L85.763 61.8163L85.9157 61.8642L86.0742 61.3581L85.9215 61.3102ZM86.4443 60.6844C86.1927 60.7603 86.0229 60.9809 85.9214 61.3106L86.0743 61.3577C86.168 61.0532 86.3112 60.8917 86.4905 60.8376L86.4443 60.6844ZM86.6869 60.6505C86.5991 60.6505 86.5177 60.6615 86.4436 60.6846L86.4913 60.8373C86.5473 60.8198 86.6122 60.8105 86.6869 60.8105V60.6505ZM86.8638 60.6505H86.6869V60.8105H86.8638V60.6505ZM86.9438 64.0598V60.7305H86.7838V64.0598H86.9438ZM86.2845 64.1398H86.8638V63.9798H86.2845V64.1398ZM86.3645 64.2244V64.0598H86.2045V64.2244H86.3645ZM88.187 64.1444H86.2845V64.3044H88.187V64.1444ZM91.5715 64.1393C91.5998 64.1424 91.6348 64.1616 91.6627 64.2488L91.8151 64.2C91.778 64.0839 91.7073 63.9934 91.5892 63.9802L91.5715 64.1393ZM91.1657 64.1398H91.5804V63.9798H91.1657V64.1398ZM91.0857 60.7305V64.0598H91.2457V60.7305H91.0857ZM91.3487 60.6505H91.1657V60.8105H91.3487V60.6505ZM92.0566 61.1508C91.9893 60.9901 91.8968 60.8639 91.7762 60.7781C91.655 60.6919 91.5112 60.6505 91.3487 60.6505V60.8105C91.4829 60.8105 91.5931 60.8443 91.6834 60.9085C91.7742 60.9731 91.8503 61.0725 91.9091 61.2126L92.0566 61.1508ZM92.1142 61.3106C92.0972 61.2554 92.078 61.2022 92.0567 61.1509L91.909 61.2125C91.9283 61.2588 91.9457 61.3072 91.9613 61.3577L92.1142 61.3106ZM92.2726 61.8163L92.1141 61.3102L91.9614 61.3581L92.1199 61.8642L92.2726 61.8163ZM92.3731 61.7602H92.1963V61.9202H92.3731V61.7602ZM92.2687 60.5674L92.2931 61.8418L92.4531 61.8387L92.4287 60.5643L92.2687 60.5674ZM89.2388 60.6459H92.3487V60.4859H89.2388V60.6459ZM89.2883 61.8422L89.3188 60.5678L89.1588 60.5639L89.1283 61.8383L89.2883 61.8422ZM89.3912 61.7602H89.2083V61.9202H89.3912V61.7602ZM89.4734 61.3102L89.3149 61.8163L89.4676 61.8642L89.6261 61.3581L89.4734 61.3102ZM89.9962 60.6844C89.7446 60.7603 89.5748 60.9809 89.4733 61.3106L89.6262 61.3577C89.7199 61.0532 89.8631 60.8917 90.0424 60.8376L89.9962 60.6844ZM90.2388 60.6505C90.151 60.6505 90.0695 60.6615 89.9955 60.6846L90.0432 60.8373C90.0992 60.8198 90.1641 60.8105 90.2388 60.8105V60.6505ZM90.4157 60.6505H90.2388V60.8105H90.4157V60.6505ZM90.4957 64.0598V60.7305H90.3357V64.0598H90.4957ZM89.8364 64.1398H90.4157V63.9798H89.8364V64.1398ZM89.9164 64.2244V64.0598H89.7564V64.2244H89.9164ZM91.7389 64.1444H89.8364V64.3044H91.7389V64.1444ZM94.3442 64.1394C94.3704 64.1419 94.3875 64.1507 94.4004 64.1636C94.4144 64.1776 94.4287 64.2018 94.4386 64.2431L94.5942 64.2057C94.5797 64.1454 94.5544 64.0913 94.5135 64.0504C94.4715 64.0085 94.4185 63.9857 94.3593 63.9801L94.3442 64.1394ZM94.0286 64.1398H94.3517V63.9798H94.0286V64.1398ZM93.9486 60.7305V64.0598H94.1086V60.7305H93.9486ZM94.5164 60.6505H94.0286V60.8105H94.5164V60.6505ZM94.4364 60.5659V60.7305H94.5964V60.5659H94.4364ZM92.7907 60.6459H94.5164V60.4859H92.7907V60.6459ZM92.8707 60.7305V60.5659H92.7107V60.7305H92.8707ZM93.2785 60.6505H92.7907V60.8105H93.2785V60.6505ZM93.3585 64.0598V60.7305H93.1985V64.0598H93.3585ZM92.7907 64.1398H93.2785V63.9798H92.7907V64.1398ZM92.8707 64.2244V64.0598H92.7107V64.2244H92.8707ZM94.5164 64.1444H92.7907V64.3044H94.5164V64.1444ZM27.08 52.6732V38.3122H26.92V52.6732H27.08ZM31.6832 52.9054H27.3122V53.0654H31.6832V52.9054ZM96.6232 57.9005H32.3076V58.0605H96.6232V57.9005ZM101.619 52.9054H97.2476V53.0654H101.619V52.9054ZM101.851 38.3122V52.6732H102.011V38.3122H101.851ZM75.2583 38.08H101.619V37.92H75.2583V38.08ZM27.3122 38.08H53.6725V37.92H27.3122V38.08ZM33.1642 52.0488V56.4195H33.3242V52.0488H33.1642ZM28.5611 51.8166H32.932V51.6566H28.5611V51.8166ZM29.8099 40.5776H52.421V40.4176H29.8099V40.5776ZM95.6066 52.0488V56.4195H95.7666V52.0488H95.6066ZM100.37 51.6566H95.9988V51.8166H100.37V51.6566ZM99.1209 40.4176H76.5098V40.5776H99.1209V40.4176ZM102.011 88.8878V74.5268H101.851V88.8878H102.011ZM76.0172 89.28H101.619V89.12H76.0172V89.28ZM75.625 74.5268V88.8878H75.785V74.5268H75.625ZM53.3058 88.8878V74.5268H53.1458V88.8878H53.3058ZM27.3122 89.28H52.9136V89.12H27.3122V89.28ZM26.92 74.5268V88.8878H27.08V74.5268H26.92ZM101.619 66.642H27.3122V66.802H101.619V66.642ZM82.0293 75.1512V68.2829H81.8693V75.1512H82.0293ZM95.9988 75.5434H100.37V75.3834H95.9988V75.5434ZM78.5149 86.7824H99.1209V86.6224H78.5149V86.7824ZM47.0615 75.1512V68.2829H46.9015V75.1512H47.0615ZM32.932 75.3834H28.5611V75.5434H32.932V75.3834ZM50.4159 86.6224H29.8099V86.7824H50.4159V86.6224Z" fill="#447CCE" mask="url(#path-1-outside-1_111_22)"/>
</mask>
<g mask="url(#mask0_111_22)">
<rect x="27" y="38" width="74.9308" height="51.2" fill="#447CCE"/>
</g>
</svg>
